<?xml version="1.0" encoding="utf-8"?>
<!-- Generator: Adobe Illustrator 23.0.1, SVG Export Plug-In . SVG Version: 6.00 Build 0)  -->
<svg version="1.1" xmlns="http://www.w3.org/2000/svg" xmlns:xlink="http://www.w3.org/1999/xlink" x="0px" y="0px"
	 viewBox="0 0 100 100" style="enable-background:new 0 0 100 100;" xml:space="preserve">
<style type="text/css">
	.st0{display:none;}
	.st1{display:inline;}
	.st2{fill:#E22431;}
</style>
<g id="Calque_1" class="st0">
	
		<image style="display:inline;overflow:visible;" width="903" height="90" xlink:href="6F3AF57F.jpg"  transform="matrix(1 0 0 1 -202.6192 5.25)">
	</image>
</g>
<g id="Calque_2" class="st0">
	<g class="st1">
		<polygon class="st2" points="12.8,75.6 12.8,15.6 3.9,15.6 3.9,75.6 3.9,84.4 12.8,84.4 96.1,84.4 96.1,75.6 		"/>
		<polygon class="st2" points="86.7,46.3 86.7,25.1 65.5,25.1 72.2,31.8 54.2,49.8 50.8,46.4 42.9,38.5 17,64.4 24.9,72.3 
			42.9,54.3 46.3,57.7 54.2,65.6 54.2,65.6 62.1,57.7 62,57.7 80.1,39.7 		"/>
	</g>
</g>
<g id="Calque_3" class="st0">
</g>
<g id="Calque_4">
	<g>
		<path class="st2" d="M81.9,33.3c0-17.6-14.3-31.9-32-31.9S18.1,15.6,18.1,33.3c0,11.9,6.5,22.3,16.2,27.8v5.7
			c-1.8,0.3-3.1,1.8-3.1,3.7s1.4,3.4,3.1,3.7v1.6c-1.8,0.3-3.1,1.8-3.1,3.7s1.4,3.4,3.1,3.7v5.3c0,3.6,2.9,6.5,6.6,6.5h1
			c2,2.3,4.9,3.9,8.2,3.9h0c3.3,0,6.2-1.5,8.2-3.9h1c3.6,0,6.6-2.9,6.6-6.5V83c1.8-0.3,3.1-1.8,3.1-3.7c0-1.8-1.4-3.4-3.1-3.7v-1.6
			c1.8-0.3,3.1-1.8,3.1-3.7c0-1.8-1.4-3.4-3.1-3.7V61C75.4,55.5,81.9,45.1,81.9,33.3z M25.9,33.3C25.9,20,36.7,9.2,50,9.2
			c13.3,0,24.1,10.8,24.1,24.1c0,8.9-4.8,16.7-12,20.8c-3.6,2.1-7.7,3.2-12.1,3.2c-4.4,0-8.5-1.2-12.1-3.2
			C30.7,49.9,25.9,42.2,25.9,33.3z"/>
		<path class="st2" d="M52.2,20.6c5.8,0,10.5,4.7,10.5,10.5c0,1.2,1,2.2,2.2,2.2c1.2,0,2.2-1,2.2-2.2c0-8.2-6.7-14.9-14.9-14.9
			c-1.2,0-2.2,1-2.2,2.2C50,19.6,51,20.6,52.2,20.6z"/>
	</g>
</g>
<g id="Calque_5">
	<path class="st2" d="M164.8-37.1l-0.6-0.6c-1-1-2.7-1-3.7,0l-2.7,2.7l-4.5,4.5l-4.6-4.6l4.5-4.5l2.7-2.7c1-1,1-2.7,0-3.7l-0.6-0.6
		c-1-1-2.7-1-3.7,0l-4.9,4.9l-2.3,2.3l-1.9-1.9c0,0-0.1-0.1-0.1-0.1c-1-0.8-2.4-0.8-3.4,0.1l-3.8,3.8c-2.6,2.6-4.2,6.3-4.2,10.3
		c0,2.9,0.9,5.6,2.3,7.9l-6.2,6.2c-1,1-1,2.7,0,3.7l0.6,0.6c1,1,2.7,1,3.7,0l6.2-6.2c2.3,1.5,5,2.3,7.9,2.3c4,0,7.6-1.6,10.3-4.2
		l3.8-3.8c0.9-0.9,1-2.4,0.1-3.4c0,0-0.1-0.1-0.1-0.1l-1.9-1.9l2.3-2.3v0l4.9-4.9C165.8-34.4,165.8-36,164.8-37.1z"/>
</g>
<g id="Calque_6">
	<g>
		<path class="st2" d="M215.9-29.5h-19.2v-17.8C206.5-46.5,214.5-39.1,215.9-29.5z"/>
		<path class="st2" d="M216.1-26.3c0,4.8-1.6,9.3-4.4,12.8l-2-2L199-26.3H216.1z"/>
		<path class="st2" d="M194.5-26.3l-0.9-0.9v-17.2c-9.3,0.8-16.7,8.6-16.7,18.1c0,10,8.2,18.2,18.2,18.2c4.9,0,9.3-1.9,12.5-5
			L194.5-26.3z"/>
	</g>
</g>
</svg>
