<?xml version="1.0" encoding="utf-8"?>
<!-- Generator: Adobe Illustrator 23.0.1, SVG Export Plug-In . SVG Version: 6.00 Build 0)  -->
<svg version="1.1" id="Calque_1" xmlns="http://www.w3.org/2000/svg" xmlns:xlink="http://www.w3.org/1999/xlink" x="0px" y="0px"
	 viewBox="0 0 24 24" style="enable-background:new 0 0 24 24;" xml:space="preserve">
<style type="text/css">
	.st0{fill:none;stroke:#E22230;stroke-width:2;stroke-linecap:round;stroke-linejoin:round;}
</style>
<path class="st0" d="M18,3c-1.7,0-3,1.3-3,3v12c0,1.7,1.3,3,3,3s3-1.3,3-3s-1.3-3-3-3H6c-1.7,0-3,1.3-3,3s1.3,3,3,3s3-1.3,3-3V6
	c0-1.7-1.3-3-3-3S3,4.3,3,6s1.3,3,3,3h12c1.7,0,3-1.3,3-3S19.7,3,18,3z"/>
</svg>
