<?xml version="1.0" encoding="utf-8"?>
<!-- Generator: Adobe Illustrator 23.0.1, SVG Export Plug-In . SVG Version: 6.00 Build 0)  -->
<svg version="1.1" xmlns="http://www.w3.org/2000/svg" xmlns:xlink="http://www.w3.org/1999/xlink" x="0px" y="0px"
	 viewBox="0 0 100 100" style="enable-background:new 0 0 100 100;" xml:space="preserve">
<style type="text/css">
	.st0{display:none;}
	.st1{fill:#E22431;}
</style>
<g id="Calque_1" class="st0">
	
		<image style="display:inline;overflow:visible;" width="903" height="90" xlink:href="673F641C.jpg"  transform="matrix(1 0 0 1 -202.6192 5.25)">
	</image>
</g>
<g id="Calque_2">
	<g>
		<polygon class="st1" points="12.8,75.6 12.8,15.6 3.9,15.6 3.9,75.6 3.9,84.4 12.8,84.4 96.1,84.4 96.1,75.6 		"/>
		<polygon class="st1" points="86.7,46.3 86.7,25.1 65.5,25.1 72.2,31.8 54.2,49.8 50.8,46.4 42.9,38.5 17,64.4 24.9,72.3 
			42.9,54.3 46.3,57.7 54.2,65.6 54.2,65.6 62.1,57.7 62,57.7 80.1,39.7 		"/>
	</g>
</g>
<g id="Calque_3" class="st0">
</g>
<g id="Calque_4">
	<g>
		<path class="st1" d="M115-36c0-8.7-7.1-15.8-15.8-15.8S83.4-44.7,83.4-36c0,5.9,3.2,11,8,13.8v2.8c-0.9,0.1-1.5,0.9-1.5,1.8
			s0.7,1.7,1.5,1.8v0.8c-0.9,0.1-1.5,0.9-1.5,1.8s0.7,1.7,1.5,1.8v2.6c0,1.8,1.5,3.2,3.3,3.2h0.5c1,1.2,2.4,1.9,4.1,1.9h0
			c1.6,0,3.1-0.8,4.1-1.9h0.5c1.8,0,3.3-1.5,3.3-3.2v-2.6c0.9-0.1,1.5-0.9,1.5-1.8s-0.7-1.7-1.5-1.8v-0.8c0.9-0.1,1.5-0.9,1.5-1.8
			s-0.7-1.7-1.5-1.8v-2.8C111.8-25,115-30.1,115-36z M87.2-36c0-6.6,5.3-11.9,11.9-11.9c6.6,0,11.9,5.3,11.9,11.9
			c0,4.4-2.4,8.3-5.9,10.3c-1.8,1-3.8,1.6-6,1.6c-2.2,0-4.2-0.6-6-1.6C89.6-27.7,87.2-31.6,87.2-36z"/>
		<path class="st1" d="M100.3-42.3c2.9,0,5.2,2.3,5.2,5.2c0,0.6,0.5,1.1,1.1,1.1c0.6,0,1.1-0.5,1.1-1.1c0-4.1-3.3-7.4-7.4-7.4
			c-0.6,0-1.1,0.5-1.1,1.1C99.2-42.8,99.7-42.3,100.3-42.3z"/>
	</g>
</g>
<g id="Calque_5">
	<path class="st1" d="M164.8-37.1l-0.6-0.6c-1-1-2.7-1-3.7,0l-2.7,2.7l-4.5,4.5l-4.6-4.6l4.5-4.5l2.7-2.7c1-1,1-2.7,0-3.7l-0.6-0.6
		c-1-1-2.7-1-3.7,0l-4.9,4.9l-2.3,2.3l-1.9-1.9c0,0-0.1-0.1-0.1-0.1c-1-0.8-2.4-0.8-3.4,0.1l-3.8,3.8c-2.6,2.6-4.2,6.3-4.2,10.3
		c0,2.9,0.9,5.6,2.3,7.9l-6.2,6.2c-1,1-1,2.7,0,3.7l0.6,0.6c1,1,2.7,1,3.7,0l6.2-6.2c2.3,1.5,5,2.3,7.9,2.3c4,0,7.6-1.6,10.3-4.2
		l3.8-3.8c0.9-0.9,1-2.4,0.1-3.4c0,0-0.1-0.1-0.1-0.1l-1.9-1.9l2.3-2.3v0l4.9-4.9C165.8-34.4,165.8-36,164.8-37.1z"/>
</g>
<g id="Calque_6">
	<g>
		<path class="st1" d="M215.9-29.5h-19.2v-17.8C206.5-46.5,214.5-39.1,215.9-29.5z"/>
		<path class="st1" d="M216.1-26.3c0,4.8-1.6,9.3-4.4,12.8l-2-2L199-26.3H216.1z"/>
		<path class="st1" d="M194.5-26.3l-0.9-0.9v-17.2c-9.3,0.8-16.7,8.6-16.7,18.1c0,10,8.2,18.2,18.2,18.2c4.9,0,9.3-1.9,12.5-5
			L194.5-26.3z"/>
	</g>
</g>
</svg>
