<?xml version="1.0" encoding="utf-8"?>
<!-- Generator: Adobe Illustrator 23.0.1, SVG Export Plug-In . SVG Version: 6.00 Build 0)  -->
<svg version="1.1" xmlns="http://www.w3.org/2000/svg" xmlns:xlink="http://www.w3.org/1999/xlink" x="0px" y="0px"
	 viewBox="0 0 100 100" style="enable-background:new 0 0 100 100;" xml:space="preserve">
<style type="text/css">
	.st0{display:none;}
	.st1{display:inline;}
	.st2{fill:#E22431;}
</style>
<g id="Calque_1" class="st0">
	
		<image style="display:inline;overflow:visible;" width="903" height="90" xlink:href="6E23DB6A.jpg"  transform="matrix(1 0 0 1 -202.6192 5.25)">
	</image>
</g>
<g id="Calque_2" class="st0">
	<g class="st1">
		<polygon class="st2" points="12.8,75.6 12.8,15.6 3.9,15.6 3.9,75.6 3.9,84.4 12.8,84.4 96.1,84.4 96.1,75.6 		"/>
		<polygon class="st2" points="86.7,46.3 86.7,25.1 65.5,25.1 72.2,31.8 54.2,49.8 50.8,46.4 42.9,38.5 17,64.4 24.9,72.3 
			42.9,54.3 46.3,57.7 54.2,65.6 54.2,65.6 62.1,57.7 62,57.7 80.1,39.7 		"/>
	</g>
</g>
<g id="Calque_3" class="st0">
</g>
<g id="Calque_4" class="st0">
	<g class="st1">
		<path class="st2" d="M81.9,33.3c0-17.6-14.3-31.9-32-31.9S18.1,15.6,18.1,33.3c0,11.9,6.5,22.3,16.2,27.8v5.7
			c-1.8,0.3-3.1,1.8-3.1,3.7s1.4,3.4,3.1,3.7v1.6c-1.8,0.3-3.1,1.8-3.1,3.7s1.4,3.4,3.1,3.7v5.3c0,3.6,2.9,6.5,6.6,6.5h1
			c2,2.3,4.9,3.9,8.2,3.9h0c3.3,0,6.2-1.5,8.2-3.9h1c3.6,0,6.6-2.9,6.6-6.5V83c1.8-0.3,3.1-1.8,3.1-3.7c0-1.8-1.4-3.4-3.1-3.7v-1.6
			c1.8-0.3,3.1-1.8,3.1-3.7c0-1.8-1.4-3.4-3.1-3.7V61C75.4,55.5,81.9,45.1,81.9,33.3z M25.9,33.3C25.9,20,36.7,9.2,50,9.2
			c13.3,0,24.1,10.8,24.1,24.1c0,8.9-4.8,16.7-12,20.8c-3.6,2.1-7.7,3.2-12.1,3.2c-4.4,0-8.5-1.2-12.1-3.2
			C30.7,49.9,25.9,42.2,25.9,33.3z"/>
		<path class="st2" d="M52.2,20.6c5.8,0,10.5,4.7,10.5,10.5c0,1.2,1,2.2,2.2,2.2c1.2,0,2.2-1,2.2-2.2c0-8.2-6.7-14.9-14.9-14.9
			c-1.2,0-2.2,1-2.2,2.2C50,19.6,51,20.6,52.2,20.6z"/>
	</g>
</g>
<g id="Calque_5">
	<path class="st2" d="M96.5,26.9L95,25.4c-2.5-2.5-6.7-2.5-9.2,0l-6.7,6.7l-11,11L56.9,31.8l11-11l6.7-6.7c2.5-2.5,2.5-6.7,0-9.2
		l-1.4-1.4c-2.5-2.5-6.7-2.5-9.2,0l-12,12l-5.7,5.7l-4.7-4.7c-0.1-0.1-0.2-0.2-0.3-0.3c-2.4-2.1-6-2-8.3,0.3l-9.3,9.3
		c-6.5,6.5-10.5,15.4-10.5,25.3c0,7.2,2.1,13.8,5.7,19.4L3.5,85.8c-2.5,2.5-2.5,6.7,0,9.2L5,96.5c2.5,2.5,6.7,2.5,9.2,0l15.3-15.3
		c5.6,3.6,12.2,5.7,19.4,5.7c9.9,0,18.8-4,25.3-10.5l9.3-9.3c2.3-2.3,2.4-5.9,0.3-8.3c-0.1-0.1-0.2-0.2-0.3-0.3l-4.7-4.7l5.7-5.7v0
		l12-12C99,33.6,99,29.4,96.5,26.9z"/>
</g>
<g id="Calque_6">
	<g>
		<path class="st2" d="M215.9-29.5h-19.2v-17.8C206.5-46.5,214.5-39.1,215.9-29.5z"/>
		<path class="st2" d="M216.1-26.3c0,4.8-1.6,9.3-4.4,12.8l-2-2L199-26.3H216.1z"/>
		<path class="st2" d="M194.5-26.3l-0.9-0.9v-17.2c-9.3,0.8-16.7,8.6-16.7,18.1c0,10,8.2,18.2,18.2,18.2c4.9,0,9.3-1.9,12.5-5
			L194.5-26.3z"/>
	</g>
</g>
</svg>
