<?xml version="1.0" encoding="utf-8"?>
<!-- Generator: Adobe Illustrator 23.0.1, SVG Export Plug-In . SVG Version: 6.00 Build 0)  -->
<svg version="1.1" id="Capa_1" xmlns="http://www.w3.org/2000/svg" xmlns:xlink="http://www.w3.org/1999/xlink" x="0px" y="0px"
	 viewBox="0 0 480.1 480.1" style="enable-background:new 0 0 480.1 480.1;" xml:space="preserve">
<style type="text/css">
	.st0{fill:#E22230;}
</style>
<path class="st0" d="M435.5,64.8c-2.3-1.1-4.9-1.1-7.1,0.1l-34.5,17.5l-27-46.3C357.7,18.7,339.6,7.9,320,8H186.7
	c-19.9,0-38.3,10.5-48.7,27.5l-24.8,40.3c-2.3,3.7-1.2,8.6,2.5,10.9l88,56c1.3,0.8,2.8,1.3,4.3,1.3c0.7,0,1.3-0.1,2-0.3
	c2.1-0.5,4-1.9,5-3.9l33.6-60.5l36.8,69.6l-33.5,20.1c-3,1.8-4.4,5.2-3.7,8.6c0.7,3.4,3.5,5.9,6.9,6.3l119.1,13.5c0.3,0,0.6,0,0.9,0
	c3.1,0,5.9-1.8,7.2-4.5l56.9-117.5C441.1,71.5,439.5,66.8,435.5,64.8z"/>
<path class="st0" d="M473,232.1l-25.9-51.7c-2-3.9-6.8-5.5-10.7-3.6c-0.2,0.1-0.3,0.2-0.5,0.3l-96,56c-3.8,2.2-5.1,7-3,10.8
	l33.4,60.2H296v-32c0-4.4-3.6-8-8-8c-2.3,0-4.4,0.9-5.9,2.6l-80,88c-2.6,2.9-2.8,7.2-0.4,10.3l80,104c2.7,3.5,7.7,4.2,11.2,1.5
	c2-1.5,3.1-3.8,3.1-6.3v-24h56c19.7,0.5,38-10.4,46.9-28l56-96l16.6-26.9C482.3,271.8,482.9,250,473,232.1z"/>
<path class="st0" d="M191.3,244.7l-48-104c-1.4-3-4.5-4.9-7.8-4.6l-128,8c-4.4,0.3-7.8,4.1-7.5,8.5c0.2,2.6,1.6,4.9,3.8,6.3l0,0
	l39.6,24.5l-26.4,52.9c-9.6,17.4-9.5,38.5,0.2,55.8l44.5,76.9L86,411.1c10.5,17.8,29.5,28.7,50.1,29h32c4.4,0,8-3.6,8-8V320
	c0-4.4-3.6-8-8-8h-59.8l39.9-69.2l33,12.7c4.1,1.6,8.8-0.5,10.3-4.6C192.3,248.9,192.2,246.6,191.3,244.7z"/>
</svg>
