<?xml version="1.0" encoding="utf-8"?>
<!-- Generator: Adobe Illustrator 23.0.1, SVG Export Plug-In . SVG Version: 6.00 Build 0)  -->
<svg version="1.1" id="Calque_1" xmlns="http://www.w3.org/2000/svg" xmlns:xlink="http://www.w3.org/1999/xlink" x="0px" y="0px"
	 viewBox="0 0 412 168" style="enable-background:new 0 0 412 168;" xml:space="preserve">
<style type="text/css">
	.st0{enable-background:new    ;}
	.st1{fill:#FFFFFF;}
	.st2{fill:none;}
	.st3{fill:none;stroke:#FFFFFF;stroke-width:2;}
	.st4{fill:none;stroke:#FFFFFF;stroke-width:2;stroke-linecap:round;stroke-linejoin:round;}
</style>
<g id="Groupe_7" transform="translate(-400 -710)">
	<g class="st0">
		<path class="st1" d="M650.4,763.5c-0.8,1-2,1.5-3.5,1.5c-2,0-3.2-1.3-3.2-2.9c0-1.7,1.3-2.7,3.5-2.7h3.1v-0.6
			c0-1.4-0.9-2.2-2.5-2.2c-1,0-2,0.4-3,1.1l-0.6-1c1.2-0.8,2.3-1.3,3.9-1.3c2.3,0,3.6,1.2,3.7,3.3l0,6.3h-1.4V763.5z M650.4,761.7
			v-1.1h-3c-1.6,0-2.4,0.5-2.4,1.5s0.8,1.7,2.2,1.7C648.8,763.8,650.1,763,650.4,761.7z"/>
		<path class="st1" d="M659.8,764.4c-0.7,0.5-1.4,0.7-2.1,0.7c-1.4,0-2.4-0.8-2.4-2.7V757h-1.4v-1.1h1.4v-2.5h1.4v2.5l3,0v1.2h-3
			v5.2c0,1.2,0.5,1.6,1.3,1.6c0.5,0,1-0.2,1.5-0.5L659.8,764.4z"/>
		<path class="st1" d="M670,760.8h-7.7c0.3,1.9,1.6,3,3.4,3c1.2,0,2.2-0.4,2.9-1.2l0.8,0.8c-0.9,1-2.2,1.6-3.8,1.6
			c-2.8,0-4.7-2-4.7-4.8s1.9-4.8,4.7-4.8C668.6,755.5,670.1,757.6,670,760.8z M668.7,759.7c-0.1-1.8-1.3-3-3.2-3
			c-1.8,0-3.1,1.2-3.3,3H668.7z"/>
		<path class="st1" d="M672.5,765v-13.4h1.4V765H672.5z"/>
		<path class="st1" d="M679,752.8c0,0.6-0.4,1-0.9,1s-0.9-0.4-0.9-1c0-0.6,0.4-1,0.9-1S679,752.2,679,752.8z M677.4,765v-9.5h1.4
			v9.5H677.4z"/>
		<path class="st1" d="M690.4,760.8h-7.7c0.3,1.9,1.6,3,3.4,3c1.2,0,2.2-0.4,2.9-1.2l0.8,0.8c-0.9,1-2.2,1.6-3.8,1.6
			c-2.8,0-4.7-2-4.7-4.8s1.9-4.8,4.7-4.8C689,755.5,690.5,757.6,690.4,760.8z M689.1,759.7c-0.1-1.8-1.3-3-3.2-3
			c-1.8,0-3.1,1.2-3.3,3H689.1z"/>
		<path class="st1" d="M694.2,757.6c0.6-1.4,1.8-2.1,3.4-2.2v1.4c-2,0-3.2,1.2-3.4,3.1v5h-1.4v-9.5h1.4V757.6z"/>
		<path class="st1" d="M705,756.3l-0.5,1.1c-0.7-0.5-1.7-0.8-2.6-0.8c-1.1,0-1.9,0.4-1.9,1.3c0,2.1,5.3,1,5.3,4.4
			c0,1.9-1.7,2.7-3.5,2.7c-1.4,0-2.7-0.5-3.6-1.3l0.5-1.1c0.8,0.8,2,1.2,3.2,1.2s2-0.4,2-1.3c0.1-2.3-5.3-1.1-5.2-4.5
			c0-1.8,1.6-2.6,3.3-2.6C703.1,755.5,704.2,755.8,705,756.3z"/>
		<path class="st1" d="M717.5,764.4c-0.7,0.5-1.4,0.7-2.1,0.7c-1.4,0-2.4-0.8-2.4-2.7V757h-1.4v-1.1h1.4v-2.5h1.4v2.5l3,0v1.2h-3
			v5.2c0,1.2,0.4,1.6,1.3,1.6c0.5,0,1-0.2,1.5-0.5L717.5,764.4z"/>
		<path class="st1" d="M727.6,760.8h-7.7c0.3,1.9,1.6,3,3.4,3c1.2,0,2.2-0.4,2.9-1.2l0.8,0.8c-0.9,1-2.2,1.6-3.8,1.6
			c-2.8,0-4.7-2-4.7-4.8s1.9-4.8,4.7-4.8C726.3,755.5,727.8,757.6,727.6,760.8z M726.4,759.7c-0.1-1.8-1.3-3-3.2-3
			c-1.8,0-3.1,1.2-3.3,3H726.4z"/>
		<path class="st1" d="M737.4,756.9l-0.8,1c-0.7-0.7-1.7-1.1-2.8-1.1c-2,0-3.4,1.4-3.4,3.5s1.4,3.5,3.4,3.5c1.2,0,2.3-0.4,2.9-1.2
			l0.8,0.9c-0.8,1-2.2,1.6-3.8,1.6c-2.8,0-4.7-2-4.7-4.8s2-4.8,4.7-4.8C735.3,755.5,736.6,756,737.4,756.9z"/>
		<path class="st1" d="M748.9,759.1v5.9h-1.4v-5.5c0-1.7-1-2.7-2.7-2.7c-2,0-3.2,1.4-3.2,3.5v4.7h-1.4v-13.4h1.4v6
			c0.6-1.5,1.9-2.2,3.7-2.2C747.6,755.5,748.9,756.9,748.9,759.1z"/>
		<path class="st1" d="M760.7,759.1v5.9h-1.4v-5.5c0-1.7-1-2.7-2.7-2.7c-1.9,0-3,1.2-3.2,3v5.1H752v-9.5h1.4v2.1
			c0.7-1.4,1.9-2.1,3.7-2.1C759.4,755.5,760.7,756.9,760.7,759.1z"/>
		<path class="st1" d="M765.5,752.8c0,0.6-0.4,1-0.9,1c-0.5,0-0.9-0.4-0.9-1c0-0.6,0.4-1,0.9-1C765.1,751.8,765.5,752.2,765.5,752.8
			z M763.9,765v-9.5h1.4v9.5H763.9z"/>
		<path class="st1" d="M777.4,768.5H776V763c-0.7,1.3-2,2.1-3.7,2.1c-2.7,0-4.6-2-4.6-4.8c0-2.8,1.9-4.8,4.6-4.8
			c1.7,0,3,0.8,3.7,2.1v-2.1h1.4V768.5z M776,760.3c0-2.1-1.4-3.6-3.4-3.6c-2,0-3.4,1.5-3.4,3.6c0,2.1,1.4,3.5,3.4,3.5
			C774.5,763.8,776,762.3,776,760.3z"/>
		<path class="st1" d="M789.1,765h-1.4v-2.1c-0.6,1.5-1.9,2.2-3.6,2.2c-2.2,0-3.5-1.4-3.5-3.7v-5.9h1.4v5.5c0,1.7,1,2.7,2.6,2.7
			c2,0,3.1-1.5,3.1-3.5v-4.7h1.4V765z"/>
		<path class="st1" d="M800.7,760.8H793c0.3,1.9,1.6,3,3.4,3c1.2,0,2.2-0.4,2.9-1.2l0.8,0.8c-0.9,1-2.2,1.6-3.8,1.6
			c-2.8,0-4.7-2-4.7-4.8s1.9-4.8,4.7-4.8C799.3,755.5,800.8,757.6,800.7,760.8z M799.4,759.7c-0.1-1.8-1.3-3-3.2-3
			c-1.8,0-3.1,1.2-3.3,3H799.4z"/>
		<path class="st1" d="M808.7,756.3l-0.5,1.1c-0.7-0.5-1.7-0.8-2.6-0.8c-1.1,0-1.9,0.4-1.9,1.3c0,2.1,5.3,1,5.3,4.4
			c0,1.9-1.7,2.7-3.5,2.7c-1.4,0-2.7-0.5-3.6-1.3l0.5-1.1c0.8,0.8,2,1.2,3.2,1.2s2-0.4,2-1.3c0.1-2.3-5.3-1.1-5.2-4.5
			c0-1.8,1.6-2.6,3.3-2.6C806.8,755.5,807.9,755.8,808.7,756.3z"/>
	</g>
	<g class="st0">
		<path class="st1" d="M671.4,782.8h-7.7c0.3,1.9,1.6,3,3.4,3c1.2,0,2.2-0.4,2.9-1.2l0.8,0.8c-0.9,1-2.2,1.6-3.8,1.6
			c-2.8,0-4.7-2-4.7-4.8s1.9-4.8,4.7-4.8C670,777.5,671.5,779.6,671.4,782.8z M670.1,781.7c-0.1-1.8-1.3-3-3.2-3
			c-1.8,0-3.1,1.2-3.3,3H670.1z"/>
		<path class="st1" d="M678.7,786.4c-0.7,0.5-1.4,0.7-2.1,0.7c-1.4,0-2.4-0.8-2.4-2.7V779h-1.4v-1.1h1.4v-2.5h1.4v2.5l3,0v1.2h-3
			v5.2c0,1.2,0.5,1.6,1.3,1.6c0.5,0,1-0.2,1.5-0.5L678.7,786.4z"/>
		<path class="st1" d="M693.1,778.9l-0.8,1c-0.7-0.7-1.7-1.1-2.8-1.1c-2,0-3.4,1.4-3.4,3.5s1.4,3.5,3.4,3.5c1.2,0,2.3-0.4,2.9-1.2
			l0.8,0.9c-0.8,1-2.2,1.6-3.8,1.6c-2.8,0-4.7-2-4.7-4.8s2-4.8,4.7-4.8C691,777.5,692.3,778,693.1,778.9z"/>
		<path class="st1" d="M704,782.2c0,2.8-2,4.8-4.8,4.8s-4.8-2-4.8-4.8c0-2.8,2-4.8,4.8-4.8S704,779.4,704,782.2z M695.8,782.3
			c0,2.1,1.4,3.5,3.4,3.5s3.4-1.4,3.4-3.5c0-2.1-1.4-3.5-3.4-3.5S695.8,780.2,695.8,782.3z"/>
		<path class="st1" d="M715.2,781.1v5.9h-1.4v-5.5c0-1.7-1-2.7-2.7-2.7c-1.9,0-3,1.2-3.2,3v5.1h-1.4v-9.5h1.4v2.1
			c0.7-1.4,1.9-2.1,3.7-2.1C713.9,777.5,715.2,778.9,715.2,781.1z"/>
		<path class="st1" d="M720,776.6v1.2h2.7v1.2H720v8h-1.4v-8h-1.2v-1.2h1.2v-1c0-2.1,1.5-3.2,3-3.2c0.7,0,1.5,0.2,2,0.7l-0.6,1.1
			c-0.4-0.3-1-0.5-1.4-0.5C720.7,774.9,720,775.5,720,776.6z"/>
		<path class="st1" d="M732.1,782.8h-7.7c0.3,1.9,1.6,3,3.4,3c1.2,0,2.2-0.4,2.9-1.2l0.8,0.8c-0.9,1-2.2,1.6-3.8,1.6
			c-2.8,0-4.7-2-4.7-4.8s1.9-4.8,4.7-4.8C730.8,777.5,732.3,779.6,732.1,782.8z M730.9,781.7c-0.1-1.8-1.3-3-3.2-3
			c-1.8,0-3.1,1.2-3.3,3H730.9z M726.7,775.9l2.2-2.4l1.4,0.7l-2.2,1.8H726.7z"/>
		<path class="st1" d="M736,779.6c0.6-1.4,1.8-2.1,3.4-2.2v1.4c-2,0-3.2,1.2-3.4,3.1v5h-1.4v-9.5h1.4V779.6z"/>
		<path class="st1" d="M749.4,782.8h-7.7c0.3,1.9,1.6,3,3.4,3c1.2,0,2.2-0.4,2.9-1.2l0.8,0.8c-0.9,1-2.2,1.6-3.8,1.6
			c-2.8,0-4.7-2-4.7-4.8s1.9-4.8,4.7-4.8C748.1,777.5,749.6,779.6,749.4,782.8z M748.2,781.7c-0.1-1.8-1.3-3-3.2-3
			c-1.8,0-3.1,1.2-3.3,3H748.2z"/>
		<path class="st1" d="M760.5,781.1v5.9h-1.4v-5.5c0-1.7-1-2.7-2.7-2.7c-1.9,0-3,1.2-3.2,3v5.1h-1.4v-9.5h1.4v2.1
			c0.7-1.4,1.9-2.1,3.7-2.1C759.2,777.5,760.5,778.9,760.5,781.1z"/>
		<path class="st1" d="M771,778.9l-0.8,1c-0.7-0.7-1.7-1.1-2.8-1.1c-2,0-3.4,1.4-3.4,3.5s1.4,3.5,3.4,3.5c1.2,0,2.3-0.4,2.9-1.2
			l0.8,0.9c-0.8,1-2.2,1.6-3.8,1.6c-2.8,0-4.7-2-4.7-4.8s2-4.8,4.7-4.8C768.9,777.5,770.2,778,771,778.9z"/>
		<path class="st1" d="M781.5,782.8h-7.7c0.3,1.9,1.6,3,3.4,3c1.2,0,2.2-0.4,2.9-1.2l0.8,0.8c-0.9,1-2.2,1.6-3.8,1.6
			c-2.8,0-4.7-2-4.7-4.8s1.9-4.8,4.7-4.8C780.1,777.5,781.6,779.6,781.5,782.8z M780.2,781.7c-0.1-1.8-1.3-3-3.2-3
			c-1.8,0-3.1,1.2-3.3,3H780.2z"/>
		<path class="st1" d="M789.4,778.3l-0.5,1.1c-0.7-0.5-1.7-0.8-2.6-0.8c-1.1,0-1.9,0.4-1.9,1.3c0,2.1,5.3,1,5.3,4.4
			c0,1.9-1.7,2.7-3.5,2.7c-1.3,0-2.7-0.5-3.6-1.3l0.5-1.1c0.8,0.8,2,1.2,3.2,1.2c1.1,0,2-0.4,2-1.3c0.1-2.3-5.3-1.1-5.2-4.5
			c0-1.8,1.6-2.6,3.3-2.6C787.5,777.5,788.6,777.8,789.4,778.3z"/>
	</g>
	<g class="st0">
		<path class="st1" d="M413.3,765h-1.4v-2c-0.7,1.3-2,2.1-3.6,2.1c-2.6,0-4.5-2-4.5-4.8c0-2.8,1.8-4.8,4.5-4.8
			c1.7,0,2.9,0.8,3.6,2.1v-5.9h1.4V765z M411.9,760.3c0-2.1-1.4-3.6-3.3-3.6c-2,0-3.4,1.5-3.4,3.6c0,2.1,1.4,3.5,3.4,3.5
			C410.5,763.8,411.9,762.3,411.9,760.3z"/>
		<path class="st1" d="M424.7,760.8h-7.6c0.2,1.9,1.6,3,3.4,3c1.1,0,2.1-0.4,2.9-1.2l0.8,0.8c-0.9,1-2.2,1.6-3.7,1.6
			c-2.7,0-4.6-2-4.6-4.8c0-2.8,1.9-4.8,4.6-4.8C423.4,755.5,424.8,757.6,424.7,760.8z M423.5,759.7c-0.1-1.8-1.3-3-3.1-3
			c-1.8,0-3,1.2-3.2,3H423.5z"/>
		<path class="st1" d="M434,765l-3.7-9.5h1.5l3,8l2.9-8h1.4l-3.6,9.5H434z"/>
		<path class="st1" d="M442.2,752.8c0,0.6-0.4,1-0.9,1s-0.9-0.4-0.9-1s0.4-1,0.9-1S442.2,752.2,442.2,752.8z M440.6,765v-9.5h1.4
			v9.5H440.6z"/>
		<path class="st1" d="M450.8,756.3l-0.5,1.1c-0.7-0.5-1.7-0.8-2.5-0.8c-1,0-1.8,0.4-1.8,1.3c0,2.1,5.2,1,5.2,4.4
			c0,1.9-1.6,2.7-3.4,2.7c-1.3,0-2.7-0.5-3.6-1.3l0.5-1.1c0.8,0.8,2,1.2,3.1,1.2s2-0.4,2-1.4c0.1-2.3-5.1-1.1-5.1-4.5
			c0-1.8,1.5-2.6,3.2-2.6C448.9,755.5,450,755.8,450.8,756.3z"/>
		<path class="st1" d="M454.9,752.8c0,0.6-0.4,1-0.9,1s-0.9-0.4-0.9-1s0.4-1,0.9-1S454.9,752.2,454.9,752.8z M453.3,765v-9.5h1.4
			v9.5H453.3z"/>
		<path class="st1" d="M462.8,764.4c-0.7,0.5-1.4,0.7-2.1,0.7c-1.4,0-2.4-0.8-2.4-2.7V757H457v-1.1h1.3v-2.5h1.4v2.5l2.9,0v1.2h-2.9
			v5.2c0,1.2,0.4,1.6,1.2,1.6c0.5,0,1-0.2,1.5-0.5L462.8,764.4z"/>
		<path class="st1" d="M472.7,760.8h-7.6c0.2,1.9,1.6,3,3.4,3c1.1,0,2.1-0.4,2.9-1.2l0.8,0.8c-0.9,1-2.2,1.6-3.7,1.6
			c-2.7,0-4.6-2-4.6-4.8c0-2.8,1.9-4.8,4.6-4.8C471.4,755.5,472.9,757.6,472.7,760.8z M471.5,759.7c-0.1-1.8-1.3-3-3.1-3
			c-1.8,0-3,1.2-3.2,3H471.5z"/>
		<path class="st1" d="M483.1,765h-1.4v-2.1c-0.6,1.5-1.8,2.2-3.5,2.2c-2.2,0-3.5-1.4-3.5-3.7v-5.9h1.4v5.5c0,1.7,1,2.7,2.6,2.7
			c1.9,0,3-1.5,3-3.5v-4.7h1.4V765z"/>
		<path class="st1" d="M487.8,757.6c0.6-1.4,1.8-2.1,3.3-2.2v1.4c-2,0-3.2,1.2-3.3,3.1v5h-1.4v-9.5h1.4V757.6z"/>
		<path class="st1" d="M498.4,756.3l-0.5,1.1c-0.7-0.5-1.7-0.8-2.5-0.8c-1,0-1.8,0.4-1.8,1.3c0,2.1,5.2,1,5.2,4.4
			c0,1.9-1.6,2.7-3.4,2.7c-1.3,0-2.7-0.5-3.6-1.3l0.5-1.1c0.8,0.8,2,1.2,3.1,1.2s2-0.4,2-1.4c0.1-2.3-5.1-1.1-5.1-4.5
			c0-1.8,1.5-2.6,3.2-2.6C496.6,755.5,497.6,755.8,498.4,756.3z"/>
	</g>
	<g class="st0">
		<path class="st1" d="M421.8,782.8h-7.7c0.3,1.9,1.6,3,3.4,3c1.2,0,2.2-0.4,2.9-1.2l0.8,0.8c-0.9,1-2.2,1.6-3.8,1.6
			c-2.8,0-4.7-2-4.7-4.8s1.9-4.8,4.7-4.8C420.4,777.5,422,779.6,421.8,782.8z M420.6,781.7c-0.1-1.8-1.3-3-3.2-3
			c-1.8,0-3.1,1.2-3.3,3H420.6z"/>
		<path class="st1" d="M432.9,781.1v5.9h-1.4v-5.5c0-1.7-1-2.7-2.7-2.7c-1.9,0-3,1.2-3.2,3v5.1h-1.4v-9.5h1.4v2.1
			c0.7-1.4,1.9-2.1,3.7-2.1C431.6,777.5,432.9,778.9,432.9,781.1z"/>
		<path class="st1" d="M444.7,787h-1.4v-2c-0.7,1.3-2,2.1-3.7,2.1c-2.7,0-4.6-2-4.6-4.8c0-2.8,1.9-4.8,4.6-4.8c1.7,0,3,0.8,3.7,2.1
			v-5.9h1.4V787z M443.3,782.3c0-2.1-1.4-3.6-3.4-3.6c-2,0-3.4,1.5-3.4,3.6c0,2.1,1.4,3.5,3.4,3.5
			C441.9,785.8,443.3,784.3,443.3,782.3z"/>
		<path class="st1" d="M461.4,787H460v-2.1c-0.6,1.5-1.9,2.2-3.6,2.2c-2.2,0-3.5-1.4-3.5-3.7v-5.9h1.4v5.5c0,1.7,1,2.7,2.6,2.7
			c2,0,3.1-1.5,3.1-3.5v-4.7h1.4V787z"/>
		<path class="st1" d="M470.4,778.3l-0.5,1.1c-0.7-0.5-1.7-0.8-2.6-0.8c-1.1,0-1.9,0.4-1.9,1.3c0,2.1,5.3,1,5.3,4.4
			c0,1.9-1.7,2.7-3.5,2.7c-1.4,0-2.7-0.5-3.6-1.3l0.5-1.1c0.8,0.8,2,1.2,3.2,1.2s2-0.4,2-1.3c0.1-2.3-5.3-1.1-5.2-4.5
			c0-1.8,1.6-2.6,3.3-2.6C468.5,777.5,469.6,777.8,470.4,778.3z"/>
		<path class="st1" d="M481.2,782.8h-7.7c0.3,1.9,1.6,3,3.4,3c1.2,0,2.2-0.4,2.9-1.2l0.8,0.8c-0.9,1-2.2,1.6-3.8,1.6
			c-2.8,0-4.7-2-4.7-4.8s1.9-4.8,4.7-4.8C479.8,777.5,481.3,779.6,481.2,782.8z M479.9,781.7c-0.1-1.8-1.3-3-3.2-3
			c-1.8,0-3.1,1.2-3.3,3H479.9z"/>
		<path class="st1" d="M485,779.6c0.6-1.4,1.8-2.1,3.4-2.2v1.4c-2,0-3.2,1.2-3.4,3.1v5h-1.4v-9.5h1.4V779.6z"/>
	</g>
	<g class="st0">
		<path class="st1" d="M548.5,837.3c0,2.8-1.8,4.8-4.5,4.8c-1.7,0-3-0.8-3.7-2.1v5.5h-1.4v-13h1.4v2.1c0.7-1.3,2-2.1,3.7-2.1
			C546.6,832.5,548.5,834.4,548.5,837.3z M547.1,837.2c0-2-1.4-3.5-3.4-3.5c-2,0-3.4,1.5-3.4,3.5c0,2.1,1.4,3.5,3.4,3.5
			C545.7,840.8,547.1,839.3,547.1,837.2z"/>
		<path class="st1" d="M556.8,840.5c-0.8,1-2,1.5-3.5,1.5c-2,0-3.2-1.3-3.2-2.9c0-1.7,1.3-2.7,3.5-2.7h3.1v-0.6
			c0-1.4-0.9-2.2-2.5-2.2c-1,0-2,0.4-3,1.1l-0.6-1c1.2-0.8,2.3-1.3,3.9-1.3c2.3,0,3.6,1.2,3.7,3.3l0,6.3h-1.4V840.5z M556.8,838.7
			v-1.1h-3c-1.6,0-2.4,0.5-2.4,1.5s0.8,1.7,2.2,1.7C555.2,840.8,556.5,840,556.8,838.7z"/>
		<path class="st1" d="M562.7,834.6c0.6-1.4,1.8-2.1,3.4-2.2v1.4c-2,0-3.2,1.2-3.4,3.1v5h-1.4v-9.5h1.4V834.6z"/>
		<path class="st1" d="M572.9,841.4c-0.7,0.5-1.4,0.7-2.1,0.7c-1.4,0-2.4-0.8-2.4-2.7V834H567v-1.1h1.4v-2.5h1.4v2.5l3,0v1.2h-3v5.2
			c0,1.2,0.5,1.6,1.3,1.6c0.5,0,1-0.2,1.5-0.5L572.9,841.4z"/>
		<path class="st1" d="M576.7,829.8c0,0.6-0.4,1-0.9,1c-0.5,0-0.9-0.4-0.9-1c0-0.6,0.4-1,0.9-1C576.3,828.8,576.7,829.2,576.7,829.8
			z M575.1,842v-9.5h1.4v9.5H575.1z"/>
		<path class="st1" d="M587.3,833.9l-0.8,1c-0.7-0.7-1.7-1.1-2.8-1.1c-2,0-3.4,1.4-3.4,3.5s1.4,3.5,3.4,3.5c1.2,0,2.3-0.4,2.9-1.2
			l0.8,0.9c-0.8,1-2.2,1.6-3.8,1.6c-2.8,0-4.7-2-4.7-4.8s2-4.8,4.7-4.8C585.1,832.5,586.4,833,587.3,833.9z"/>
		<path class="st1" d="M591.6,829.8c0,0.6-0.4,1-0.9,1c-0.5,0-0.9-0.4-0.9-1c0-0.6,0.4-1,0.9-1C591.2,828.8,591.6,829.2,591.6,829.8
			z M590,842v-9.5h1.4v9.5H590z"/>
		<path class="st1" d="M604.5,837.3c0,2.8-1.8,4.8-4.5,4.8c-1.7,0-3-0.8-3.7-2.1v5.5h-1.4v-13h1.4v2.1c0.7-1.3,2-2.1,3.7-2.1
			C602.6,832.5,604.5,834.4,604.5,837.3z M603.1,837.2c0-2-1.4-3.5-3.4-3.5c-2,0-3.4,1.5-3.4,3.5c0,2.1,1.4,3.5,3.4,3.5
			C601.6,840.8,603.1,839.3,603.1,837.2z"/>
		<path class="st1" d="M612.8,840.5c-0.8,1-2,1.5-3.5,1.5c-2,0-3.2-1.3-3.2-2.9c0-1.7,1.3-2.7,3.5-2.7h3.1v-0.6
			c0-1.4-0.9-2.2-2.5-2.2c-1,0-2,0.4-3,1.1l-0.6-1c1.2-0.8,2.3-1.3,3.9-1.3c2.3,0,3.6,1.2,3.7,3.3l0,6.3h-1.4V840.5z M612.8,838.7
			v-1.1h-3c-1.6,0-2.4,0.5-2.4,1.5s0.8,1.7,2.2,1.7C611.2,840.8,612.4,840,612.8,838.7z"/>
		<path class="st1" d="M626,836.1v5.9h-1.4v-5.5c0-1.7-1-2.7-2.7-2.7c-1.9,0-3,1.2-3.2,3v5.1h-1.4v-9.5h1.4v2.1
			c0.7-1.4,1.9-2.1,3.7-2.1C624.7,832.5,626,833.9,626,836.1z"/>
		<path class="st1" d="M634,841.4c-0.7,0.5-1.4,0.7-2.1,0.7c-1.4,0-2.4-0.8-2.4-2.7V834h-1.4v-1.1h1.4v-2.5h1.4v2.5l3,0v1.2h-3v5.2
			c0,1.2,0.5,1.6,1.3,1.6c0.5,0,1-0.2,1.5-0.5L634,841.4z"/>
		<path class="st1" d="M641.7,833.3l-0.5,1.1c-0.7-0.5-1.7-0.8-2.6-0.8c-1.1,0-1.9,0.4-1.9,1.3c0,2.1,5.3,1,5.3,4.4
			c0,1.9-1.7,2.7-3.5,2.7c-1.4,0-2.7-0.5-3.6-1.3l0.5-1.1c0.8,0.8,2,1.2,3.2,1.2s2-0.4,2-1.3c0.1-2.3-5.3-1.1-5.2-4.5
			c0-1.8,1.6-2.6,3.3-2.6C639.8,832.5,640.9,832.8,641.7,833.3z"/>
	</g>
	<g id="Ellipse_18" transform="translate(416 808)">
		<circle class="st2" cx="35" cy="35" r="35"/>
		<circle class="st3" cx="35" cy="35" r="34"/>
	</g>
	<g id="Ellipse_19" transform="translate(554 713)">
		<circle class="st2" cx="35" cy="35" r="35"/>
		<circle class="st3" cx="35" cy="35" r="34"/>
	</g>
	<g id="Ellipse_20" transform="translate(692 808)">
		<circle class="st2" cx="35" cy="35" r="35"/>
		<circle class="st3" cx="35" cy="35" r="34"/>
	</g>
	<line id="Ligne_6" class="st3" x1="479.5" y1="824.5" x2="560.5" y2="768.5"/>
	<line id="Ligne_7" class="st3" x1="615.5" y1="768.5" x2="697.5" y2="824.5"/>
	<g class="st0">
		<path class="st1" d="M717.4,731.5c1.7,0,2.9-0.4,3.8-1.2c0.9-0.8,1.3-1.9,1.3-3.2c0-1.4-0.4-2.5-1.2-3.3c-0.8-0.9-2-1.3-3.5-1.3
			c-1.5,0-2.7,0.4-3.6,1.3c-1,0.9-1.4,2-1.4,3.4h-1.8l0-0.1c-0.1-1.8,0.6-3.2,1.9-4.4c1.3-1.2,3-1.8,5-1.8c2,0,3.6,0.5,4.8,1.6
			s1.8,2.6,1.8,4.6c0,1.1-0.3,2.1-1,3.1c-0.7,0.9-1.5,1.6-2.7,2c1.3,0.4,2.3,1.1,3,2c0.7,0.9,1.1,2.1,1.1,3.5c0,2-0.6,3.6-1.9,4.8
			c-1.3,1.2-2.9,1.7-5,1.7c-1.9,0-3.6-0.6-5.1-1.7s-2.2-2.7-2.1-4.7l0-0.1h1.8c0,1.4,0.5,2.6,1.5,3.5s2.3,1.4,3.9,1.4
			c1.6,0,2.8-0.4,3.7-1.3s1.3-2.1,1.3-3.5c0-1.6-0.5-2.8-1.4-3.6c-1-0.8-2.3-1.2-4.1-1.2h-2.1v-1.6H717.4z"/>
		<path class="st1" d="M742.5,736c0,2.6-0.6,4.6-1.9,6.1c-1.3,1.5-3,2.2-5.2,2.2s-3.9-0.7-5.2-2.2c-1.3-1.5-1.9-3.5-1.9-6.1v-6.7
			c0-2.6,0.6-4.6,1.9-6.1s3-2.3,5.2-2.3s3.9,0.8,5.2,2.3s1.9,3.5,1.9,6.1V736z M740.6,729c0-2-0.5-3.6-1.4-4.7
			c-0.9-1.2-2.2-1.7-3.9-1.7s-3,0.6-3.9,1.8c-0.9,1.2-1.4,2.7-1.4,4.7v7.3c0,2,0.5,3.5,1.4,4.7c0.9,1.2,2.2,1.8,3.9,1.8
			c1.7,0,2.9-0.6,3.8-1.8c0.9-1.2,1.3-2.8,1.3-4.7V729z"/>
	</g>
	<g class="st0">
		<path class="st1" d="M421.9,744h-1.9v-21.1l-5.4,0.7V722l7.3-1.1V744z"/>
		<path class="st1" d="M445.3,736c0,2.6-0.6,4.6-1.9,6.1c-1.3,1.5-3,2.2-5.2,2.2s-3.9-0.7-5.2-2.2c-1.3-1.5-1.9-3.5-1.9-6.1v-6.7
			c0-2.6,0.6-4.6,1.9-6.1c1.3-1.5,3-2.3,5.2-2.3s3.9,0.8,5.2,2.3s1.9,3.5,1.9,6.1V736z M443.4,729c0-2-0.5-3.6-1.4-4.7
			c-0.9-1.2-2.2-1.7-3.9-1.7c-1.7,0-3,0.6-3.9,1.8c-0.9,1.2-1.4,2.7-1.4,4.7v7.3c0,2,0.5,3.5,1.4,4.7c0.9,1.2,2.2,1.8,3.9,1.8
			c1.7,0,2.9-0.6,3.8-1.8c0.9-1.2,1.3-2.8,1.3-4.7V729z"/>
		<path class="st1" d="M463.1,736c0,2.6-0.6,4.6-1.9,6.1c-1.3,1.5-3,2.2-5.2,2.2s-3.9-0.7-5.2-2.2c-1.3-1.5-1.9-3.5-1.9-6.1v-6.7
			c0-2.6,0.6-4.6,1.9-6.1c1.3-1.5,3-2.3,5.2-2.3s3.9,0.8,5.2,2.3s1.9,3.5,1.9,6.1V736z M461.2,729c0-2-0.5-3.6-1.4-4.7
			c-0.9-1.2-2.2-1.7-3.9-1.7c-1.7,0-3,0.6-3.9,1.8c-0.9,1.2-1.4,2.7-1.4,4.7v7.3c0,2,0.5,3.5,1.4,4.7c0.9,1.2,2.2,1.8,3.9,1.8
			c1.7,0,2.9-0.6,3.8-1.8c0.9-1.2,1.3-2.8,1.3-4.7V729z"/>
		<path class="st1" d="M466.6,725.6c0-1.3,0.4-2.4,1.2-3.3c0.8-0.9,1.9-1.4,3.2-1.4c1.3,0,2.4,0.5,3.2,1.4c0.8,0.9,1.2,2,1.2,3.3
			v1.2c0,1.3-0.4,2.4-1.2,3.3c-0.8,0.9-1.9,1.4-3.2,1.4c-1.3,0-2.4-0.5-3.3-1.4c-0.8-0.9-1.2-2-1.2-3.3V725.6z M468.1,726.8
			c0,0.9,0.3,1.7,0.8,2.3c0.5,0.6,1.3,1,2.2,1c0.9,0,1.6-0.3,2.1-1c0.5-0.6,0.8-1.4,0.8-2.3v-1.2c0-0.9-0.3-1.7-0.8-2.4
			c-0.5-0.7-1.2-1-2.2-1s-1.7,0.3-2.2,1s-0.8,1.4-0.8,2.4V726.8z M471.5,742.1l-1.2-0.8l11.1-17.8l1.2,0.8L471.5,742.1z M478,738.4
			c0-1.3,0.4-2.4,1.2-3.3c0.8-0.9,1.9-1.4,3.2-1.4c1.3,0,2.4,0.5,3.2,1.4c0.8,0.9,1.2,2,1.2,3.3v1.2c0,1.3-0.4,2.4-1.2,3.3
			c-0.8,0.9-1.9,1.4-3.2,1.4c-1.3,0-2.4-0.5-3.3-1.4c-0.8-0.9-1.2-2-1.2-3.3V738.4z M479.5,739.6c0,0.9,0.3,1.7,0.8,2.4
			c0.5,0.6,1.2,1,2.2,1c0.9,0,1.6-0.3,2.1-1c0.5-0.6,0.8-1.4,0.8-2.4v-1.2c0-0.9-0.3-1.7-0.8-2.4c-0.5-0.6-1.2-1-2.2-1
			s-1.7,0.3-2.2,1c-0.5,0.6-0.8,1.4-0.8,2.4V739.6z"/>
	</g>
	<g class="st0">
		<path class="st1" d="M571.3,797.9c0.8,0,1.7,0.1,2.5,0.3c0.8,0.2,1.6,0.4,2.2,0.8l-0.5,1.5c-0.6-0.3-1.3-0.6-1.9-0.7
			c-0.7-0.2-1.4-0.2-2.3-0.2c-1.6,0-2.9,0.6-3.9,1.9c-1,1.3-1.6,2.9-1.6,5v3.1c0.6-0.9,1.4-1.6,2.4-2.1c1-0.5,2.1-0.8,3.3-0.8
			c2,0,3.6,0.7,4.7,2s1.7,3.1,1.7,5.3c0,2.2-0.6,4-1.9,5.4c-1.3,1.4-2.9,2-5,2c-2,0-3.7-0.8-5.1-2.3c-1.3-1.6-2-3.7-2-6.3v-6.2
			c0-2.5,0.7-4.6,2.1-6.2C567.4,798.7,569.2,797.9,571.3,797.9z M570.9,808.1c-1.2,0-2.3,0.3-3.3,1c-0.9,0.7-1.6,1.5-1.9,2.5v1.2
			c0,2.1,0.5,3.8,1.5,5c1,1.3,2.2,1.9,3.7,1.9c1.5,0,2.8-0.6,3.7-1.7c0.9-1.1,1.4-2.5,1.4-4.2c0-1.8-0.4-3.3-1.3-4.3
			C573.9,808.6,572.6,808.1,570.9,808.1z"/>
		<path class="st1" d="M595.1,813c0,2.6-0.6,4.6-1.9,6.1c-1.3,1.5-3,2.2-5.2,2.2s-3.9-0.7-5.2-2.2c-1.3-1.5-1.9-3.5-1.9-6.1v-6.7
			c0-2.6,0.6-4.6,1.9-6.1c1.3-1.5,3-2.3,5.2-2.3s3.9,0.8,5.2,2.3s1.9,3.5,1.9,6.1V813z M593.3,806c0-2-0.5-3.6-1.4-4.7
			c-0.9-1.2-2.2-1.7-3.9-1.7c-1.7,0-3,0.6-3.9,1.8c-0.9,1.2-1.4,2.7-1.4,4.7v7.3c0,2,0.5,3.5,1.4,4.7c0.9,1.2,2.2,1.8,3.9,1.8
			c1.7,0,2.9-0.6,3.8-1.8c0.9-1.2,1.3-2.8,1.3-4.7V806z"/>
		<path class="st1" d="M612.9,813c0,2.6-0.6,4.6-1.9,6.1c-1.3,1.5-3,2.2-5.2,2.2c-2.2,0-3.9-0.7-5.2-2.2c-1.3-1.5-1.9-3.5-1.9-6.1
			v-6.7c0-2.6,0.6-4.6,1.9-6.1c1.3-1.5,3-2.3,5.2-2.3c2.2,0,3.9,0.8,5.2,2.3s1.9,3.5,1.9,6.1V813z M611,806c0-2-0.5-3.6-1.4-4.7
			c-0.9-1.2-2.2-1.7-3.9-1.7c-1.7,0-3,0.6-3.9,1.8c-0.9,1.2-1.4,2.7-1.4,4.7v7.3c0,2,0.5,3.5,1.4,4.7c0.9,1.2,2.2,1.8,3.9,1.8
			c1.7,0,2.9-0.6,3.8-1.8c0.9-1.2,1.3-2.8,1.3-4.7V806z"/>
	</g>
</g>
<polyline class="st4" points="333.9,143.4 344.4,133 333.9,122.6 "/>
<polyline class="st4" points="320.1,122.6 309.6,133 320.1,143.4 "/>
<path class="st4" d="M196.7,51.9v-3.1c0-3.4-2.8-6.2-6.2-6.2h-12.4c-3.4,0-6.2,2.8-6.2,6.2v3.1"/>
<circle class="st4" cx="184.4" cy="30.3" r="6.2"/>
<path class="st4" d="M206,51.9v-3.1c0-2.8-1.9-5.3-4.6-6"/>
<path class="st4" d="M195.2,24.3c3.3,0.8,5.3,4.2,4.5,7.5c-0.6,2.2-2.3,3.9-4.5,4.5"/>
<polyline class="st4" points="69,133 61.8,133 56.4,149.2 45.6,116.8 40.2,133 33,133 "/>
</svg>
