<?xml version="1.0" encoding="utf-8"?>
<!-- Generator: Adobe Illustrator 23.0.1, SVG Export Plug-In . SVG Version: 6.00 Build 0)  -->
<svg version="1.1" id="Calque_2" xmlns="http://www.w3.org/2000/svg" xmlns:xlink="http://www.w3.org/1999/xlink" x="0px" y="0px"
	 viewBox="0 0 595.28 841.89" style="enable-background:new 0 0 595.28 841.89;" xml:space="preserve">
<style type="text/css">
	.st0{fill:#DFE0E1;}
	.st1{fill:#F2F2F2;}
	.st2{font-family:'Muli-Regular';}
	.st3{font-size:24px;}
	.st4{fill:#E2282F;}
	.st5{clip-path:url(#SVGID_2_);fill:#E2282F;}
	.st6{fill:#18333F;}
	.st7{font-size:63.2801px;}
</style>
<g>
	<rect x="-31.06" y="447.66" class="st0" width="218.83" height="162.29"/>
	<rect x="407.64" y="478.41" class="st0" width="218.83" height="131.54"/>
	<polygon class="st1" points="-31.06,447.66 42.23,430.91 187.77,430.91 187.77,447.66 	"/>
	<polygon class="st1" points="626.47,478.41 553.18,461.66 407.64,461.66 407.64,478.41 	"/>
	<polygon class="st1" points="360.92,384.7 298,384.7 234.71,384.7 187.77,403.69 297.64,403.69 298,403.69 407.87,403.69 	"/>
	<g>
		
			<image style="overflow:visible;opacity:0.33;" width="391" height="391" xlink:href="DC6D30721858E778.png"  transform="matrix(1 0 0 1 101.9606 317.8504)">
		</image>
		<g>
			<rect x="187.77" y="403.69" class="st0" width="219.87" height="219.87"/>
		</g>
	</g>
</g>
<text transform="matrix(1 0 0 1 229.2872 266.3428)"><tspan x="0" y="0" class="st2 st3">est le lieu de </tspan><tspan x="-17.05" y="30" class="st2 st3">rassemblement </tspan><tspan x="7.99" y="60" class="st2 st3">annuel des </tspan><tspan x="-22.91" y="90" class="st2 st3">energy manager</tspan></text>
<text transform="matrix(1 0 0 1 450.1672 351.5342)"><tspan x="0" y="0" class="st2 st3">Un écosystème</tspan><tspan x="-5.65" y="30" class="st2 st3">convivial service</tspan><tspan x="-18.41" y="60" class="st2 st3">de la communauté</tspan><tspan x="43.28" y="90" class="st2 st3">énergie</tspan></text>
<text transform="matrix(1 0 0 1 -28.8358 291.8671)"><tspan x="0" y="0" class="st2 st3">Des opportunités</tspan><tspan x="-4.01" y="30" class="st2 st3">de prise de parole</tspan><tspan x="-9.44" y="60" class="st2 st3">pour communiquer</tspan><tspan x="33.54" y="90" class="st2 st3">et valoriser</tspan><tspan x="21.19" y="120" class="st2 st3">son expertise</tspan></text>
<g>
	<g>
		<polygon class="st4" points="198.24,206.04 198.24,229.61 211.32,229.61 211.32,224.31 204,224.31 204,220.28 211.1,220.28 
			211.1,214.98 204,214.98 204,211.34 211.32,211.34 211.32,206.04 		"/>
		<polygon class="st4" points="229.44,229.61 220.33,215.3 220.57,229.61 214.81,229.61 214.81,206.04 219.97,206.04 229.16,220.88 
			228.91,206.04 234.67,206.04 234.67,229.61 		"/>
		<polygon class="st4" points="238.7,229.61 238.7,206.04 251.77,206.04 251.77,211.34 244.46,211.34 244.46,214.98 251.56,214.98 
			251.56,220.28 244.46,220.28 244.46,224.31 251.77,224.31 251.77,229.61 		"/>
		<g>
			<defs>
				<rect id="SVGID_1_" x="198.24" y="205.58" width="199.51" height="24.48"/>
			</defs>
			<clipPath id="SVGID_2_">
				<use xlink:href="#SVGID_1_"  style="overflow:visible;"/>
			</clipPath>
			<path class="st5" d="M263.22,211.34h-2.19v6.54h2.12c2.15,0,3.92-0.95,3.92-3.32C267.07,212.19,265.34,211.34,263.22,211.34
				 M266.5,229.61l-5.47-7.63v7.63h-5.76v-23.56h7.45c2.51,0,5.23,0,7.24,1.7c1.91,1.59,2.9,3.99,2.9,6.46
				c0,3.67-2.12,6.75-5.86,7.38l6.39,8.02H266.5z"/>
			<path class="st5" d="M287.35,230.07c-6.92,0-12.47-5.37-12.47-12.33c0-7.07,5.69-12.15,12.61-12.15c5.12,0,10.32,3.32,11.73,8.37
				h-6.75c-1.06-1.98-2.93-3.07-5.16-3.07c-3.74,0-6.43,2.9-6.43,6.61c0,4.17,2.54,7.31,6.85,7.31c2.47,0,4.59-1.31,5.19-3.78h-6.99
				v-4.8h13.95c0.04,0.39,0.07,0.81,0.07,1.2C299.96,224.59,294.56,230.07,287.35,230.07"/>
		</g>
		<polygon class="st4" points="312.54,221.02 312.54,229.61 306.53,229.61 306.53,221.02 299.5,206.04 306.04,206.04 309.54,215.51 
			313.07,206.04 319.53,206.04 		"/>
		<polygon class="st6" points="338.93,211.34 338.93,229.61 332.93,229.61 332.93,211.34 328.26,211.34 328.26,206.04 
			343.59,206.04 343.59,211.34 		"/>
		<rect x="345.82" y="206.04" class="st6" width="6.01" height="23.56"/>
		<polygon class="st6" points="375.11,229.61 375.32,211.91 370.23,229.61 366.24,229.61 361.15,211.91 361.33,229.61 
			355.82,229.61 355.82,206.04 363.56,206.04 368.22,221.55 372.88,206.04 380.65,206.04 380.65,229.61 		"/>
		<polygon class="st6" points="384.68,229.61 384.68,206.04 397.76,206.04 397.76,211.34 390.44,211.34 390.44,214.98 
			397.54,214.98 397.54,220.28 390.44,220.28 390.44,224.31 397.76,224.31 397.76,229.61 		"/>
	</g>
</g>
<text transform="matrix(1 0 0 1 278.6539 516.9327)" class="st4 st2 st7">1</text>
<text transform="matrix(1 0 0 1 59.3731 549.7459)" class="st4 st2 st7">2</text>
<text transform="matrix(1 0 0 1 498.0745 565.8335)" class="st4 st2 st7">3</text>
</svg>
