<?xml version="1.0" encoding="utf-8"?>
<!-- Generator: Adobe Illustrator 23.0.1, SVG Export Plug-In . SVG Version: 6.00 Build 0)  -->
<svg version="1.1" xmlns="http://www.w3.org/2000/svg" xmlns:xlink="http://www.w3.org/1999/xlink" x="0px" y="0px"
	 viewBox="0 0 595.28 841.89" style="enable-background:new 0 0 595.28 841.89;" xml:space="preserve">
<style type="text/css">
	.st0{display:none;}
	.st1{fill:#E12130;}
	.st2{fill:#0B6484;}
	.st3{fill:#BFBFBF;}
	.st4{fill:#FF3E55;}
	.st5{fill:#E22230;}
	.st6{fill:#AD1C2D;}
	.st7{fill:#118BB8;}
	.st8{fill:#0C6584;}
	.st9{fill:#073C53;}
</style>
<g id="Calque_1" class="st0">
	
		<image style="display:inline;overflow:visible;" width="800" height="500" xlink:href="../../build/ET_visuel2.jpg"  transform="matrix(1 0 0 1 -102 170.8898)">
	</image>
</g>
<g id="Calque_2">
	<g>
		<path d="M118.74,237.65c0.94,0.61,2.59,1.26,4.18,1.26c2.3,0,3.38-1.15,3.38-2.59c0-1.51-0.9-2.34-3.24-3.2
			c-3.13-1.12-4.61-2.84-4.61-4.93c0-2.81,2.27-5.11,6.01-5.11c1.76,0,3.31,0.5,4.28,1.08l-0.79,2.3c-0.68-0.43-1.94-1.01-3.56-1.01
			c-1.87,0-2.92,1.08-2.92,2.38c0,1.44,1.04,2.09,3.31,2.95c3.02,1.15,4.57,2.66,4.57,5.26c0,3.06-2.38,5.22-6.52,5.22
			c-1.91,0-3.67-0.47-4.9-1.19L118.74,237.65z"/>
		<path d="M135.19,232.76c0.07,4.28,2.81,6.05,5.98,6.05c2.27,0,3.64-0.4,4.82-0.9l0.54,2.27c-1.12,0.5-3.02,1.08-5.8,1.08
			c-5.36,0-8.57-3.53-8.57-8.78s3.1-9.4,8.17-9.4c5.69,0,7.2,5,7.2,8.21c0,0.65-0.07,1.15-0.11,1.48H135.19z M144.48,230.49
			c0.04-2.02-0.83-5.15-4.39-5.15c-3.2,0-4.61,2.95-4.86,5.15H144.48z"/>
		<path d="M163.88,240.24c-0.83,0.43-2.66,1.01-5,1.01c-5.26,0-8.68-3.56-8.68-8.89c0-5.36,3.67-9.25,9.36-9.25
			c1.87,0,3.53,0.47,4.39,0.9l-0.72,2.45c-0.76-0.43-1.94-0.83-3.67-0.83c-4,0-6.16,2.95-6.16,6.59c0,4.03,2.59,6.52,6.05,6.52
			c1.8,0,2.99-0.47,3.89-0.86L163.88,240.24z"/>
		<path d="M171.87,218.46v5h4.54v2.41h-4.54v9.4c0,2.16,0.61,3.38,2.38,3.38c0.83,0,1.44-0.11,1.84-0.22l0.14,2.38
			c-0.61,0.25-1.58,0.43-2.81,0.43c-1.48,0-2.66-0.47-3.42-1.33c-0.9-0.94-1.22-2.48-1.22-4.54v-9.5h-2.7v-2.41h2.7v-4.18
			L171.87,218.46z"/>
		<path d="M181.52,232.76c0.07,4.28,2.81,6.05,5.98,6.05c2.27,0,3.64-0.4,4.82-0.9l0.54,2.27c-1.12,0.5-3.02,1.08-5.8,1.08
			c-5.36,0-8.57-3.53-8.57-8.78s3.1-9.4,8.17-9.4c5.69,0,7.2,5,7.2,8.21c0,0.65-0.07,1.15-0.11,1.48H181.52z M190.81,230.49
			c0.04-2.02-0.83-5.15-4.39-5.15c-3.2,0-4.61,2.95-4.86,5.15H190.81z"/>
		<path d="M212.37,236.14c0,1.8,0.04,3.38,0.14,4.75h-2.81l-0.18-2.84h-0.07c-0.83,1.4-2.66,3.24-5.76,3.24
			c-2.74,0-6.01-1.51-6.01-7.63v-10.19h3.17v9.65c0,3.31,1.01,5.54,3.89,5.54c2.12,0,3.6-1.48,4.18-2.88
			c0.18-0.47,0.29-1.04,0.29-1.62v-10.69h3.17V236.14z"/>
		<path d="M217.63,228.9c0-2.05-0.04-3.82-0.14-5.44h2.77l0.11,3.42h0.14c0.79-2.34,2.7-3.82,4.82-3.82c0.36,0,0.61,0.04,0.9,0.11
			v2.99c-0.32-0.07-0.65-0.11-1.08-0.11c-2.23,0-3.82,1.69-4.25,4.07c-0.07,0.43-0.14,0.94-0.14,1.48v9.29h-3.13V228.9z"/>
		<path d="M237.03,229.16c0-2.23-0.07-4.03-0.14-5.69h2.84l0.14,2.99h0.07c1.3-2.12,3.35-3.38,6.19-3.38c4.21,0,7.38,3.56,7.38,8.85
			c0,6.26-3.82,9.36-7.92,9.36c-2.3,0-4.32-1.01-5.36-2.74h-0.07v9.47h-3.13V229.16z M240.16,233.8c0,0.47,0.07,0.9,0.14,1.3
			c0.58,2.2,2.48,3.71,4.75,3.71c3.35,0,5.29-2.74,5.29-6.73c0-3.49-1.84-6.48-5.18-6.48c-2.16,0-4.18,1.55-4.79,3.92
			c-0.11,0.4-0.22,0.86-0.22,1.3V233.8z"/>
		<path d="M257.51,228.9c0-2.05-0.04-3.82-0.14-5.44h2.77l0.11,3.42h0.14c0.79-2.34,2.7-3.82,4.82-3.82c0.36,0,0.61,0.04,0.9,0.11
			v2.99c-0.32-0.07-0.65-0.11-1.08-0.11c-2.23,0-3.82,1.69-4.25,4.07c-0.07,0.43-0.14,0.94-0.14,1.48v9.29h-3.13V228.9z"/>
		<path d="M272.96,218.57c0.04,1.08-0.76,1.94-2.02,1.94c-1.12,0-1.91-0.86-1.91-1.94c0-1.12,0.83-1.98,1.98-1.98
			C272.2,216.59,272.96,217.46,272.96,218.57z M269.43,240.89v-17.42h3.17v17.42H269.43z"/>
		<path d="M279.08,223.47l3.42,9.79c0.58,1.58,1.04,3.02,1.4,4.46h0.11c0.4-1.44,0.9-2.88,1.48-4.46l3.38-9.79h3.31l-6.84,17.42
			h-3.02l-6.62-17.42H279.08z"/>
		<path d="M296.57,232.76c0.07,4.28,2.81,6.05,5.98,6.05c2.27,0,3.63-0.4,4.82-0.9l0.54,2.27c-1.12,0.5-3.02,1.08-5.8,1.08
			c-5.36,0-8.57-3.53-8.57-8.78s3.1-9.4,8.17-9.4c5.69,0,7.2,5,7.2,8.21c0,0.65-0.07,1.15-0.11,1.48H296.57z M305.86,230.49
			c0.04-2.02-0.83-5.15-4.39-5.15c-3.2,0-4.61,2.95-4.86,5.15H305.86z M306.62,215.94l-4.39,5.15h-2.27l3.17-5.15H306.62z"/>
	</g>
	<g>
		<path d="M307.24,427.29c0.94,0.61,2.59,1.26,4.18,1.26c2.3,0,3.38-1.15,3.38-2.59c0-1.51-0.9-2.34-3.24-3.2
			c-3.13-1.12-4.61-2.84-4.61-4.93c0-2.81,2.27-5.11,6.01-5.11c1.76,0,3.31,0.5,4.28,1.08l-0.79,2.3c-0.68-0.43-1.94-1.01-3.56-1.01
			c-1.87,0-2.92,1.08-2.92,2.38c0,1.44,1.04,2.09,3.31,2.95c3.02,1.15,4.57,2.66,4.57,5.26c0,3.06-2.38,5.22-6.52,5.22
			c-1.91,0-3.67-0.47-4.9-1.19L307.24,427.29z"/>
		<path d="M323.69,422.39c0.07,4.28,2.81,6.05,5.97,6.05c2.27,0,3.64-0.4,4.82-0.9l0.54,2.27c-1.12,0.5-3.02,1.08-5.79,1.08
			c-5.36,0-8.57-3.53-8.57-8.78c0-5.26,3.1-9.4,8.17-9.4c5.69,0,7.2,5,7.2,8.21c0,0.65-0.07,1.15-0.11,1.48H323.69z M332.98,420.12
			c0.04-2.02-0.83-5.15-4.39-5.15c-3.2,0-4.61,2.95-4.86,5.15H332.98z"/>
		<path d="M352.38,429.88c-0.83,0.43-2.66,1.01-5,1.01c-5.25,0-8.67-3.56-8.67-8.89c0-5.36,3.67-9.25,9.36-9.25
			c1.87,0,3.53,0.47,4.39,0.9l-0.72,2.45c-0.76-0.43-1.94-0.83-3.67-0.83c-4,0-6.16,2.95-6.16,6.59c0,4.03,2.59,6.52,6.05,6.52
			c1.8,0,2.99-0.47,3.89-0.86L352.38,429.88z"/>
		<path d="M360.37,408.1v5h4.54v2.41h-4.54v9.4c0,2.16,0.61,3.38,2.38,3.38c0.83,0,1.44-0.11,1.84-0.22l0.14,2.38
			c-0.61,0.25-1.58,0.43-2.81,0.43c-1.48,0-2.66-0.47-3.42-1.33c-0.9-0.94-1.22-2.48-1.22-4.54v-9.5h-2.7v-2.41h2.7v-4.18
			L360.37,408.1z"/>
		<path d="M370.02,422.39c0.07,4.28,2.81,6.05,5.97,6.05c2.27,0,3.64-0.4,4.82-0.9l0.54,2.27c-1.12,0.5-3.02,1.08-5.79,1.08
			c-5.36,0-8.57-3.53-8.57-8.78c0-5.26,3.1-9.4,8.17-9.4c5.69,0,7.2,5,7.2,8.21c0,0.65-0.07,1.15-0.11,1.48H370.02z M379.31,420.12
			c0.04-2.02-0.83-5.15-4.39-5.15c-3.2,0-4.61,2.95-4.86,5.15H379.31z"/>
		<path d="M400.87,425.78c0,1.8,0.04,3.38,0.14,4.75h-2.81l-0.18-2.84h-0.07c-0.83,1.4-2.66,3.24-5.76,3.24
			c-2.74,0-6.01-1.51-6.01-7.63V413.1h3.17v9.65c0,3.31,1.01,5.54,3.89,5.54c2.12,0,3.6-1.48,4.18-2.88
			c0.18-0.47,0.29-1.04,0.29-1.62V413.1h3.17V425.78z"/>
		<path d="M406.13,418.54c0-2.05-0.04-3.82-0.14-5.44h2.77l0.11,3.42h0.14c0.79-2.34,2.7-3.82,4.82-3.82c0.36,0,0.61,0.04,0.9,0.11
			v2.99c-0.32-0.07-0.65-0.11-1.08-0.11c-2.23,0-3.82,1.69-4.25,4.07c-0.07,0.43-0.14,0.94-0.14,1.48v9.29h-3.13V418.54z"/>
		<path d="M425.53,418.79c0-2.23-0.07-4.03-0.14-5.69h2.84l0.14,2.99h0.07c1.3-2.12,3.35-3.38,6.19-3.38c4.21,0,7.38,3.56,7.38,8.85
			c0,6.26-3.82,9.36-7.92,9.36c-2.3,0-4.32-1.01-5.36-2.74h-0.07v9.47h-3.13V418.79z M428.66,423.44c0,0.47,0.07,0.9,0.14,1.3
			c0.58,2.2,2.48,3.71,4.75,3.71c3.35,0,5.29-2.74,5.29-6.73c0-3.49-1.84-6.48-5.18-6.48c-2.16,0-4.17,1.55-4.79,3.92
			c-0.11,0.4-0.22,0.86-0.22,1.3V423.44z"/>
		<path d="M460.59,425.78c0,1.8,0.04,3.38,0.14,4.75h-2.81l-0.18-2.84h-0.07c-0.83,1.4-2.66,3.24-5.76,3.24
			c-2.74,0-6.01-1.51-6.01-7.63V413.1h3.17v9.65c0,3.31,1.01,5.54,3.89,5.54c2.12,0,3.6-1.48,4.18-2.88
			c0.18-0.47,0.29-1.04,0.29-1.62V413.1h3.17V425.78z"/>
		<path d="M465.71,430.53c0.07-1.19,0.14-2.95,0.14-4.5v-21.06h3.13v10.94h0.07c1.12-1.94,3.13-3.2,5.94-3.2
			c4.32,0,7.38,3.6,7.34,8.89c0,6.23-3.92,9.32-7.81,9.32c-2.52,0-4.54-0.97-5.83-3.28h-0.11l-0.14,2.88H465.71z M468.98,423.54
			c0,0.4,0.07,0.79,0.14,1.15c0.61,2.2,2.45,3.71,4.75,3.71c3.31,0,5.29-2.7,5.29-6.7c0-3.49-1.8-6.48-5.18-6.48
			c-2.16,0-4.17,1.48-4.82,3.89c-0.07,0.36-0.18,0.79-0.18,1.3V423.54z"/>
		<path d="M486.34,404.97h3.17v25.56h-3.17V404.97z"/>
		<path d="M498.36,408.21c0.04,1.08-0.76,1.94-2.02,1.94c-1.12,0-1.91-0.86-1.91-1.94c0-1.12,0.83-1.98,1.98-1.98
			C497.6,406.23,498.36,407.09,498.36,408.21z M494.83,430.53V413.1H498v17.42H494.83z"/>
		<path d="M515.67,429.88c-0.83,0.43-2.66,1.01-5,1.01c-5.26,0-8.67-3.56-8.67-8.89c0-5.36,3.67-9.25,9.36-9.25
			c1.87,0,3.53,0.47,4.39,0.9l-0.72,2.45c-0.76-0.43-1.94-0.83-3.67-0.83c-4,0-6.16,2.95-6.16,6.59c0,4.03,2.59,6.52,6.05,6.52
			c1.8,0,2.99-0.47,3.89-0.86L515.67,429.88z"/>
	</g>
	<g>
		<path d="M189.76,587.51c-0.65-0.04-1.48,0-2.38,0.14c-4.97,0.83-7.6,4.46-8.14,8.32h0.11c1.12-1.48,3.06-2.7,5.65-2.7
			c4.14,0,7.06,2.99,7.06,7.56c0,4.28-2.92,8.24-7.77,8.24c-5,0-8.28-3.89-8.28-9.97c0-4.61,1.66-8.24,3.96-10.55
			c1.94-1.91,4.54-3.1,7.49-3.46c0.94-0.14,1.73-0.18,2.3-0.18V587.51z M188.86,601.01c0-3.35-1.91-5.36-4.82-5.36
			c-1.91,0-3.67,1.19-4.54,2.88c-0.22,0.36-0.36,0.83-0.36,1.4c0.07,3.85,1.84,6.7,5.15,6.7
			C187.02,606.62,188.86,604.36,188.86,601.01z"/>
		<path d="M194.87,608.67v-1.94l2.48-2.41c5.98-5.69,8.67-8.71,8.71-12.24c0-2.38-1.15-4.57-4.64-4.57c-2.12,0-3.89,1.08-4.97,1.98
			l-1.01-2.23c1.62-1.37,3.92-2.38,6.62-2.38c5.04,0,7.16,3.46,7.16,6.8c0,4.32-3.13,7.81-8.06,12.56l-1.87,1.73v0.07h10.51v2.63
			H194.87z"/>
		<path d="M212.29,613.1c0.79-2.12,1.76-5.98,2.16-8.6l3.53-0.36c-0.83,3.06-2.41,7.05-3.42,8.75L212.29,613.1z"/>
		<path d="M234.75,587.94h-8.93l-0.9,6.01c0.54-0.07,1.04-0.14,1.91-0.14c1.8,0,3.6,0.4,5.04,1.26c1.84,1.04,3.35,3.06,3.35,6.01
			c0,4.57-3.64,7.99-8.71,7.99c-2.56,0-4.72-0.72-5.83-1.44l0.79-2.41c0.97,0.58,2.88,1.3,5,1.3c2.99,0,5.54-1.94,5.54-5.08
			c-0.04-3.02-2.05-5.18-6.73-5.18c-1.33,0-2.38,0.14-3.24,0.25l1.51-11.23h11.19V587.94z"/>
		<path d="M249.8,591.87c0,4.93-2.59,7.38-5.62,7.38c-2.92,0-5.44-2.34-5.47-7.05c0-4.68,2.56-7.31,5.65-7.31
			C247.64,584.88,249.8,587.4,249.8,591.87z M241.24,592.08c-0.07,2.99,1.04,5.26,3.02,5.26c2.09,0,3.02-2.23,3.02-5.33
			c0-2.84-0.83-5.22-3.02-5.22C242.28,586.79,241.24,589.13,241.24,592.08z M243.97,609.07l13.75-24.19h2.02l-13.75,24.19H243.97z
			 M265.03,601.55c0,4.93-2.59,7.38-5.58,7.38c-2.92,0-5.44-2.34-5.47-7.02c0-4.72,2.56-7.34,5.65-7.34
			C262.91,594.56,265.03,597.09,265.03,601.55z M256.46,601.76c-0.04,2.99,1.12,5.26,3.06,5.26c2.09,0,3.02-2.23,3.02-5.33
			c0-2.84-0.83-5.22-3.02-5.22C257.54,596.47,256.46,598.81,256.46,601.76z"/>
	</g>
	<g>
		<path d="M373.45,612.14h-0.07l-4.07,2.2l-0.61-2.41l5.11-2.74h2.7v23.4h-3.06V612.14z"/>
		<path d="M400.23,609.19v2.09l-10.19,21.31h-3.28l10.15-20.7v-0.07h-11.45v-2.63H400.23z"/>
		<path d="M402.46,637.01c0.79-2.12,1.76-5.97,2.16-8.6l3.53-0.36c-0.83,3.06-2.41,7.06-3.42,8.75L402.46,637.01z"/>
		<path d="M424.92,611.85H416l-0.9,6.01c0.54-0.07,1.04-0.14,1.91-0.14c1.8,0,3.6,0.4,5.04,1.26c1.84,1.04,3.35,3.06,3.35,6.01
			c0,4.57-3.64,7.99-8.71,7.99c-2.56,0-4.72-0.72-5.83-1.44l0.79-2.41c0.97,0.58,2.88,1.3,5,1.3c2.99,0,5.54-1.94,5.54-5.08
			c-0.04-3.02-2.05-5.18-6.73-5.18c-1.33,0-2.38,0.14-3.24,0.25l1.51-11.23h11.19V611.85z"/>
		<path d="M439.97,615.77c0,4.93-2.59,7.38-5.62,7.38c-2.92,0-5.44-2.34-5.47-7.06c0-4.68,2.56-7.31,5.65-7.31
			C437.81,608.79,439.97,611.31,439.97,615.77z M431.41,615.99c-0.07,2.99,1.04,5.25,3.02,5.25c2.09,0,3.02-2.23,3.02-5.33
			c0-2.84-0.83-5.22-3.02-5.22C432.45,610.7,431.41,613.04,431.41,615.99z M434.14,632.98l13.75-24.19h2.02l-13.75,24.19H434.14z
			 M455.2,625.46c0,4.93-2.59,7.38-5.58,7.38c-2.92,0-5.44-2.34-5.47-7.02c0-4.71,2.56-7.34,5.65-7.34
			C453.07,618.47,455.2,620.99,455.2,625.46z M446.63,625.67c-0.04,2.99,1.12,5.25,3.06,5.25c2.09,0,3.02-2.23,3.02-5.33
			c0-2.84-0.83-5.22-3.02-5.22C447.71,620.38,446.63,622.72,446.63,625.67z"/>
	</g>
	<rect x="326.98" y="608.68" class="st1" width="23.91" height="23.91"/>
	<rect x="137.91" y="587.24" class="st2" width="23.91" height="23.91"/>
	<g>
		<rect x="41.44" y="343.3" class="st3" width="8.82" height="181.06"/>
		<polygon class="st3" points="41.44,343.3 137.91,311.55 137.91,318.02 49.08,347.77 		"/>
		<polygon class="st3" points="42.03,406.46 137.91,366.01 137.91,372.47 49.67,410.93 		"/>
		<polygon class="st3" points="42.03,465.95 137.91,420.89 137.91,427.36 49.67,470.42 		"/>
		<polygon class="st3" points="42.62,519.89 137.91,473.25 137.91,479.72 50.26,524.36 		"/>
		<polygon class="st3" points="137.91,311.55 544.27,340.92 544.27,347.77 137.91,318.02 		"/>
		<polygon class="st3" points="137.91,366.01 544.27,400.49 544.27,407.34 137.91,372.47 		"/>
		<polygon class="st3" points="137.91,420.89 544.27,461.76 544.27,468.6 137.91,427.36 		"/>
		<polygon class="st3" points="137.91,473.25 544.27,520.72 544.27,527.56 137.91,479.72 		"/>
		<polygon class="st3" points="41.44,517.89 483.6,572.7 483.6,579.55 41.44,524.36 		"/>
	</g>
	<g>
		<polygon class="st4" points="379.99,457.34 437.99,463.61 410.56,482.42 353.72,476.54 		"/>
		<polygon class="st5" points="353.72,476.54 353.72,546.56 409.53,554.67 410.56,482.42 		"/>
		<polygon class="st6" points="410.56,482.42 437.99,463.61 437.99,536.59 409.53,555.29 		"/>
	</g>
	<g>
		<polygon class="st7" points="194.21,265.95 252.22,272.22 224.78,291.03 167.95,285.16 		"/>
		<polygon class="st8" points="167.95,285.16 167.95,524.12 223.76,532.23 224.78,291.03 		"/>
		<polygon class="st9" points="224.78,291.03 252.22,272.22 252.22,513.52 223.76,532.23 		"/>
	</g>
</g>
</svg>
