<?xml version="1.0" encoding="utf-8"?>
<!-- Generator: Adobe Illustrator 23.0.1, SVG Export Plug-In . SVG Version: 6.00 Build 0)  -->
<svg version="1.1" id="Calque_1" xmlns="http://www.w3.org/2000/svg" xmlns:xlink="http://www.w3.org/1999/xlink" x="0px" y="0px"
	 viewBox="0 0 600 400" style="enable-background:new 0 0 600 400;" xml:space="preserve">
<style type="text/css">
	.st0{fill:#106585;}
	.st1{fill:#E22430;}
	.st2{fill:#020203;}
</style>
<g>
	<g>
		<circle class="st0" cx="22.2" cy="98.2" r="7.2"/>
		<path class="st0" d="M32.4,106H11.9c-1.4,0-2.5,1.1-2.5,2.5v22.8c0,1.4,1.1,2.5,2.5,2.5s2.5-1.1,2.5-2.5v-16.3h0.9v22.2V160
			c0,1.4,1.3,2.5,2.9,2.5c1.6,0,2.9-1.1,2.9-2.5v-22.8h2.4V160c0,1.4,1.3,2.5,2.9,2.5c1.6,0,2.9-1.1,2.9-2.5v-22.8v-22.2H30v16.3
			c0,1.4,1.1,2.5,2.5,2.5c1.4,0,2.5-1.1,2.5-2.5v-22.8C34.9,107.1,33.8,106,32.4,106z"/>
	</g>
	<g>
		<circle class="st0" cx="50.1" cy="98.2" r="7.2"/>
		<path class="st0" d="M60.4,106H39.8c-1.4,0-2.5,1.1-2.5,2.5v22.8c0,1.4,1.1,2.5,2.5,2.5c1.4,0,2.5-1.1,2.5-2.5v-16.3h0.9v22.2V160
			c0,1.4,1.3,2.5,2.9,2.5c1.6,0,2.9-1.1,2.9-2.5v-22.8h2.4V160c0,1.4,1.3,2.5,2.9,2.5c1.6,0,2.9-1.1,2.9-2.5v-22.8v-22.2h0.9v16.3
			c0,1.4,1.1,2.5,2.5,2.5s2.5-1.1,2.5-2.5v-22.8C62.8,107.1,61.7,106,60.4,106z"/>
	</g>
	<g>
		<circle class="st0" cx="78" cy="98.2" r="7.2"/>
		<path class="st0" d="M88.3,106H67.7c-1.4,0-2.5,1.1-2.5,2.5v22.8c0,1.4,1.1,2.5,2.5,2.5c1.4,0,2.5-1.1,2.5-2.5v-16.3h0.9v22.2V160
			c0,1.4,1.3,2.5,2.9,2.5c1.6,0,2.9-1.1,2.9-2.5v-22.8h2.4V160c0,1.4,1.3,2.5,2.9,2.5c1.6,0,2.9-1.1,2.9-2.5v-22.8v-22.2h0.9v16.3
			c0,1.4,1.1,2.5,2.5,2.5c1.4,0,2.5-1.1,2.5-2.5v-22.8C90.8,107.1,89.7,106,88.3,106z"/>
	</g>
	<g>
		<circle class="st0" cx="105.9" cy="98.2" r="7.2"/>
		<path class="st0" d="M116.2,106H95.7c-1.4,0-2.5,1.1-2.5,2.5v22.8c0,1.4,1.1,2.5,2.5,2.5c1.4,0,2.5-1.1,2.5-2.5v-16.3H99v22.2V160
			c0,1.4,1.3,2.5,2.9,2.5c1.6,0,2.9-1.1,2.9-2.5v-22.8h2.4V160c0,1.4,1.3,2.5,2.9,2.5c1.6,0,2.9-1.1,2.9-2.5v-22.8v-22.2h0.9v16.3
			c0,1.4,1.1,2.5,2.5,2.5c1.4,0,2.5-1.1,2.5-2.5v-22.8C118.7,107.1,117.6,106,116.2,106z"/>
	</g>
	<g>
		<circle class="st0" cx="133.9" cy="98.2" r="7.2"/>
		<path class="st0" d="M144.2,106h-20.6c-1.4,0-2.5,1.1-2.5,2.5v22.8c0,1.4,1.1,2.5,2.5,2.5c1.4,0,2.5-1.1,2.5-2.5v-16.3h0.9v22.2
			V160c0,1.4,1.3,2.5,2.9,2.5c1.6,0,2.9-1.1,2.9-2.5v-22.8h2.4V160c0,1.4,1.3,2.5,2.9,2.5c1.6,0,2.9-1.1,2.9-2.5v-22.8v-22.2h0.9
			v16.3c0,1.4,1.1,2.5,2.5,2.5c1.4,0,2.5-1.1,2.5-2.5v-22.8C146.6,107.1,145.5,106,144.2,106z"/>
	</g>
	<g>
		<circle class="st0" cx="161.8" cy="98.2" r="7.2"/>
		<path class="st0" d="M172.1,106h-20.6c-1.4,0-2.5,1.1-2.5,2.5v22.8c0,1.4,1.1,2.5,2.5,2.5s2.5-1.1,2.5-2.5v-16.3h0.9v22.2V160
			c0,1.4,1.3,2.5,2.9,2.5c1.6,0,2.9-1.1,2.9-2.5v-22.8h2.4V160c0,1.4,1.3,2.5,2.9,2.5c1.6,0,2.9-1.1,2.9-2.5v-22.8v-22.2h0.9v16.3
			c0,1.4,1.1,2.5,2.5,2.5c1.4,0,2.5-1.1,2.5-2.5v-22.8C174.6,107.1,173.5,106,172.1,106z"/>
	</g>
	<g>
		<circle class="st0" cx="189.7" cy="98.2" r="7.2"/>
		<path class="st0" d="M200,106h-20.6c-1.4,0-2.5,1.1-2.5,2.5v22.8c0,1.4,1.1,2.5,2.5,2.5s2.5-1.1,2.5-2.5v-16.3h0.9v22.2V160
			c0,1.4,1.3,2.5,2.9,2.5c1.6,0,2.9-1.1,2.9-2.5v-22.8h2.4V160c0,1.4,1.3,2.5,2.9,2.5c1.6,0,2.9-1.1,2.9-2.5v-22.8v-22.2h0.9v16.3
			c0,1.4,1.1,2.5,2.5,2.5c1.4,0,2.5-1.1,2.5-2.5v-22.8C202.5,107.1,201.4,106,200,106z"/>
	</g>
	<g>
		<circle class="st0" cx="217.7" cy="98.2" r="7.2"/>
		<path class="st0" d="M228,106h-20.6c-1.4,0-2.5,1.1-2.5,2.5v22.8c0,1.4,1.1,2.5,2.5,2.5c1.4,0,2.5-1.1,2.5-2.5v-16.3h0.9v22.2V160
			c0,1.4,1.3,2.5,2.9,2.5c1.6,0,2.9-1.1,2.9-2.5v-22.8h2.4V160c0,1.4,1.3,2.5,2.9,2.5c1.6,0,2.9-1.1,2.9-2.5v-22.8v-22.2h0.9v16.3
			c0,1.4,1.1,2.5,2.5,2.5s2.5-1.1,2.5-2.5v-22.8C230.4,107.1,229.3,106,228,106z"/>
	</g>
	<g>
		
			<ellipse transform="matrix(0.1602 -0.9871 0.9871 0.1602 109.3163 324.9215)" class="st0" cx="245.6" cy="98.2" rx="7.2" ry="7.2"/>
		<path class="st0" d="M255.9,106h-20.6c-1.4,0-2.5,1.1-2.5,2.5v22.8c0,1.4,1.1,2.5,2.5,2.5c1.4,0,2.5-1.1,2.5-2.5v-16.3h0.9v22.2
			V160c0,1.4,1.3,2.5,2.9,2.5c1.6,0,2.9-1.1,2.9-2.5v-22.8h2.4V160c0,1.4,1.3,2.5,2.9,2.5c1.6,0,2.9-1.1,2.9-2.5v-22.8v-22.2h0.9
			v16.3c0,1.4,1.1,2.5,2.5,2.5s2.5-1.1,2.5-2.5v-22.8C258.4,107.1,257.3,106,255.9,106z"/>
	</g>
	<g>
		<circle class="st0" cx="273.5" cy="98.2" r="7.2"/>
		<path class="st0" d="M283.8,106h-20.6c-1.4,0-2.5,1.1-2.5,2.5v22.8c0,1.4,1.1,2.5,2.5,2.5c1.4,0,2.5-1.1,2.5-2.5v-16.3h0.9v22.2
			V160c0,1.4,1.3,2.5,2.9,2.5c1.6,0,2.9-1.1,2.9-2.5v-22.8h2.4V160c0,1.4,1.3,2.5,2.9,2.5c1.6,0,2.9-1.1,2.9-2.5v-22.8v-22.2h0.9
			v16.3c0,1.4,1.1,2.5,2.5,2.5c1.4,0,2.5-1.1,2.5-2.5v-22.8C286.3,107.1,285.2,106,283.8,106z"/>
	</g>
	<g>
		<circle class="st0" cx="301.5" cy="98.2" r="7.2"/>
		<path class="st0" d="M311.8,106h-20.6c-1.4,0-2.5,1.1-2.5,2.5v22.8c0,1.4,1.1,2.5,2.5,2.5c1.4,0,2.5-1.1,2.5-2.5v-16.3h0.9v22.2
			V160c0,1.4,1.3,2.5,2.9,2.5c1.6,0,2.9-1.1,2.9-2.5v-22.8h2.4V160c0,1.4,1.3,2.5,2.9,2.5c1.6,0,2.9-1.1,2.9-2.5v-22.8v-22.2h0.9
			v16.3c0,1.4,1.1,2.5,2.5,2.5c1.4,0,2.5-1.1,2.5-2.5v-22.8C314.2,107.1,313.1,106,311.8,106z"/>
	</g>
	<g>
		<circle class="st0" cx="329.4" cy="98.2" r="7.2"/>
		<path class="st0" d="M339.7,106h-20.6c-1.4,0-2.5,1.1-2.5,2.5v22.8c0,1.4,1.1,2.5,2.5,2.5s2.5-1.1,2.5-2.5v-16.3h0.9v22.2V160
			c0,1.4,1.3,2.5,2.9,2.5c1.6,0,2.9-1.1,2.9-2.5v-22.8h2.4V160c0,1.4,1.3,2.5,2.9,2.5c1.6,0,2.9-1.1,2.9-2.5v-22.8v-22.2h0.9v16.3
			c0,1.4,1.1,2.5,2.5,2.5s2.5-1.1,2.5-2.5v-22.8C342.2,107.1,341.1,106,339.7,106z"/>
	</g>
	<g>
		<circle class="st0" cx="357.3" cy="98.2" r="7.2"/>
		<path class="st0" d="M367.6,106H347c-1.4,0-2.5,1.1-2.5,2.5v22.8c0,1.4,1.1,2.5,2.5,2.5c1.4,0,2.5-1.1,2.5-2.5v-16.3h0.9v22.2V160
			c0,1.4,1.3,2.5,2.9,2.5c1.6,0,2.9-1.1,2.9-2.5v-22.8h2.4V160c0,1.4,1.3,2.5,2.9,2.5c1.6,0,2.9-1.1,2.9-2.5v-22.8v-22.2h0.9v16.3
			c0,1.4,1.1,2.5,2.5,2.5c1.4,0,2.5-1.1,2.5-2.5v-22.8C370.1,107.1,369,106,367.6,106z"/>
	</g>
	<g>
		<circle class="st0" cx="385.3" cy="98.2" r="7.2"/>
		<path class="st0" d="M395.6,106H375c-1.4,0-2.5,1.1-2.5,2.5v22.8c0,1.4,1.1,2.5,2.5,2.5c1.4,0,2.5-1.1,2.5-2.5v-16.3h0.9v22.2V160
			c0,1.4,1.3,2.5,2.9,2.5c1.6,0,2.9-1.1,2.9-2.5v-22.8h2.4V160c0,1.4,1.3,2.5,2.9,2.5c1.6,0,2.9-1.1,2.9-2.5v-22.8v-22.2h0.9v16.3
			c0,1.4,1.1,2.5,2.5,2.5c1.4,0,2.5-1.1,2.5-2.5v-22.8C398,107.1,396.9,106,395.6,106z"/>
	</g>
	<g>
		<circle class="st0" cx="22.2" cy="172.8" r="7.2"/>
		<path class="st0" d="M32.4,180.6H11.9c-1.4,0-2.5,1.1-2.5,2.5v22.8c0,1.4,1.1,2.5,2.5,2.5s2.5-1.1,2.5-2.5v-16.3h0.9v22.2v22.8
			c0,1.4,1.3,2.5,2.9,2.5c1.6,0,2.9-1.1,2.9-2.5v-22.8h2.4v22.8c0,1.4,1.3,2.5,2.9,2.5c1.6,0,2.9-1.1,2.9-2.5v-22.8v-22.2H30v16.3
			c0,1.4,1.1,2.5,2.5,2.5c1.4,0,2.5-1.1,2.5-2.5V183C34.9,181.7,33.8,180.6,32.4,180.6z"/>
	</g>
	<g>
		<circle class="st0" cx="50.1" cy="172.8" r="7.2"/>
		<path class="st0" d="M60.4,180.6H39.8c-1.4,0-2.5,1.1-2.5,2.5v22.8c0,1.4,1.1,2.5,2.5,2.5c1.4,0,2.5-1.1,2.5-2.5v-16.3h0.9v22.2
			v22.8c0,1.4,1.3,2.5,2.9,2.5c1.6,0,2.9-1.1,2.9-2.5v-22.8h2.4v22.8c0,1.4,1.3,2.5,2.9,2.5c1.6,0,2.9-1.1,2.9-2.5v-22.8v-22.2h0.9
			v16.3c0,1.4,1.1,2.5,2.5,2.5s2.5-1.1,2.5-2.5V183C62.8,181.7,61.7,180.6,60.4,180.6z"/>
	</g>
	<g>
		<circle class="st0" cx="78" cy="172.8" r="7.2"/>
		<path class="st0" d="M88.3,180.6H67.7c-1.4,0-2.5,1.1-2.5,2.5v22.8c0,1.4,1.1,2.5,2.5,2.5c1.4,0,2.5-1.1,2.5-2.5v-16.3h0.9v22.2
			v22.8c0,1.4,1.3,2.5,2.9,2.5c1.6,0,2.9-1.1,2.9-2.5v-22.8h2.4v22.8c0,1.4,1.3,2.5,2.9,2.5c1.6,0,2.9-1.1,2.9-2.5v-22.8v-22.2h0.9
			v16.3c0,1.4,1.1,2.5,2.5,2.5c1.4,0,2.5-1.1,2.5-2.5V183C90.8,181.7,89.7,180.6,88.3,180.6z"/>
	</g>
	<g>
		<circle class="st0" cx="105.9" cy="172.8" r="7.2"/>
		<path class="st0" d="M116.2,180.6H95.7c-1.4,0-2.5,1.1-2.5,2.5v22.8c0,1.4,1.1,2.5,2.5,2.5c1.4,0,2.5-1.1,2.5-2.5v-16.3H99v22.2
			v22.8c0,1.4,1.3,2.5,2.9,2.5c1.6,0,2.9-1.1,2.9-2.5v-22.8h2.4v22.8c0,1.4,1.3,2.5,2.9,2.5c1.6,0,2.9-1.1,2.9-2.5v-22.8v-22.2h0.9
			v16.3c0,1.4,1.1,2.5,2.5,2.5c1.4,0,2.5-1.1,2.5-2.5V183C118.7,181.7,117.6,180.6,116.2,180.6z"/>
	</g>
	<g>
		<circle class="st0" cx="133.9" cy="172.8" r="7.2"/>
		<path class="st0" d="M144.2,180.6h-20.6c-1.4,0-2.5,1.1-2.5,2.5v22.8c0,1.4,1.1,2.5,2.5,2.5c1.4,0,2.5-1.1,2.5-2.5v-16.3h0.9v22.2
			v22.8c0,1.4,1.3,2.5,2.9,2.5c1.6,0,2.9-1.1,2.9-2.5v-22.8h2.4v22.8c0,1.4,1.3,2.5,2.9,2.5c1.6,0,2.9-1.1,2.9-2.5v-22.8v-22.2h0.9
			v16.3c0,1.4,1.1,2.5,2.5,2.5c1.4,0,2.5-1.1,2.5-2.5V183C146.6,181.7,145.5,180.6,144.2,180.6z"/>
	</g>
	<g>
		<circle class="st0" cx="161.8" cy="172.8" r="7.2"/>
		<path class="st0" d="M172.1,180.6h-20.6c-1.4,0-2.5,1.1-2.5,2.5v22.8c0,1.4,1.1,2.5,2.5,2.5s2.5-1.1,2.5-2.5v-16.3h0.9v22.2v22.8
			c0,1.4,1.3,2.5,2.9,2.5c1.6,0,2.9-1.1,2.9-2.5v-22.8h2.4v22.8c0,1.4,1.3,2.5,2.9,2.5c1.6,0,2.9-1.1,2.9-2.5v-22.8v-22.2h0.9v16.3
			c0,1.4,1.1,2.5,2.5,2.5c1.4,0,2.5-1.1,2.5-2.5V183C174.6,181.7,173.5,180.6,172.1,180.6z"/>
	</g>
	<g>
		<circle class="st0" cx="189.7" cy="172.8" r="7.2"/>
		<path class="st0" d="M200,180.6h-20.6c-1.4,0-2.5,1.1-2.5,2.5v22.8c0,1.4,1.1,2.5,2.5,2.5s2.5-1.1,2.5-2.5v-16.3h0.9v22.2v22.8
			c0,1.4,1.3,2.5,2.9,2.5c1.6,0,2.9-1.1,2.9-2.5v-22.8h2.4v22.8c0,1.4,1.3,2.5,2.9,2.5c1.6,0,2.9-1.1,2.9-2.5v-22.8v-22.2h0.9v16.3
			c0,1.4,1.1,2.5,2.5,2.5c1.4,0,2.5-1.1,2.5-2.5V183C202.5,181.7,201.4,180.6,200,180.6z"/>
	</g>
	<g>
		<circle class="st0" cx="217.7" cy="172.8" r="7.2"/>
		<path class="st0" d="M228,180.6h-20.6c-1.4,0-2.5,1.1-2.5,2.5v22.8c0,1.4,1.1,2.5,2.5,2.5c1.4,0,2.5-1.1,2.5-2.5v-16.3h0.9v22.2
			v22.8c0,1.4,1.3,2.5,2.9,2.5c1.6,0,2.9-1.1,2.9-2.5v-22.8h2.4v22.8c0,1.4,1.3,2.5,2.9,2.5c1.6,0,2.9-1.1,2.9-2.5v-22.8v-22.2h0.9
			v16.3c0,1.4,1.1,2.5,2.5,2.5s2.5-1.1,2.5-2.5V183C230.4,181.7,229.3,180.6,228,180.6z"/>
	</g>
	<g>
		
			<ellipse transform="matrix(0.1602 -0.9871 0.9871 0.1602 35.658 387.5902)" class="st0" cx="245.6" cy="172.8" rx="7.2" ry="7.2"/>
		<path class="st0" d="M255.9,180.6h-20.6c-1.4,0-2.5,1.1-2.5,2.5v22.8c0,1.4,1.1,2.5,2.5,2.5c1.4,0,2.5-1.1,2.5-2.5v-16.3h0.9v22.2
			v22.8c0,1.4,1.3,2.5,2.9,2.5c1.6,0,2.9-1.1,2.9-2.5v-22.8h2.4v22.8c0,1.4,1.3,2.5,2.9,2.5c1.6,0,2.9-1.1,2.9-2.5v-22.8v-22.2h0.9
			v16.3c0,1.4,1.1,2.5,2.5,2.5s2.5-1.1,2.5-2.5V183C258.4,181.7,257.3,180.6,255.9,180.6z"/>
	</g>
	<g>
		<circle class="st0" cx="273.5" cy="172.8" r="7.2"/>
		<path class="st0" d="M283.8,180.6h-20.6c-1.4,0-2.5,1.1-2.5,2.5v22.8c0,1.4,1.1,2.5,2.5,2.5c1.4,0,2.5-1.1,2.5-2.5v-16.3h0.9v22.2
			v22.8c0,1.4,1.3,2.5,2.9,2.5c1.6,0,2.9-1.1,2.9-2.5v-22.8h2.4v22.8c0,1.4,1.3,2.5,2.9,2.5c1.6,0,2.9-1.1,2.9-2.5v-22.8v-22.2h0.9
			v16.3c0,1.4,1.1,2.5,2.5,2.5c1.4,0,2.5-1.1,2.5-2.5V183C286.3,181.7,285.2,180.6,283.8,180.6z"/>
	</g>
	<g>
		<circle class="st0" cx="301.5" cy="172.8" r="7.2"/>
		<path class="st0" d="M311.8,180.6h-20.6c-1.4,0-2.5,1.1-2.5,2.5v22.8c0,1.4,1.1,2.5,2.5,2.5c1.4,0,2.5-1.1,2.5-2.5v-16.3h0.9v22.2
			v22.8c0,1.4,1.3,2.5,2.9,2.5c1.6,0,2.9-1.1,2.9-2.5v-22.8h2.4v22.8c0,1.4,1.3,2.5,2.9,2.5c1.6,0,2.9-1.1,2.9-2.5v-22.8v-22.2h0.9
			v16.3c0,1.4,1.1,2.5,2.5,2.5c1.4,0,2.5-1.1,2.5-2.5V183C314.2,181.7,313.1,180.6,311.8,180.6z"/>
	</g>
	<g>
		<circle class="st0" cx="329.4" cy="172.8" r="7.2"/>
		<path class="st0" d="M339.7,180.6h-20.6c-1.4,0-2.5,1.1-2.5,2.5v22.8c0,1.4,1.1,2.5,2.5,2.5s2.5-1.1,2.5-2.5v-16.3h0.9v22.2v22.8
			c0,1.4,1.3,2.5,2.9,2.5c1.6,0,2.9-1.1,2.9-2.5v-22.8h2.4v22.8c0,1.4,1.3,2.5,2.9,2.5c1.6,0,2.9-1.1,2.9-2.5v-22.8v-22.2h0.9v16.3
			c0,1.4,1.1,2.5,2.5,2.5s2.5-1.1,2.5-2.5V183C342.2,181.7,341.1,180.6,339.7,180.6z"/>
	</g>
	<g>
		<circle class="st0" cx="357.3" cy="172.8" r="7.2"/>
		<path class="st0" d="M367.6,180.6H347c-1.4,0-2.5,1.1-2.5,2.5v22.8c0,1.4,1.1,2.5,2.5,2.5c1.4,0,2.5-1.1,2.5-2.5v-16.3h0.9v22.2
			v22.8c0,1.4,1.3,2.5,2.9,2.5c1.6,0,2.9-1.1,2.9-2.5v-22.8h2.4v22.8c0,1.4,1.3,2.5,2.9,2.5c1.6,0,2.9-1.1,2.9-2.5v-22.8v-22.2h0.9
			v16.3c0,1.4,1.1,2.5,2.5,2.5c1.4,0,2.5-1.1,2.5-2.5V183C370.1,181.7,369,180.6,367.6,180.6z"/>
	</g>
	<g>
		<circle class="st0" cx="385.3" cy="172.8" r="7.2"/>
		<path class="st0" d="M395.6,180.6H375c-1.4,0-2.5,1.1-2.5,2.5v22.8c0,1.4,1.1,2.5,2.5,2.5c1.4,0,2.5-1.1,2.5-2.5v-16.3h0.9v22.2
			v22.8c0,1.4,1.3,2.5,2.9,2.5c1.6,0,2.9-1.1,2.9-2.5v-22.8h2.4v22.8c0,1.4,1.3,2.5,2.9,2.5c1.6,0,2.9-1.1,2.9-2.5v-22.8v-22.2h0.9
			v16.3c0,1.4,1.1,2.5,2.5,2.5c1.4,0,2.5-1.1,2.5-2.5V183C398,181.7,396.9,180.6,395.6,180.6z"/>
	</g>
	<g>
		<circle class="st0" cx="22.2" cy="247.5" r="7.2"/>
		<path class="st0" d="M32.4,255.2H11.9c-1.4,0-2.5,1.1-2.5,2.5v22.8c0,1.4,1.1,2.5,2.5,2.5s2.5-1.1,2.5-2.5v-16.3h0.9v22.2v22.8
			c0,1.4,1.3,2.5,2.9,2.5c1.6,0,2.9-1.1,2.9-2.5v-22.8h2.4v22.8c0,1.4,1.3,2.5,2.9,2.5c1.6,0,2.9-1.1,2.9-2.5v-22.8v-22.2H30v16.3
			c0,1.4,1.1,2.5,2.5,2.5c1.4,0,2.5-1.1,2.5-2.5v-22.8C34.9,256.3,33.8,255.2,32.4,255.2z"/>
	</g>
	<g>
		<circle class="st0" cx="50.1" cy="247.5" r="7.2"/>
		<path class="st0" d="M60.4,255.2H39.8c-1.4,0-2.5,1.1-2.5,2.5v22.8c0,1.4,1.1,2.5,2.5,2.5c1.4,0,2.5-1.1,2.5-2.5v-16.3h0.9v22.2
			v22.8c0,1.4,1.3,2.5,2.9,2.5c1.6,0,2.9-1.1,2.9-2.5v-22.8h2.4v22.8c0,1.4,1.3,2.5,2.9,2.5c1.6,0,2.9-1.1,2.9-2.5v-22.8v-22.2h0.9
			v16.3c0,1.4,1.1,2.5,2.5,2.5s2.5-1.1,2.5-2.5v-22.8C62.8,256.3,61.7,255.2,60.4,255.2z"/>
	</g>
	<g>
		<circle class="st0" cx="78" cy="247.5" r="7.2"/>
		<path class="st0" d="M88.3,255.2H67.7c-1.4,0-2.5,1.1-2.5,2.5v22.8c0,1.4,1.1,2.5,2.5,2.5c1.4,0,2.5-1.1,2.5-2.5v-16.3h0.9v22.2
			v22.8c0,1.4,1.3,2.5,2.9,2.5c1.6,0,2.9-1.1,2.9-2.5v-22.8h2.4v22.8c0,1.4,1.3,2.5,2.9,2.5c1.6,0,2.9-1.1,2.9-2.5v-22.8v-22.2h0.9
			v16.3c0,1.4,1.1,2.5,2.5,2.5c1.4,0,2.5-1.1,2.5-2.5v-22.8C90.8,256.3,89.7,255.2,88.3,255.2z"/>
	</g>
	<g>
		<circle class="st0" cx="105.9" cy="247.5" r="7.2"/>
		<path class="st0" d="M116.2,255.2H95.7c-1.4,0-2.5,1.1-2.5,2.5v22.8c0,1.4,1.1,2.5,2.5,2.5c1.4,0,2.5-1.1,2.5-2.5v-16.3H99v22.2
			v22.8c0,1.4,1.3,2.5,2.9,2.5c1.6,0,2.9-1.1,2.9-2.5v-22.8h2.4v22.8c0,1.4,1.3,2.5,2.9,2.5c1.6,0,2.9-1.1,2.9-2.5v-22.8v-22.2h0.9
			v16.3c0,1.4,1.1,2.5,2.5,2.5c1.4,0,2.5-1.1,2.5-2.5v-22.8C118.7,256.3,117.6,255.2,116.2,255.2z"/>
	</g>
	<g>
		<circle class="st0" cx="133.9" cy="247.5" r="7.2"/>
		<path class="st0" d="M144.2,255.2h-20.6c-1.4,0-2.5,1.1-2.5,2.5v22.8c0,1.4,1.1,2.5,2.5,2.5c1.4,0,2.5-1.1,2.5-2.5v-16.3h0.9v22.2
			v22.8c0,1.4,1.3,2.5,2.9,2.5c1.6,0,2.9-1.1,2.9-2.5v-22.8h2.4v22.8c0,1.4,1.3,2.5,2.9,2.5c1.6,0,2.9-1.1,2.9-2.5v-22.8v-22.2h0.9
			v16.3c0,1.4,1.1,2.5,2.5,2.5c1.4,0,2.5-1.1,2.5-2.5v-22.8C146.6,256.3,145.5,255.2,144.2,255.2z"/>
	</g>
	<g>
		<circle class="st0" cx="161.8" cy="247.5" r="7.2"/>
		<path class="st0" d="M172.1,255.2h-20.6c-1.4,0-2.5,1.1-2.5,2.5v22.8c0,1.4,1.1,2.5,2.5,2.5s2.5-1.1,2.5-2.5v-16.3h0.9v22.2v22.8
			c0,1.4,1.3,2.5,2.9,2.5c1.6,0,2.9-1.1,2.9-2.5v-22.8h2.4v22.8c0,1.4,1.3,2.5,2.9,2.5c1.6,0,2.9-1.1,2.9-2.5v-22.8v-22.2h0.9v16.3
			c0,1.4,1.1,2.5,2.5,2.5c1.4,0,2.5-1.1,2.5-2.5v-22.8C174.6,256.3,173.5,255.2,172.1,255.2z"/>
	</g>
	<g>
		<circle class="st0" cx="189.7" cy="247.5" r="7.2"/>
		<path class="st0" d="M200,255.2h-20.6c-1.4,0-2.5,1.1-2.5,2.5v22.8c0,1.4,1.1,2.5,2.5,2.5s2.5-1.1,2.5-2.5v-16.3h0.9v22.2v22.8
			c0,1.4,1.3,2.5,2.9,2.5c1.6,0,2.9-1.1,2.9-2.5v-22.8h2.4v22.8c0,1.4,1.3,2.5,2.9,2.5c1.6,0,2.9-1.1,2.9-2.5v-22.8v-22.2h0.9v16.3
			c0,1.4,1.1,2.5,2.5,2.5c1.4,0,2.5-1.1,2.5-2.5v-22.8C202.5,256.3,201.4,255.2,200,255.2z"/>
	</g>
	<g>
		<circle class="st0" cx="217.7" cy="247.5" r="7.2"/>
		<path class="st0" d="M228,255.2h-20.6c-1.4,0-2.5,1.1-2.5,2.5v22.8c0,1.4,1.1,2.5,2.5,2.5c1.4,0,2.5-1.1,2.5-2.5v-16.3h0.9v22.2
			v22.8c0,1.4,1.3,2.5,2.9,2.5c1.6,0,2.9-1.1,2.9-2.5v-22.8h2.4v22.8c0,1.4,1.3,2.5,2.9,2.5c1.6,0,2.9-1.1,2.9-2.5v-22.8v-22.2h0.9
			v16.3c0,1.4,1.1,2.5,2.5,2.5s2.5-1.1,2.5-2.5v-22.8C230.4,256.3,229.3,255.2,228,255.2z"/>
	</g>
	<g>
		
			<ellipse transform="matrix(0.1602 -0.9871 0.9871 0.1602 -38.0003 450.259)" class="st0" cx="245.6" cy="247.5" rx="7.2" ry="7.2"/>
		<path class="st0" d="M255.9,255.2h-20.6c-1.4,0-2.5,1.1-2.5,2.5v22.8c0,1.4,1.1,2.5,2.5,2.5c1.4,0,2.5-1.1,2.5-2.5v-16.3h0.9v22.2
			v22.8c0,1.4,1.3,2.5,2.9,2.5c1.6,0,2.9-1.1,2.9-2.5v-22.8h2.4v22.8c0,1.4,1.3,2.5,2.9,2.5c1.6,0,2.9-1.1,2.9-2.5v-22.8v-22.2h0.9
			v16.3c0,1.4,1.1,2.5,2.5,2.5s2.5-1.1,2.5-2.5v-22.8C258.4,256.3,257.3,255.2,255.9,255.2z"/>
	</g>
	<g>
		<circle class="st0" cx="273.5" cy="247.5" r="7.2"/>
		<path class="st0" d="M283.8,255.2h-20.6c-1.4,0-2.5,1.1-2.5,2.5v22.8c0,1.4,1.1,2.5,2.5,2.5c1.4,0,2.5-1.1,2.5-2.5v-16.3h0.9v22.2
			v22.8c0,1.4,1.3,2.5,2.9,2.5c1.6,0,2.9-1.1,2.9-2.5v-22.8h2.4v22.8c0,1.4,1.3,2.5,2.9,2.5c1.6,0,2.9-1.1,2.9-2.5v-22.8v-22.2h0.9
			v16.3c0,1.4,1.1,2.5,2.5,2.5c1.4,0,2.5-1.1,2.5-2.5v-22.8C286.3,256.3,285.2,255.2,283.8,255.2z"/>
	</g>
	<g>
		<circle class="st0" cx="301.5" cy="247.5" r="7.2"/>
		<path class="st0" d="M311.8,255.2h-20.6c-1.4,0-2.5,1.1-2.5,2.5v22.8c0,1.4,1.1,2.5,2.5,2.5c1.4,0,2.5-1.1,2.5-2.5v-16.3h0.9v22.2
			v22.8c0,1.4,1.3,2.5,2.9,2.5c1.6,0,2.9-1.1,2.9-2.5v-22.8h2.4v22.8c0,1.4,1.3,2.5,2.9,2.5c1.6,0,2.9-1.1,2.9-2.5v-22.8v-22.2h0.9
			v16.3c0,1.4,1.1,2.5,2.5,2.5c1.4,0,2.5-1.1,2.5-2.5v-22.8C314.2,256.3,313.1,255.2,311.8,255.2z"/>
	</g>
	<g>
		<circle class="st0" cx="329.4" cy="247.5" r="7.2"/>
		<path class="st0" d="M339.7,255.2h-20.6c-1.4,0-2.5,1.1-2.5,2.5v22.8c0,1.4,1.1,2.5,2.5,2.5s2.5-1.1,2.5-2.5v-16.3h0.9v22.2v22.8
			c0,1.4,1.3,2.5,2.9,2.5c1.6,0,2.9-1.1,2.9-2.5v-22.8h2.4v22.8c0,1.4,1.3,2.5,2.9,2.5c1.6,0,2.9-1.1,2.9-2.5v-22.8v-22.2h0.9v16.3
			c0,1.4,1.1,2.5,2.5,2.5s2.5-1.1,2.5-2.5v-22.8C342.2,256.3,341.1,255.2,339.7,255.2z"/>
	</g>
	<g>
		<circle class="st0" cx="357.3" cy="247.5" r="7.2"/>
		<path class="st0" d="M367.6,255.2H347c-1.4,0-2.5,1.1-2.5,2.5v22.8c0,1.4,1.1,2.5,2.5,2.5c1.4,0,2.5-1.1,2.5-2.5v-16.3h0.9v22.2
			v22.8c0,1.4,1.3,2.5,2.9,2.5c1.6,0,2.9-1.1,2.9-2.5v-22.8h2.4v22.8c0,1.4,1.3,2.5,2.9,2.5c1.6,0,2.9-1.1,2.9-2.5v-22.8v-22.2h0.9
			v16.3c0,1.4,1.1,2.5,2.5,2.5c1.4,0,2.5-1.1,2.5-2.5v-22.8C370.1,256.3,369,255.2,367.6,255.2z"/>
	</g>
	<g>
		<circle class="st0" cx="385.3" cy="247.5" r="7.2"/>
		<path class="st0" d="M395.6,255.2H375c-1.4,0-2.5,1.1-2.5,2.5v22.8c0,1.4,1.1,2.5,2.5,2.5c1.4,0,2.5-1.1,2.5-2.5v-16.3h0.9v22.2
			v22.8c0,1.4,1.3,2.5,2.9,2.5c1.6,0,2.9-1.1,2.9-2.5v-22.8h2.4v22.8c0,1.4,1.3,2.5,2.9,2.5c1.6,0,2.9-1.1,2.9-2.5v-22.8v-22.2h0.9
			v16.3c0,1.4,1.1,2.5,2.5,2.5c1.4,0,2.5-1.1,2.5-2.5v-22.8C398,256.3,396.9,255.2,395.6,255.2z"/>
	</g>
	<g>
		<circle class="st0" cx="22.2" cy="322.1" r="7.2"/>
		<path class="st0" d="M32.4,329.8H11.9c-1.4,0-2.5,1.1-2.5,2.5v22.8c0,1.4,1.1,2.5,2.5,2.5s2.5-1.1,2.5-2.5v-16.3h0.9V361v22.8
			c0,1.4,1.3,2.5,2.9,2.5c1.6,0,2.9-1.1,2.9-2.5V361h2.4v22.8c0,1.4,1.3,2.5,2.9,2.5c1.6,0,2.9-1.1,2.9-2.5V361v-22.2H30v16.3
			c0,1.4,1.1,2.5,2.5,2.5c1.4,0,2.5-1.1,2.5-2.5v-22.8C34.9,330.9,33.8,329.8,32.4,329.8z"/>
	</g>
	<g>
		<circle class="st0" cx="50.1" cy="322.1" r="7.2"/>
		<path class="st0" d="M60.4,329.8H39.8c-1.4,0-2.5,1.1-2.5,2.5v22.8c0,1.4,1.1,2.5,2.5,2.5c1.4,0,2.5-1.1,2.5-2.5v-16.3h0.9V361
			v22.8c0,1.4,1.3,2.5,2.9,2.5c1.6,0,2.9-1.1,2.9-2.5V361h2.4v22.8c0,1.4,1.3,2.5,2.9,2.5c1.6,0,2.9-1.1,2.9-2.5V361v-22.2h0.9v16.3
			c0,1.4,1.1,2.5,2.5,2.5s2.5-1.1,2.5-2.5v-22.8C62.8,330.9,61.7,329.8,60.4,329.8z"/>
	</g>
	<g>
		<circle class="st0" cx="78" cy="322.1" r="7.2"/>
		<path class="st0" d="M88.3,329.8H67.7c-1.4,0-2.5,1.1-2.5,2.5v22.8c0,1.4,1.1,2.5,2.5,2.5c1.4,0,2.5-1.1,2.5-2.5v-16.3h0.9V361
			v22.8c0,1.4,1.3,2.5,2.9,2.5c1.6,0,2.9-1.1,2.9-2.5V361h2.4v22.8c0,1.4,1.3,2.5,2.9,2.5c1.6,0,2.9-1.1,2.9-2.5V361v-22.2h0.9v16.3
			c0,1.4,1.1,2.5,2.5,2.5c1.4,0,2.5-1.1,2.5-2.5v-22.8C90.8,330.9,89.7,329.8,88.3,329.8z"/>
	</g>
	<g>
		<circle class="st0" cx="105.9" cy="322.1" r="7.2"/>
		<path class="st0" d="M116.2,329.8H95.7c-1.4,0-2.5,1.1-2.5,2.5v22.8c0,1.4,1.1,2.5,2.5,2.5c1.4,0,2.5-1.1,2.5-2.5v-16.3H99V361
			v22.8c0,1.4,1.3,2.5,2.9,2.5c1.6,0,2.9-1.1,2.9-2.5V361h2.4v22.8c0,1.4,1.3,2.5,2.9,2.5c1.6,0,2.9-1.1,2.9-2.5V361v-22.2h0.9v16.3
			c0,1.4,1.1,2.5,2.5,2.5c1.4,0,2.5-1.1,2.5-2.5v-22.8C118.7,330.9,117.6,329.8,116.2,329.8z"/>
	</g>
	<g>
		<circle class="st0" cx="133.9" cy="322.1" r="7.2"/>
		<path class="st0" d="M144.2,329.8h-20.6c-1.4,0-2.5,1.1-2.5,2.5v22.8c0,1.4,1.1,2.5,2.5,2.5c1.4,0,2.5-1.1,2.5-2.5v-16.3h0.9V361
			v22.8c0,1.4,1.3,2.5,2.9,2.5c1.6,0,2.9-1.1,2.9-2.5V361h2.4v22.8c0,1.4,1.3,2.5,2.9,2.5c1.6,0,2.9-1.1,2.9-2.5V361v-22.2h0.9v16.3
			c0,1.4,1.1,2.5,2.5,2.5c1.4,0,2.5-1.1,2.5-2.5v-22.8C146.6,330.9,145.5,329.8,144.2,329.8z"/>
	</g>
	<g>
		<circle class="st0" cx="161.8" cy="322.1" r="7.2"/>
		<path class="st0" d="M172.1,329.8h-20.6c-1.4,0-2.5,1.1-2.5,2.5v22.8c0,1.4,1.1,2.5,2.5,2.5s2.5-1.1,2.5-2.5v-16.3h0.9V361v22.8
			c0,1.4,1.3,2.5,2.9,2.5c1.6,0,2.9-1.1,2.9-2.5V361h2.4v22.8c0,1.4,1.3,2.5,2.9,2.5c1.6,0,2.9-1.1,2.9-2.5V361v-22.2h0.9v16.3
			c0,1.4,1.1,2.5,2.5,2.5c1.4,0,2.5-1.1,2.5-2.5v-22.8C174.6,330.9,173.5,329.8,172.1,329.8z"/>
	</g>
	<g>
		<circle class="st0" cx="189.7" cy="322.1" r="7.2"/>
		<path class="st0" d="M200,329.8h-20.6c-1.4,0-2.5,1.1-2.5,2.5v22.8c0,1.4,1.1,2.5,2.5,2.5s2.5-1.1,2.5-2.5v-16.3h0.9V361v22.8
			c0,1.4,1.3,2.5,2.9,2.5c1.6,0,2.9-1.1,2.9-2.5V361h2.4v22.8c0,1.4,1.3,2.5,2.9,2.5c1.6,0,2.9-1.1,2.9-2.5V361v-22.2h0.9v16.3
			c0,1.4,1.1,2.5,2.5,2.5c1.4,0,2.5-1.1,2.5-2.5v-22.8C202.5,330.9,201.4,329.8,200,329.8z"/>
	</g>
	<g>
		<circle class="st0" cx="217.7" cy="322.1" r="7.2"/>
		<path class="st0" d="M228,329.8h-20.6c-1.4,0-2.5,1.1-2.5,2.5v22.8c0,1.4,1.1,2.5,2.5,2.5c1.4,0,2.5-1.1,2.5-2.5v-16.3h0.9V361
			v22.8c0,1.4,1.3,2.5,2.9,2.5c1.6,0,2.9-1.1,2.9-2.5V361h2.4v22.8c0,1.4,1.3,2.5,2.9,2.5c1.6,0,2.9-1.1,2.9-2.5V361v-22.2h0.9v16.3
			c0,1.4,1.1,2.5,2.5,2.5s2.5-1.1,2.5-2.5v-22.8C230.4,330.9,229.3,329.8,228,329.8z"/>
	</g>
	<g>
		
			<ellipse transform="matrix(0.9951 -9.853750e-02 9.853750e-02 0.9951 -30.542 25.7691)" class="st0" cx="245.6" cy="322.1" rx="7.2" ry="7.2"/>
		<path class="st0" d="M255.9,329.8h-20.6c-1.4,0-2.5,1.1-2.5,2.5v22.8c0,1.4,1.1,2.5,2.5,2.5c1.4,0,2.5-1.1,2.5-2.5v-16.3h0.9V361
			v22.8c0,1.4,1.3,2.5,2.9,2.5c1.6,0,2.9-1.1,2.9-2.5V361h2.4v22.8c0,1.4,1.3,2.5,2.9,2.5c1.6,0,2.9-1.1,2.9-2.5V361v-22.2h0.9v16.3
			c0,1.4,1.1,2.5,2.5,2.5s2.5-1.1,2.5-2.5v-22.8C258.4,330.9,257.3,329.8,255.9,329.8z"/>
	</g>
	<g>
		<circle class="st0" cx="273.5" cy="322.1" r="7.2"/>
		<path class="st0" d="M283.8,329.8h-20.6c-1.4,0-2.5,1.1-2.5,2.5v22.8c0,1.4,1.1,2.5,2.5,2.5c1.4,0,2.5-1.1,2.5-2.5v-16.3h0.9V361
			v22.8c0,1.4,1.3,2.5,2.9,2.5c1.6,0,2.9-1.1,2.9-2.5V361h2.4v22.8c0,1.4,1.3,2.5,2.9,2.5c1.6,0,2.9-1.1,2.9-2.5V361v-22.2h0.9v16.3
			c0,1.4,1.1,2.5,2.5,2.5c1.4,0,2.5-1.1,2.5-2.5v-22.8C286.3,330.9,285.2,329.8,283.8,329.8z"/>
	</g>
	<g>
		<circle class="st0" cx="301.5" cy="322.1" r="7.2"/>
		<path class="st0" d="M311.8,329.8h-20.6c-1.4,0-2.5,1.1-2.5,2.5v22.8c0,1.4,1.1,2.5,2.5,2.5c1.4,0,2.5-1.1,2.5-2.5v-16.3h0.9V361
			v22.8c0,1.4,1.3,2.5,2.9,2.5c1.6,0,2.9-1.1,2.9-2.5V361h2.4v22.8c0,1.4,1.3,2.5,2.9,2.5c1.6,0,2.9-1.1,2.9-2.5V361v-22.2h0.9v16.3
			c0,1.4,1.1,2.5,2.5,2.5c1.4,0,2.5-1.1,2.5-2.5v-22.8C314.2,330.9,313.1,329.8,311.8,329.8z"/>
	</g>
	<g>
		<circle class="st0" cx="329.4" cy="322.1" r="7.2"/>
		<path class="st0" d="M339.7,329.8h-20.6c-1.4,0-2.5,1.1-2.5,2.5v22.8c0,1.4,1.1,2.5,2.5,2.5s2.5-1.1,2.5-2.5v-16.3h0.9V361v22.8
			c0,1.4,1.3,2.5,2.9,2.5c1.6,0,2.9-1.1,2.9-2.5V361h2.4v22.8c0,1.4,1.3,2.5,2.9,2.5c1.6,0,2.9-1.1,2.9-2.5V361v-22.2h0.9v16.3
			c0,1.4,1.1,2.5,2.5,2.5s2.5-1.1,2.5-2.5v-22.8C342.2,330.9,341.1,329.8,339.7,329.8z"/>
	</g>
	<g>
		<circle class="st0" cx="357.3" cy="322.1" r="7.2"/>
		<path class="st0" d="M367.6,329.8H347c-1.4,0-2.5,1.1-2.5,2.5v22.8c0,1.4,1.1,2.5,2.5,2.5c1.4,0,2.5-1.1,2.5-2.5v-16.3h0.9V361
			v22.8c0,1.4,1.3,2.5,2.9,2.5c1.6,0,2.9-1.1,2.9-2.5V361h2.4v22.8c0,1.4,1.3,2.5,2.9,2.5c1.6,0,2.9-1.1,2.9-2.5V361v-22.2h0.9v16.3
			c0,1.4,1.1,2.5,2.5,2.5c1.4,0,2.5-1.1,2.5-2.5v-22.8C370.1,330.9,369,329.8,367.6,329.8z"/>
	</g>
	<g>
		<circle class="st0" cx="385.3" cy="322.1" r="7.2"/>
		<path class="st0" d="M395.6,329.8H375c-1.4,0-2.5,1.1-2.5,2.5v22.8c0,1.4,1.1,2.5,2.5,2.5c1.4,0,2.5-1.1,2.5-2.5v-16.3h0.9V361
			v22.8c0,1.4,1.3,2.5,2.9,2.5c1.6,0,2.9-1.1,2.9-2.5V361h2.4v22.8c0,1.4,1.3,2.5,2.9,2.5c1.6,0,2.9-1.1,2.9-2.5V361v-22.2h0.9v16.3
			c0,1.4,1.1,2.5,2.5,2.5c1.4,0,2.5-1.1,2.5-2.5v-22.8C398,330.9,396.9,329.8,395.6,329.8z"/>
	</g>
	<g>
		<g>
			<g>
				<circle class="st1" cx="493.9" cy="322.1" r="7.2"/>
			</g>
			<path class="st1" d="M504.1,329.8h-20.6c-1.4,0-2.5,1.1-2.5,2.5v22.8c0,1.4,1.1,2.5,2.5,2.5c1.4,0,2.5-1.1,2.5-2.5v-16.3h0.9V361
				v22.8c0,1.4,1.3,2.5,2.9,2.5c1.6,0,2.9-1.1,2.9-2.5V361h2.4v22.8c0,1.4,1.3,2.5,2.9,2.5c1.6,0,2.9-1.1,2.9-2.5V361v-22.2h0.9
				v16.3c0,1.4,1.1,2.5,2.5,2.5c1.4,0,2.5-1.1,2.5-2.5v-22.8C506.6,330.9,505.5,329.8,504.1,329.8z"/>
		</g>
	</g>
	<g>
		<g>
			<g>
				<circle class="st1" cx="521.8" cy="322.1" r="7.2"/>
			</g>
			<path class="st1" d="M532.1,329.8h-20.6c-1.4,0-2.5,1.1-2.5,2.5v22.8c0,1.4,1.1,2.5,2.5,2.5s2.5-1.1,2.5-2.5v-16.3h0.9V361v22.8
				c0,1.4,1.3,2.5,2.9,2.5c1.6,0,2.9-1.1,2.9-2.5V361h2.4v22.8c0,1.4,1.3,2.5,2.9,2.5c1.6,0,2.9-1.1,2.9-2.5V361v-22.2h1v16.3
				c0,1.4,1.1,2.5,2.5,2.5s2.5-1.1,2.5-2.5v-22.8C534.5,330.9,533.4,329.8,532.1,329.8z"/>
		</g>
	</g>
	<g>
		<g>
			<g>
				
					<ellipse transform="matrix(0.9239 -0.3827 0.3827 0.9239 -81.4113 234.8847)" class="st1" cx="549.7" cy="322.1" rx="7.2" ry="7.2"/>
			</g>
			<path class="st1" d="M560,329.8h-20.6c-1.4,0-2.5,1.1-2.5,2.5v22.8c0,1.4,1.1,2.5,2.5,2.5s2.5-1.1,2.5-2.5v-16.3h0.9V361v22.8
				c0,1.4,1.3,2.5,2.9,2.5c1.6,0,2.9-1.1,2.9-2.5V361h2.4v22.8c0,1.4,1.3,2.5,2.9,2.5c1.6,0,2.9-1.1,2.9-2.5V361v-22.2h0.9v16.3
				c0,1.4,1.1,2.5,2.5,2.5c1.4,0,2.5-1.1,2.5-2.5v-22.8C562.5,330.9,561.4,329.8,560,329.8z"/>
		</g>
	</g>
</g>
<g>
	<path class="st2" d="M495.9,210.3c1,0.6,2.4,1.1,3.9,1.1c2.2,0,3.6-1.2,3.6-2.9c0-1.6-0.9-2.5-3.2-3.4c-2.8-1-4.5-2.4-4.5-4.8
		c0-2.6,2.2-4.6,5.5-4.6c1.7,0,3,0.4,3.8,0.8l-0.6,1.8c-0.6-0.3-1.7-0.8-3.2-0.8c-2.3,0-3.2,1.4-3.2,2.5c0,1.6,1,2.4,3.4,3.3
		c2.9,1.1,4.3,2.5,4.3,5c0,2.6-1.9,4.9-6,4.9c-1.6,0-3.4-0.5-4.3-1.1L495.9,210.3z"/>
	<path class="st2" d="M515.4,212.9l-0.2-1.5h-0.1c-0.7,1-2,1.8-3.7,1.8c-2.5,0-3.7-1.7-3.7-3.5c0-3,2.6-4.6,7.3-4.5v-0.3
		c0-1-0.3-2.8-2.8-2.8c-1.1,0-2.3,0.3-3.2,0.9l-0.5-1.5c1-0.7,2.5-1.1,4-1.1c3.7,0,4.6,2.5,4.6,5v4.6c0,1.1,0,2.1,0.2,2.9
		L515.4,212.9L515.4,212.9z M515,206.7c-2.4,0-5.2,0.4-5.2,2.8c0,1.4,1,2.1,2.1,2.1c1.6,0,2.6-1,3-2c0.1-0.2,0.1-0.5,0.1-0.7
		L515,206.7L515,206.7z"/>
	<path class="st2" d="M520.8,195h2.2v17.9h-2.2V195z"/>
	<path class="st2" d="M537.8,206.7c0,4.5-3.1,6.5-6.1,6.5c-3.3,0-5.8-2.4-5.8-6.3c0-4.1,2.7-6.5,6.1-6.5
		C535.4,200.5,537.8,203,537.8,206.7z M528.1,206.9c0,2.7,1.5,4.7,3.7,4.7c2.1,0,3.7-2,3.7-4.7c0-2.1-1-4.7-3.7-4.7
		S528.1,204.5,528.1,206.9z"/>
	<path class="st2" d="M540.6,204c0-1.3,0-2.3-0.1-3.3h2l0.1,2h0c0.6-1.2,2-2.3,4-2.3c1.7,0,4.3,1,4.3,5.2v7.3h-2.2v-7
		c0-2-0.7-3.6-2.8-3.6c-1.5,0-2.6,1-3,2.3c-0.1,0.3-0.2,0.7-0.2,1v7.3h-2.2L540.6,204L540.6,204z"/>
	<path class="st2" d="M455,226.4c1.1-0.2,2.5-0.3,4.2-0.3c2.2,0,3.8,0.5,4.8,1.4c0.9,0.8,1.5,2,1.5,3.6c0,1.5-0.5,2.8-1.3,3.6
		c-1.2,1.2-3.1,1.9-5.2,1.9c-0.7,0-1.3,0-1.8-0.2v6.8H455L455,226.4L455,226.4z M457.2,234.6c0.5,0.1,1.1,0.2,1.8,0.2
		c2.7,0,4.3-1.3,4.3-3.6c0-2.2-1.6-3.3-4-3.3c-1,0-1.7,0.1-2.1,0.2V234.6z"/>
	<path class="st2" d="M467.9,234.8c0-1.4,0-2.7-0.1-3.8h1.9l0.1,2.4h0.1c0.6-1.6,1.9-2.7,3.4-2.7c0.3,0,0.4,0,0.6,0.1v2.1
		c-0.2,0-0.5-0.1-0.8-0.1c-1.6,0-2.7,1.2-3,2.8c0,0.3-0.1,0.7-0.1,1v6.5h-2.2V234.8z"/>
	<path class="st2" d="M487,237c0,4.5-3.1,6.5-6.1,6.5c-3.3,0-5.8-2.4-5.8-6.3c0-4.1,2.7-6.5,6.1-6.5C484.6,230.7,487,233.3,487,237z
		 M477.3,237.1c0,2.7,1.5,4.7,3.7,4.7c2.1,0,3.7-2,3.7-4.7c0-2.1-1-4.7-3.7-4.7C478.4,232.4,477.3,234.8,477.3,237.1z"/>
	<path class="st2" d="M490,243.2v-10.5h-1.7V231h1.7v-0.6c0-1.7,0.4-3.3,1.4-4.3c0.8-0.8,1.9-1.1,3-1.1c0.8,0,1.5,0.2,1.9,0.3
		l-0.3,1.7c-0.3-0.1-0.8-0.3-1.4-0.3c-1.9,0-2.4,1.7-2.4,3.5v0.7h3v1.7h-3v10.5L490,243.2L490,243.2z"/>
	<path class="st2" d="M498,237.5c0,3,2,4.2,4.2,4.2c1.6,0,2.5-0.3,3.4-0.6l0.4,1.6c-0.8,0.3-2.1,0.8-4.1,0.8c-3.8,0-6-2.5-6-6.1
		c0-3.7,2.2-6.6,5.7-6.6c4,0,5,3.5,5,5.8c0,0.5,0,0.8-0.1,1H498z M504.5,235.9c0-1.4-0.6-3.6-3.1-3.6c-2.2,0-3.2,2.1-3.4,3.6H504.5z
		"/>
	<path class="st2" d="M509.1,240.9c0.6,0.4,1.8,0.9,2.9,0.9c1.6,0,2.4-0.8,2.4-1.8c0-1.1-0.6-1.6-2.3-2.2c-2.2-0.8-3.2-2-3.2-3.5
		c0-2,1.6-3.6,4.2-3.6c1.2,0,2.3,0.3,3,0.8l-0.6,1.6c-0.5-0.3-1.4-0.7-2.5-0.7c-1.3,0-2,0.8-2,1.7c0,1,0.7,1.5,2.3,2.1
		c2.1,0.8,3.2,1.9,3.2,3.7c0,2.1-1.7,3.7-4.6,3.7c-1.3,0-2.6-0.3-3.4-0.8L509.1,240.9z"/>
	<path class="st2" d="M519.1,240.9c0.7,0.4,1.8,0.9,2.9,0.9c1.6,0,2.4-0.8,2.4-1.8c0-1.1-0.6-1.6-2.3-2.2c-2.2-0.8-3.2-2-3.2-3.5
		c0-2,1.6-3.6,4.2-3.6c1.2,0,2.3,0.3,3,0.8l-0.6,1.6c-0.5-0.3-1.4-0.7-2.5-0.7c-1.3,0-2,0.8-2,1.7c0,1,0.7,1.5,2.3,2.1
		c2.1,0.8,3.2,1.9,3.2,3.7c0,2.1-1.7,3.7-4.6,3.7c-1.3,0-2.6-0.3-3.4-0.8L519.1,240.9z"/>
	<path class="st2" d="M531.9,227.6c0,0.8-0.5,1.4-1.4,1.4c-0.8,0-1.3-0.6-1.3-1.4c0-0.8,0.6-1.4,1.4-1.4
		C531.4,226.2,531.9,226.8,531.9,227.6z M529.4,243.2V231h2.2v12.2H529.4z"/>
	<path class="st2" d="M546.4,237c0,4.5-3.1,6.5-6.1,6.5c-3.3,0-5.8-2.4-5.8-6.3c0-4.1,2.7-6.5,6.1-6.5
		C544,230.7,546.4,233.3,546.4,237z M536.7,237.1c0,2.7,1.5,4.7,3.7,4.7c2.1,0,3.7-2,3.7-4.7c0-2.1-1-4.7-3.7-4.7
		S536.7,234.8,536.7,237.1z"/>
	<path class="st2" d="M549.2,234.3c0-1.3,0-2.3-0.1-3.3h2l0.1,2h0c0.6-1.2,2-2.3,4-2.3c1.7,0,4.3,1,4.3,5.2v7.3h-2.2v-7
		c0-2-0.7-3.6-2.8-3.6c-1.5,0-2.6,1-3,2.3c-0.1,0.3-0.1,0.7-0.1,1v7.3h-2.2L549.2,234.3L549.2,234.3z"/>
	<path class="st2" d="M563.2,234.3c0-1.3,0-2.3-0.1-3.3h2l0.1,2h0c0.6-1.2,2-2.3,4-2.3c1.7,0,4.3,1,4.3,5.2v7.3h-2.2v-7
		c0-2-0.7-3.6-2.8-3.6c-1.5,0-2.6,1-3,2.3c-0.1,0.3-0.2,0.7-0.2,1v7.3h-2.2L563.2,234.3L563.2,234.3z"/>
	<path class="st2" d="M578.4,237.5c0,3,2,4.2,4.2,4.2c1.6,0,2.5-0.3,3.4-0.6l0.4,1.6c-0.8,0.3-2.1,0.8-4.1,0.8c-3.8,0-6-2.5-6-6.1
		c0-3.7,2.2-6.6,5.7-6.6c4,0,5,3.5,5,5.8c0,0.5,0,0.8-0.1,1H578.4z M584.9,235.9c0-1.4-0.6-3.6-3.1-3.6c-2.2,0-3.2,2.1-3.4,3.6
		H584.9z"/>
	<path class="st2" d="M589.8,225.3h2.2v17.9h-2.2V225.3z"/>
	<path class="st2" d="M486,273c-0.6,0.3-1.9,0.7-3.5,0.7c-3.7,0-6.1-2.5-6.1-6.2c0-3.8,2.6-6.5,6.6-6.5c1.3,0,2.5,0.3,3.1,0.6
		l-0.5,1.7c-0.5-0.3-1.4-0.6-2.6-0.6c-2.8,0-4.3,2.1-4.3,4.6c0,2.8,1.8,4.6,4.2,4.6c1.3,0,2.1-0.3,2.7-0.6L486,273z"/>
	<path class="st2" d="M488.6,255.6h2.2v17.9h-2.2V255.6z"/>
	<path class="st2" d="M501.3,273.5l-0.2-1.5h-0.1c-0.7,1-2,1.8-3.7,1.8c-2.5,0-3.7-1.7-3.7-3.5c0-3,2.6-4.6,7.3-4.5v-0.3
		c0-1-0.3-2.8-2.8-2.8c-1.1,0-2.3,0.3-3.2,0.9l-0.5-1.5c1-0.7,2.5-1.1,4-1.1c3.7,0,4.6,2.5,4.6,5v4.6c0,1.1,0,2.1,0.2,2.9
		L501.3,273.5L501.3,273.5z M501,267.2c-2.4,0-5.2,0.4-5.2,2.8c0,1.4,1,2.1,2.1,2.1c1.6,0,2.6-1,3-2c0.1-0.2,0.1-0.5,0.1-0.7
		L501,267.2L501,267.2z"/>
	<path class="st2" d="M506.4,271.2c0.6,0.4,1.8,0.9,2.9,0.9c1.6,0,2.4-0.8,2.4-1.8c0-1.1-0.6-1.6-2.3-2.2c-2.2-0.8-3.2-2-3.2-3.5
		c0-2,1.6-3.6,4.2-3.6c1.2,0,2.3,0.3,3,0.8l-0.6,1.6c-0.5-0.3-1.4-0.7-2.5-0.7c-1.3,0-2,0.8-2,1.7c0,1,0.7,1.5,2.3,2.1
		c2.1,0.8,3.2,1.9,3.2,3.7c0,2.1-1.7,3.7-4.6,3.7c-1.3,0-2.6-0.3-3.4-0.8L506.4,271.2z"/>
	<path class="st2" d="M516.4,271.2c0.6,0.4,1.8,0.9,2.9,0.9c1.6,0,2.4-0.8,2.4-1.8c0-1.1-0.6-1.6-2.3-2.2c-2.2-0.8-3.2-2-3.2-3.5
		c0-2,1.6-3.6,4.2-3.6c1.2,0,2.3,0.3,3,0.8l-0.6,1.6c-0.5-0.3-1.4-0.7-2.5-0.7c-1.3,0-2,0.8-2,1.7c0,1,0.7,1.5,2.3,2.1
		c2.1,0.8,3.2,1.9,3.2,3.7c0,2.1-1.7,3.7-4.6,3.7c-1.3,0-2.6-0.3-3.4-0.8L516.4,271.2z"/>
	<path class="st2" d="M529.2,257.8c0,0.8-0.5,1.4-1.4,1.4c-0.8,0-1.3-0.6-1.3-1.4c0-0.8,0.6-1.4,1.4-1.4
		C528.6,256.5,529.2,257.1,529.2,257.8z M526.7,273.5v-12.2h2.2v12.2H526.7z"/>
	<path class="st2" d="M540.9,271.6L540.9,271.6c-0.7,1.2-2.1,2.2-4,2.2c-2.8,0-5.2-2.5-5.2-6.2c0-4.6,3-6.6,5.5-6.6
		c1.9,0,3.1,0.9,3.8,2.1h0l0.1-1.8h2.1c0,1-0.1,2.1-0.1,3.4v13.8h-2.2V271.6z M540.9,266.2c0-0.3,0-0.7-0.1-0.9
		c-0.3-1.4-1.5-2.5-3.2-2.5c-2.3,0-3.7,1.9-3.7,4.7c0,2.4,1.2,4.5,3.6,4.5c1.4,0,2.7-0.9,3.2-2.4c0.1-0.3,0.2-0.7,0.2-1.1
		L540.9,266.2L540.9,266.2z"/>
	<path class="st2" d="M557,270.1c0,1.3,0,2.4,0.1,3.3h-2l-0.1-2h0c-0.6,1-1.9,2.3-4,2.3c-1.9,0-4.2-1.1-4.2-5.3v-7.1h2.2v6.8
		c0,2.3,0.7,3.9,2.7,3.9c1.5,0,2.5-1,2.9-2c0.1-0.3,0.2-0.7,0.2-1.1v-7.5h2.2V270.1z"/>
	<path class="st2" d="M561.9,267.8c0,3,2,4.2,4.2,4.2c1.6,0,2.5-0.3,3.4-0.6l0.4,1.6c-0.8,0.3-2.1,0.8-4.1,0.8c-3.8,0-6-2.5-6-6.1
		c0-3.7,2.2-6.6,5.7-6.6c4,0,5,3.5,5,5.8c0,0.5,0,0.8-0.1,1L561.9,267.8L561.9,267.8z M568.4,266.2c0-1.4-0.6-3.6-3.1-3.6
		c-2.2,0-3.2,2.1-3.4,3.6H568.4z"/>
</g>
<g>
	<path class="st2" d="M18.1,69.5V23.7c-1.4,1-4.9,2.5-6.4,2.8v-2.6c2.5-0.8,6.1-3.1,7.3-4.3H21v49.8L18.1,69.5L18.1,69.5z"/>
	<path class="st2" d="M47.3,31.4v26.9c0,9.4-4.2,11.8-9.3,11.8c-4.6,0-9.1-2.2-9.1-11.6v-27c0-10.1,5.1-12.1,9.3-12.1
		C42.3,19.4,47.3,21.4,47.3,31.4z M31.9,31.4v26.8c0,6.2,2,8.9,6.3,8.9c3.6,0,6.1-1.7,6.1-9.1V31.5c0-7.2-2.8-9.2-6.2-9.2
		C34.6,22.3,31.9,24,31.9,31.4z"/>
	<path class="st2" d="M71.5,31.4v26.9c0,9.4-4.2,11.8-9.3,11.8c-4.6,0-9.1-2.2-9.1-11.6v-27c0-10.1,5.1-12.1,9.3-12.1
		C66.6,19.4,71.5,21.4,71.5,31.4z M56.2,31.4v26.8c0,6.2,2,8.9,6.3,8.9c3.6,0,6.1-1.7,6.1-9.1V31.5c0-7.2-2.8-9.2-6.2-9.2
		C58.9,22.3,56.2,24,56.2,31.4z"/>
	<path class="st2" d="M89.7,26.9v10.9c0,3.3-1,8-6.4,8c-5.5,0-6.5-4.5-6.5-8V27.2c0-5.2,2.5-7.8,6.6-7.8
		C87,19.4,89.7,21.6,89.7,26.9z M79.3,69.5L102,20h2.5L81.8,69.5L79.3,69.5L79.3,69.5z M79.4,27.2v10.3c0,4.1,1.1,5.7,3.9,5.7
		c2.9,0,3.8-1.8,3.8-5.7V27.1c0-3.1-1.1-5.3-3.8-5.3S79.4,23.6,79.4,27.2z M107.2,51.2v10.9c0,3.3-1,8-6.4,8c-5.8,0-6.5-4.5-6.5-8
		V51.5c0-5.2,2.5-7.8,6.6-7.8C104.6,43.7,107.2,45.9,107.2,51.2z M97,51.5v10.3c0,3.6,1.1,5.7,3.9,5.7c2.9,0,3.8-1.8,3.8-5.7V51.4
		c0-3.1-1.1-5.3-3.8-5.3C98.1,46.1,97,47.9,97,51.5z"/>
</g>
<g>
	<path class="st2" d="M140.7,20.7v18.6h-2V37c-0.4,0.8-0.9,1.4-1.7,1.8s-1.6,0.6-2.6,0.6c-1.1,0-2.1-0.3-2.9-0.8
		c-0.9-0.6-1.5-1.3-2-2.3c-0.5-1-0.7-2.2-0.7-3.5c0-1.3,0.2-2.5,0.7-3.4c0.5-1,1.1-1.7,2-2.3c0.9-0.5,1.8-0.8,3-0.8
		c1,0,1.9,0.2,2.6,0.6c0.7,0.4,1.3,1,1.7,1.8v-8L140.7,20.7L140.7,20.7z M137.7,36.5c0.7-0.9,1-2.1,1-3.6c0-1.5-0.3-2.8-1-3.6
		c-0.7-0.9-1.6-1.3-2.9-1.3s-2.2,0.4-2.9,1.3c-0.7,0.8-1,2-1,3.6c0,1.6,0.3,2.8,1,3.6c0.7,0.9,1.7,1.3,2.9,1.3
		C136,37.7,137,37.3,137.7,36.5z"/>
	<path class="st2" d="M155.5,32.8h-9.3c0,1.6,0.4,2.8,1.1,3.7c0.7,0.8,1.8,1.2,3.2,1.2c1.5,0,2.8-0.5,4.1-1.5l0.7,1.5
		c-0.6,0.5-1.3,0.9-2.1,1.2c-0.9,0.3-1.8,0.5-2.7,0.5c-2,0-3.5-0.6-4.7-1.8c-1.1-1.2-1.7-2.8-1.7-4.8c0-1.3,0.3-2.4,0.8-3.4
		c0.5-1,1.2-1.8,2.1-2.3c0.9-0.6,1.9-0.8,3.1-0.8c1.7,0,3,0.6,4,1.7c1,1.1,1.4,2.6,1.4,4.6L155.5,32.8L155.5,32.8z M147.6,28.8
		c-0.7,0.6-1.1,1.5-1.3,2.7h7.4c-0.1-1.2-0.4-2.1-1-2.7c-0.6-0.6-1.4-0.9-2.5-0.9C149.1,27.8,148.2,28.2,147.6,28.8z"/>
	<path class="st2" d="M174.8,26.6h2l-5.5,12.7h-1.9l-5.4-12.7h2.1l4.3,10.4L174.8,26.6z"/>
	<path class="st2" d="M179.2,21.2h2.5v2.3h-2.5V21.2z M179.4,39.2V26.6h2v12.7H179.4z"/>
	<path class="st2" d="M184.8,37.8l0.7-1.5c0.7,0.5,1.4,0.9,2.1,1.2c0.7,0.2,1.5,0.3,2.4,0.3c1,0,1.7-0.2,2.2-0.5
		c0.5-0.3,0.7-0.8,0.7-1.4c0-0.5-0.2-0.9-0.5-1.2c-0.3-0.3-0.9-0.5-1.7-0.7l-2.1-0.5c-1.1-0.2-1.9-0.7-2.5-1.3
		c-0.6-0.6-0.9-1.3-0.9-2.2c0-1.1,0.4-2,1.3-2.7c0.9-0.7,2.1-1,3.5-1c0.9,0,1.7,0.1,2.5,0.4c0.8,0.3,1.5,0.7,2,1.2l-0.7,1.5
		c-1.2-1-2.5-1.5-3.8-1.5c-0.9,0-1.6,0.2-2.1,0.5c-0.5,0.3-0.7,0.8-0.7,1.5c0,0.5,0.2,0.9,0.5,1.2c0.3,0.3,0.8,0.5,1.5,0.7l2.1,0.5
		c1.2,0.3,2.1,0.7,2.6,1.2s0.9,1.3,0.9,2.2c0,1.1-0.4,2-1.3,2.6c-0.9,0.6-2.1,1-3.6,1C187.8,39.4,186.1,38.9,184.8,37.8z"/>
	<path class="st2" d="M198.2,21.2h2.5v2.3h-2.5V21.2z M198.4,39.2V26.6h2v12.7H198.4z"/>
	<path class="st2" d="M207.4,28.2v6.9c0,0.9,0.2,1.6,0.6,2c0.4,0.4,0.9,0.6,1.6,0.6c0.5,0,0.9-0.1,1.4-0.2v1.7
		c-0.5,0.2-1.1,0.3-1.8,0.3c-1.2,0-2.2-0.3-2.8-1c-0.7-0.7-1-1.7-1-3v-7.2h-2.5v-1.6h2.5v-3.3l2-0.7v4h3.6v1.6H207.4z"/>
	<path class="st2" d="M224.3,32.8H215c0,1.6,0.4,2.8,1.1,3.7c0.7,0.8,1.8,1.2,3.2,1.2c1.5,0,2.8-0.5,4.1-1.5l0.7,1.5
		c-0.6,0.5-1.3,0.9-2.1,1.2c-0.9,0.3-1.8,0.5-2.7,0.5c-2,0-3.5-0.6-4.7-1.8c-1.1-1.2-1.7-2.8-1.7-4.8c0-1.3,0.3-2.4,0.8-3.4
		c0.5-1,1.2-1.8,2.1-2.3c0.9-0.6,1.9-0.8,3.1-0.8c1.7,0,3,0.6,4,1.7c1,1.1,1.4,2.6,1.4,4.6L224.3,32.8L224.3,32.8z M216.4,28.8
		c-0.7,0.6-1.1,1.5-1.3,2.7h7.4c-0.1-1.2-0.4-2.1-1-2.7c-0.6-0.6-1.4-0.9-2.5-0.9C217.9,27.8,217,28.2,216.4,28.8z"/>
	<path class="st2" d="M238.3,26.6v12.7h-2V37c-0.4,0.8-1,1.4-1.7,1.8c-0.7,0.4-1.5,0.6-2.5,0.6c-1.5,0-2.6-0.4-3.4-1.3
		c-0.8-0.8-1.2-2.1-1.2-3.7v-7.9h2v7.8c0,1.1,0.2,2,0.7,2.5c0.5,0.5,1.2,0.8,2.1,0.8c1.1,0,2-0.4,2.7-1.1c0.7-0.7,1-1.7,1-2.9v-7.2
		L238.3,26.6L238.3,26.6z"/>
	<path class="st2" d="M249.6,26.4l0,1.9c-0.4-0.1-0.8-0.2-1.3-0.2c-1.2,0-2.1,0.4-2.7,1.2c-0.6,0.8-0.9,1.7-0.9,2.8v7.2h-2v-9.1
		c0-1.3-0.1-2.5-0.2-3.6h1.9l0.2,2.3c0.3-0.9,0.8-1.5,1.5-2c0.7-0.5,1.5-0.7,2.4-0.7C248.8,26.3,249.2,26.3,249.6,26.4z"/>
	<path class="st2" d="M251,37.8l0.7-1.5c0.7,0.5,1.4,0.9,2.1,1.2c0.7,0.2,1.5,0.3,2.4,0.3c1,0,1.7-0.2,2.2-0.5
		c0.5-0.3,0.7-0.8,0.7-1.4c0-0.5-0.2-0.9-0.5-1.2c-0.3-0.3-0.9-0.5-1.7-0.7l-2.1-0.5c-1.1-0.2-1.9-0.7-2.5-1.3
		c-0.6-0.6-0.9-1.3-0.9-2.2c0-1.1,0.4-2,1.3-2.7c0.9-0.7,2.1-1,3.5-1c0.9,0,1.7,0.1,2.5,0.4s1.5,0.7,2,1.2l-0.7,1.5
		c-1.2-1-2.5-1.5-3.8-1.5c-0.9,0-1.6,0.2-2.1,0.5c-0.5,0.3-0.7,0.8-0.7,1.5c0,0.5,0.2,0.9,0.5,1.2c0.3,0.3,0.8,0.5,1.5,0.7l2.1,0.5
		c1.2,0.3,2.1,0.7,2.6,1.2c0.6,0.6,0.9,1.3,0.9,2.2c0,1.1-0.4,2-1.3,2.6c-0.9,0.6-2.1,1-3.6,1C253.9,39.4,252.2,38.9,251,37.8z"/>
	<path class="st2" d="M282,32.8h-9.3c0,1.6,0.4,2.8,1.1,3.7c0.7,0.8,1.8,1.2,3.2,1.2c1.5,0,2.8-0.5,4.1-1.5l0.7,1.5
		c-0.6,0.5-1.3,0.9-2.1,1.2c-0.9,0.3-1.8,0.5-2.7,0.5c-2,0-3.5-0.6-4.7-1.8c-1.1-1.2-1.7-2.8-1.7-4.8c0-1.3,0.3-2.4,0.8-3.4
		c0.5-1,1.2-1.8,2.1-2.3c0.9-0.6,1.9-0.8,3.1-0.8c1.7,0,3,0.6,4,1.7c1,1.1,1.4,2.6,1.4,4.6V32.8z M274,28.8
		c-0.7,0.6-1.1,1.5-1.3,2.7h7.4c-0.1-1.2-0.4-2.1-1-2.7c-0.6-0.6-1.4-0.9-2.5-0.9C275.5,27.8,274.7,28.2,274,28.8z"/>
	<path class="st2" d="M296.2,31.3v8h-2v-7.9c0-1.2-0.2-2-0.7-2.6c-0.5-0.5-1.2-0.8-2.2-0.8c-1.2,0-2.1,0.4-2.8,1.1s-1.1,1.7-1.1,2.9
		v7.3h-2v-9.1c0-1.3-0.1-2.5-0.2-3.6h1.9l0.2,2.3c0.4-0.8,1-1.5,1.7-1.9c0.8-0.4,1.7-0.7,2.7-0.7C294.7,26.3,296.2,27.9,296.2,31.3z
		"/>
	<path class="st2" d="M311.5,20.7v18.6h-2V37c-0.4,0.8-0.9,1.4-1.7,1.8s-1.6,0.6-2.6,0.6c-1.1,0-2.1-0.3-2.9-0.8
		c-0.9-0.6-1.5-1.3-2-2.3c-0.5-1-0.7-2.2-0.7-3.5c0-1.3,0.2-2.5,0.7-3.4c0.5-1,1.1-1.7,2-2.3c0.9-0.5,1.8-0.8,3-0.8
		c1,0,1.9,0.2,2.6,0.6c0.7,0.4,1.3,1,1.7,1.8v-8L311.5,20.7L311.5,20.7z M308.5,36.5c0.7-0.9,1-2.1,1-3.6c0-1.5-0.3-2.8-1-3.6
		c-0.7-0.9-1.6-1.3-2.9-1.3c-1.2,0-2.2,0.4-2.9,1.3s-1,2-1,3.6c0,1.6,0.3,2.8,1,3.6c0.7,0.9,1.7,1.3,2.9,1.3
		C306.8,37.7,307.8,37.3,308.5,36.5z"/>
	<path class="st2" d="M333.2,26.6v12.7h-2V37c-0.4,0.8-1,1.4-1.7,1.8c-0.7,0.4-1.5,0.6-2.5,0.6c-1.5,0-2.6-0.4-3.4-1.3
		c-0.8-0.8-1.2-2.1-1.2-3.7v-7.9h2v7.8c0,1.1,0.2,2,0.7,2.5c0.5,0.5,1.2,0.8,2.1,0.8c1.1,0,2-0.4,2.7-1.1c0.7-0.7,1-1.7,1-2.9v-7.2
		L333.2,26.6L333.2,26.6z"/>
	<path class="st2" d="M336.6,37.8l0.7-1.5c0.7,0.5,1.4,0.9,2.1,1.2c0.7,0.2,1.5,0.3,2.4,0.3c1,0,1.7-0.2,2.2-0.5
		c0.5-0.3,0.7-0.8,0.7-1.4c0-0.5-0.2-0.9-0.5-1.2c-0.3-0.3-0.9-0.5-1.7-0.7l-2.1-0.5c-1.1-0.2-1.9-0.7-2.5-1.3
		c-0.6-0.6-0.9-1.3-0.9-2.2c0-1.1,0.4-2,1.3-2.7c0.9-0.7,2.1-1,3.5-1c0.9,0,1.7,0.1,2.5,0.4c0.8,0.3,1.5,0.7,2,1.2l-0.7,1.5
		c-1.2-1-2.5-1.5-3.8-1.5c-0.9,0-1.6,0.2-2.1,0.5c-0.5,0.3-0.7,0.8-0.7,1.5c0,0.5,0.2,0.9,0.5,1.2c0.3,0.3,0.8,0.5,1.5,0.7l2.1,0.5
		c1.2,0.3,2.1,0.7,2.6,1.2c0.6,0.6,0.9,1.3,0.9,2.2c0,1.1-0.4,2-1.3,2.6c-0.9,0.7-2.1,1-3.6,1C339.5,39.4,337.8,38.9,336.6,37.8z"/>
	<path class="st2" d="M360.7,32.8h-9.3c0,1.6,0.4,2.8,1.1,3.7c0.7,0.8,1.8,1.2,3.2,1.2c1.5,0,2.8-0.5,4.1-1.5l0.7,1.5
		c-0.6,0.5-1.3,0.9-2.1,1.2c-0.9,0.3-1.8,0.5-2.7,0.5c-2,0-3.5-0.6-4.7-1.8c-1.1-1.2-1.7-2.8-1.7-4.8c0-1.3,0.3-2.4,0.8-3.4
		c0.5-1,1.2-1.8,2.1-2.3c0.9-0.6,1.9-0.8,3.1-0.8c1.7,0,3,0.6,4,1.7c1,1.1,1.4,2.6,1.4,4.6V32.8z M352.8,28.8
		c-0.7,0.6-1.1,1.5-1.3,2.7h7.4c-0.1-1.2-0.5-2.1-1-2.7c-0.6-0.6-1.4-0.9-2.5-0.9C354.3,27.8,353.4,28.2,352.8,28.8z"/>
	<path class="st2" d="M371.2,26.4l0,1.9c-0.4-0.1-0.8-0.2-1.3-0.2c-1.2,0-2.1,0.4-2.7,1.2c-0.6,0.8-0.9,1.7-0.9,2.8v7.2h-2v-9.1
		c0-1.3-0.1-2.5-0.2-3.6h1.9l0.2,2.3c0.3-0.9,0.8-1.5,1.5-2s1.5-0.7,2.4-0.7C370.4,26.3,370.8,26.3,371.2,26.4z"/>
	<path class="st2" d="M140.1,63.1h-9.3c0,1.6,0.4,2.8,1.1,3.7c0.7,0.8,1.8,1.2,3.2,1.2c1.5,0,2.8-0.5,4.1-1.5l0.7,1.5
		c-0.6,0.5-1.3,0.9-2.1,1.2c-0.9,0.3-1.8,0.5-2.7,0.5c-2,0-3.5-0.6-4.7-1.8c-1.1-1.2-1.7-2.8-1.7-4.8c0-1.3,0.3-2.4,0.8-3.4
		c0.5-1,1.2-1.8,2.1-2.3c0.9-0.6,1.9-0.8,3.1-0.8c1.7,0,3,0.6,4,1.7c1,1.1,1.4,2.6,1.4,4.6L140.1,63.1L140.1,63.1z M132.2,59.1
		c-0.7,0.6-1.1,1.5-1.3,2.7h7.4c-0.1-1.2-0.4-2.1-1-2.7s-1.4-0.9-2.5-0.9C133.7,58.1,132.9,58.4,132.2,59.1z"/>
	<path class="st2" d="M146.1,58.4v6.9c0,0.9,0.2,1.6,0.6,2c0.4,0.4,0.9,0.6,1.6,0.6c0.5,0,0.9-0.1,1.4-0.2v1.7
		c-0.5,0.2-1.1,0.3-1.8,0.3c-1.2,0-2.2-0.3-2.8-1c-0.7-0.7-1-1.7-1-3v-7.2h-2.5v-1.6h2.5v-3.3l2-0.7v4h3.6v1.6H146.1z"/>
	<path class="st2" d="M170.6,56.8v12.6c0,1.9-0.5,3.3-1.5,4.3c-1,1-2.4,1.5-4.3,1.5c-1.9,0-3.6-0.4-5-1.3l0.3-1.7
		c0.8,0.5,1.6,0.8,2.3,1s1.5,0.3,2.4,0.3c1.2,0,2.1-0.3,2.8-1s0.9-1.6,0.9-2.9v-3c-0.4,0.8-0.9,1.4-1.7,1.9
		c-0.7,0.4-1.6,0.7-2.7,0.7c-1.1,0-2.1-0.3-3-0.8c-0.9-0.5-1.5-1.3-2-2.2c-0.5-1-0.7-2.1-0.7-3.3c0-1.2,0.2-2.3,0.7-3.3
		s1.1-1.7,2-2.2c0.9-0.5,1.8-0.8,3-0.8c1,0,1.9,0.2,2.6,0.7c0.7,0.4,1.3,1.1,1.7,1.8v-2.2H170.6z M167.6,66.2c0.7-0.8,1-1.9,1-3.4
		c0-1.4-0.3-2.5-1-3.4c-0.7-0.8-1.7-1.2-2.9-1.2c-1.2,0-2.2,0.4-2.9,1.2c-0.7,0.8-1.1,1.9-1.1,3.4c0,1.4,0.4,2.5,1.1,3.4
		c0.7,0.8,1.7,1.2,2.9,1.2C165.9,67.4,166.9,67,167.6,66.2z"/>
	<path class="st2" d="M181.9,56.7l0,1.9c-0.4-0.1-0.8-0.2-1.3-0.2c-1.2,0-2.1,0.4-2.7,1.2c-0.6,0.8-0.9,1.7-0.9,2.8v7.2h-2v-9.1
		c0-1.3-0.1-2.5-0.2-3.6h1.9l0.2,2.3c0.3-0.9,0.8-1.5,1.5-2s1.5-0.7,2.4-0.7C181.1,56.5,181.5,56.6,181.9,56.7z"/>
	<path class="st2" d="M195.1,56.8v12.7h-2v-2.3c-0.4,0.8-0.9,1.4-1.7,1.8c-0.8,0.4-1.6,0.6-2.6,0.6c-1.1,0-2.1-0.3-3-0.8
		c-0.9-0.5-1.5-1.3-2-2.3s-0.7-2.1-0.7-3.4c0-1.3,0.2-2.5,0.7-3.5c0.5-1,1.1-1.8,2-2.3c0.9-0.6,1.8-0.8,2.9-0.8c1,0,1.9,0.2,2.6,0.7
		c0.7,0.4,1.3,1.1,1.7,1.8v-2.2L195.1,56.8L195.1,56.8z M192.1,66.7c0.7-0.9,1-2.1,1-3.6c0-1.6-0.3-2.8-1-3.6
		c-0.7-0.8-1.6-1.3-2.9-1.3s-2.2,0.4-2.9,1.3c-0.7,0.9-1,2.1-1,3.6s0.3,2.7,1,3.6c0.7,0.8,1.7,1.3,2.9,1.3
		C190.5,68,191.4,67.6,192.1,66.7z"/>
	<path class="st2" d="M210.2,61.5v8h-2v-7.9c0-1.2-0.2-2-0.7-2.6c-0.5-0.5-1.2-0.8-2.2-0.8c-1.2,0-2.1,0.4-2.8,1.1
		c-0.7,0.7-1.1,1.7-1.1,2.9v7.3h-2v-9.1c0-1.3-0.1-2.5-0.2-3.6h1.9l0.2,2.3c0.4-0.8,1-1.5,1.7-1.9c0.8-0.4,1.7-0.7,2.7-0.7
		C208.7,56.5,210.2,58.2,210.2,61.5z"/>
	<path class="st2" d="M225.5,50.9v18.6h-2v-2.3c-0.4,0.8-0.9,1.4-1.7,1.8s-1.6,0.6-2.6,0.6c-1.1,0-2.1-0.3-2.9-0.8
		c-0.9-0.6-1.5-1.3-2-2.3c-0.5-1-0.7-2.2-0.7-3.5c0-1.3,0.2-2.5,0.7-3.4c0.5-1,1.1-1.7,2-2.3c0.9-0.5,1.8-0.8,3-0.8
		c1,0,1.9,0.2,2.6,0.6c0.7,0.4,1.3,1,1.7,1.8v-8L225.5,50.9L225.5,50.9z M222.5,66.7c0.7-0.9,1-2.1,1-3.6c0-1.5-0.3-2.8-1-3.6
		c-0.7-0.9-1.6-1.3-2.9-1.3s-2.2,0.4-2.9,1.3c-0.7,0.8-1,2-1,3.6c0,1.6,0.3,2.8,1,3.6c0.7,0.9,1.7,1.3,2.9,1.3
		C220.9,68,221.8,67.6,222.5,66.7z"/>
	<path class="st2" d="M228.9,68l0.7-1.5c0.7,0.5,1.4,0.9,2.1,1.2s1.5,0.3,2.4,0.3c1,0,1.7-0.2,2.2-0.5s0.7-0.8,0.7-1.4
		c0-0.5-0.2-0.9-0.5-1.2c-0.3-0.3-0.9-0.5-1.7-0.7l-2.1-0.5c-1.1-0.2-1.9-0.7-2.5-1.3c-0.6-0.6-0.9-1.3-0.9-2.2c0-1.1,0.4-2,1.3-2.7
		c0.9-0.7,2.1-1,3.5-1c0.9,0,1.7,0.1,2.5,0.4c0.8,0.3,1.5,0.7,2,1.2l-0.7,1.5c-1.2-1-2.5-1.5-3.8-1.5c-0.9,0-1.6,0.2-2.1,0.5
		c-0.5,0.3-0.7,0.8-0.7,1.5c0,0.5,0.2,0.9,0.5,1.2s0.8,0.5,1.5,0.7l2.1,0.5c1.2,0.3,2.1,0.7,2.6,1.2c0.6,0.6,0.9,1.3,0.9,2.2
		c0,1.1-0.4,2-1.3,2.6c-0.9,0.6-2.1,1-3.6,1C231.9,69.7,230.2,69.1,228.9,68z"/>
	<path class="st2" d="M258.6,57.4c0.9,0.6,1.5,1.3,2,2.3c0.5,1,0.7,2.2,0.7,3.5s-0.2,2.5-0.7,3.4s-1.1,1.7-2,2.3
		c-0.9,0.5-1.8,0.8-3,0.8c-1,0-1.9-0.2-2.6-0.7c-0.7-0.4-1.3-1.1-1.7-1.9V75h-2V60.4c0-1.3-0.1-2.5-0.2-3.6h1.9l0.2,2.5
		c0.3-0.9,0.9-1.5,1.7-2c0.8-0.5,1.7-0.7,2.7-0.7C256.8,56.5,257.8,56.8,258.6,57.4z M258.2,66.7c0.7-0.8,1-2,1-3.6s-0.3-2.8-1-3.6
		c-0.7-0.9-1.6-1.3-2.9-1.3c-1.3,0-2.2,0.4-2.9,1.3c-0.7,0.8-1,2-1,3.6c0,1.6,0.3,2.8,1,3.6c0.7,0.9,1.6,1.3,2.9,1.3
		C256.5,68,257.5,67.6,258.2,66.7z"/>
	<path class="st2" d="M271.8,56.7l0,1.9c-0.4-0.1-0.8-0.2-1.3-0.2c-1.2,0-2.1,0.4-2.7,1.2c-0.6,0.8-0.9,1.7-0.9,2.8v7.2h-2v-9.1
		c0-1.3-0.1-2.5-0.2-3.6h1.9l0.2,2.3c0.3-0.9,0.8-1.5,1.5-2c0.7-0.5,1.5-0.7,2.4-0.7C271,56.5,271.4,56.6,271.8,56.7z"/>
	<path class="st2" d="M284.5,63.1h-9.3c0,1.6,0.4,2.8,1.1,3.7c0.7,0.8,1.8,1.2,3.2,1.2c1.5,0,2.8-0.5,4.1-1.5l0.7,1.5
		c-0.6,0.5-1.3,0.9-2.1,1.2c-0.9,0.3-1.8,0.5-2.7,0.5c-2,0-3.5-0.6-4.7-1.8c-1.1-1.2-1.7-2.8-1.7-4.8c0-1.3,0.3-2.4,0.8-3.4
		c0.5-1,1.2-1.8,2.1-2.3c0.9-0.6,1.9-0.8,3.1-0.8c1.7,0,3,0.6,4,1.7c1,1.1,1.4,2.6,1.4,4.6V63.1z M276.5,59.1
		c-0.7,0.6-1.1,1.5-1.3,2.7h7.4c-0.1-1.2-0.4-2.1-1-2.7c-0.6-0.6-1.4-0.9-2.5-0.9C278,58.1,277.2,58.4,276.5,59.1z"/>
	<path class="st2" d="M287,68l0.7-1.5c0.7,0.5,1.4,0.9,2.1,1.2s1.5,0.3,2.4,0.3c1,0,1.7-0.2,2.2-0.5c0.5-0.3,0.7-0.8,0.7-1.4
		c0-0.5-0.2-0.9-0.5-1.2c-0.3-0.3-0.9-0.5-1.7-0.7l-2.1-0.5c-1.1-0.2-1.9-0.7-2.5-1.3c-0.6-0.6-0.9-1.3-0.9-2.2c0-1.1,0.4-2,1.3-2.7
		c0.9-0.7,2.1-1,3.5-1c0.9,0,1.7,0.1,2.5,0.4c0.8,0.3,1.5,0.7,2,1.2l-0.7,1.5c-1.2-1-2.5-1.5-3.8-1.5c-0.9,0-1.6,0.2-2.1,0.5
		c-0.5,0.3-0.7,0.8-0.7,1.5c0,0.5,0.2,0.9,0.5,1.2s0.8,0.5,1.5,0.7l2.1,0.5c1.2,0.3,2.1,0.7,2.6,1.2c0.6,0.6,0.9,1.3,0.9,2.2
		c0,1.1-0.4,2-1.3,2.6c-0.9,0.7-2.1,1-3.6,1C290,69.7,288.3,69.1,287,68z"/>
	<path class="st2" d="M302.7,68.9c-0.9-0.5-1.6-1.3-2.1-2.3s-0.7-2.1-0.7-3.4c0-1.3,0.3-2.5,0.8-3.5c0.5-1,1.2-1.8,2.2-2.3
		c0.9-0.6,2-0.8,3.3-0.8c0.9,0,1.7,0.1,2.5,0.4c0.8,0.3,1.5,0.7,2,1.2l-0.7,1.5c-0.6-0.5-1.3-0.9-1.8-1.1c-0.6-0.2-1.2-0.3-1.8-0.3
		c-1.3,0-2.3,0.4-3.1,1.3c-0.7,0.9-1.1,2.1-1.1,3.6c0,1.5,0.4,2.7,1.1,3.6c0.7,0.9,1.8,1.3,3.1,1.3c0.6,0,1.2-0.1,1.8-0.3
		c0.6-0.2,1.2-0.6,1.8-1.1l0.7,1.5c-0.5,0.5-1.2,0.9-2,1.2c-0.8,0.3-1.7,0.4-2.5,0.4C304.7,69.7,303.6,69.4,302.7,68.9z"/>
	<path class="st2" d="M320.4,56.7l0,1.9c-0.4-0.1-0.8-0.2-1.3-0.2c-1.2,0-2.1,0.4-2.7,1.2c-0.6,0.8-0.9,1.7-0.9,2.8v7.2h-2v-9.1
		c0-1.3-0.1-2.5-0.2-3.6h1.9l0.2,2.3c0.3-0.9,0.8-1.5,1.5-2c0.7-0.5,1.5-0.7,2.4-0.7C319.6,56.5,320,56.6,320.4,56.7z"/>
	<path class="st2" d="M322.5,51.4h2.5v2.3h-2.5V51.4z M322.7,69.5V56.8h2v12.7H322.7z"/>
	<path class="st2" d="M338.2,57.4c0.9,0.6,1.5,1.3,2,2.3c0.5,1,0.7,2.2,0.7,3.5s-0.2,2.5-0.7,3.4c-0.5,1-1.1,1.7-2,2.3
		c-0.9,0.5-1.8,0.8-3,0.8c-1,0-1.9-0.2-2.6-0.7c-0.7-0.4-1.3-1.1-1.7-1.9V75h-2V60.4c0-1.3-0.1-2.5-0.2-3.6h1.9l0.2,2.5
		c0.3-0.9,0.9-1.5,1.7-2c0.8-0.5,1.7-0.7,2.7-0.7C336.4,56.5,337.4,56.8,338.2,57.4z M337.8,66.7c0.7-0.8,1-2,1-3.6s-0.3-2.8-1-3.6
		c-0.7-0.9-1.6-1.3-2.9-1.3c-1.3,0-2.2,0.4-2.9,1.3c-0.7,0.8-1,2-1,3.6c0,1.6,0.3,2.8,1,3.6c0.7,0.9,1.6,1.3,2.9,1.3
		C336.2,68,337.1,67.6,337.8,66.7z"/>
	<path class="st2" d="M347,58.4v6.9c0,0.9,0.2,1.6,0.6,2c0.4,0.4,0.9,0.6,1.6,0.6c0.5,0,0.9-0.1,1.4-0.2v1.7
		c-0.5,0.2-1.1,0.3-1.8,0.3c-1.2,0-2.2-0.3-2.8-1c-0.7-0.7-1-1.7-1-3v-7.2h-2.5v-1.6h2.5v-3.3l2-0.7v4h3.6v1.6H347z"/>
	<path class="st2" d="M364,63.1h-9.3c0,1.6,0.4,2.8,1.1,3.7c0.7,0.8,1.8,1.2,3.2,1.2c1.5,0,2.8-0.5,4.1-1.5l0.7,1.5
		c-0.6,0.5-1.3,0.9-2.1,1.2c-0.9,0.3-1.8,0.5-2.7,0.5c-2,0-3.5-0.6-4.7-1.8c-1.1-1.2-1.7-2.8-1.7-4.8c0-1.3,0.3-2.4,0.8-3.4
		c0.5-1,1.2-1.8,2.1-2.3c0.9-0.6,1.9-0.8,3.1-0.8c1.7,0,3,0.6,4,1.7c1,1.1,1.4,2.6,1.4,4.6V63.1z M356.1,59.1
		c-0.7,0.6-1.1,1.5-1.3,2.7h7.4c-0.1-1.2-0.5-2.1-1-2.7s-1.4-0.9-2.5-0.9S356.7,58.4,356.1,59.1z"/>
	<path class="st2" d="M378,56.8v12.7h-2v-2.2c-0.4,0.8-1,1.4-1.7,1.8s-1.5,0.6-2.5,0.6c-1.5,0-2.6-0.4-3.4-1.3
		c-0.8-0.8-1.2-2.1-1.2-3.7v-7.9h2v7.8c0,1.1,0.2,2,0.7,2.5c0.5,0.5,1.2,0.8,2.1,0.8c1.1,0,2-0.4,2.7-1.1c0.7-0.7,1-1.7,1-2.9v-7.2
		L378,56.8L378,56.8z"/>
	<path class="st2" d="M389.2,56.7l0,1.9c-0.4-0.1-0.8-0.2-1.3-0.2c-1.2,0-2.1,0.4-2.7,1.2c-0.6,0.8-0.9,1.7-0.9,2.8v7.2h-2v-9.1
		c0-1.3-0.1-2.5-0.2-3.6h1.9l0.2,2.3c0.3-0.9,0.8-1.5,1.5-2s1.5-0.7,2.4-0.7C388.5,56.5,388.9,56.6,389.2,56.7z"/>
	<path class="st2" d="M390.6,68l0.7-1.5c0.7,0.5,1.4,0.9,2.1,1.2c0.7,0.2,1.5,0.3,2.4,0.3c1,0,1.7-0.2,2.2-0.5
		c0.5-0.3,0.7-0.8,0.7-1.4c0-0.5-0.2-0.9-0.5-1.2c-0.3-0.3-0.9-0.5-1.7-0.7l-2.1-0.5c-1.1-0.2-1.9-0.7-2.5-1.3
		c-0.6-0.6-0.9-1.3-0.9-2.2c0-1.1,0.4-2,1.3-2.7c0.9-0.7,2.1-1,3.5-1c0.9,0,1.7,0.1,2.5,0.4c0.8,0.3,1.5,0.7,2,1.2l-0.7,1.5
		c-1.2-1-2.5-1.5-3.8-1.5c-0.9,0-1.6,0.2-2.1,0.5c-0.5,0.3-0.7,0.8-0.7,1.5c0,0.5,0.2,0.9,0.5,1.2c0.3,0.3,0.8,0.5,1.5,0.7l2.1,0.5
		c1.2,0.3,2.1,0.7,2.6,1.2c0.6,0.6,0.9,1.3,0.9,2.2c0,1.1-0.4,2-1.3,2.6c-0.9,0.7-2.1,1-3.6,1C393.6,69.7,391.9,69.1,390.6,68z"/>
</g>
</svg>
