<?xml version="1.0" encoding="utf-8"?>
<!-- Generator: Adobe Illustrator 23.0.1, SVG Export Plug-In . SVG Version: 6.00 Build 0)  -->
<svg version="1.1" id="Calque_1" xmlns="http://www.w3.org/2000/svg" xmlns:xlink="http://www.w3.org/1999/xlink" x="0px" y="0px"
	 viewBox="0 0 600 400" style="enable-background:new 0 0 600 400;" xml:space="preserve">
<style type="text/css">
	.st0{fill:#1BA8DE;}
	.st1{fill:#8A4C98;}
	.st2{fill:#E74B18;}
	.st3{fill:#F6D80D;}
	.st4{fill:#8CBE26;}
	.st5{fill:#8C4D99;}
	.st6{fill:#020203;}
</style>
<g>
	<g>
		<path class="st0" d="M307.1,188.4H169.2c-0.9-7.2-6.1-13.1-12.8-15.1V42.1C238.1,42.1,304.7,107.2,307.1,188.4z"/>
		<path class="st1" d="M147.3,42.4v130.5c-1.7,0.4-3.4,1-4.9,1.8L70,69.3C92.2,53.8,118.6,44.1,147.3,42.4z"/>
		<path class="st2" d="M135.6,180.9c-1.2,1.8-2,3.8-2.5,6L5.9,181.8c3.2-43.4,24.7-81.7,56.8-107.1L135.6,180.9z"/>
		<path class="st3" d="M145.4,208.3l-13.7,133.5C60.1,330,5.5,267.9,5.5,193c0-0.7,0-1.4,0-2.1l127.9,5.2
			C135.1,201.8,139.7,206.4,145.4,208.3z"/>
		<path class="st4" d="M307.1,197.5c-2.4,81.2-69,146.3-150.8,146.3c-5.3,0-10.5-0.3-15.7-0.8l13.8-134.2
			c6.2-1.2,11.4-5.5,13.6-11.3L307.1,197.5L307.1,197.5z"/>
	</g>
	<g>
		<rect x="352.6" y="25.5" class="st0" width="20.7" height="20.7"/>
		<rect x="352.6" y="100.9" class="st4" width="20.7" height="20.7"/>
		<rect x="352.6" y="176.3" class="st3" width="20.7" height="20.7"/>
		<rect x="352.6" y="251.6" class="st2" width="20.7" height="20.7"/>
		<rect x="352.6" y="327" class="st5" width="20.7" height="20.7"/>
		<g>
			<path class="st6" d="M389.4,46.2v-1.6l2-2c4.9-4.7,7.1-7.2,7.2-10.1c0-2-0.9-3.8-3.8-3.8c-1.7,0-3.2,0.9-4.1,1.6l-0.8-1.8
				c1.3-1.1,3.2-2,5.5-2c4.2,0,5.9,2.9,5.9,5.6c0,3.6-2.6,6.4-6.6,10.4L393,44v0.1h8.7v2.2L389.4,46.2L389.4,46.2z"/>
			<path class="st6" d="M416.1,29.2h-7.4l-0.7,5c0.4-0.1,0.9-0.1,1.6-0.1c1.5,0,3,0.3,4.2,1c1.5,0.9,2.8,2.5,2.8,5
				c0,3.8-3,6.6-7.2,6.6c-2.1,0-3.9-0.6-4.8-1.2l0.7-2c0.8,0.5,2.4,1.1,4.1,1.1c2.5,0,4.6-1.6,4.6-4.2c0-2.5-1.7-4.3-5.5-4.3
				c-1.1,0-2,0.1-2.7,0.2l1.2-9.3h9.2L416.1,29.2L416.1,29.2z"/>
			<path class="st6" d="M428.5,32.4c0,4.1-2.1,6.1-4.6,6.1c-2.4,0-4.5-1.9-4.5-5.8c0-3.9,2.1-6,4.7-6
				C426.7,26.6,428.5,28.7,428.5,32.4z M421.5,32.6c-0.1,2.5,0.9,4.3,2.5,4.3c1.7,0,2.5-1.8,2.5-4.4c0-2.3-0.7-4.3-2.5-4.3
				C422.3,28.2,421.5,30.1,421.5,32.6z M423.7,46.6L435,26.6h1.7l-11.3,19.9H423.7z M441.1,40.4c0,4.1-2.1,6.1-4.6,6.1
				c-2.4,0-4.5-1.9-4.5-5.8c0-3.9,2.1-6.1,4.7-6.1C439.3,34.6,441.1,36.7,441.1,40.4z M434,40.5c0,2.5,0.9,4.3,2.5,4.3
				c1.7,0,2.5-1.8,2.5-4.4c0-2.3-0.7-4.3-2.5-4.3C434.9,36.2,434,38.1,434,40.5z"/>
		</g>
		<g>
			<path class="st6" d="M394.6,58.6v4.6h4.5v1.2h-4.5v4.7h-1.3v-4.7h-4.5v-1.2h4.5v-4.6H394.6z"/>
			<path class="st6" d="M413.7,55.1v11.6c0,0.8,0,1.8,0.1,2.5h-1.6l-0.1-1.7h0c-0.5,1.1-1.7,1.9-3.3,1.9c-2.3,0-4.1-2-4.1-4.9
				c0-3.2,2-5.1,4.3-5.1c1.5,0,2.5,0.7,2.9,1.5h0v-5.7L413.7,55.1L413.7,55.1z M412,63.4c0-0.2,0-0.5-0.1-0.7c-0.3-1.1-1.2-2-2.5-2
				c-1.8,0-2.9,1.6-2.9,3.7c0,1.9,0.9,3.5,2.8,3.5c1.2,0,2.2-0.8,2.6-2.1c0.1-0.2,0.1-0.5,0.1-0.8V63.4z"/>
			<path class="st6" d="M417.6,64.7c0,2.4,1.5,3.3,3.3,3.3c1.2,0,2-0.2,2.7-0.5l0.3,1.2c-0.6,0.3-1.7,0.6-3.2,0.6
				c-3,0-4.7-1.9-4.7-4.8c0-2.9,1.7-5.2,4.5-5.2c3.1,0,4,2.8,4,4.5c0,0.4,0,0.6-0.1,0.8L417.6,64.7L417.6,64.7z M422.7,63.4
				c0-1.1-0.5-2.8-2.4-2.8c-1.8,0-2.5,1.6-2.7,2.8H422.7z"/>
			<path class="st6" d="M434,57.9L434,57.9l-2.3,1.2l-0.3-1.3l2.8-1.5h1.5v12.9H434V57.9z"/>
			<path class="st6" d="M448.9,62.6c0,4.4-1.6,6.8-4.5,6.8c-2.5,0-4.2-2.4-4.3-6.6c0-4.3,1.9-6.7,4.5-6.7
				C447.3,56,448.9,58.5,448.9,62.6z M441.9,62.7c0,3.3,1,5.2,2.6,5.2c1.8,0,2.6-2.1,2.6-5.4c0-3.2-0.8-5.2-2.6-5.2
				C443,57.4,441.9,59.2,441.9,62.7z"/>
			<path class="st6" d="M459,62.6c0,4.4-1.6,6.8-4.5,6.8c-2.5,0-4.2-2.4-4.3-6.6c0-4.3,1.9-6.7,4.5-6.7C457.5,56,459,58.5,459,62.6z
				 M452,62.7c0,3.3,1,5.2,2.6,5.2c1.8,0,2.6-2.1,2.6-5.4c0-3.2-0.8-5.2-2.6-5.2C453.2,57.4,452,59.2,452,62.7z"/>
			<path class="st6" d="M469.2,62.6c0,4.4-1.6,6.8-4.5,6.8c-2.5,0-4.2-2.4-4.3-6.6c0-4.3,1.9-6.7,4.5-6.7
				C467.6,56,469.2,58.5,469.2,62.6z M462.2,62.7c0,3.3,1,5.2,2.6,5.2c1.8,0,2.6-2.1,2.6-5.4c0-3.2-0.8-5.2-2.6-5.2
				C463.3,57.4,462.2,59.2,462.2,62.7z"/>
			<path class="st6" d="M475.5,62.7c0-1.2,0-2.2-0.1-3.1h1.6l0.1,1.6h0c0.7-1.2,1.8-1.9,3.4-1.9c2.3,0,4.1,2,4.1,4.9
				c0,3.4-2.1,5.1-4.4,5.1c-1.3,0-2.4-0.6-3-1.5h0V73h-1.7L475.5,62.7L475.5,62.7z M477.2,65.2c0,0.3,0,0.5,0.1,0.7
				c0.3,1.2,1.4,2,2.6,2c1.8,0,2.9-1.5,2.9-3.7c0-1.9-1-3.6-2.9-3.6c-1.2,0-2.3,0.8-2.6,2.2c-0.1,0.2-0.1,0.5-0.1,0.7L477.2,65.2
				L477.2,65.2z"/>
			<path class="st6" d="M487.7,64.7c0,2.4,1.5,3.3,3.3,3.3c1.2,0,2-0.2,2.7-0.5l0.3,1.2c-0.6,0.3-1.7,0.6-3.2,0.6
				c-3,0-4.7-1.9-4.7-4.8c0-2.9,1.7-5.2,4.5-5.2c3.1,0,4,2.8,4,4.5c0,0.4,0,0.6-0.1,0.8L487.7,64.7L487.7,64.7z M492.8,63.4
				c0-1.1-0.5-2.8-2.4-2.8c-1.8,0-2.5,1.6-2.7,2.8H492.8z"/>
			<path class="st6" d="M496.7,62.5c0-1.1,0-2.1-0.1-3h1.5l0.1,1.9h0.1c0.4-1.3,1.5-2.1,2.7-2.1c0.2,0,0.3,0,0.5,0.1V61
				c-0.2,0-0.4-0.1-0.6-0.1c-1.2,0-2.1,0.9-2.3,2.2c0,0.2-0.1,0.5-0.1,0.8v5.1h-1.7L496.7,62.5L496.7,62.5z"/>
			<path class="st6" d="M502.9,67.3c0.5,0.3,1.4,0.7,2.3,0.7c1.3,0,1.9-0.6,1.9-1.4c0-0.8-0.5-1.3-1.8-1.8c-1.7-0.6-2.5-1.6-2.5-2.7
				c0-1.5,1.2-2.8,3.3-2.8c1,0,1.8,0.3,2.4,0.6l-0.4,1.3c-0.4-0.2-1.1-0.6-2-0.6c-1,0-1.6,0.6-1.6,1.3c0,0.8,0.6,1.1,1.8,1.6
				c1.7,0.6,2.5,1.5,2.5,2.9c0,1.7-1.3,2.9-3.6,2.9c-1,0-2-0.3-2.7-0.7L502.9,67.3z"/>
			<path class="st6" d="M519.7,64.3c0,3.5-2.5,5.1-4.8,5.1c-2.6,0-4.6-1.9-4.6-4.9c0-3.2,2.1-5.1,4.7-5.1
				C517.8,59.3,519.7,61.3,519.7,64.3z M512.1,64.4c0,2.1,1.2,3.7,2.9,3.7c1.7,0,2.9-1.6,2.9-3.7c0-1.6-0.8-3.7-2.9-3.7
				C513,60.6,512.1,62.5,512.1,64.4z"/>
			<path class="st6" d="M521.9,62.1c0-1,0-1.8-0.1-2.6h1.5l0.1,1.6h0c0.5-0.9,1.6-1.8,3.2-1.8c1.3,0,3.4,0.8,3.4,4.1v5.7h-1.7v-5.5
				c0-1.5-0.6-2.8-2.2-2.8c-1.1,0-2,0.8-2.3,1.8c-0.1,0.2-0.1,0.5-0.1,0.8v5.8h-1.7V62.1z"/>
			<path class="st6" d="M532.8,62.1c0-1,0-1.8-0.1-2.6h1.5l0.1,1.6h0c0.5-0.9,1.6-1.8,3.2-1.8c1.3,0,3.4,0.8,3.4,4.1v5.7h-1.7v-5.5
				c0-1.5-0.6-2.8-2.2-2.8c-1.1,0-2,0.8-2.3,1.8c-0.1,0.2-0.1,0.5-0.1,0.8v5.8h-1.7V62.1z"/>
			<path class="st6" d="M544.8,64.7c0,2.4,1.5,3.3,3.3,3.3c1.2,0,2-0.2,2.7-0.5l0.3,1.2c-0.6,0.3-1.7,0.6-3.2,0.6
				c-3,0-4.7-1.9-4.7-4.8c0-2.9,1.7-5.2,4.5-5.2c3.1,0,4,2.8,4,4.5c0,0.4,0,0.6-0.1,0.8L544.8,64.7L544.8,64.7z M549.9,63.4
				c0-1.1-0.5-2.8-2.4-2.8c-1.8,0-2.5,1.6-2.7,2.8H549.9z"/>
			<path class="st6" d="M553.5,67.3c0.5,0.3,1.4,0.7,2.3,0.7c1.3,0,1.9-0.6,1.9-1.4c0-0.8-0.5-1.3-1.8-1.8c-1.7-0.6-2.5-1.6-2.5-2.7
				c0-1.5,1.2-2.8,3.3-2.8c1,0,1.8,0.3,2.4,0.6l-0.4,1.3c-0.4-0.2-1.1-0.6-2-0.6c-1,0-1.6,0.6-1.6,1.3c0,0.8,0.6,1.1,1.8,1.6
				c1.7,0.6,2.5,1.5,2.5,2.9c0,1.7-1.3,2.9-3.6,2.9c-1,0-2-0.3-2.7-0.7L553.5,67.3z"/>
		</g>
		<g>
			<path class="st6" d="M389.4,121.6V120l2-2c4.9-4.7,7.1-7.2,7.2-10.1c0-2-0.9-3.8-3.8-3.8c-1.7,0-3.2,0.9-4.1,1.6l-0.8-1.8
				c1.3-1.1,3.2-2,5.5-2c4.2,0,5.9,2.9,5.9,5.6c0,3.6-2.6,6.4-6.6,10.4l-1.5,1.4v0.1h8.7v2.2H389.4z"/>
			<path class="st6" d="M417.1,102.3v1.7l-8.4,17.6H406l8.4-17.1v-0.1H405v-2.2L417.1,102.3L417.1,102.3z"/>
			<path class="st6" d="M428.5,107.7c0,4.1-2.1,6.1-4.6,6.1c-2.4,0-4.5-1.9-4.5-5.8c0-3.9,2.1-6,4.7-6
				C426.7,102,428.5,104.1,428.5,107.7z M421.5,107.9c-0.1,2.5,0.9,4.3,2.5,4.3c1.7,0,2.5-1.8,2.5-4.4c0-2.3-0.7-4.3-2.5-4.3
				C422.3,103.6,421.5,105.5,421.5,107.9z M423.7,121.9L435,102h1.7l-11.3,19.9H423.7z M441.1,115.7c0,4.1-2.1,6.1-4.6,6.1
				c-2.4,0-4.5-1.9-4.5-5.8c0-3.9,2.1-6.1,4.7-6.1C439.3,110,441.1,112,441.1,115.7z M434,115.9c0,2.5,0.9,4.3,2.5,4.3
				c1.7,0,2.5-1.8,2.5-4.4c0-2.3-0.7-4.3-2.5-4.3C434.9,111.5,434,113.5,434,115.9z"/>
		</g>
		<g>
			<path class="st6" d="M397.8,130.4V142c0,0.8,0,1.8,0.1,2.5h-1.6l-0.1-1.7h0c-0.5,1.1-1.7,1.9-3.3,1.9c-2.3,0-4.1-2-4.1-4.9
				c0-3.2,2-5.1,4.3-5.1c1.5,0,2.5,0.7,2.9,1.5h0v-5.7L397.8,130.4L397.8,130.4z M396,138.8c0-0.2,0-0.5-0.1-0.7
				c-0.3-1.1-1.2-2-2.5-2c-1.8,0-2.9,1.6-2.9,3.7c0,1.9,0.9,3.5,2.8,3.5c1.2,0,2.2-0.8,2.6-2.1c0.1-0.2,0.1-0.5,0.1-0.8V138.8z"/>
			<path class="st6" d="M401.6,140c0,2.4,1.5,3.3,3.3,3.3c1.2,0,2-0.2,2.7-0.5l0.3,1.2c-0.6,0.3-1.7,0.6-3.2,0.6
				c-3,0-4.7-1.9-4.7-4.8c0-2.9,1.7-5.2,4.5-5.2c3.1,0,4,2.8,4,4.5c0,0.4,0,0.6-0.1,0.8L401.6,140L401.6,140z M406.7,138.8
				c0-1.1-0.5-2.8-2.4-2.8c-1.8,0-2.5,1.6-2.7,2.8H406.7z"/>
			<path class="st6" d="M421.9,133.1H417l-0.5,3.3c0.3,0,0.6-0.1,1-0.1c1,0,2,0.2,2.8,0.7c1,0.6,1.8,1.7,1.8,3.3
				c0,2.5-2,4.4-4.8,4.4c-1.4,0-2.6-0.4-3.2-0.8l0.4-1.3c0.5,0.3,1.6,0.7,2.8,0.7c1.6,0,3-1.1,3-2.8c0-1.7-1.1-2.9-3.7-2.9
				c-0.7,0-1.3,0.1-1.8,0.1l0.8-6.2h6.1V133.1L421.9,133.1z"/>
			<path class="st6" d="M432.9,137.9c0,4.4-1.6,6.8-4.5,6.8c-2.5,0-4.2-2.4-4.3-6.6c0-4.3,1.9-6.7,4.5-6.7
				C431.4,131.4,432.9,133.8,432.9,137.9z M425.9,138.1c0,3.3,1,5.2,2.6,5.2c1.8,0,2.6-2.1,2.6-5.4c0-3.2-0.8-5.2-2.6-5.2
				C427,132.7,425.9,134.6,425.9,138.1z"/>
			<path class="st6" d="M443,137.9c0,4.4-1.6,6.8-4.5,6.8c-2.5,0-4.2-2.4-4.3-6.6c0-4.3,1.9-6.7,4.5-6.7
				C441.5,131.4,443,133.8,443,137.9z M436.1,138.1c0,3.3,1,5.2,2.6,5.2c1.8,0,2.6-2.1,2.6-5.4c0-3.2-0.8-5.2-2.6-5.2
				C437.2,132.7,436.1,134.6,436.1,138.1z"/>
			<path class="st6" d="M454.7,144.5l-0.1-1.2h-0.1c-0.5,0.8-1.6,1.4-2.9,1.4c-1.9,0-2.9-1.4-2.9-2.8c0-2.3,2.1-3.6,5.8-3.6v-0.2
				c0-0.8-0.2-2.2-2.2-2.2c-0.9,0-1.8,0.3-2.5,0.7l-0.4-1.1c0.8-0.5,1.9-0.8,3.1-0.8c2.9,0,3.6,2,3.6,3.9v3.6c0,0.8,0,1.6,0.2,2.3
				L454.7,144.5L454.7,144.5z M451.7,130.8l1.7,2.8h-1.2l-2.4-2.8H451.7z M454.4,139.6c-1.9,0-4.1,0.3-4.1,2.2
				c0,1.1,0.8,1.7,1.6,1.7c1.2,0,2-0.8,2.3-1.6c0.1-0.2,0.1-0.4,0.1-0.6L454.4,139.6L454.4,139.6z"/>
			<path class="st6" d="M466.3,133.2L466.3,133.2l-2.3,1.2l-0.3-1.3l2.8-1.5h1.5v12.9h-1.7V133.2z"/>
			<path class="st6" d="M481.3,137.9c0,4.4-1.6,6.8-4.5,6.8c-2.5,0-4.2-2.4-4.3-6.6c0-4.3,1.9-6.7,4.5-6.7
				C479.7,131.4,481.3,133.8,481.3,137.9z M474.3,138.1c0,3.3,1,5.2,2.6,5.2c1.8,0,2.6-2.1,2.6-5.4c0-3.2-0.8-5.2-2.6-5.2
				C475.4,132.7,474.3,134.6,474.3,138.1z"/>
			<path class="st6" d="M491.4,137.9c0,4.4-1.6,6.8-4.5,6.8c-2.5,0-4.2-2.4-4.3-6.6c0-4.3,1.9-6.7,4.5-6.7
				C489.9,131.4,491.4,133.8,491.4,137.9z M484.4,138.1c0,3.3,1,5.2,2.6,5.2c1.8,0,2.6-2.1,2.6-5.4c0-3.2-0.8-5.2-2.6-5.2
				C485.5,132.7,484.4,134.6,484.4,138.1z"/>
			<path class="st6" d="M501.6,137.9c0,4.4-1.6,6.8-4.5,6.8c-2.5,0-4.2-2.4-4.3-6.6c0-4.3,1.9-6.7,4.5-6.7
				C500,131.4,501.6,133.8,501.6,137.9z M494.6,138.1c0,3.3,1,5.2,2.6,5.2c1.8,0,2.6-2.1,2.6-5.4c0-3.2-0.8-5.2-2.6-5.2
				C495.7,132.7,494.6,134.6,494.6,138.1z"/>
			<path class="st6" d="M507.9,138c0-1.2,0-2.2-0.1-3.1h1.6l0.1,1.6h0c0.7-1.2,1.8-1.9,3.4-1.9c2.3,0,4.1,2,4.1,4.9
				c0,3.4-2.1,5.1-4.4,5.1c-1.3,0-2.4-0.6-3-1.5h0v5.2h-1.7L507.9,138L507.9,138z M509.6,140.6c0,0.3,0,0.5,0.1,0.7
				c0.3,1.2,1.4,2,2.6,2c1.8,0,2.9-1.5,2.9-3.7c0-1.9-1-3.6-2.9-3.6c-1.2,0-2.3,0.8-2.6,2.2c-0.1,0.2-0.1,0.5-0.1,0.7L509.6,140.6
				L509.6,140.6z"/>
			<path class="st6" d="M520.1,140c0,2.4,1.5,3.3,3.3,3.3c1.2,0,2-0.2,2.7-0.5l0.3,1.2c-0.6,0.3-1.7,0.6-3.2,0.6
				c-3,0-4.7-1.9-4.7-4.8c0-2.9,1.7-5.2,4.5-5.2c3.1,0,4,2.8,4,4.5c0,0.4,0,0.6-0.1,0.8L520.1,140L520.1,140z M525.2,138.8
				c0-1.1-0.5-2.8-2.4-2.8c-1.8,0-2.5,1.6-2.7,2.8H525.2z"/>
			<path class="st6" d="M529.1,137.9c0-1.1,0-2.1-0.1-3h1.5l0.1,1.9h0.1c0.4-1.3,1.5-2.1,2.7-2.1c0.2,0,0.3,0,0.5,0.1v1.6
				c-0.2,0-0.4-0.1-0.6-0.1c-1.2,0-2.1,0.9-2.3,2.2c0,0.2-0.1,0.5-0.1,0.8v5.1h-1.7L529.1,137.9L529.1,137.9z"/>
			<path class="st6" d="M535.3,142.7c0.5,0.3,1.4,0.7,2.3,0.7c1.3,0,1.9-0.6,1.9-1.4c0-0.8-0.5-1.3-1.8-1.8
				c-1.7-0.6-2.5-1.6-2.5-2.7c0-1.5,1.2-2.8,3.3-2.8c1,0,1.8,0.3,2.4,0.6l-0.4,1.3c-0.4-0.2-1.1-0.6-2-0.6c-1,0-1.6,0.6-1.6,1.3
				c0,0.8,0.6,1.1,1.8,1.6c1.7,0.6,2.5,1.5,2.5,2.9c0,1.7-1.3,2.9-3.6,2.9c-1,0-2-0.3-2.7-0.7L535.3,142.7z"/>
			<path class="st6" d="M552,139.6c0,3.5-2.5,5.1-4.8,5.1c-2.6,0-4.6-1.9-4.6-4.9c0-3.2,2.1-5.1,4.7-5.1
				C550.2,134.7,552,136.7,552,139.6z M544.4,139.7c0,2.1,1.2,3.7,2.9,3.7c1.7,0,2.9-1.6,2.9-3.7c0-1.6-0.8-3.7-2.9-3.7
				S544.4,137.9,544.4,139.7z"/>
			<path class="st6" d="M554.2,137.5c0-1,0-1.8-0.1-2.6h1.5l0.1,1.6h0c0.5-0.9,1.6-1.8,3.2-1.8c1.3,0,3.4,0.8,3.4,4.1v5.7h-1.7V139
				c0-1.5-0.6-2.8-2.2-2.8c-1.1,0-2,0.8-2.3,1.8c-0.1,0.2-0.1,0.5-0.1,0.8v5.8h-1.7V137.5z"/>
			<path class="st6" d="M565.2,137.5c0-1,0-1.8-0.1-2.6h1.5l0.1,1.6h0c0.5-0.9,1.6-1.8,3.2-1.8c1.3,0,3.4,0.8,3.4,4.1v5.7h-1.7V139
				c0-1.5-0.6-2.8-2.2-2.8c-1.1,0-2,0.8-2.3,1.8c-0.1,0.2-0.1,0.5-0.1,0.8v5.8h-1.7V137.5z"/>
			<path class="st6" d="M577.2,140c0,2.4,1.5,3.3,3.3,3.3c1.2,0,2-0.2,2.7-0.5l0.3,1.2c-0.6,0.3-1.7,0.6-3.2,0.6
				c-3,0-4.7-1.9-4.7-4.8c0-2.9,1.7-5.2,4.5-5.2c3.1,0,4,2.8,4,4.5c0,0.4,0,0.6-0.1,0.8L577.2,140L577.2,140z M582.3,138.8
				c0-1.1-0.5-2.8-2.4-2.8c-1.8,0-2.5,1.6-2.7,2.8H582.3z"/>
			<path class="st6" d="M585.9,142.7c0.5,0.3,1.4,0.7,2.3,0.7c1.3,0,1.9-0.6,1.9-1.4c0-0.8-0.5-1.3-1.8-1.8
				c-1.7-0.6-2.5-1.6-2.5-2.7c0-1.5,1.2-2.8,3.3-2.8c1,0,1.8,0.3,2.4,0.6l-0.4,1.3c-0.4-0.2-1.1-0.6-2-0.6c-1,0-1.6,0.6-1.6,1.3
				c0,0.8,0.6,1.1,1.8,1.6c1.7,0.6,2.5,1.5,2.5,2.9c0,1.7-1.3,2.9-3.6,2.9c-1,0-2-0.3-2.7-0.7L585.9,142.7z"/>
		</g>
		<g>
			<path class="st6" d="M389.4,197v-1.6l2-2c4.9-4.7,7.1-7.2,7.2-10.1c0-2-0.9-3.8-3.8-3.8c-1.7,0-3.2,0.9-4.1,1.6l-0.8-1.8
				c1.3-1.1,3.2-2,5.5-2c4.2,0,5.9,2.9,5.9,5.6c0,3.6-2.6,6.4-6.6,10.4l-1.5,1.4v0.1h8.7v2.2H389.4z"/>
			<path class="st6" d="M412.7,197v-5.3h-9V190l8.6-12.3h2.8v12h2.7v2h-2.7v5.3L412.7,197L412.7,197z M412.7,189.7v-6.4
				c0-1,0-2,0.1-3h-0.1c-0.6,1.1-1.1,2-1.6,2.9l-4.7,6.6v0.1L412.7,189.7L412.7,189.7z"/>
			<path class="st6" d="M428.5,183.1c0,4.1-2.1,6.1-4.6,6.1c-2.4,0-4.5-1.9-4.5-5.8c0-3.9,2.1-6,4.7-6
				C426.7,177.3,428.5,179.4,428.5,183.1z M421.5,183.3c-0.1,2.5,0.9,4.3,2.5,4.3c1.7,0,2.5-1.8,2.5-4.4c0-2.3-0.7-4.3-2.5-4.3
				C422.3,178.9,421.5,180.8,421.5,183.3z M423.7,197.3l11.3-19.9h1.7l-11.3,19.9H423.7z M441.1,191.1c0,4.1-2.1,6.1-4.6,6.1
				c-2.4,0-4.5-1.9-4.5-5.8c0-3.9,2.1-6.1,4.7-6.1C439.3,185.3,441.1,187.4,441.1,191.1z M434,191.3c0,2.5,0.9,4.3,2.5,4.3
				c1.7,0,2.5-1.8,2.5-4.4c0-2.3-0.7-4.3-2.5-4.3C434.9,186.9,434,188.8,434,191.3z"/>
		</g>
		<g>
			<path class="st6" d="M397.8,205.8v11.6c0,0.8,0,1.8,0.1,2.5h-1.6l-0.1-1.7h0c-0.5,1.1-1.7,1.9-3.3,1.9c-2.3,0-4.1-2-4.1-4.9
				c0-3.2,2-5.1,4.3-5.1c1.5,0,2.5,0.7,2.9,1.5h0v-5.7L397.8,205.8L397.8,205.8z M396,214.2c0-0.2,0-0.5-0.1-0.7
				c-0.3-1.1-1.2-2-2.5-2c-1.8,0-2.9,1.6-2.9,3.7c0,1.9,0.9,3.5,2.8,3.5c1.2,0,2.2-0.8,2.6-2.1c0.1-0.2,0.1-0.5,0.1-0.8V214.2z"/>
			<path class="st6" d="M401.6,215.4c0,2.4,1.5,3.3,3.3,3.3c1.2,0,2-0.2,2.7-0.5l0.3,1.2c-0.6,0.3-1.7,0.6-3.2,0.6
				c-3,0-4.7-1.9-4.7-4.8c0-2.9,1.7-5.2,4.5-5.2c3.1,0,4,2.8,4,4.5c0,0.4,0,0.6-0.1,0.8L401.6,215.4L401.6,215.4z M406.7,214.1
				c0-1.1-0.5-2.8-2.4-2.8c-1.8,0-2.5,1.6-2.7,2.8H406.7z"/>
			<path class="st6" d="M414.2,219.8v-1.1l1.4-1.3c3.3-3.1,4.8-4.8,4.8-6.7c0-1.3-0.6-2.5-2.6-2.5c-1.2,0-2.1,0.6-2.7,1.1l-0.6-1.2
				c0.9-0.8,2.2-1.3,3.6-1.3c2.8,0,3.9,1.9,3.9,3.7c0,2.4-1.7,4.3-4.4,6.9l-1,0.9v0h5.8v1.4L414.2,219.8L414.2,219.8z"/>
			<path class="st6" d="M432.9,213.3c0,4.4-1.6,6.8-4.5,6.8c-2.5,0-4.2-2.4-4.3-6.6c0-4.3,1.9-6.7,4.5-6.7
				C431.4,206.8,432.9,209.2,432.9,213.3z M425.9,213.5c0,3.3,1,5.2,2.6,5.2c1.8,0,2.6-2.1,2.6-5.4c0-3.2-0.8-5.2-2.6-5.2
				C427,208.1,425.9,210,425.9,213.5z"/>
			<path class="st6" d="M443,213.3c0,4.4-1.6,6.8-4.5,6.8c-2.5,0-4.2-2.4-4.3-6.6c0-4.3,1.9-6.7,4.5-6.7
				C441.5,206.8,443,209.2,443,213.3z M436.1,213.5c0,3.3,1,5.2,2.6,5.2c1.8,0,2.6-2.1,2.6-5.4c0-3.2-0.8-5.2-2.6-5.2
				C437.2,208.1,436.1,210,436.1,213.5z"/>
			<path class="st6" d="M454.7,219.8l-0.1-1.2h-0.1c-0.5,0.8-1.6,1.4-2.9,1.4c-1.9,0-2.9-1.4-2.9-2.8c0-2.3,2.1-3.6,5.8-3.6v-0.2
				c0-0.8-0.2-2.2-2.2-2.2c-0.9,0-1.8,0.3-2.5,0.7l-0.4-1.1c0.8-0.5,1.9-0.8,3.1-0.8c2.9,0,3.6,2,3.6,3.9v3.6c0,0.8,0,1.6,0.2,2.3
				L454.7,219.8L454.7,219.8z M451.7,206.1l1.7,2.8h-1.2l-2.4-2.8H451.7z M454.4,214.9c-1.9,0-4.1,0.3-4.1,2.2
				c0,1.1,0.8,1.7,1.6,1.7c1.2,0,2-0.8,2.3-1.6c0.1-0.2,0.1-0.4,0.1-0.6L454.4,214.9L454.4,214.9z"/>
			<path class="st6" d="M470.2,208.4h-4.9l-0.5,3.3c0.3,0,0.6-0.1,1-0.1c1,0,2,0.2,2.8,0.7c1,0.6,1.8,1.7,1.8,3.3
				c0,2.5-2,4.4-4.8,4.4c-1.4,0-2.6-0.4-3.2-0.8l0.4-1.3c0.5,0.3,1.6,0.7,2.8,0.7c1.6,0,3-1.1,3-2.8c0-1.7-1.1-2.9-3.7-2.9
				c-0.7,0-1.3,0.1-1.8,0.1l0.8-6.2h6.1L470.2,208.4L470.2,208.4z"/>
			<path class="st6" d="M481.3,213.3c0,4.4-1.6,6.8-4.5,6.8c-2.5,0-4.2-2.4-4.3-6.6c0-4.3,1.9-6.7,4.5-6.7
				C479.7,206.8,481.3,209.2,481.3,213.3z M474.3,213.5c0,3.3,1,5.2,2.6,5.2c1.8,0,2.6-2.1,2.6-5.4c0-3.2-0.8-5.2-2.6-5.2
				C475.4,208.1,474.3,210,474.3,213.5z"/>
			<path class="st6" d="M491.4,213.3c0,4.4-1.6,6.8-4.5,6.8c-2.5,0-4.2-2.4-4.3-6.6c0-4.3,1.9-6.7,4.5-6.7
				C489.9,206.8,491.4,209.2,491.4,213.3z M484.4,213.5c0,3.3,1,5.2,2.6,5.2c1.8,0,2.6-2.1,2.6-5.4c0-3.2-0.8-5.2-2.6-5.2
				C485.5,208.1,484.4,210,484.4,213.5z"/>
			<path class="st6" d="M497.8,213.4c0-1.2,0-2.2-0.1-3.1h1.6l0.1,1.6h0c0.7-1.2,1.8-1.9,3.4-1.9c2.3,0,4.1,2,4.1,4.9
				c0,3.4-2.1,5.1-4.4,5.1c-1.3,0-2.4-0.6-3-1.5h0v5.2h-1.7L497.8,213.4L497.8,213.4z M499.5,215.9c0,0.3,0,0.5,0.1,0.7
				c0.3,1.2,1.4,2,2.6,2c1.8,0,2.9-1.5,2.9-3.7c0-1.9-1-3.6-2.9-3.6c-1.2,0-2.3,0.8-2.6,2.2c-0.1,0.2-0.1,0.5-0.1,0.7L499.5,215.9
				L499.5,215.9z"/>
			<path class="st6" d="M510,215.4c0,2.4,1.5,3.3,3.3,3.3c1.2,0,2-0.2,2.7-0.5l0.3,1.2c-0.6,0.3-1.7,0.6-3.2,0.6
				c-3,0-4.7-1.9-4.7-4.8c0-2.9,1.7-5.2,4.5-5.2c3.1,0,4,2.8,4,4.5c0,0.4,0,0.6-0.1,0.8L510,215.4L510,215.4z M515.1,214.1
				c0-1.1-0.5-2.8-2.4-2.8c-1.8,0-2.5,1.6-2.7,2.8H515.1z"/>
			<path class="st6" d="M518.9,213.2c0-1.1,0-2.1-0.1-3h1.5l0.1,1.9h0.1c0.4-1.3,1.5-2.1,2.7-2.1c0.2,0,0.3,0,0.5,0.1v1.6
				c-0.2,0-0.4-0.1-0.6-0.1c-1.2,0-2.1,0.9-2.3,2.2c0,0.2-0.1,0.5-0.1,0.8v5.1h-1.7L518.9,213.2L518.9,213.2z"/>
			<path class="st6" d="M525.2,218.1c0.5,0.3,1.4,0.7,2.3,0.7c1.3,0,1.9-0.6,1.9-1.4c0-0.8-0.5-1.3-1.8-1.8
				c-1.7-0.6-2.5-1.6-2.5-2.7c0-1.5,1.2-2.8,3.3-2.8c1,0,1.8,0.3,2.4,0.6l-0.4,1.3c-0.4-0.2-1.1-0.6-2-0.6c-1,0-1.6,0.6-1.6,1.3
				c0,0.8,0.6,1.1,1.8,1.6c1.7,0.6,2.5,1.5,2.5,2.9c0,1.7-1.3,2.9-3.6,2.9c-1,0-2-0.3-2.7-0.7L525.2,218.1z"/>
			<path class="st6" d="M541.9,215c0,3.5-2.5,5.1-4.8,5.1c-2.6,0-4.6-1.9-4.6-4.9c0-3.2,2.1-5.1,4.7-5.1
				C540,210,541.9,212,541.9,215z M534.3,215.1c0,2.1,1.2,3.7,2.9,3.7c1.7,0,2.9-1.6,2.9-3.7c0-1.6-0.8-3.7-2.9-3.7
				S534.3,213.2,534.3,215.1z"/>
			<path class="st6" d="M544.1,212.8c0-1,0-1.8-0.1-2.6h1.5l0.1,1.6h0c0.5-0.9,1.6-1.8,3.2-1.8c1.3,0,3.4,0.8,3.4,4.1v5.7h-1.7v-5.5
				c0-1.5-0.6-2.8-2.2-2.8c-1.1,0-2,0.8-2.3,1.8c-0.1,0.2-0.1,0.5-0.1,0.8v5.8h-1.7V212.8z"/>
			<path class="st6" d="M555.1,212.8c0-1,0-1.8-0.1-2.6h1.5l0.1,1.6h0c0.5-0.9,1.6-1.8,3.2-1.8c1.3,0,3.4,0.8,3.4,4.1v5.7h-1.7v-5.5
				c0-1.5-0.6-2.8-2.2-2.8c-1.1,0-2,0.8-2.3,1.8c-0.1,0.2-0.1,0.5-0.1,0.8v5.8h-1.7V212.8z"/>
			<path class="st6" d="M567,215.4c0,2.4,1.5,3.3,3.3,3.3c1.2,0,2-0.2,2.7-0.5l0.3,1.2c-0.6,0.3-1.7,0.6-3.2,0.6
				c-3,0-4.7-1.9-4.7-4.8c0-2.9,1.7-5.2,4.5-5.2c3.1,0,4,2.8,4,4.5c0,0.4,0,0.6-0.1,0.8L567,215.4L567,215.4z M572.1,214.1
				c0-1.1-0.5-2.8-2.4-2.8c-1.8,0-2.5,1.6-2.7,2.8H572.1z"/>
			<path class="st6" d="M575.7,218.1c0.5,0.3,1.4,0.7,2.3,0.7c1.3,0,1.9-0.6,1.9-1.4c0-0.8-0.5-1.3-1.8-1.8
				c-1.7-0.6-2.5-1.6-2.5-2.7c0-1.5,1.2-2.8,3.3-2.8c1,0,1.8,0.3,2.4,0.6l-0.4,1.3c-0.4-0.2-1.1-0.6-2-0.6c-1,0-1.6,0.6-1.6,1.3
				c0,0.8,0.6,1.1,1.8,1.6c1.7,0.6,2.5,1.5,2.5,2.9c0,1.7-1.3,2.9-3.6,2.9c-1,0-2-0.3-2.7-0.7L575.7,218.1z"/>
		</g>
		<g>
			<path class="st6" d="M395.1,255.5L395.1,255.5l-3.4,1.8l-0.5-2l4.2-2.3h2.2v19.3h-2.5V255.5z"/>
			<path class="st6" d="M412.7,272.3v-5.3h-9v-1.7l8.6-12.3h2.8v12h2.7v2h-2.7v5.3L412.7,272.3L412.7,272.3z M412.7,265v-6.4
				c0-1,0-2,0.1-3h-0.1c-0.6,1.1-1.1,2-1.6,2.9l-4.7,6.6v0.1L412.7,265L412.7,265z"/>
			<path class="st6" d="M428.5,258.5c0,4.1-2.1,6.1-4.6,6.1c-2.4,0-4.5-1.9-4.5-5.8c0-3.9,2.1-6,4.7-6
				C426.7,252.7,428.5,254.8,428.5,258.5z M421.5,258.6c-0.1,2.5,0.9,4.3,2.5,4.3c1.7,0,2.5-1.8,2.5-4.4c0-2.3-0.7-4.3-2.5-4.3
				C422.3,254.3,421.5,256.2,421.5,258.6z M423.7,272.6l11.3-19.9h1.7l-11.3,19.9H423.7z M441.1,266.4c0,4.1-2.1,6.1-4.6,6.1
				c-2.4,0-4.5-1.9-4.5-5.8c0-3.9,2.1-6.1,4.7-6.1C439.3,260.7,441.1,262.8,441.1,266.4z M434,266.6c0,2.5,0.9,4.3,2.5,4.3
				c1.7,0,2.5-1.8,2.5-4.4c0-2.3-0.7-4.3-2.5-4.3C434.9,262.3,434,264.2,434,266.6z"/>
		</g>
		<g>
			<path class="st6" d="M397.8,281.1v11.6c0,0.8,0,1.8,0.1,2.5h-1.6l-0.1-1.7h0c-0.5,1.1-1.7,1.9-3.3,1.9c-2.3,0-4.1-2-4.1-4.9
				c0-3.2,2-5.1,4.3-5.1c1.5,0,2.5,0.7,2.9,1.5h0v-5.7H397.8z M396,289.5c0-0.2,0-0.5-0.1-0.7c-0.3-1.1-1.2-2-2.5-2
				c-1.8,0-2.9,1.6-2.9,3.7c0,1.9,0.9,3.5,2.8,3.5c1.2,0,2.2-0.8,2.6-2.1c0.1-0.2,0.1-0.5,0.1-0.8V289.5z"/>
			<path class="st6" d="M401.6,290.7c0,2.4,1.5,3.3,3.3,3.3c1.2,0,2-0.2,2.7-0.5l0.3,1.2c-0.6,0.3-1.7,0.6-3.2,0.6
				c-3,0-4.7-1.9-4.7-4.8c0-2.9,1.7-5.2,4.5-5.2c3.1,0,4,2.8,4,4.5c0,0.4,0,0.6-0.1,0.8L401.6,290.7L401.6,290.7z M406.7,289.5
				c0-1.1-0.5-2.8-2.4-2.8c-1.8,0-2.5,1.6-2.7,2.8H406.7z"/>
			<path class="st6" d="M418,284L418,284l-2.3,1.2l-0.3-1.3l2.8-1.5h1.5v12.9H418V284z"/>
			<path class="st6" d="M432.9,288.6c0,4.4-1.6,6.8-4.5,6.8c-2.5,0-4.2-2.4-4.3-6.6c0-4.3,1.9-6.7,4.5-6.7
				C431.4,282.1,432.9,284.5,432.9,288.6z M425.9,288.8c0,3.3,1,5.2,2.6,5.2c1.8,0,2.6-2.1,2.6-5.4c0-3.2-0.8-5.2-2.6-5.2
				C427,283.5,425.9,285.3,425.9,288.8z"/>
			<path class="st6" d="M443,288.6c0,4.4-1.6,6.8-4.5,6.8c-2.5,0-4.2-2.4-4.3-6.6c0-4.3,1.9-6.7,4.5-6.7
				C441.5,282.1,443,284.5,443,288.6z M436.1,288.8c0,3.3,1,5.2,2.6,5.2c1.8,0,2.6-2.1,2.6-5.4c0-3.2-0.8-5.2-2.6-5.2
				C437.2,283.5,436.1,285.3,436.1,288.8z"/>
			<path class="st6" d="M454.7,295.2l-0.1-1.2h-0.1c-0.5,0.8-1.6,1.4-2.9,1.4c-1.9,0-2.9-1.4-2.9-2.8c0-2.3,2.1-3.6,5.8-3.6v-0.2
				c0-0.8-0.2-2.2-2.2-2.2c-0.9,0-1.8,0.3-2.5,0.7l-0.4-1.1c0.8-0.5,1.9-0.8,3.1-0.8c2.9,0,3.6,2,3.6,3.9v3.6c0,0.8,0,1.6,0.2,2.3
				L454.7,295.2L454.7,295.2z M451.7,281.5l1.7,2.8h-1.2l-2.4-2.8H451.7z M454.4,290.3c-1.9,0-4.1,0.3-4.1,2.2
				c0,1.1,0.8,1.7,1.6,1.7c1.2,0,2-0.8,2.3-1.6c0.1-0.2,0.1-0.4,0.1-0.6L454.4,290.3L454.4,290.3z"/>
			<path class="st6" d="M462.6,295.2v-1.1l1.4-1.3c3.3-3.1,4.8-4.8,4.8-6.7c0-1.3-0.6-2.5-2.6-2.5c-1.2,0-2.1,0.6-2.7,1.1l-0.6-1.2
				c0.9-0.8,2.2-1.3,3.6-1.3c2.8,0,3.9,1.9,3.9,3.7c0,2.4-1.7,4.3-4.4,6.9l-1,0.9v0h5.8v1.4L462.6,295.2L462.6,295.2z"/>
			<path class="st6" d="M481.3,288.6c0,4.4-1.6,6.8-4.5,6.8c-2.5,0-4.2-2.4-4.3-6.6c0-4.3,1.9-6.7,4.5-6.7
				C479.7,282.1,481.3,284.5,481.3,288.6z M474.3,288.8c0,3.3,1,5.2,2.6,5.2c1.8,0,2.6-2.1,2.6-5.4c0-3.2-0.8-5.2-2.6-5.2
				C475.4,283.5,474.3,285.3,474.3,288.8z"/>
			<path class="st6" d="M491.4,288.6c0,4.4-1.6,6.8-4.5,6.8c-2.5,0-4.2-2.4-4.3-6.6c0-4.3,1.9-6.7,4.5-6.7
				C489.9,282.1,491.4,284.5,491.4,288.6z M484.4,288.8c0,3.3,1,5.2,2.6,5.2c1.8,0,2.6-2.1,2.6-5.4c0-3.2-0.8-5.2-2.6-5.2
				C485.5,283.5,484.4,285.3,484.4,288.8z"/>
			<path class="st6" d="M497.8,288.7c0-1.2,0-2.2-0.1-3.1h1.6l0.1,1.6h0c0.7-1.2,1.8-1.9,3.4-1.9c2.3,0,4.1,2,4.1,4.9
				c0,3.4-2.1,5.1-4.4,5.1c-1.3,0-2.4-0.6-3-1.5h0v5.2h-1.7L497.8,288.7L497.8,288.7z M499.5,291.3c0,0.3,0,0.5,0.1,0.7
				c0.3,1.2,1.4,2,2.6,2c1.8,0,2.9-1.5,2.9-3.7c0-1.9-1-3.6-2.9-3.6c-1.2,0-2.3,0.8-2.6,2.2c-0.1,0.2-0.1,0.5-0.1,0.7L499.5,291.3
				L499.5,291.3z"/>
			<path class="st6" d="M510,290.7c0,2.4,1.5,3.3,3.3,3.3c1.2,0,2-0.2,2.7-0.5l0.3,1.2c-0.6,0.3-1.7,0.6-3.2,0.6
				c-3,0-4.7-1.9-4.7-4.8c0-2.9,1.7-5.2,4.5-5.2c3.1,0,4,2.8,4,4.5c0,0.4,0,0.6-0.1,0.8L510,290.7L510,290.7z M515.1,289.5
				c0-1.1-0.5-2.8-2.4-2.8c-1.8,0-2.5,1.6-2.7,2.8H515.1z"/>
			<path class="st6" d="M518.9,288.6c0-1.1,0-2.1-0.1-3h1.5l0.1,1.9h0.1c0.4-1.3,1.5-2.1,2.7-2.1c0.2,0,0.3,0,0.5,0.1v1.6
				c-0.2,0-0.4-0.1-0.6-0.1c-1.2,0-2.1,0.9-2.3,2.2c0,0.2-0.1,0.5-0.1,0.8v5.1h-1.7L518.9,288.6L518.9,288.6z"/>
			<path class="st6" d="M525.2,293.4c0.5,0.3,1.4,0.7,2.3,0.7c1.3,0,1.9-0.6,1.9-1.4c0-0.8-0.5-1.3-1.8-1.8
				c-1.7-0.6-2.5-1.6-2.5-2.7c0-1.5,1.2-2.8,3.3-2.8c1,0,1.8,0.3,2.4,0.6l-0.4,1.3c-0.4-0.2-1.1-0.6-2-0.6c-1,0-1.6,0.6-1.6,1.3
				c0,0.8,0.6,1.1,1.8,1.6c1.7,0.6,2.5,1.5,2.5,2.9c0,1.7-1.3,2.9-3.6,2.9c-1,0-2-0.3-2.7-0.7L525.2,293.4z"/>
			<path class="st6" d="M541.9,290.3c0,3.5-2.5,5.1-4.8,5.1c-2.6,0-4.6-1.9-4.6-4.9c0-3.2,2.1-5.1,4.7-5.1
				C540,285.4,541.9,287.4,541.9,290.3z M534.3,290.4c0,2.1,1.2,3.7,2.9,3.7c1.7,0,2.9-1.6,2.9-3.7c0-1.6-0.8-3.7-2.9-3.7
				S534.3,288.6,534.3,290.4z"/>
			<path class="st6" d="M544.1,288.2c0-1,0-1.8-0.1-2.6h1.5l0.1,1.6h0c0.5-0.9,1.6-1.8,3.2-1.8c1.3,0,3.4,0.8,3.4,4.1v5.7h-1.7v-5.5
				c0-1.5-0.6-2.8-2.2-2.8c-1.1,0-2,0.8-2.3,1.8c-0.1,0.2-0.1,0.5-0.1,0.8v5.8h-1.7V288.2z"/>
			<path class="st6" d="M555.1,288.2c0-1,0-1.8-0.1-2.6h1.5l0.1,1.6h0c0.5-0.9,1.6-1.8,3.2-1.8c1.3,0,3.4,0.8,3.4,4.1v5.7h-1.7v-5.5
				c0-1.5-0.6-2.8-2.2-2.8c-1.1,0-2,0.8-2.3,1.8c-0.1,0.2-0.1,0.5-0.1,0.8v5.8h-1.7V288.2z"/>
			<path class="st6" d="M567,290.7c0,2.4,1.5,3.3,3.3,3.3c1.2,0,2-0.2,2.7-0.5l0.3,1.2c-0.6,0.3-1.7,0.6-3.2,0.6
				c-3,0-4.7-1.9-4.7-4.8c0-2.9,1.7-5.2,4.5-5.2c3.1,0,4,2.8,4,4.5c0,0.4,0,0.6-0.1,0.8L567,290.7L567,290.7z M572.1,289.5
				c0-1.1-0.5-2.8-2.4-2.8c-1.8,0-2.5,1.6-2.7,2.8H572.1z"/>
			<path class="st6" d="M575.7,293.4c0.5,0.3,1.4,0.7,2.3,0.7c1.3,0,1.9-0.6,1.9-1.4c0-0.8-0.5-1.3-1.8-1.8
				c-1.7-0.6-2.5-1.6-2.5-2.7c0-1.5,1.2-2.8,3.3-2.8c1,0,1.8,0.3,2.4,0.6l-0.4,1.3c-0.4-0.2-1.1-0.6-2-0.6c-1,0-1.6,0.6-1.6,1.3
				c0,0.8,0.6,1.1,1.8,1.6c1.7,0.6,2.5,1.5,2.5,2.9c0,1.7-1.3,2.9-3.6,2.9c-1,0-2-0.3-2.7-0.7L575.7,293.4z"/>
		</g>
		<g>
			<path class="st6" d="M395.1,330.8L395.1,330.8l-3.4,1.8l-0.5-2l4.2-2.3h2.2v19.3h-2.5V330.8z"/>
			<path class="st6" d="M417.4,337.8c0,6.6-2.4,10.2-6.7,10.2c-3.8,0-6.3-3.5-6.4-9.9c0-6.5,2.8-10,6.7-10
				C415.1,328.1,417.4,331.7,417.4,337.8z M406.9,338.1c0,5,1.5,7.9,3.9,7.9c2.7,0,3.9-3.1,3.9-8c0-4.7-1.2-7.9-3.9-7.9
				C408.6,330.1,406.9,332.9,406.9,338.1z"/>
			<path class="st6" d="M428.5,333.8c0,4.1-2.1,6.1-4.6,6.1c-2.4,0-4.5-1.9-4.5-5.8c0-3.9,2.1-6,4.7-6
				C426.7,328.1,428.5,330.1,428.5,333.8z M421.5,334c-0.1,2.5,0.9,4.3,2.5,4.3c1.7,0,2.5-1.8,2.5-4.4c0-2.3-0.7-4.3-2.5-4.3
				C422.3,329.6,421.5,331.6,421.5,334z M423.7,348l11.3-19.9h1.7L425.4,348H423.7z M441.1,341.8c0,4.1-2.1,6.1-4.6,6.1
				c-2.4,0-4.5-1.9-4.5-5.8c0-3.9,2.1-6.1,4.7-6.1C439.3,336,441.1,338.1,441.1,341.8z M434,342c0,2.5,0.9,4.3,2.5,4.3
				c1.7,0,2.5-1.8,2.5-4.4c0-2.3-0.7-4.3-2.5-4.3C434.9,337.6,434,339.5,434,342z"/>
		</g>
		<g>
			<path class="st6" d="M397.8,356.5v11.6c0,0.8,0,1.8,0.1,2.5h-1.6l-0.1-1.7h0c-0.5,1.1-1.7,1.9-3.3,1.9c-2.3,0-4.1-2-4.1-4.9
				c0-3.2,2-5.1,4.3-5.1c1.5,0,2.5,0.7,2.9,1.5h0v-5.7H397.8z M396,364.9c0-0.2,0-0.5-0.1-0.7c-0.3-1.1-1.2-2-2.5-2
				c-1.8,0-2.9,1.6-2.9,3.7c0,1.9,0.9,3.5,2.8,3.5c1.2,0,2.2-0.8,2.6-2.1c0.1-0.2,0.1-0.5,0.1-0.8V364.9z"/>
			<path class="st6" d="M401.6,366.1c0,2.4,1.5,3.3,3.3,3.3c1.2,0,2-0.2,2.7-0.5l0.3,1.2c-0.6,0.3-1.7,0.6-3.2,0.6
				c-3,0-4.7-1.9-4.7-4.8c0-2.9,1.7-5.2,4.5-5.2c3.1,0,4,2.8,4,4.5c0,0.4,0,0.6-0.1,0.8L401.6,366.1L401.6,366.1z M406.7,364.8
				c0-1.1-0.5-2.8-2.4-2.8c-1.8,0-2.5,1.6-2.7,2.8H406.7z"/>
			<path class="st6" d="M422.7,364c0,4.4-1.6,6.8-4.5,6.8c-2.5,0-4.2-2.4-4.3-6.6c0-4.3,1.9-6.7,4.5-6.7
				C421.2,357.5,422.7,359.9,422.7,364z M415.8,364.2c0,3.3,1,5.2,2.6,5.2c1.8,0,2.6-2.1,2.6-5.4c0-3.2-0.8-5.2-2.6-5.2
				C416.9,358.8,415.8,360.7,415.8,364.2z"/>
			<path class="st6" d="M434.4,370.6l-0.1-1.2h-0.1c-0.5,0.8-1.6,1.4-2.9,1.4c-1.9,0-2.9-1.4-2.9-2.8c0-2.3,2.1-3.6,5.8-3.6v-0.2
				c0-0.8-0.2-2.2-2.2-2.2c-0.9,0-1.8,0.3-2.5,0.7l-0.4-1.1c0.8-0.5,1.9-0.8,3.1-0.8c2.9,0,3.6,2,3.6,3.9v3.6c0,0.8,0,1.6,0.2,2.3
				L434.4,370.6L434.4,370.6z M431.5,356.8l1.7,2.8h-1.2l-2.4-2.8H431.5z M434.1,365.7c-1.9,0-4.1,0.3-4.1,2.2
				c0,1.1,0.8,1.7,1.6,1.7c1.2,0,2-0.8,2.3-1.6c0.1-0.2,0.1-0.4,0.1-0.6L434.1,365.7L434.1,365.7z"/>
			<path class="st6" d="M446,359.3L446,359.3l-2.3,1.2l-0.3-1.3l2.8-1.5h1.5v12.9H446V359.3z"/>
			<path class="st6" d="M461,364c0,4.4-1.6,6.8-4.5,6.8c-2.5,0-4.2-2.4-4.3-6.6c0-4.3,1.9-6.7,4.5-6.7
				C459.4,357.5,461,359.9,461,364z M454,364.2c0,3.3,1,5.2,2.6,5.2c1.8,0,2.6-2.1,2.6-5.4c0-3.2-0.8-5.2-2.6-5.2
				C455.1,358.8,454,360.7,454,364.2z"/>
			<path class="st6" d="M471.1,364c0,4.4-1.6,6.8-4.5,6.8c-2.5,0-4.2-2.4-4.3-6.6c0-4.3,1.9-6.7,4.5-6.7
				C469.6,357.5,471.1,359.9,471.1,364z M464.1,364.2c0,3.3,1,5.2,2.6,5.2c1.8,0,2.6-2.1,2.6-5.4c0-3.2-0.8-5.2-2.6-5.2
				C465.2,358.8,464.1,360.7,464.1,364.2z"/>
			<path class="st6" d="M477.5,364.1c0-1.2,0-2.2-0.1-3.1h1.6l0.1,1.6h0c0.7-1.2,1.8-1.9,3.4-1.9c2.3,0,4.1,2,4.1,4.9
				c0,3.4-2.1,5.1-4.4,5.1c-1.3,0-2.4-0.6-3-1.5h0v5.2h-1.7L477.5,364.1L477.5,364.1z M479.2,366.7c0,0.3,0,0.5,0.1,0.7
				c0.3,1.2,1.4,2,2.6,2c1.8,0,2.9-1.5,2.9-3.7c0-1.9-1-3.6-2.9-3.6c-1.2,0-2.3,0.8-2.6,2.2c-0.1,0.2-0.1,0.5-0.1,0.7L479.2,366.7
				L479.2,366.7z"/>
			<path class="st6" d="M489.7,366.1c0,2.4,1.5,3.3,3.3,3.3c1.2,0,2-0.2,2.7-0.5l0.3,1.2c-0.6,0.3-1.7,0.6-3.2,0.6
				c-3,0-4.7-1.9-4.7-4.8c0-2.9,1.7-5.2,4.5-5.2c3.1,0,4,2.8,4,4.5c0,0.4,0,0.6-0.1,0.8L489.7,366.1L489.7,366.1z M494.8,364.8
				c0-1.1-0.5-2.8-2.4-2.8c-1.8,0-2.5,1.6-2.7,2.8H494.8z"/>
			<path class="st6" d="M498.6,364c0-1.1,0-2.1-0.1-3h1.5l0.1,1.9h0.1c0.4-1.3,1.5-2.1,2.7-2.1c0.2,0,0.3,0,0.5,0.1v1.6
				c-0.2,0-0.4-0.1-0.6-0.1c-1.2,0-2.1,0.9-2.3,2.2c0,0.2-0.1,0.5-0.1,0.8v5.1h-1.7L498.6,364L498.6,364z"/>
			<path class="st6" d="M504.9,368.8c0.5,0.3,1.4,0.7,2.3,0.7c1.3,0,1.9-0.6,1.9-1.4c0-0.8-0.5-1.3-1.8-1.8
				c-1.7-0.6-2.5-1.6-2.5-2.7c0-1.5,1.2-2.8,3.3-2.8c1,0,1.8,0.3,2.4,0.6l-0.4,1.3c-0.4-0.2-1.1-0.6-2-0.6c-1,0-1.6,0.6-1.6,1.3
				c0,0.8,0.6,1.1,1.8,1.6c1.7,0.6,2.5,1.5,2.5,2.9c0,1.7-1.3,2.9-3.6,2.9c-1,0-2-0.3-2.7-0.7L504.9,368.8z"/>
			<path class="st6" d="M521.6,365.7c0,3.5-2.5,5.1-4.8,5.1c-2.6,0-4.6-1.9-4.6-4.9c0-3.2,2.1-5.1,4.7-5.1
				C519.7,360.7,521.6,362.8,521.6,365.7z M514,365.8c0,2.1,1.2,3.7,2.9,3.7c1.7,0,2.9-1.6,2.9-3.7c0-1.6-0.8-3.7-2.9-3.7
				C514.9,362.1,514,364,514,365.8z"/>
			<path class="st6" d="M523.8,363.6c0-1,0-1.8-0.1-2.6h1.5l0.1,1.6h0c0.5-0.9,1.6-1.8,3.2-1.8c1.3,0,3.4,0.8,3.4,4.1v5.7h-1.7V365
				c0-1.5-0.6-2.8-2.2-2.8c-1.1,0-2,0.8-2.3,1.8c-0.1,0.2-0.1,0.5-0.1,0.8v5.8h-1.7V363.6z"/>
			<path class="st6" d="M534.8,363.6c0-1,0-1.8-0.1-2.6h1.5l0.1,1.6h0c0.5-0.9,1.6-1.8,3.2-1.8c1.3,0,3.4,0.8,3.4,4.1v5.7h-1.7V365
				c0-1.5-0.6-2.8-2.2-2.8c-1.1,0-2,0.8-2.3,1.8c-0.1,0.2-0.1,0.5-0.1,0.8v5.8h-1.7V363.6z"/>
			<path class="st6" d="M546.7,366.1c0,2.4,1.5,3.3,3.3,3.3c1.2,0,2-0.2,2.7-0.5l0.3,1.2c-0.6,0.3-1.7,0.6-3.2,0.6
				c-3,0-4.7-1.9-4.7-4.8c0-2.9,1.7-5.2,4.5-5.2c3.1,0,4,2.8,4,4.5c0,0.4,0,0.6-0.1,0.8L546.7,366.1L546.7,366.1z M551.8,364.8
				c0-1.1-0.5-2.8-2.4-2.8c-1.8,0-2.5,1.6-2.7,2.8H551.8z"/>
			<path class="st6" d="M555.4,368.8c0.5,0.3,1.4,0.7,2.3,0.7c1.3,0,1.9-0.6,1.9-1.4c0-0.8-0.5-1.3-1.8-1.8
				c-1.7-0.6-2.5-1.6-2.5-2.7c0-1.5,1.2-2.8,3.3-2.8c1,0,1.8,0.3,2.4,0.6l-0.4,1.3c-0.4-0.2-1.1-0.6-2-0.6c-1,0-1.6,0.6-1.6,1.3
				c0,0.8,0.6,1.1,1.8,1.6c1.7,0.6,2.5,1.5,2.5,2.9c0,1.7-1.3,2.9-3.6,2.9c-1,0-2-0.3-2.7-0.7L555.4,368.8z"/>
		</g>
	</g>
</g>
</svg>
