<?xml version="1.0" encoding="utf-8"?>
<!-- Generator: Adobe Illustrator 23.0.1, SVG Export Plug-In . SVG Version: 6.00 Build 0)  -->
<svg version="1.1" xmlns="http://www.w3.org/2000/svg" xmlns:xlink="http://www.w3.org/1999/xlink" x="0px" y="0px"
	 viewBox="0 0 595.28 841.89" style="enable-background:new 0 0 595.28 841.89;" xml:space="preserve">
<style type="text/css">
	.st0{display:none;}
	.st1{fill:#12A7DD;}
	.st2{fill:#B13FC9;}
	.st3{fill:#E64A14;}
	.st4{fill:#F6D80E;}
	.st5{fill:#8AC615;}
	.st6{fill:#B340CC;}
</style>
<g id="Calque_1" class="st0">
	
		<image style="display:inline;overflow:visible;" width="800" height="500" xlink:href="../../build/ET_visuel3.jpg"  transform="matrix(1 0 0 1 -102 170.8898)">
	</image>
</g>
<g id="Calque_2">
	<g>
		<path class="st1" d="M310.42,415.39H143.07c-1.14-8.72-7.35-15.85-15.57-18.33V237.89C226.73,237.89,307.51,316.86,310.42,415.39z
			"/>
		<path class="st2" d="M116.5,238.22v158.35c-2.11,0.44-4.12,1.18-5.97,2.17L22.77,270.81C49.63,252.03,81.75,240.27,116.5,238.22z"
			/>
		<path class="st3" d="M102.38,406.29c-1.43,2.19-2.47,4.65-3.04,7.28l-154.35-6.23c3.86-52.63,29.96-99.07,68.95-129.96
			L102.38,406.29z"/>
		<path class="st4" d="M114.24,439.47L97.59,601.46C10.75,587.18-55.5,511.78-55.5,420.89c0-0.86,0.01-1.71,0.01-2.57l155.22,6.26
			C101.79,431.63,107.26,437.23,114.24,439.47z"/>
		<path class="st5" d="M310.42,426.39c-2.91,98.53-83.69,177.5-182.92,177.5c-6.42,0-12.76-0.33-19-0.97l16.73-162.78
			c7.58-1.44,13.79-6.72,16.52-13.75H310.42z"/>
	</g>
	<g>
		<rect x="365.66" y="217.77" class="st1" width="25.11" height="25.11"/>
		<rect x="365.66" y="309.2" class="st5" width="25.11" height="25.11"/>
		<rect x="365.66" y="400.62" class="st4" width="25.11" height="25.11"/>
		<rect x="365.66" y="492.05" class="st3" width="25.11" height="25.11"/>
		<rect x="365.66" y="583.47" class="st6" width="25.11" height="25.11"/>
		<g>
			<path d="M410.23,242.89v-1.94l2.48-2.41c5.98-5.69,8.67-8.71,8.71-12.24c0-2.38-1.15-4.57-4.64-4.57c-2.12,0-3.89,1.08-4.97,1.98
				l-1.01-2.23c1.62-1.37,3.92-2.38,6.62-2.38c5.04,0,7.16,3.46,7.16,6.8c0,4.32-3.13,7.81-8.06,12.56l-1.87,1.73v0.07h10.51v2.63
				H410.23z"/>
			<path d="M442.67,222.15h-8.93l-0.9,6.01c0.54-0.07,1.04-0.14,1.91-0.14c1.8,0,3.6,0.4,5.04,1.26c1.84,1.04,3.35,3.06,3.35,6.01
				c0,4.57-3.64,7.99-8.71,7.99c-2.56,0-4.71-0.72-5.83-1.44l0.79-2.41c0.97,0.58,2.88,1.3,5,1.3c2.99,0,5.54-1.94,5.54-5.08
				c-0.04-3.02-2.05-5.18-6.73-5.18c-1.33,0-2.38,0.14-3.24,0.25l1.51-11.23h11.19V222.15z"/>
			<path d="M457.71,226.08c0,4.93-2.59,7.38-5.62,7.38c-2.92,0-5.43-2.34-5.47-7.06c0-4.68,2.56-7.31,5.65-7.31
				C455.55,219.09,457.71,221.61,457.71,226.08z M449.15,226.29c-0.07,2.99,1.04,5.26,3.02,5.26c2.09,0,3.02-2.23,3.02-5.33
				c0-2.84-0.83-5.22-3.02-5.22C450.19,221,449.15,223.34,449.15,226.29z M451.88,243.28l13.75-24.19h2.02l-13.75,24.19H451.88z
				 M472.94,235.76c0,4.93-2.59,7.38-5.58,7.38c-2.92,0-5.44-2.34-5.47-7.02c0-4.72,2.56-7.34,5.65-7.34
				C470.82,228.78,472.94,231.3,472.94,235.76z M464.37,235.97c-0.04,2.99,1.12,5.26,3.06,5.26c2.09,0,3.02-2.23,3.02-5.33
				c0-2.84-0.83-5.22-3.02-5.22C465.45,230.68,464.37,233.02,464.37,235.97z"/>
		</g>
		<g>
			<path d="M416.53,257.87v5.64h5.42v1.44h-5.42v5.69H415v-5.69h-5.42v-1.44H415v-5.64H416.53z"/>
			<path d="M439.79,253.6v14.04c0,1.03,0.02,2.21,0.1,3h-1.9l-0.1-2.02h-0.05c-0.65,1.3-2.06,2.28-3.96,2.28
				c-2.81,0-4.97-2.38-4.97-5.9c-0.02-3.86,2.38-6.24,5.21-6.24c1.78,0,2.98,0.84,3.5,1.78h0.05v-6.94H439.79z M437.68,263.75
				c0-0.26-0.02-0.62-0.1-0.89c-0.31-1.34-1.46-2.45-3.05-2.45c-2.18,0-3.48,1.92-3.48,4.49c0,2.35,1.15,4.3,3.43,4.3
				c1.42,0,2.71-0.94,3.1-2.52c0.07-0.29,0.1-0.58,0.1-0.91V263.75z"/>
			<path d="M444.47,265.22c0.05,2.86,1.87,4.03,3.98,4.03c1.51,0,2.42-0.26,3.22-0.6l0.36,1.51c-0.74,0.34-2.02,0.72-3.86,0.72
				c-3.58,0-5.71-2.35-5.71-5.86c0-3.5,2.06-6.26,5.45-6.26c3.79,0,4.8,3.34,4.8,5.47c0,0.43-0.05,0.77-0.07,0.98H444.47z
				 M450.66,263.7c0.02-1.34-0.55-3.43-2.93-3.43c-2.14,0-3.07,1.97-3.24,3.43H450.66z"/>
			<path d="M464.32,257.01h-0.05l-2.71,1.46l-0.41-1.61l3.41-1.82h1.8v15.6h-2.04V257.01z"/>
			<path d="M482.41,262.67c0,5.3-1.97,8.23-5.42,8.23c-3.05,0-5.11-2.86-5.16-8.02c0-5.23,2.26-8.11,5.42-8.11
				C480.54,254.77,482.41,257.7,482.41,262.67z M473.94,262.91c0,4.06,1.25,6.36,3.17,6.36c2.16,0,3.19-2.52,3.19-6.5
				c0-3.84-0.98-6.36-3.17-6.36C475.28,256.41,473.94,258.66,473.94,262.91z"/>
			<path d="M494.72,262.67c0,5.3-1.97,8.23-5.42,8.23c-3.05,0-5.11-2.86-5.16-8.02c0-5.23,2.26-8.11,5.42-8.11
				C492.85,254.77,494.72,257.7,494.72,262.67z M486.25,262.91c0,4.06,1.25,6.36,3.17,6.36c2.16,0,3.19-2.52,3.19-6.5
				c0-3.84-0.98-6.36-3.17-6.36C487.6,256.41,486.25,258.66,486.25,262.91z"/>
			<path d="M507.04,262.67c0,5.3-1.97,8.23-5.42,8.23c-3.05,0-5.11-2.86-5.16-8.02c0-5.23,2.26-8.11,5.42-8.11
				C505.16,254.77,507.04,257.7,507.04,262.67z M498.56,262.91c0,4.06,1.25,6.36,3.17,6.36c2.16,0,3.19-2.52,3.19-6.5
				c0-3.84-0.98-6.36-3.17-6.36C499.91,256.41,498.56,258.66,498.56,262.91z"/>
			<path d="M514.74,262.82c0-1.49-0.05-2.69-0.1-3.79h1.9l0.1,1.99h0.05c0.86-1.42,2.23-2.26,4.13-2.26c2.81,0,4.92,2.38,4.92,5.9
				c0,4.18-2.54,6.24-5.28,6.24c-1.54,0-2.88-0.67-3.58-1.82h-0.05v6.31h-2.09V262.82z M516.83,265.91c0,0.31,0.05,0.6,0.1,0.86
				c0.38,1.46,1.66,2.47,3.17,2.47c2.23,0,3.53-1.82,3.53-4.49c0-2.33-1.22-4.32-3.46-4.32c-1.44,0-2.78,1.03-3.19,2.62
				c-0.07,0.26-0.14,0.58-0.14,0.86V265.91z"/>
			<path d="M529.57,265.22c0.05,2.86,1.87,4.03,3.98,4.03c1.51,0,2.42-0.26,3.22-0.6l0.36,1.51c-0.74,0.34-2.02,0.72-3.86,0.72
				c-3.58,0-5.71-2.35-5.71-5.86c0-3.5,2.06-6.26,5.45-6.26c3.79,0,4.8,3.34,4.8,5.47c0,0.43-0.05,0.77-0.07,0.98H529.57z
				 M535.76,263.7c0.02-1.34-0.55-3.43-2.93-3.43c-2.14,0-3.07,1.97-3.24,3.43H535.76z"/>
			<path d="M540.42,262.65c0-1.37-0.02-2.54-0.1-3.62h1.85l0.07,2.28h0.1c0.53-1.56,1.8-2.54,3.22-2.54c0.24,0,0.41,0.02,0.6,0.07
				v1.99c-0.22-0.05-0.43-0.07-0.72-0.07c-1.49,0-2.54,1.13-2.83,2.71c-0.05,0.29-0.1,0.62-0.1,0.98v6.19h-2.09V262.65z"/>
			<path d="M547.98,268.48c0.62,0.41,1.73,0.84,2.78,0.84c1.54,0,2.26-0.77,2.26-1.73c0-1.01-0.6-1.56-2.16-2.14
				c-2.09-0.74-3.07-1.9-3.07-3.29c0-1.87,1.51-3.41,4.01-3.41c1.18,0,2.21,0.34,2.86,0.72l-0.53,1.54
				c-0.46-0.29-1.3-0.67-2.38-0.67c-1.25,0-1.94,0.72-1.94,1.58c0,0.96,0.7,1.39,2.21,1.97c2.02,0.77,3.05,1.78,3.05,3.5
				c0,2.04-1.58,3.48-4.34,3.48c-1.27,0-2.45-0.31-3.26-0.79L547.98,268.48z"/>
			<path d="M568.28,264.74c0,4.3-2.98,6.17-5.78,6.17c-3.14,0-5.57-2.3-5.57-5.98c0-3.89,2.54-6.17,5.76-6.17
				C566.03,258.76,568.28,261.18,568.28,264.74z M559.07,264.86c0,2.54,1.46,4.46,3.53,4.46c2.02,0,3.53-1.9,3.53-4.51
				c0-1.97-0.98-4.46-3.48-4.46C560.15,260.34,559.07,262.65,559.07,264.86z"/>
			<path d="M570.95,262.17c0-1.2-0.02-2.18-0.1-3.14h1.87l0.12,1.92h0.05c0.58-1.1,1.92-2.18,3.84-2.18c1.61,0,4.1,0.96,4.1,4.94
				v6.94h-2.11v-6.7c0-1.87-0.7-3.43-2.69-3.43c-1.39,0-2.47,0.98-2.83,2.16c-0.1,0.26-0.14,0.62-0.14,0.98v6.98h-2.11V262.17z"/>
			<path d="M584.27,262.17c0-1.2-0.02-2.18-0.1-3.14h1.87l0.12,1.92h0.05c0.58-1.1,1.92-2.18,3.84-2.18c1.61,0,4.1,0.96,4.1,4.94
				v6.94h-2.11v-6.7c0-1.87-0.7-3.43-2.69-3.43c-1.39,0-2.47,0.98-2.83,2.16c-0.1,0.26-0.14,0.62-0.14,0.98v6.98h-2.11V262.17z"/>
			<path d="M598.76,265.22c0.05,2.86,1.87,4.03,3.98,4.03c1.51,0,2.42-0.26,3.22-0.6l0.36,1.51c-0.74,0.34-2.02,0.72-3.86,0.72
				c-3.58,0-5.71-2.35-5.71-5.86c0-3.5,2.06-6.26,5.45-6.26c3.79,0,4.8,3.34,4.8,5.47c0,0.43-0.05,0.77-0.07,0.98H598.76z
				 M604.95,263.7c0.02-1.34-0.55-3.43-2.93-3.43c-2.14,0-3.07,1.97-3.24,3.43H604.95z"/>
			<path d="M609.32,268.48c0.62,0.41,1.73,0.84,2.78,0.84c1.54,0,2.26-0.77,2.26-1.73c0-1.01-0.6-1.56-2.16-2.14
				c-2.09-0.74-3.07-1.9-3.07-3.29c0-1.87,1.51-3.41,4.01-3.41c1.18,0,2.21,0.34,2.86,0.72l-0.53,1.54
				c-0.46-0.29-1.3-0.67-2.38-0.67c-1.25,0-1.94,0.72-1.94,1.58c0,0.96,0.7,1.39,2.21,1.97c2.02,0.77,3.05,1.78,3.05,3.5
				c0,2.04-1.58,3.48-4.34,3.48c-1.27,0-2.45-0.31-3.26-0.79L609.32,268.48z"/>
		</g>
		<g>
			<path d="M410.23,334.31v-1.94l2.48-2.41c5.98-5.69,8.67-8.71,8.71-12.24c0-2.38-1.15-4.57-4.64-4.57c-2.12,0-3.89,1.08-4.97,1.98
				l-1.01-2.23c1.62-1.37,3.92-2.38,6.62-2.38c5.04,0,7.16,3.46,7.16,6.8c0,4.32-3.13,7.81-8.06,12.56l-1.87,1.73v0.07h10.51v2.63
				H410.23z"/>
			<path d="M443.89,310.91V313l-10.19,21.31h-3.28l10.15-20.7v-0.07h-11.45v-2.63H443.89z"/>
			<path d="M457.71,317.5c0,4.93-2.59,7.38-5.62,7.38c-2.92,0-5.43-2.34-5.47-7.06c0-4.68,2.56-7.31,5.65-7.31
				C455.55,310.52,457.71,313.04,457.71,317.5z M449.15,317.71c-0.07,2.99,1.04,5.26,3.02,5.26c2.09,0,3.02-2.23,3.02-5.33
				c0-2.84-0.83-5.22-3.02-5.22C450.19,312.42,449.15,314.76,449.15,317.71z M451.88,334.7l13.75-24.19h2.02L453.9,334.7H451.88z
				 M472.94,327.18c0,4.93-2.59,7.38-5.58,7.38c-2.92,0-5.44-2.34-5.47-7.02c0-4.72,2.56-7.34,5.65-7.34
				C470.82,320.2,472.94,322.72,472.94,327.18z M464.37,327.4c-0.04,2.99,1.12,5.26,3.06,5.26c2.09,0,3.02-2.23,3.02-5.33
				c0-2.84-0.83-5.22-3.02-5.22C465.45,322.11,464.37,324.45,464.37,327.4z"/>
		</g>
		<g>
			<path d="M420.4,345.02v14.04c0,1.03,0.02,2.21,0.1,3h-1.9l-0.1-2.02h-0.05c-0.65,1.3-2.06,2.28-3.96,2.28
				c-2.81,0-4.97-2.38-4.97-5.9c-0.02-3.86,2.38-6.24,5.21-6.24c1.78,0,2.98,0.84,3.5,1.78h0.05v-6.94H420.4z M418.29,355.17
				c0-0.26-0.02-0.62-0.1-0.89c-0.31-1.34-1.46-2.45-3.05-2.45c-2.18,0-3.48,1.92-3.48,4.49c0,2.35,1.15,4.3,3.43,4.3
				c1.42,0,2.71-0.94,3.1-2.52c0.07-0.29,0.1-0.58,0.1-0.91V355.17z"/>
			<path d="M425.08,356.64c0.05,2.86,1.87,4.03,3.98,4.03c1.51,0,2.42-0.26,3.22-0.6l0.36,1.51c-0.74,0.34-2.02,0.72-3.86,0.72
				c-3.58,0-5.71-2.35-5.71-5.86c0-3.5,2.06-6.26,5.45-6.26c3.79,0,4.8,3.34,4.8,5.47c0,0.43-0.05,0.77-0.07,0.98H425.08z
				 M431.27,355.13c0.02-1.34-0.55-3.43-2.93-3.43c-2.14,0-3.07,1.97-3.24,3.43H431.27z"/>
			<path d="M449.65,348.24h-5.95l-0.6,4.01c0.36-0.05,0.7-0.1,1.27-0.1c1.2,0,2.4,0.26,3.36,0.84c1.22,0.7,2.23,2.04,2.23,4.01
				c0,3.05-2.42,5.33-5.81,5.33c-1.7,0-3.14-0.48-3.89-0.96l0.53-1.61c0.65,0.38,1.92,0.86,3.34,0.86c1.99,0,3.7-1.3,3.7-3.38
				c-0.02-2.02-1.37-3.46-4.49-3.46c-0.89,0-1.58,0.1-2.16,0.17l1.01-7.49h7.46V348.24z"/>
			<path d="M463.02,354.09c0,5.3-1.97,8.23-5.42,8.23c-3.05,0-5.11-2.86-5.16-8.02c0-5.23,2.26-8.11,5.42-8.11
				C461.15,346.2,463.02,349.13,463.02,354.09z M454.55,354.34c0,4.06,1.25,6.36,3.17,6.36c2.16,0,3.19-2.52,3.19-6.5
				c0-3.84-0.98-6.36-3.17-6.36C455.89,347.83,454.55,350.09,454.55,354.34z"/>
			<path d="M475.33,354.09c0,5.3-1.97,8.23-5.42,8.23c-3.05,0-5.11-2.86-5.16-8.02c0-5.23,2.26-8.11,5.42-8.11
				C473.46,346.2,475.33,349.13,475.33,354.09z M466.86,354.34c0,4.06,1.25,6.36,3.17,6.36c2.16,0,3.19-2.52,3.19-6.5
				c0-3.84-0.98-6.36-3.17-6.36C468.2,347.83,466.86,350.09,466.86,354.34z"/>
			<path d="M489.47,362.06l-0.17-1.46h-0.07c-0.65,0.91-1.9,1.73-3.55,1.73c-2.35,0-3.55-1.66-3.55-3.34c0-2.81,2.5-4.34,6.98-4.32
				v-0.24c0-0.96-0.26-2.69-2.64-2.69c-1.08,0-2.21,0.34-3.02,0.86l-0.48-1.39c0.96-0.62,2.35-1.03,3.82-1.03
				c3.55,0,4.42,2.42,4.42,4.75v4.34c0,1.01,0.05,1.99,0.19,2.78H489.47z M485.89,345.43l2.09,3.43h-1.49l-2.93-3.43H485.89z
				 M489.16,356.13c-2.3-0.05-4.92,0.36-4.92,2.62c0,1.37,0.91,2.02,1.99,2.02c1.51,0,2.47-0.96,2.81-1.94
				c0.07-0.22,0.12-0.46,0.12-0.67V356.13z"/>
			<path d="M503.6,348.43h-0.05l-2.71,1.46l-0.41-1.61l3.41-1.82h1.8v15.6h-2.04V348.43z"/>
			<path d="M521.7,354.09c0,5.3-1.97,8.23-5.42,8.23c-3.05,0-5.11-2.86-5.16-8.02c0-5.23,2.26-8.11,5.42-8.11
				C519.83,346.2,521.7,349.13,521.7,354.09z M513.23,354.34c0,4.06,1.25,6.36,3.17,6.36c2.16,0,3.19-2.52,3.19-6.5
				c0-3.84-0.98-6.36-3.17-6.36C514.57,347.83,513.23,350.09,513.23,354.34z"/>
			<path d="M534.01,354.09c0,5.3-1.97,8.23-5.42,8.23c-3.05,0-5.11-2.86-5.16-8.02c0-5.23,2.26-8.11,5.42-8.11
				C532.14,346.2,534.01,349.13,534.01,354.09z M525.54,354.34c0,4.06,1.25,6.36,3.17,6.36c2.16,0,3.19-2.52,3.19-6.5
				c0-3.84-0.98-6.36-3.17-6.36C526.88,347.83,525.54,350.09,525.54,354.34z"/>
			<path d="M546.32,354.09c0,5.3-1.97,8.23-5.42,8.23c-3.05,0-5.11-2.86-5.16-8.02c0-5.23,2.26-8.11,5.42-8.11
				C544.45,346.2,546.32,349.13,546.32,354.09z M537.85,354.34c0,4.06,1.25,6.36,3.17,6.36c2.16,0,3.19-2.52,3.19-6.5
				c0-3.84-0.98-6.36-3.17-6.36C539.19,347.83,537.85,350.09,537.85,354.34z"/>
			<path d="M554.03,354.24c0-1.49-0.05-2.69-0.1-3.79h1.9l0.1,1.99h0.05c0.86-1.42,2.23-2.26,4.13-2.26c2.81,0,4.92,2.38,4.92,5.9
				c0,4.18-2.54,6.24-5.28,6.24c-1.54,0-2.88-0.67-3.58-1.82h-0.05v6.31h-2.09V354.24z M556.11,357.34c0,0.31,0.05,0.6,0.1,0.86
				c0.38,1.46,1.66,2.47,3.17,2.47c2.23,0,3.53-1.82,3.53-4.49c0-2.33-1.22-4.32-3.46-4.32c-1.44,0-2.78,1.03-3.19,2.62
				c-0.07,0.26-0.14,0.58-0.14,0.86V357.34z"/>
			<path d="M568.86,356.64c0.05,2.86,1.87,4.03,3.98,4.03c1.51,0,2.42-0.26,3.22-0.6l0.36,1.51c-0.74,0.34-2.02,0.72-3.86,0.72
				c-3.58,0-5.71-2.35-5.71-5.86c0-3.5,2.06-6.26,5.45-6.26c3.79,0,4.8,3.34,4.8,5.47c0,0.43-0.05,0.77-0.07,0.98H568.86z
				 M575.05,355.13c0.02-1.34-0.55-3.43-2.93-3.43c-2.14,0-3.07,1.97-3.24,3.43H575.05z"/>
			<path d="M579.71,354.07c0-1.37-0.02-2.54-0.1-3.62h1.85l0.07,2.28h0.1c0.53-1.56,1.8-2.54,3.22-2.54c0.24,0,0.41,0.02,0.6,0.07
				v1.99c-0.22-0.05-0.43-0.07-0.72-0.07c-1.49,0-2.54,1.13-2.83,2.71c-0.05,0.29-0.1,0.62-0.1,0.98v6.19h-2.09V354.07z"/>
			<path d="M587.26,359.9c0.62,0.41,1.73,0.84,2.78,0.84c1.54,0,2.26-0.77,2.26-1.73c0-1.01-0.6-1.56-2.16-2.14
				c-2.09-0.74-3.07-1.9-3.07-3.29c0-1.87,1.51-3.41,4.01-3.41c1.18,0,2.21,0.34,2.86,0.72l-0.53,1.54
				c-0.46-0.29-1.3-0.67-2.38-0.67c-1.25,0-1.94,0.72-1.94,1.58c0,0.96,0.7,1.39,2.21,1.97c2.02,0.77,3.05,1.78,3.05,3.5
				c0,2.04-1.58,3.48-4.34,3.48c-1.27,0-2.45-0.31-3.26-0.79L587.26,359.9z"/>
			<path d="M607.57,356.16c0,4.3-2.98,6.17-5.78,6.17c-3.14,0-5.57-2.3-5.57-5.98c0-3.89,2.54-6.17,5.76-6.17
				C605.31,350.18,607.57,352.61,607.57,356.16z M598.35,356.28c0,2.54,1.46,4.46,3.53,4.46c2.02,0,3.53-1.9,3.53-4.51
				c0-1.97-0.98-4.46-3.48-4.46C599.43,351.77,598.35,354.07,598.35,356.28z"/>
			<path d="M610.23,353.59c0-1.2-0.02-2.18-0.1-3.14h1.87l0.12,1.92h0.05c0.58-1.1,1.92-2.18,3.84-2.18c1.61,0,4.1,0.96,4.1,4.94
				v6.94h-2.11v-6.7c0-1.87-0.7-3.43-2.69-3.43c-1.39,0-2.47,0.98-2.83,2.16c-0.1,0.26-0.14,0.62-0.14,0.98v6.98h-2.11V353.59z"/>
			<path d="M623.55,353.59c0-1.2-0.02-2.18-0.1-3.14h1.87l0.12,1.92h0.05c0.58-1.1,1.92-2.18,3.84-2.18c1.61,0,4.1,0.96,4.1,4.94
				v6.94h-2.11v-6.7c0-1.87-0.7-3.43-2.69-3.43c-1.39,0-2.47,0.98-2.83,2.16c-0.1,0.26-0.14,0.62-0.14,0.98v6.98h-2.11V353.59z"/>
			<path d="M638.05,356.64c0.05,2.86,1.87,4.03,3.98,4.03c1.51,0,2.42-0.26,3.22-0.6l0.36,1.51c-0.74,0.34-2.02,0.72-3.86,0.72
				c-3.58,0-5.71-2.35-5.71-5.86c0-3.5,2.06-6.26,5.45-6.26c3.79,0,4.8,3.34,4.8,5.47c0,0.43-0.05,0.77-0.07,0.98H638.05z
				 M644.24,355.13c0.02-1.34-0.55-3.43-2.93-3.43c-2.14,0-3.07,1.97-3.24,3.43H644.24z"/>
			<path d="M648.61,359.9c0.62,0.41,1.73,0.84,2.78,0.84c1.54,0,2.26-0.77,2.26-1.73c0-1.01-0.6-1.56-2.16-2.14
				c-2.09-0.74-3.07-1.9-3.07-3.29c0-1.87,1.51-3.41,4.01-3.41c1.18,0,2.21,0.34,2.86,0.72l-0.53,1.54
				c-0.46-0.29-1.3-0.67-2.38-0.67c-1.25,0-1.94,0.72-1.94,1.58c0,0.96,0.7,1.39,2.21,1.97c2.02,0.77,3.05,1.78,3.05,3.5
				c0,2.04-1.58,3.48-4.34,3.48c-1.27,0-2.45-0.31-3.26-0.79L648.61,359.9z"/>
		</g>
		<g>
			<path d="M410.23,425.73v-1.94l2.48-2.41c5.98-5.69,8.67-8.71,8.71-12.24c0-2.38-1.15-4.57-4.64-4.57c-2.12,0-3.89,1.08-4.97,1.98
				l-1.01-2.23c1.62-1.37,3.92-2.38,6.62-2.38c5.04,0,7.16,3.46,7.16,6.8c0,4.32-3.13,7.81-8.06,12.56l-1.87,1.73v0.07h10.51v2.63
				H410.23z"/>
			<path d="M438.49,425.73v-6.37h-10.87v-2.09l10.44-14.94h3.42v14.54h3.28v2.48h-3.28v6.37H438.49z M438.49,416.88v-7.81
				c0-1.22,0.04-2.45,0.11-3.67h-0.11c-0.72,1.37-1.3,2.38-1.94,3.46l-5.72,7.96v0.07H438.49z"/>
			<path d="M457.71,408.92c0,4.93-2.59,7.38-5.62,7.38c-2.92,0-5.43-2.34-5.47-7.06c0-4.68,2.56-7.31,5.65-7.31
				C455.55,401.94,457.71,404.46,457.71,408.92z M449.15,409.14c-0.07,2.99,1.04,5.26,3.02,5.26c2.09,0,3.02-2.23,3.02-5.33
				c0-2.84-0.83-5.22-3.02-5.22C450.19,403.85,449.15,406.19,449.15,409.14z M451.88,426.13l13.75-24.19h2.02l-13.75,24.19H451.88z
				 M472.94,418.61c0,4.93-2.59,7.38-5.58,7.38c-2.92,0-5.44-2.34-5.47-7.02c0-4.72,2.56-7.34,5.65-7.34
				C470.82,411.62,472.94,414.14,472.94,418.61z M464.37,418.82c-0.04,2.99,1.12,5.26,3.06,5.26c2.09,0,3.02-2.23,3.02-5.33
				c0-2.84-0.83-5.22-3.02-5.22C465.45,413.53,464.37,415.87,464.37,418.82z"/>
		</g>
		<g>
			<path d="M420.4,436.45v14.04c0,1.03,0.02,2.21,0.1,3h-1.9l-0.1-2.02h-0.05c-0.65,1.3-2.06,2.28-3.96,2.28
				c-2.81,0-4.97-2.38-4.97-5.91c-0.02-3.86,2.38-6.24,5.21-6.24c1.78,0,2.98,0.84,3.5,1.78h0.05v-6.94H420.4z M418.29,446.6
				c0-0.26-0.02-0.62-0.1-0.89c-0.31-1.34-1.46-2.45-3.05-2.45c-2.18,0-3.48,1.92-3.48,4.49c0,2.35,1.15,4.3,3.43,4.3
				c1.42,0,2.71-0.94,3.1-2.52c0.07-0.29,0.1-0.58,0.1-0.91V446.6z"/>
			<path d="M425.08,448.06c0.05,2.86,1.87,4.03,3.98,4.03c1.51,0,2.42-0.26,3.22-0.6l0.36,1.51c-0.74,0.34-2.02,0.72-3.86,0.72
				c-3.58,0-5.71-2.35-5.71-5.86s2.06-6.26,5.45-6.26c3.79,0,4.8,3.34,4.8,5.47c0,0.43-0.05,0.77-0.07,0.98H425.08z M431.27,446.55
				c0.02-1.34-0.55-3.43-2.93-3.43c-2.14,0-3.07,1.97-3.24,3.43H431.27z"/>
			<path d="M440.34,453.49v-1.3l1.66-1.61c3.98-3.79,5.78-5.81,5.81-8.16c0-1.58-0.77-3.05-3.1-3.05c-1.42,0-2.59,0.72-3.31,1.32
				l-0.67-1.49c1.08-0.91,2.62-1.58,4.42-1.58c3.36,0,4.78,2.3,4.78,4.54c0,2.88-2.09,5.21-5.38,8.38l-1.25,1.15v0.05h7.01v1.75
				H440.34z"/>
			<path d="M463.02,445.52c0,5.3-1.97,8.23-5.42,8.23c-3.05,0-5.11-2.86-5.16-8.02c0-5.23,2.26-8.11,5.42-8.11
				C461.15,437.62,463.02,440.55,463.02,445.52z M454.55,445.76c0,4.06,1.25,6.36,3.17,6.36c2.16,0,3.19-2.52,3.19-6.5
				c0-3.84-0.98-6.36-3.17-6.36C455.89,439.25,454.55,441.51,454.55,445.76z"/>
			<path d="M475.33,445.52c0,5.3-1.97,8.23-5.42,8.23c-3.05,0-5.11-2.86-5.16-8.02c0-5.23,2.26-8.11,5.42-8.11
				C473.46,437.62,475.33,440.55,475.33,445.52z M466.86,445.76c0,4.06,1.25,6.36,3.17,6.36c2.16,0,3.19-2.52,3.19-6.5
				c0-3.84-0.98-6.36-3.17-6.36C468.2,439.25,466.86,441.51,466.86,445.76z"/>
			<path d="M489.47,453.49l-0.17-1.46h-0.07c-0.65,0.91-1.9,1.73-3.55,1.73c-2.35,0-3.55-1.66-3.55-3.34c0-2.81,2.5-4.34,6.98-4.32
				v-0.24c0-0.96-0.26-2.69-2.64-2.69c-1.08,0-2.21,0.34-3.02,0.86l-0.48-1.39c0.96-0.62,2.35-1.03,3.82-1.03
				c3.55,0,4.42,2.42,4.42,4.75v4.34c0,1.01,0.05,1.99,0.19,2.78H489.47z M485.89,436.85l2.09,3.43h-1.49l-2.93-3.43H485.89z
				 M489.16,447.56c-2.3-0.05-4.92,0.36-4.92,2.62c0,1.37,0.91,2.02,1.99,2.02c1.51,0,2.47-0.96,2.81-1.94
				c0.07-0.22,0.12-0.46,0.12-0.67V447.56z"/>
			<path d="M508.33,439.66h-5.95l-0.6,4.01c0.36-0.05,0.7-0.1,1.27-0.1c1.2,0,2.4,0.26,3.36,0.84c1.22,0.7,2.23,2.04,2.23,4.01
				c0,3.05-2.42,5.33-5.81,5.33c-1.7,0-3.14-0.48-3.89-0.96l0.53-1.61c0.65,0.38,1.92,0.86,3.34,0.86c1.99,0,3.7-1.3,3.7-3.38
				c-0.02-2.02-1.37-3.46-4.49-3.46c-0.89,0-1.58,0.1-2.16,0.17l1.01-7.49h7.46V439.66z"/>
			<path d="M521.7,445.52c0,5.3-1.97,8.23-5.42,8.23c-3.05,0-5.11-2.86-5.16-8.02c0-5.23,2.26-8.11,5.42-8.11
				C519.83,437.62,521.7,440.55,521.7,445.52z M513.23,445.76c0,4.06,1.25,6.36,3.17,6.36c2.16,0,3.19-2.52,3.19-6.5
				c0-3.84-0.98-6.36-3.17-6.36C514.57,439.25,513.23,441.51,513.23,445.76z"/>
			<path d="M534.01,445.52c0,5.3-1.97,8.23-5.42,8.23c-3.05,0-5.11-2.86-5.16-8.02c0-5.23,2.26-8.11,5.42-8.11
				C532.14,437.62,534.01,440.55,534.01,445.52z M525.54,445.76c0,4.06,1.25,6.36,3.17,6.36c2.16,0,3.19-2.52,3.19-6.5
				c0-3.84-0.98-6.36-3.17-6.36C526.88,439.25,525.54,441.51,525.54,445.76z"/>
			<path d="M541.71,445.66c0-1.49-0.05-2.69-0.1-3.79h1.9l0.1,1.99h0.05c0.86-1.42,2.23-2.26,4.13-2.26c2.81,0,4.92,2.38,4.92,5.9
				c0,4.18-2.54,6.24-5.28,6.24c-1.54,0-2.88-0.67-3.58-1.82h-0.05v6.31h-2.09V445.66z M543.8,448.76c0,0.31,0.05,0.6,0.1,0.86
				c0.38,1.46,1.66,2.47,3.17,2.47c2.23,0,3.53-1.82,3.53-4.49c0-2.33-1.22-4.32-3.46-4.32c-1.44,0-2.78,1.03-3.19,2.62
				c-0.07,0.26-0.14,0.58-0.14,0.86V448.76z"/>
			<path d="M556.55,448.06c0.05,2.86,1.87,4.03,3.98,4.03c1.51,0,2.42-0.26,3.22-0.6l0.36,1.51c-0.74,0.34-2.02,0.72-3.86,0.72
				c-3.58,0-5.71-2.35-5.71-5.86s2.06-6.26,5.45-6.26c3.79,0,4.8,3.34,4.8,5.47c0,0.43-0.05,0.77-0.07,0.98H556.55z M562.74,446.55
				c0.02-1.34-0.55-3.43-2.93-3.43c-2.14,0-3.07,1.97-3.24,3.43H562.74z"/>
			<path d="M567.39,445.5c0-1.37-0.02-2.54-0.1-3.62h1.85l0.07,2.28h0.1c0.53-1.56,1.8-2.54,3.22-2.54c0.24,0,0.41,0.02,0.6,0.07
				v1.99c-0.22-0.05-0.43-0.07-0.72-0.07c-1.49,0-2.54,1.13-2.83,2.71c-0.05,0.29-0.1,0.62-0.1,0.98v6.19h-2.09V445.5z"/>
			<path d="M574.95,451.33c0.62,0.41,1.73,0.84,2.78,0.84c1.54,0,2.26-0.77,2.26-1.73c0-1.01-0.6-1.56-2.16-2.14
				c-2.09-0.74-3.07-1.9-3.07-3.29c0-1.87,1.51-3.41,4.01-3.41c1.18,0,2.21,0.34,2.86,0.72l-0.53,1.54
				c-0.46-0.29-1.3-0.67-2.38-0.67c-1.25,0-1.94,0.72-1.94,1.58c0,0.96,0.7,1.39,2.21,1.97c2.02,0.77,3.05,1.78,3.05,3.5
				c0,2.04-1.58,3.48-4.34,3.48c-1.27,0-2.45-0.31-3.26-0.79L574.95,451.33z"/>
			<path d="M595.26,447.58c0,4.3-2.98,6.17-5.78,6.17c-3.14,0-5.57-2.3-5.57-5.98c0-3.89,2.54-6.17,5.76-6.17
				C593,441.61,595.26,444.03,595.26,447.58z M586.04,447.7c0,2.54,1.46,4.46,3.53,4.46c2.02,0,3.53-1.9,3.53-4.51
				c0-1.97-0.98-4.46-3.48-4.46C587.12,443.19,586.04,445.5,586.04,447.7z"/>
			<path d="M597.92,445.01c0-1.2-0.02-2.18-0.1-3.14h1.87l0.12,1.92h0.05c0.58-1.1,1.92-2.18,3.84-2.18c1.61,0,4.1,0.96,4.1,4.94
				v6.94h-2.11v-6.7c0-1.87-0.7-3.43-2.69-3.43c-1.39,0-2.47,0.98-2.83,2.16c-0.1,0.26-0.14,0.62-0.14,0.98v6.98h-2.11V445.01z"/>
			<path d="M611.24,445.01c0-1.2-0.02-2.18-0.1-3.14h1.87l0.12,1.92h0.05c0.58-1.1,1.92-2.18,3.84-2.18c1.61,0,4.1,0.96,4.1,4.94
				v6.94h-2.11v-6.7c0-1.87-0.7-3.43-2.69-3.43c-1.39,0-2.47,0.98-2.83,2.16c-0.1,0.26-0.14,0.62-0.14,0.98v6.98h-2.11V445.01z"/>
			<path d="M625.74,448.06c0.05,2.86,1.87,4.03,3.98,4.03c1.51,0,2.42-0.26,3.22-0.6l0.36,1.51c-0.74,0.34-2.02,0.72-3.86,0.72
				c-3.58,0-5.71-2.35-5.71-5.86s2.06-6.26,5.45-6.26c3.79,0,4.8,3.34,4.8,5.47c0,0.43-0.05,0.77-0.07,0.98H625.74z M631.93,446.55
				c0.02-1.34-0.55-3.43-2.93-3.43c-2.14,0-3.07,1.97-3.24,3.43H631.93z"/>
			<path d="M636.3,451.33c0.62,0.41,1.73,0.84,2.78,0.84c1.54,0,2.26-0.77,2.26-1.73c0-1.01-0.6-1.56-2.16-2.14
				c-2.09-0.74-3.07-1.9-3.07-3.29c0-1.87,1.51-3.41,4.01-3.41c1.18,0,2.21,0.34,2.86,0.72l-0.53,1.54
				c-0.46-0.29-1.3-0.67-2.38-0.67c-1.25,0-1.94,0.72-1.94,1.58c0,0.96,0.7,1.39,2.21,1.97c2.02,0.77,3.05,1.78,3.05,3.5
				c0,2.04-1.58,3.48-4.34,3.48c-1.27,0-2.45-0.31-3.26-0.79L636.3,451.33z"/>
		</g>
		<g>
			<path d="M417.11,496.71h-0.07l-4.07,2.2l-0.61-2.41l5.11-2.74h2.7v23.4h-3.06V496.71z"/>
			<path d="M438.49,517.16v-6.37h-10.87v-2.09l10.44-14.94h3.42v14.54h3.28v2.48h-3.28v6.37H438.49z M438.49,508.3v-7.81
				c0-1.22,0.04-2.45,0.11-3.67h-0.11c-0.72,1.37-1.3,2.38-1.94,3.46l-5.72,7.96v0.07H438.49z"/>
			<path d="M457.71,500.35c0,4.93-2.59,7.38-5.62,7.38c-2.92,0-5.43-2.34-5.47-7.06c0-4.68,2.56-7.31,5.65-7.31
				C455.55,493.36,457.71,495.88,457.71,500.35z M449.15,500.56c-0.07,2.99,1.04,5.25,3.02,5.25c2.09,0,3.02-2.23,3.02-5.33
				c0-2.84-0.83-5.22-3.02-5.22C450.19,495.27,449.15,497.61,449.15,500.56z M451.88,517.55l13.75-24.19h2.02l-13.75,24.19H451.88z
				 M472.94,510.03c0,4.93-2.59,7.38-5.58,7.38c-2.92,0-5.44-2.34-5.47-7.02c0-4.71,2.56-7.34,5.65-7.34
				C470.82,503.05,472.94,505.57,472.94,510.03z M464.37,510.25c-0.04,2.99,1.12,5.25,3.06,5.25c2.09,0,3.02-2.23,3.02-5.33
				c0-2.84-0.83-5.22-3.02-5.22C465.45,504.95,464.37,507.29,464.37,510.25z"/>
		</g>
		<g>
			<path d="M420.4,527.87v14.04c0,1.03,0.02,2.21,0.1,3h-1.9l-0.1-2.02h-0.05c-0.65,1.3-2.06,2.28-3.96,2.28
				c-2.81,0-4.97-2.38-4.97-5.9c-0.02-3.86,2.38-6.24,5.21-6.24c1.78,0,2.98,0.84,3.5,1.78h0.05v-6.94H420.4z M418.29,538.02
				c0-0.26-0.02-0.62-0.1-0.89c-0.31-1.34-1.46-2.45-3.05-2.45c-2.18,0-3.48,1.92-3.48,4.49c0,2.35,1.15,4.3,3.43,4.3
				c1.42,0,2.71-0.94,3.1-2.52c0.07-0.29,0.1-0.58,0.1-0.91V538.02z"/>
			<path d="M425.08,539.49c0.05,2.86,1.87,4.03,3.98,4.03c1.51,0,2.42-0.26,3.22-0.6l0.36,1.51c-0.74,0.34-2.02,0.72-3.86,0.72
				c-3.58,0-5.71-2.35-5.71-5.86c0-3.5,2.06-6.26,5.45-6.26c3.79,0,4.8,3.34,4.8,5.47c0,0.43-0.05,0.77-0.07,0.98H425.08z
				 M431.27,537.98c0.02-1.34-0.55-3.43-2.93-3.43c-2.14,0-3.07,1.97-3.24,3.43H431.27z"/>
			<path d="M444.92,531.28h-0.05l-2.71,1.46l-0.41-1.61l3.41-1.82h1.8v15.6h-2.04V531.28z"/>
			<path d="M463.02,536.94c0,5.3-1.97,8.23-5.42,8.23c-3.05,0-5.11-2.86-5.16-8.02c0-5.23,2.26-8.11,5.42-8.11
				C461.15,529.05,463.02,531.97,463.02,536.94z M454.55,537.18c0,4.06,1.25,6.36,3.17,6.36c2.16,0,3.19-2.52,3.19-6.5
				c0-3.84-0.98-6.36-3.17-6.36C455.89,530.68,454.55,532.93,454.55,537.18z"/>
			<path d="M475.33,536.94c0,5.3-1.97,8.23-5.42,8.23c-3.05,0-5.11-2.86-5.16-8.02c0-5.23,2.26-8.11,5.42-8.11
				C473.46,529.05,475.33,531.97,475.33,536.94z M466.86,537.18c0,4.06,1.25,6.36,3.17,6.36c2.16,0,3.19-2.52,3.19-6.5
				c0-3.84-0.98-6.36-3.17-6.36C468.2,530.68,466.86,532.93,466.86,537.18z"/>
			<path d="M489.47,544.91l-0.17-1.46h-0.07c-0.65,0.91-1.9,1.73-3.55,1.73c-2.35,0-3.55-1.66-3.55-3.34c0-2.81,2.5-4.34,6.98-4.32
				v-0.24c0-0.96-0.26-2.69-2.64-2.69c-1.08,0-2.21,0.34-3.02,0.86l-0.48-1.39c0.96-0.62,2.35-1.03,3.82-1.03
				c3.55,0,4.42,2.42,4.42,4.75v4.34c0,1.01,0.05,1.99,0.19,2.78H489.47z M485.89,528.28l2.09,3.43h-1.49l-2.93-3.43H485.89z
				 M489.16,538.98c-2.3-0.05-4.92,0.36-4.92,2.62c0,1.37,0.91,2.02,1.99,2.02c1.51,0,2.47-0.96,2.81-1.94
				c0.07-0.22,0.12-0.46,0.12-0.67V538.98z"/>
			<path d="M499.02,544.91v-1.3l1.66-1.61c3.98-3.79,5.78-5.81,5.81-8.16c0-1.58-0.77-3.05-3.1-3.05c-1.42,0-2.59,0.72-3.31,1.32
				l-0.67-1.49c1.08-0.91,2.62-1.58,4.42-1.58c3.36,0,4.78,2.3,4.78,4.54c0,2.88-2.09,5.21-5.38,8.38l-1.25,1.15v0.05h7.01v1.75
				H499.02z"/>
			<path d="M521.7,536.94c0,5.3-1.97,8.23-5.42,8.23c-3.05,0-5.11-2.86-5.16-8.02c0-5.23,2.26-8.11,5.42-8.11
				C519.83,529.05,521.7,531.97,521.7,536.94z M513.23,537.18c0,4.06,1.25,6.36,3.17,6.36c2.16,0,3.19-2.52,3.19-6.5
				c0-3.84-0.98-6.36-3.17-6.36C514.57,530.68,513.23,532.93,513.23,537.18z"/>
			<path d="M534.01,536.94c0,5.3-1.97,8.23-5.42,8.23c-3.05,0-5.11-2.86-5.16-8.02c0-5.23,2.26-8.11,5.42-8.11
				C532.14,529.05,534.01,531.97,534.01,536.94z M525.54,537.18c0,4.06,1.25,6.36,3.17,6.36c2.16,0,3.19-2.52,3.19-6.5
				c0-3.84-0.98-6.36-3.17-6.36C526.88,530.68,525.54,532.93,525.54,537.18z"/>
			<path d="M541.71,537.09c0-1.49-0.05-2.69-0.1-3.79h1.9l0.1,1.99h0.05c0.86-1.42,2.23-2.26,4.13-2.26c2.81,0,4.92,2.38,4.92,5.9
				c0,4.18-2.54,6.24-5.28,6.24c-1.54,0-2.88-0.67-3.58-1.82h-0.05v6.31h-2.09V537.09z M543.8,540.18c0,0.31,0.05,0.6,0.1,0.86
				c0.38,1.46,1.66,2.47,3.17,2.47c2.23,0,3.53-1.82,3.53-4.49c0-2.33-1.22-4.32-3.46-4.32c-1.44,0-2.78,1.03-3.19,2.62
				c-0.07,0.26-0.14,0.58-0.14,0.86V540.18z"/>
			<path d="M556.55,539.49c0.05,2.86,1.87,4.03,3.98,4.03c1.51,0,2.42-0.26,3.22-0.6l0.36,1.51c-0.74,0.34-2.02,0.72-3.86,0.72
				c-3.58,0-5.71-2.35-5.71-5.86c0-3.5,2.06-6.26,5.45-6.26c3.79,0,4.8,3.34,4.8,5.47c0,0.43-0.05,0.77-0.07,0.98H556.55z
				 M562.74,537.98c0.02-1.34-0.55-3.43-2.93-3.43c-2.14,0-3.07,1.97-3.24,3.43H562.74z"/>
			<path d="M567.39,536.92c0-1.37-0.02-2.54-0.1-3.62h1.85l0.07,2.28h0.1c0.53-1.56,1.8-2.54,3.22-2.54c0.24,0,0.41,0.02,0.6,0.07
				v1.99c-0.22-0.05-0.43-0.07-0.72-0.07c-1.49,0-2.54,1.13-2.83,2.71c-0.05,0.29-0.1,0.62-0.1,0.98v6.19h-2.09V536.92z"/>
			<path d="M574.95,542.75c0.62,0.41,1.73,0.84,2.78,0.84c1.54,0,2.26-0.77,2.26-1.73c0-1.01-0.6-1.56-2.16-2.14
				c-2.09-0.74-3.07-1.9-3.07-3.29c0-1.87,1.51-3.41,4.01-3.41c1.18,0,2.21,0.34,2.86,0.72l-0.53,1.54
				c-0.46-0.29-1.3-0.67-2.38-0.67c-1.25,0-1.94,0.72-1.94,1.58c0,0.96,0.7,1.39,2.21,1.97c2.02,0.77,3.05,1.78,3.05,3.5
				c0,2.04-1.58,3.48-4.34,3.48c-1.27,0-2.45-0.31-3.26-0.79L574.95,542.75z"/>
			<path d="M595.26,539.01c0,4.3-2.98,6.17-5.78,6.17c-3.14,0-5.57-2.3-5.57-5.98c0-3.89,2.54-6.17,5.76-6.17
				C593,533.03,595.26,535.46,595.26,539.01z M586.04,539.13c0,2.54,1.46,4.46,3.53,4.46c2.02,0,3.53-1.9,3.53-4.51
				c0-1.97-0.98-4.46-3.48-4.46C587.12,534.62,586.04,536.92,586.04,539.13z"/>
			<path d="M597.92,536.44c0-1.2-0.02-2.18-0.1-3.14h1.87l0.12,1.92h0.05c0.58-1.1,1.92-2.18,3.84-2.18c1.61,0,4.1,0.96,4.1,4.94
				v6.94h-2.11v-6.7c0-1.87-0.7-3.43-2.69-3.43c-1.39,0-2.47,0.98-2.83,2.16c-0.1,0.26-0.14,0.62-0.14,0.98v6.98h-2.11V536.44z"/>
			<path d="M611.24,536.44c0-1.2-0.02-2.18-0.1-3.14h1.87l0.12,1.92h0.05c0.58-1.1,1.92-2.18,3.84-2.18c1.61,0,4.1,0.96,4.1,4.94
				v6.94h-2.11v-6.7c0-1.87-0.7-3.43-2.69-3.43c-1.39,0-2.47,0.98-2.83,2.16c-0.1,0.26-0.14,0.62-0.14,0.98v6.98h-2.11V536.44z"/>
			<path d="M625.74,539.49c0.05,2.86,1.87,4.03,3.98,4.03c1.51,0,2.42-0.26,3.22-0.6l0.36,1.51c-0.74,0.34-2.02,0.72-3.86,0.72
				c-3.58,0-5.71-2.35-5.71-5.86c0-3.5,2.06-6.26,5.45-6.26c3.79,0,4.8,3.34,4.8,5.47c0,0.43-0.05,0.77-0.07,0.98H625.74z
				 M631.93,537.98c0.02-1.34-0.55-3.43-2.93-3.43c-2.14,0-3.07,1.97-3.24,3.43H631.93z"/>
			<path d="M636.3,542.75c0.62,0.41,1.73,0.84,2.78,0.84c1.54,0,2.26-0.77,2.26-1.73c0-1.01-0.6-1.56-2.16-2.14
				c-2.09-0.74-3.07-1.9-3.07-3.29c0-1.87,1.51-3.41,4.01-3.41c1.18,0,2.21,0.34,2.86,0.72l-0.53,1.54
				c-0.46-0.29-1.3-0.67-2.38-0.67c-1.25,0-1.94,0.72-1.94,1.58c0,0.96,0.7,1.39,2.21,1.97c2.02,0.77,3.05,1.78,3.05,3.5
				c0,2.04-1.58,3.48-4.34,3.48c-1.27,0-2.45-0.31-3.26-0.79L636.3,542.75z"/>
		</g>
		<g>
			<path d="M417.11,588.13h-0.07l-4.07,2.2l-0.61-2.41l5.11-2.74h2.7v23.4h-3.06V588.13z"/>
			<path d="M444.25,596.63c0,7.96-2.95,12.35-8.13,12.35c-4.57,0-7.67-4.28-7.74-12.02c0-7.85,3.38-12.17,8.13-12.17
				C441.44,584.79,444.25,589.18,444.25,596.63z M431.54,596.99c0,6.08,1.87,9.54,4.75,9.54c3.24,0,4.79-3.78,4.79-9.75
				c0-5.76-1.48-9.54-4.75-9.54C433.56,587.24,431.54,590.62,431.54,596.99z"/>
			<path d="M457.71,591.77c0,4.93-2.59,7.38-5.62,7.38c-2.92,0-5.43-2.34-5.47-7.05c0-4.68,2.56-7.31,5.65-7.31
				C455.55,584.79,457.71,587.31,457.71,591.77z M449.15,591.99c-0.07,2.99,1.04,5.26,3.02,5.26c2.09,0,3.02-2.23,3.02-5.33
				c0-2.84-0.83-5.22-3.02-5.22C450.19,586.7,449.15,589.04,449.15,591.99z M451.88,608.98l13.75-24.19h2.02l-13.75,24.19H451.88z
				 M472.94,601.45c0,4.93-2.59,7.38-5.58,7.38c-2.92,0-5.44-2.34-5.47-7.02c0-4.72,2.56-7.34,5.65-7.34
				C470.82,594.47,472.94,596.99,472.94,601.45z M464.37,601.67c-0.04,2.99,1.12,5.26,3.06,5.26c2.09,0,3.02-2.23,3.02-5.33
				c0-2.84-0.83-5.22-3.02-5.22C465.45,596.38,464.37,598.72,464.37,601.67z"/>
		</g>
		<g>
			<path d="M420.4,619.29v14.04c0,1.03,0.02,2.21,0.1,3h-1.9l-0.1-2.02h-0.05c-0.65,1.3-2.06,2.28-3.96,2.28
				c-2.81,0-4.97-2.38-4.97-5.9c-0.02-3.86,2.38-6.24,5.21-6.24c1.78,0,2.98,0.84,3.5,1.78h0.05v-6.94H420.4z M418.29,629.45
				c0-0.26-0.02-0.62-0.1-0.89c-0.31-1.34-1.46-2.45-3.05-2.45c-2.18,0-3.48,1.92-3.48,4.49c0,2.35,1.15,4.3,3.43,4.3
				c1.42,0,2.71-0.94,3.1-2.52c0.07-0.29,0.1-0.58,0.1-0.91V629.45z"/>
			<path d="M425.08,630.91c0.05,2.86,1.87,4.03,3.98,4.03c1.51,0,2.42-0.26,3.22-0.6l0.36,1.51c-0.74,0.34-2.02,0.72-3.86,0.72
				c-3.58,0-5.71-2.35-5.71-5.86c0-3.5,2.06-6.26,5.45-6.26c3.79,0,4.8,3.34,4.8,5.47c0,0.43-0.05,0.77-0.07,0.98H425.08z
				 M431.27,629.4c0.02-1.34-0.55-3.43-2.93-3.43c-2.14,0-3.07,1.97-3.24,3.43H431.27z"/>
			<path d="M450.71,628.37c0,5.3-1.97,8.23-5.42,8.23c-3.05,0-5.11-2.86-5.16-8.02c0-5.23,2.26-8.11,5.42-8.11
				C448.84,620.47,450.71,623.4,450.71,628.37z M442.24,628.61c0,4.06,1.25,6.36,3.17,6.36c2.16,0,3.19-2.52,3.19-6.5
				c0-3.84-0.98-6.36-3.17-6.36C443.58,622.1,442.24,624.36,442.24,628.61z"/>
			<path d="M464.84,636.34l-0.17-1.46h-0.07c-0.65,0.91-1.9,1.73-3.55,1.73c-2.35,0-3.55-1.66-3.55-3.34c0-2.81,2.5-4.34,6.98-4.32
				v-0.24c0-0.96-0.26-2.69-2.64-2.69c-1.08,0-2.21,0.34-3.02,0.86l-0.48-1.39c0.96-0.62,2.35-1.03,3.82-1.03
				c3.55,0,4.42,2.42,4.42,4.75v4.34c0,1.01,0.05,1.99,0.19,2.78H464.84z M461.27,619.7l2.09,3.43h-1.49l-2.93-3.43H461.27z
				 M464.53,630.41c-2.3-0.05-4.92,0.36-4.92,2.62c0,1.37,0.91,2.02,1.99,2.02c1.51,0,2.47-0.96,2.81-1.94
				c0.07-0.22,0.12-0.46,0.12-0.67V630.41z"/>
			<path d="M478.98,622.7h-0.05l-2.71,1.46l-0.41-1.61l3.41-1.82h1.8v15.6h-2.04V622.7z"/>
			<path d="M497.08,628.37c0,5.3-1.97,8.23-5.42,8.23c-3.05,0-5.11-2.86-5.16-8.02c0-5.23,2.26-8.11,5.42-8.11
				C495.21,620.47,497.08,623.4,497.08,628.37z M488.6,628.61c0,4.06,1.25,6.36,3.17,6.36c2.16,0,3.19-2.52,3.19-6.5
				c0-3.84-0.98-6.36-3.17-6.36C489.95,622.1,488.6,624.36,488.6,628.61z"/>
			<path d="M509.39,628.37c0,5.3-1.97,8.23-5.42,8.23c-3.05,0-5.11-2.86-5.16-8.02c0-5.23,2.26-8.11,5.42-8.11
				C507.52,620.47,509.39,623.4,509.39,628.37z M500.92,628.61c0,4.06,1.25,6.36,3.17,6.36c2.16,0,3.19-2.52,3.19-6.5
				c0-3.84-0.98-6.36-3.17-6.36C502.26,622.1,500.92,624.36,500.92,628.61z"/>
			<path d="M517.09,628.51c0-1.49-0.05-2.69-0.1-3.79h1.9l0.1,1.99h0.05c0.86-1.42,2.23-2.26,4.13-2.26c2.81,0,4.92,2.38,4.92,5.9
				c0,4.18-2.54,6.24-5.28,6.24c-1.54,0-2.88-0.67-3.58-1.82h-0.05v6.31h-2.09V628.51z M519.18,631.61c0,0.31,0.05,0.6,0.1,0.86
				c0.38,1.46,1.66,2.47,3.17,2.47c2.23,0,3.53-1.82,3.53-4.49c0-2.33-1.22-4.32-3.46-4.32c-1.44,0-2.78,1.03-3.19,2.62
				c-0.07,0.26-0.14,0.58-0.14,0.86V631.61z"/>
			<path d="M531.92,630.91c0.05,2.86,1.87,4.03,3.98,4.03c1.51,0,2.42-0.26,3.22-0.6l0.36,1.51c-0.74,0.34-2.02,0.72-3.86,0.72
				c-3.58,0-5.71-2.35-5.71-5.86c0-3.5,2.06-6.26,5.45-6.26c3.79,0,4.8,3.34,4.8,5.47c0,0.43-0.05,0.77-0.07,0.98H531.92z
				 M538.12,629.4c0.02-1.34-0.55-3.43-2.93-3.43c-2.14,0-3.07,1.97-3.24,3.43H538.12z"/>
			<path d="M542.77,628.34c0-1.37-0.02-2.54-0.1-3.62h1.85l0.07,2.28h0.1c0.53-1.56,1.8-2.54,3.22-2.54c0.24,0,0.41,0.02,0.6,0.07
				v1.99c-0.22-0.05-0.43-0.07-0.72-0.07c-1.49,0-2.54,1.13-2.83,2.71c-0.05,0.29-0.1,0.62-0.1,0.98v6.19h-2.09V628.34z"/>
			<path d="M550.33,634.17c0.62,0.41,1.73,0.84,2.78,0.84c1.54,0,2.26-0.77,2.26-1.73c0-1.01-0.6-1.56-2.16-2.14
				c-2.09-0.74-3.07-1.9-3.07-3.29c0-1.87,1.51-3.41,4.01-3.41c1.18,0,2.21,0.34,2.86,0.72l-0.53,1.54
				c-0.46-0.29-1.3-0.67-2.38-0.67c-1.25,0-1.94,0.72-1.94,1.58c0,0.96,0.7,1.39,2.21,1.97c2.02,0.77,3.05,1.78,3.05,3.5
				c0,2.04-1.58,3.48-4.34,3.48c-1.27,0-2.45-0.31-3.26-0.79L550.33,634.17z"/>
			<path d="M570.63,630.43c0,4.3-2.98,6.17-5.78,6.17c-3.14,0-5.57-2.3-5.57-5.98c0-3.89,2.54-6.17,5.76-6.17
				C568.38,624.45,570.63,626.88,570.63,630.43z M561.42,630.55c0,2.54,1.46,4.46,3.53,4.46c2.02,0,3.53-1.9,3.53-4.51
				c0-1.97-0.98-4.46-3.48-4.46C562.5,626.04,561.42,628.34,561.42,630.55z"/>
			<path d="M573.3,627.86c0-1.2-0.02-2.18-0.1-3.14h1.87l0.12,1.92h0.05c0.58-1.1,1.92-2.18,3.84-2.18c1.61,0,4.1,0.96,4.1,4.94
				v6.94h-2.11v-6.7c0-1.87-0.7-3.43-2.69-3.43c-1.39,0-2.47,0.98-2.83,2.16c-0.1,0.26-0.14,0.62-0.14,0.98v6.98h-2.11V627.86z"/>
			<path d="M586.62,627.86c0-1.2-0.02-2.18-0.1-3.14h1.87l0.12,1.92h0.05c0.58-1.1,1.92-2.18,3.84-2.18c1.61,0,4.1,0.96,4.1,4.94
				v6.94h-2.11v-6.7c0-1.87-0.7-3.43-2.69-3.43c-1.39,0-2.47,0.98-2.83,2.16c-0.1,0.26-0.14,0.62-0.14,0.98v6.98h-2.11V627.86z"/>
			<path d="M601.11,630.91c0.05,2.86,1.87,4.03,3.98,4.03c1.51,0,2.42-0.26,3.22-0.6l0.36,1.51c-0.74,0.34-2.02,0.72-3.86,0.72
				c-3.58,0-5.71-2.35-5.71-5.86c0-3.5,2.06-6.26,5.45-6.26c3.79,0,4.8,3.34,4.8,5.47c0,0.43-0.05,0.77-0.07,0.98H601.11z
				 M607.31,629.4c0.02-1.34-0.55-3.43-2.93-3.43c-2.14,0-3.07,1.97-3.24,3.43H607.31z"/>
			<path d="M611.67,634.17c0.62,0.41,1.73,0.84,2.78,0.84c1.54,0,2.26-0.77,2.26-1.73c0-1.01-0.6-1.56-2.16-2.14
				c-2.09-0.74-3.07-1.9-3.07-3.29c0-1.87,1.51-3.41,4.01-3.41c1.18,0,2.21,0.34,2.86,0.72l-0.53,1.54
				c-0.46-0.29-1.3-0.67-2.38-0.67c-1.25,0-1.94,0.72-1.94,1.58c0,0.96,0.7,1.39,2.21,1.97c2.02,0.77,3.05,1.78,3.05,3.5
				c0,2.04-1.58,3.48-4.34,3.48c-1.27,0-2.45-0.31-3.26-0.79L611.67,634.17z"/>
		</g>
	</g>
</g>
</svg>
