<?xml version="1.0" encoding="utf-8"?>
<!-- Generator: Adobe Illustrator 23.0.1, SVG Export Plug-In . SVG Version: 6.00 Build 0)  -->
<svg version="1.1" id="Calque_1" xmlns="http://www.w3.org/2000/svg" xmlns:xlink="http://www.w3.org/1999/xlink" x="0px" y="0px"
	 viewBox="0 0 600 400" style="enable-background:new 0 0 600 400;" xml:space="preserve">
<style type="text/css">
	.st0{fill:#020203;}
	.st1{fill:#E12431;}
	.st2{fill:#106585;}
	.st3{fill:#BFBEBF;}
	.st4{fill:#E9445A;}
	.st5{fill:#E22531;}
	.st6{fill:#AE1D2E;}
	.st7{fill:#158BB9;}
	.st8{fill:#116685;}
	.st9{fill:#083C53;}
</style>
<g>
	<g>
		<path class="st0" d="M138.3,31c0.8,0.5,2.3,1.1,3.7,1.1c2.1,0,3-1,3-2.3c0-1.4-0.8-2.1-2.9-2.9c-2.8-1-4.1-2.5-4.1-4.4
			c0-2.5,2-4.6,5.4-4.6c1.6,0,3,0.4,3.8,1l-0.7,2.1c-0.6-0.4-1.7-0.9-3.2-0.9c-1.7,0-2.6,1-2.6,2.1c0,1.3,0.9,1.9,3,2.6
			c2.7,1,4.1,2.4,4.1,4.7c0,2.7-2.1,4.7-5.8,4.7c-1.7,0-3.3-0.4-4.4-1.1L138.3,31z"/>
		<path class="st0" d="M153.1,26.6c0.1,3.8,2.5,5.4,5.4,5.4c2,0,3.3-0.4,4.3-0.8l0.5,2c-1,0.4-2.7,1-5.2,1c-4.8,0-7.7-3.2-7.7-7.9
			s2.8-8.4,7.3-8.4c5.1,0,6.4,4.5,6.4,7.3c0,0.6-0.1,1-0.1,1.3L153.1,26.6L153.1,26.6z M161.4,24.6c0-1.8-0.7-4.6-3.9-4.6
			c-2.9,0-4.1,2.6-4.4,4.6H161.4z"/>
		<path class="st0" d="M178.8,33.3c-0.7,0.4-2.4,0.9-4.5,0.9c-4.7,0-7.8-3.2-7.8-8c0-4.8,3.3-8.3,8.4-8.3c1.7,0,3.2,0.4,3.9,0.8
			l-0.6,2.2c-0.7-0.4-1.7-0.7-3.3-0.7c-3.6,0-5.5,2.6-5.5,5.9c0,3.6,2.3,5.8,5.4,5.8c1.6,0,2.7-0.4,3.5-0.8L178.8,33.3z"/>
		<path class="st0" d="M185.9,13.8v4.5h4.1v2.2h-4.1v8.4c0,1.9,0.5,3,2.1,3c0.7,0,1.3-0.1,1.6-0.2l0.1,2.1c-0.5,0.2-1.4,0.4-2.5,0.4
			c-1.3,0-2.4-0.4-3.1-1.2c-0.8-0.8-1.1-2.2-1.1-4.1v-8.5h-2.4v-2.2h2.4v-3.7L185.9,13.8z"/>
		<path class="st0" d="M194.5,26.6c0.1,3.8,2.5,5.4,5.4,5.4c2,0,3.3-0.4,4.3-0.8l0.5,2c-1,0.4-2.7,1-5.2,1c-4.8,0-7.7-3.2-7.7-7.9
			s2.8-8.4,7.3-8.4c5.1,0,6.4,4.5,6.4,7.3c0,0.6-0.1,1-0.1,1.3L194.5,26.6L194.5,26.6z M202.9,24.6c0-1.8-0.7-4.6-3.9-4.6
			c-2.9,0-4.1,2.6-4.4,4.6H202.9z"/>
		<path class="st0" d="M222.2,29.6c0,1.6,0,3,0.1,4.3h-2.5l-0.2-2.5h-0.1c-0.7,1.3-2.4,2.9-5.2,2.9c-2.5,0-5.4-1.4-5.4-6.8v-9.1h2.8
			v8.6c0,3,0.9,5,3.5,5c1.9,0,3.2-1.3,3.7-2.6c0.2-0.4,0.3-0.9,0.3-1.5v-9.6h2.8L222.2,29.6L222.2,29.6z"/>
		<path class="st0" d="M226.9,23.1c0-1.8,0-3.4-0.1-4.9h2.5l0.1,3.1h0.1c0.7-2.1,2.4-3.4,4.3-3.4c0.3,0,0.5,0,0.8,0.1v2.7
			c-0.3-0.1-0.6-0.1-1-0.1c-2,0-3.4,1.5-3.8,3.6c-0.1,0.4-0.1,0.8-0.1,1.3v8.3h-2.8V23.1z"/>
		<path class="st0" d="M244.2,23.4c0-2-0.1-3.6-0.1-5.1h2.5l0.1,2.7h0.1c1.2-1.9,3-3,5.5-3c3.8,0,6.6,3.2,6.6,7.9
			c0,5.6-3.4,8.4-7.1,8.4c-2.1,0-3.9-0.9-4.8-2.5H247v8.5h-2.8V23.4z M247,27.5c0,0.4,0.1,0.8,0.1,1.2c0.5,2,2.2,3.3,4.3,3.3
			c3,0,4.7-2.5,4.7-6c0-3.1-1.6-5.8-4.6-5.8c-1.9,0-3.7,1.4-4.3,3.5c-0.1,0.4-0.2,0.8-0.2,1.2L247,27.5L247,27.5z"/>
		<path class="st0" d="M262.6,23.1c0-1.8,0-3.4-0.1-4.9h2.5l0.1,3.1h0.1c0.7-2.1,2.4-3.4,4.3-3.4c0.3,0,0.5,0,0.8,0.1v2.7
			c-0.3-0.1-0.6-0.1-1-0.1c-2,0-3.4,1.5-3.8,3.6c-0.1,0.4-0.1,0.8-0.1,1.3v8.3h-2.8L262.6,23.1L262.6,23.1z"/>
		<path class="st0" d="M276.4,13.9c0,1-0.7,1.7-1.8,1.7c-1,0-1.7-0.8-1.7-1.7c0-1,0.7-1.8,1.8-1.8C275.7,12.1,276.4,12.9,276.4,13.9
			z M273.2,33.9V18.3h2.8v15.6H273.2z"/>
		<path class="st0" d="M281.9,18.3l3.1,8.8c0.5,1.4,0.9,2.7,1.3,4h0.1c0.4-1.3,0.8-2.6,1.3-4l3-8.8h3l-6.1,15.6h-2.7l-5.9-15.6
			H281.9z"/>
		<path class="st0" d="M297.5,26.6c0.1,3.8,2.5,5.4,5.4,5.4c2,0,3.2-0.4,4.3-0.8l0.5,2c-1,0.4-2.7,1-5.2,1c-4.8,0-7.7-3.2-7.7-7.9
			s2.8-8.4,7.3-8.4c5.1,0,6.4,4.5,6.4,7.3c0,0.6-0.1,1-0.1,1.3L297.5,26.6L297.5,26.6z M305.9,24.6c0-1.8-0.7-4.6-3.9-4.6
			c-2.9,0-4.1,2.6-4.4,4.6H305.9z M306.5,11.5l-3.9,4.6h-2l2.8-4.6H306.5z"/>
	</g>
	<g>
		<path class="st0" d="M307.1,200.7c0.8,0.5,2.3,1.1,3.7,1.1c2.1,0,3-1,3-2.3c0-1.4-0.8-2.1-2.9-2.9c-2.8-1-4.1-2.5-4.1-4.4
			c0-2.5,2-4.6,5.4-4.6c1.6,0,3,0.4,3.8,1l-0.7,2.1c-0.6-0.4-1.7-0.9-3.2-0.9c-1.7,0-2.6,1-2.6,2.1c0,1.3,0.9,1.9,3,2.6
			c2.7,1,4.1,2.4,4.1,4.7c0,2.7-2.1,4.7-5.8,4.7c-1.7,0-3.3-0.4-4.4-1.1L307.1,200.7z"/>
		<path class="st0" d="M321.8,196.3c0.1,3.8,2.5,5.4,5.3,5.4c2,0,3.3-0.4,4.3-0.8l0.5,2c-1,0.4-2.7,1-5.2,1c-4.8,0-7.7-3.2-7.7-7.9
			c0-4.7,2.8-8.4,7.3-8.4c5.1,0,6.4,4.5,6.4,7.3c0,0.6-0.1,1-0.1,1.3L321.8,196.3L321.8,196.3z M330.1,194.3c0-1.8-0.7-4.6-3.9-4.6
			c-2.9,0-4.1,2.6-4.4,4.6H330.1z"/>
		<path class="st0" d="M347.5,203c-0.7,0.4-2.4,0.9-4.5,0.9c-4.7,0-7.8-3.2-7.8-8c0-4.8,3.3-8.3,8.4-8.3c1.7,0,3.2,0.4,3.9,0.8
			l-0.6,2.2c-0.7-0.4-1.7-0.7-3.3-0.7c-3.6,0-5.5,2.6-5.5,5.9c0,3.6,2.3,5.8,5.4,5.8c1.6,0,2.7-0.4,3.5-0.8L347.5,203z"/>
		<path class="st0" d="M354.7,183.6v4.5h4.1v2.2h-4.1v8.4c0,1.9,0.5,3,2.1,3c0.7,0,1.3-0.1,1.6-0.2l0.1,2.1
			c-0.5,0.2-1.4,0.4-2.5,0.4c-1.3,0-2.4-0.4-3.1-1.2c-0.8-0.8-1.1-2.2-1.1-4.1v-8.5h-2.4V188h2.4v-3.7L354.7,183.6z"/>
		<path class="st0" d="M363.3,196.3c0.1,3.8,2.5,5.4,5.3,5.4c2,0,3.3-0.4,4.3-0.8l0.5,2c-1,0.4-2.7,1-5.2,1c-4.8,0-7.7-3.2-7.7-7.9
			c0-4.7,2.8-8.4,7.3-8.4c5.1,0,6.4,4.5,6.4,7.3c0,0.6-0.1,1-0.1,1.3L363.3,196.3L363.3,196.3z M371.6,194.3c0-1.8-0.7-4.6-3.9-4.6
			c-2.9,0-4.1,2.6-4.4,4.6H371.6z"/>
		<path class="st0" d="M390.9,199.4c0,1.6,0,3,0.1,4.3h-2.5l-0.2-2.5h-0.1c-0.7,1.3-2.4,2.9-5.2,2.9c-2.5,0-5.4-1.4-5.4-6.8V188h2.8
			v8.6c0,3,0.9,5,3.5,5c1.9,0,3.2-1.3,3.7-2.6c0.2-0.4,0.3-0.9,0.3-1.5V188h2.8L390.9,199.4L390.9,199.4z"/>
		<path class="st0" d="M395.6,192.9c0-1.8,0-3.4-0.1-4.9h2.5l0.1,3.1h0.1c0.7-2.1,2.4-3.4,4.3-3.4c0.3,0,0.5,0,0.8,0.1v2.7
			c-0.3-0.1-0.6-0.1-1-0.1c-2,0-3.4,1.5-3.8,3.6c-0.1,0.4-0.1,0.8-0.1,1.3v8.3h-2.8L395.6,192.9L395.6,192.9z"/>
		<path class="st0" d="M413,193.1c0-2-0.1-3.6-0.1-5.1h2.5l0.1,2.7h0.1c1.2-1.9,3-3,5.5-3c3.8,0,6.6,3.2,6.6,7.9
			c0,5.6-3.4,8.4-7.1,8.4c-2.1,0-3.9-0.9-4.8-2.5h-0.1v8.5H413V193.1z M415.8,197.3c0,0.4,0.1,0.8,0.1,1.2c0.5,2,2.2,3.3,4.3,3.3
			c3,0,4.7-2.5,4.7-6c0-3.1-1.6-5.8-4.6-5.8c-1.9,0-3.7,1.4-4.3,3.5c-0.1,0.4-0.2,0.8-0.2,1.2L415.8,197.3L415.8,197.3z"/>
		<path class="st0" d="M444.4,199.4c0,1.6,0,3,0.1,4.3H442l-0.2-2.5h-0.1c-0.7,1.3-2.4,2.9-5.2,2.9c-2.5,0-5.4-1.4-5.4-6.8V188h2.8
			v8.6c0,3,0.9,5,3.5,5c1.9,0,3.2-1.3,3.7-2.6c0.2-0.4,0.3-0.9,0.3-1.5V188h2.8L444.4,199.4L444.4,199.4z"/>
		<path class="st0" d="M449,203.6c0.1-1.1,0.1-2.6,0.1-4v-18.9h2.8v9.8h0.1c1-1.7,2.8-2.9,5.3-2.9c3.9,0,6.6,3.2,6.6,8
			c0,5.6-3.5,8.3-7,8.3c-2.3,0-4.1-0.9-5.2-2.9h-0.1l-0.1,2.6L449,203.6L449,203.6z M451.9,197.4c0,0.4,0.1,0.7,0.1,1
			c0.5,2,2.2,3.3,4.3,3.3c3,0,4.7-2.4,4.7-6c0-3.1-1.6-5.8-4.6-5.8c-1.9,0-3.7,1.3-4.3,3.5c-0.1,0.3-0.2,0.7-0.2,1.2L451.9,197.4
			L451.9,197.4z"/>
		<path class="st0" d="M467.4,180.7h2.8v22.9h-2.8V180.7z"/>
		<path class="st0" d="M478.2,183.6c0,1-0.7,1.7-1.8,1.7c-1,0-1.7-0.8-1.7-1.7c0-1,0.7-1.8,1.8-1.8
			C477.5,181.9,478.2,182.6,478.2,183.6z M475,203.6V188h2.8v15.6L475,203.6L475,203.6z"/>
		<path class="st0" d="M493.7,203c-0.7,0.4-2.4,0.9-4.5,0.9c-4.7,0-7.8-3.2-7.8-8c0-4.8,3.3-8.3,8.4-8.3c1.7,0,3.2,0.4,3.9,0.8
			l-0.6,2.2c-0.7-0.4-1.7-0.7-3.3-0.7c-3.6,0-5.5,2.6-5.5,5.9c0,3.6,2.3,5.8,5.4,5.8c1.6,0,2.7-0.4,3.5-0.8L493.7,203z"/>
	</g>
	<g>
		<path class="st0" d="M201.9,344.2c-0.6,0-1.3,0-2.1,0.1c-4.4,0.7-6.8,4-7.3,7.4h0.1c1-1.3,2.7-2.4,5.1-2.4c3.7,0,6.3,2.7,6.3,6.8
			c0,3.8-2.6,7.4-7,7.4c-4.5,0-7.4-3.5-7.4-8.9c0-4.1,1.5-7.4,3.5-9.4c1.7-1.7,4.1-2.8,6.7-3.1c0.8-0.1,1.5-0.2,2.1-0.2V344.2z
			 M201.1,356.2c0-3-1.7-4.8-4.3-4.8c-1.7,0-3.3,1.1-4.1,2.6c-0.2,0.3-0.3,0.7-0.3,1.3c0.1,3.4,1.6,6,4.6,6
			C199.5,361.3,201.1,359.2,201.1,356.2z"/>
		<path class="st0" d="M206.5,363.1v-1.7l2.2-2.2c5.4-5.1,7.8-7.8,7.8-11c0-2.1-1-4.1-4.2-4.1c-1.9,0-3.5,1-4.4,1.8l-0.9-2
			c1.5-1.2,3.5-2.1,5.9-2.1c4.5,0,6.4,3.1,6.4,6.1c0,3.9-2.8,7-7.2,11.2l-1.7,1.5v0.1h9.4v2.4H206.5z"/>
		<path class="st0" d="M222.1,367.1c0.7-1.9,1.6-5.4,1.9-7.7l3.2-0.3c-0.7,2.7-2.2,6.3-3.1,7.8L222.1,367.1z"/>
		<path class="st0" d="M242.2,344.5h-8l-0.8,5.4c0.5-0.1,0.9-0.1,1.7-0.1c1.6,0,3.2,0.4,4.5,1.1c1.6,0.9,3,2.7,3,5.4
			c0,4.1-3.3,7.2-7.8,7.2c-2.3,0-4.2-0.6-5.2-1.3l0.7-2.2c0.9,0.5,2.6,1.2,4.5,1.2c2.7,0,5-1.7,5-4.5c0-2.7-1.8-4.6-6-4.6
			c-1.2,0-2.1,0.1-2.9,0.2l1.4-10.1h10L242.2,344.5L242.2,344.5z"/>
		<path class="st0" d="M255.7,348.1c0,4.4-2.3,6.6-5,6.6c-2.6,0-4.9-2.1-4.9-6.3c0-4.2,2.3-6.5,5.1-6.5
			C253.7,341.8,255.7,344.1,255.7,348.1z M248,348.3c-0.1,2.7,0.9,4.7,2.7,4.7c1.9,0,2.7-2,2.7-4.8c0-2.5-0.7-4.7-2.7-4.7
			C248.9,343.5,248,345.6,248,348.3z M250.5,363.5l12.3-21.7h1.8l-12.3,21.7H250.5z M269.3,356.7c0,4.4-2.3,6.6-5,6.6
			c-2.6,0-4.9-2.1-4.9-6.3c0-4.2,2.3-6.6,5.1-6.6C267.4,350.5,269.3,352.7,269.3,356.7z M261.6,356.9c0,2.7,1,4.7,2.7,4.7
			c1.9,0,2.7-2,2.7-4.8c0-2.5-0.7-4.7-2.7-4.7C262.6,352.2,261.6,354.3,261.6,356.9z"/>
	</g>
	<g>
		<path class="st0" d="M366.4,366.2L366.4,366.2l-3.7,2l-0.5-2.2l4.6-2.5h2.4v20.9h-2.7V366.2z"/>
		<path class="st0" d="M390.3,363.6v1.9l-9.1,19.1h-2.9l9.1-18.5v-0.1h-10.3v-2.4H390.3z"/>
		<path class="st0" d="M392.3,388.5c0.7-1.9,1.6-5.3,1.9-7.7l3.2-0.3c-0.7,2.7-2.2,6.3-3.1,7.8L392.3,388.5z"/>
		<path class="st0" d="M412.4,366h-8l-0.8,5.4c0.5-0.1,0.9-0.1,1.7-0.1c1.6,0,3.2,0.4,4.5,1.1c1.6,0.9,3,2.7,3,5.4
			c0,4.1-3.3,7.2-7.8,7.2c-2.3,0-4.2-0.6-5.2-1.3l0.7-2.2c0.9,0.5,2.6,1.2,4.5,1.2c2.7,0,5-1.7,5-4.5c0-2.7-1.8-4.6-6-4.6
			c-1.2,0-2.1,0.1-2.9,0.2l1.4-10.1h10L412.4,366L412.4,366z"/>
		<path class="st0" d="M425.9,369.5c0,4.4-2.3,6.6-5,6.6c-2.6,0-4.9-2.1-4.9-6.3c0-4.2,2.3-6.5,5.1-6.5
			C424,363.2,425.9,365.5,425.9,369.5z M418.3,369.7c-0.1,2.7,0.9,4.7,2.7,4.7c1.9,0,2.7-2,2.7-4.8c0-2.5-0.7-4.7-2.7-4.7
			C419.2,364.9,418.3,367,418.3,369.7z M420.7,384.9l12.3-21.7h1.8l-12.3,21.7H420.7z M439.6,378.1c0,4.4-2.3,6.6-5,6.6
			c-2.6,0-4.9-2.1-4.9-6.3c0-4.2,2.3-6.6,5.1-6.6C437.6,371.9,439.6,374.1,439.6,378.1z M431.9,378.3c0,2.7,1,4.7,2.7,4.7
			c1.9,0,2.7-2,2.7-4.8c0-2.5-0.7-4.7-2.7-4.7C432.8,373.6,431.9,375.7,431.9,378.3z"/>
	</g>
	<rect x="324.8" y="363.1" class="st1" width="21.4" height="21.4"/>
	<rect x="155.5" y="343.9" class="st2" width="21.4" height="21.4"/>
	<g>
		<rect x="69.1" y="125.5" class="st3" width="7.9" height="162.1"/>
		<polygon class="st3" points="69.1,125.5 155.5,97.1 155.5,102.9 76,129.5 		"/>
		<polygon class="st3" points="69.7,182.1 155.5,145.9 155.5,151.7 76.5,186.1 		"/>
		<polygon class="st3" points="69.7,235.3 155.5,195 155.5,200.8 76.5,239.3 		"/>
		<polygon class="st3" points="70.2,283.6 155.5,241.9 155.5,247.7 77,287.6 		"/>
		<polygon class="st3" points="155.5,97.1 519.3,123.4 519.3,129.5 155.5,102.9 		"/>
		<polygon class="st3" points="155.5,145.9 519.3,176.7 519.3,182.9 155.5,151.7 		"/>
		<polygon class="st3" points="155.5,195 519.3,231.6 519.3,237.7 155.5,200.8 		"/>
		<polygon class="st3" points="155.5,241.9 519.3,284.4 519.3,290.5 155.5,247.7 		"/>
		<polygon class="st3" points="69.1,281.8 465,330.9 465,337 69.1,287.6 		"/>
	</g>
	<g>
		<polygon class="st4" points="372.2,227.6 424.1,233.2 399.6,250.1 348.7,244.8 		"/>
		<polygon class="st5" points="348.7,244.8 348.7,307.5 398.7,314.8 399.6,250.1 		"/>
		<polygon class="st6" points="399.6,250.1 424.1,233.2 424.1,298.6 398.7,315.3 		"/>
	</g>
	<g>
		<polygon class="st7" points="205.9,56.3 257.8,61.9 233.3,78.7 182.4,73.5 		"/>
		<polygon class="st8" points="182.4,73.5 182.4,287.4 232.4,294.7 233.3,78.7 		"/>
		<polygon class="st9" points="233.3,78.7 257.8,61.9 257.8,277.9 232.4,294.7 		"/>
	</g>
</g>
</svg>
