<?xml version="1.0" encoding="utf-8"?>
<!-- Generator: Adobe Illustrator 23.0.1, SVG Export Plug-In . SVG Version: 6.00 Build 0)  -->
<svg version="1.1" id="Calque_1" xmlns="http://www.w3.org/2000/svg" xmlns:xlink="http://www.w3.org/1999/xlink" x="0px" y="0px"
	 viewBox="0 0 600 400" style="enable-background:new 0 0 600 400;" xml:space="preserve">
<style type="text/css">
	.st0{fill:#DFE0E0;}
	.st1{fill:#F2F2F2;}
	.st2{fill:#CECECE;}
	.st3{enable-background:new    ;}
	.st4{fill:#020203;}
	.st5{fill:#E22A30;}
	.st6{clip-path:url(#SVGID_2_);fill:#E22A30;}
	.st7{clip-path:url(#SVGID_4_);fill:#E22A30;}
	.st8{fill:#1A3440;}
</style>
<g>
	<rect x="10.8" y="220.9" class="st0" width="194.5" height="144.3"/>
	<rect x="400.8" y="248.3" class="st0" width="194.5" height="116.9"/>
	<polygon class="st1" points="10.8,220.9 76,206 205.3,206 205.3,220.9 	"/>
	<polygon class="st1" points="595.3,248.3 530.1,233.4 400.8,233.4 400.8,248.3 	"/>
	<polygon class="st1" points="359.2,165 303.3,165 247.1,165 205.3,181.8 303,181.8 303.3,181.8 401,181.8 	"/>
	<g>
		
			<image style="overflow:visible;opacity:0.33;enable-background:new    ;" width="392" height="392" xlink:href="DC6D30721858E778.png"  transform="matrix(0.8866 0 0 0.8866 129.0671 105.5405)">
		</image>
		<g>
			<rect x="205.3" y="181.8" class="st2" width="195.4" height="195.4"/>
		</g>
	</g>
</g>
<g class="st3">
	<path class="st4" d="M252.9,54.3H245c0,1.4,0.3,2.4,0.9,3.1c0.6,0.7,1.5,1,2.7,1c1.3,0,2.4-0.4,3.5-1.3l0.6,1.3
		c-0.5,0.4-1.1,0.8-1.8,1s-1.5,0.4-2.3,0.4c-1.7,0-3-0.5-3.9-1.5s-1.4-2.3-1.4-4.1c0-1.1,0.2-2.1,0.6-2.9c0.4-0.8,1-1.5,1.8-2
		c0.8-0.5,1.6-0.7,2.6-0.7c1.4,0,2.5,0.5,3.3,1.4s1.2,2.2,1.2,3.9V54.3z M246.2,50.9c-0.6,0.5-0.9,1.3-1.1,2.3h6.3
		c-0.1-1-0.4-1.8-0.9-2.3c-0.5-0.5-1.2-0.8-2.1-0.8S246.7,50.4,246.2,50.9z"/>
	<path class="st4" d="M254.9,58.5l0.6-1.3c0.6,0.5,1.2,0.8,1.8,1c0.6,0.2,1.3,0.3,2,0.3c0.8,0,1.4-0.1,1.8-0.4s0.6-0.7,0.6-1.2
		c0-0.4-0.1-0.8-0.4-1s-0.8-0.5-1.4-0.6l-1.8-0.4c-0.9-0.2-1.6-0.6-2.1-1.1c-0.5-0.5-0.7-1.1-0.7-1.8c0-0.9,0.4-1.7,1.1-2.3
		c0.8-0.6,1.7-0.9,3-0.9c0.8,0,1.5,0.1,2.1,0.4c0.7,0.2,1.2,0.6,1.7,1l-0.6,1.3c-1-0.8-2.1-1.3-3.2-1.3c-0.8,0-1.4,0.1-1.8,0.4
		c-0.4,0.3-0.6,0.7-0.6,1.2c0,0.4,0.1,0.8,0.4,1c0.3,0.3,0.7,0.5,1.3,0.6l1.8,0.4c1,0.2,1.7,0.6,2.2,1.1s0.7,1.1,0.7,1.9
		c0,0.9-0.4,1.7-1.1,2.2s-1.8,0.8-3.1,0.8C257.3,59.9,255.9,59.4,254.9,58.5z"/>
	<path class="st4" d="M268.3,50.4v5.9c0,0.8,0.2,1.4,0.5,1.7c0.3,0.3,0.8,0.5,1.4,0.5c0.4,0,0.8-0.1,1.2-0.2v1.5
		c-0.4,0.1-0.9,0.2-1.5,0.2c-1,0-1.8-0.3-2.4-0.9c-0.6-0.6-0.9-1.4-0.9-2.5v-6.1h-2.1V49h2.1v-2.8l1.7-0.6V49h3.1v1.4H268.3z"/>
	<path class="st4" d="M279,59.8V44.1h1.7v15.7H279z"/>
	<path class="st4" d="M293.1,54.3h-7.9c0,1.4,0.3,2.4,0.9,3.1c0.6,0.7,1.5,1,2.7,1c1.3,0,2.4-0.4,3.5-1.3l0.6,1.3
		c-0.5,0.4-1.1,0.8-1.8,1s-1.5,0.4-2.3,0.4c-1.7,0-3-0.5-3.9-1.5s-1.4-2.3-1.4-4.1c0-1.1,0.2-2.1,0.6-2.9c0.4-0.8,1-1.5,1.8-2
		c0.8-0.5,1.6-0.7,2.6-0.7c1.4,0,2.5,0.5,3.3,1.4s1.2,2.2,1.2,3.9V54.3z M286.3,50.9c-0.6,0.5-0.9,1.3-1.1,2.3h6.3
		c-0.1-1-0.4-1.8-0.9-2.3c-0.5-0.5-1.2-0.8-2.1-0.8S286.9,50.4,286.3,50.9z"/>
	<path class="st4" d="M301.3,59.8V44.1h1.7v15.7H301.3z"/>
	<path class="st4" d="M306.2,44.5h2.1v2h-2.1V44.5z M306.3,59.8V49h1.7v10.7H306.3z"/>
	<path class="st4" d="M320.4,54.3h-7.9c0,1.4,0.3,2.4,0.9,3.1c0.6,0.7,1.5,1,2.7,1c1.3,0,2.4-0.4,3.5-1.3l0.6,1.3
		c-0.5,0.4-1.1,0.8-1.8,1s-1.5,0.4-2.3,0.4c-1.7,0-3-0.5-3.9-1.5c-1-1-1.4-2.3-1.4-4.1c0-1.1,0.2-2.1,0.6-2.9c0.4-0.8,1-1.5,1.8-2
		c0.8-0.5,1.6-0.7,2.6-0.7c1.4,0,2.5,0.5,3.3,1.4s1.2,2.2,1.2,3.9V54.3z M313.7,50.9c-0.6,0.5-0.9,1.3-1.1,2.3h6.3
		c-0.1-1-0.4-1.8-0.9-2.3c-0.5-0.5-1.2-0.8-2.1-0.8C315,50.1,314.2,50.4,313.7,50.9z"/>
	<path class="st4" d="M332,49v10.7h-1.7v-1.9c-0.3,0.7-0.8,1.2-1.4,1.5c-0.6,0.3-1.3,0.5-2.1,0.5c-1.3,0-2.2-0.4-2.9-1.1
		s-1-1.8-1-3.2V49h1.7v6.6c0,1,0.2,1.7,0.6,2.1c0.4,0.5,1,0.7,1.8,0.7c1,0,1.7-0.3,2.3-0.9c0.6-0.6,0.9-1.4,0.9-2.4V49H332z"/>
	<path class="st4" d="M350.4,44.1v15.7h-1.7v-1.9c-0.3,0.7-0.8,1.2-1.4,1.5c-0.6,0.4-1.4,0.5-2.2,0.5c-0.9,0-1.8-0.2-2.5-0.7
		c-0.7-0.5-1.3-1.1-1.7-2c-0.4-0.8-0.6-1.8-0.6-2.9s0.2-2.1,0.6-2.9c0.4-0.8,0.9-1.5,1.7-1.9s1.6-0.7,2.5-0.7c0.8,0,1.6,0.2,2.2,0.5
		c0.6,0.4,1.1,0.9,1.4,1.5v-6.8H350.4z M347.8,57.4c0.6-0.7,0.9-1.7,0.9-3.1c0-1.3-0.3-2.3-0.9-3c-0.6-0.7-1.4-1.1-2.4-1.1
		s-1.9,0.4-2.5,1.1s-0.9,1.7-0.9,3c0,1.3,0.3,2.3,0.9,3.1c0.6,0.7,1.4,1.1,2.5,1.1S347.2,58.1,347.8,57.4z"/>
	<path class="st4" d="M362.7,54.3h-7.9c0,1.4,0.3,2.4,0.9,3.1c0.6,0.7,1.5,1,2.7,1c1.3,0,2.4-0.4,3.5-1.3l0.6,1.3
		c-0.5,0.4-1.1,0.8-1.8,1s-1.5,0.4-2.3,0.4c-1.7,0-3-0.5-3.9-1.5c-1-1-1.4-2.3-1.4-4.1c0-1.1,0.2-2.1,0.6-2.9c0.4-0.8,1-1.5,1.8-2
		c0.8-0.5,1.6-0.7,2.6-0.7c1.4,0,2.5,0.5,3.3,1.4s1.2,2.2,1.2,3.9V54.3z M356,50.9c-0.6,0.5-0.9,1.3-1.1,2.3h6.3
		c-0.1-1-0.4-1.8-0.9-2.3c-0.5-0.5-1.2-0.8-2.1-0.8C357.2,50.1,356.5,50.4,356,50.9z"/>
</g>
<g class="st3">
	<path class="st4" d="M234.7,75.6l0,1.6c-0.3-0.1-0.7-0.2-1.1-0.2c-1,0-1.8,0.3-2.3,1c-0.5,0.6-0.8,1.4-0.8,2.4v6.1h-1.7v-7.7
		c0-1.1-0.1-2.1-0.2-3h1.6l0.2,2c0.3-0.7,0.7-1.3,1.3-1.7s1.3-0.6,2-0.6C234.1,75.4,234.4,75.5,234.7,75.6z"/>
	<path class="st4" d="M245.7,75.7v10.7H244v-1.9c-0.3,0.7-0.8,1.2-1.4,1.5c-0.6,0.4-1.4,0.5-2.2,0.5c-1,0-1.8-0.2-2.5-0.7
		s-1.3-1.1-1.7-1.9c-0.4-0.8-0.6-1.8-0.6-2.9s0.2-2.1,0.6-2.9c0.4-0.8,1-1.5,1.7-2c0.7-0.5,1.5-0.7,2.5-0.7c0.8,0,1.6,0.2,2.2,0.6
		c0.6,0.4,1.1,0.9,1.4,1.6v-1.9H245.7z M243.2,84.1c0.6-0.7,0.9-1.7,0.9-3.1c0-1.3-0.3-2.3-0.9-3c-0.6-0.7-1.4-1.1-2.4-1.1
		c-1.1,0-1.9,0.4-2.5,1.1c-0.6,0.7-0.9,1.8-0.9,3.1s0.3,2.3,0.9,3c0.6,0.7,1.4,1.1,2.5,1.1C241.8,85.1,242.6,84.8,243.2,84.1z"/>
	<path class="st4" d="M248.4,85.2l0.6-1.3c0.6,0.5,1.2,0.8,1.8,1c0.6,0.2,1.3,0.3,2,0.3c0.8,0,1.4-0.1,1.8-0.4s0.6-0.7,0.6-1.2
		c0-0.4-0.1-0.8-0.4-1s-0.8-0.5-1.4-0.6l-1.8-0.4c-0.9-0.2-1.6-0.6-2.1-1.1c-0.5-0.5-0.7-1.1-0.7-1.8c0-0.9,0.4-1.7,1.1-2.3
		c0.8-0.6,1.7-0.9,3-0.9c0.8,0,1.5,0.1,2.1,0.4c0.7,0.2,1.2,0.6,1.7,1l-0.6,1.3c-1-0.8-2.1-1.3-3.2-1.3c-0.8,0-1.4,0.1-1.8,0.4
		c-0.4,0.3-0.6,0.7-0.6,1.2c0,0.4,0.1,0.8,0.4,1c0.3,0.3,0.7,0.5,1.3,0.6l1.8,0.4c1,0.2,1.7,0.6,2.2,1.1s0.7,1.1,0.7,1.9
		c0,0.9-0.4,1.7-1.1,2.2s-1.8,0.8-3.1,0.8C250.9,86.6,249.5,86.1,248.4,85.2z"/>
	<path class="st4" d="M259,85.2l0.6-1.3c0.6,0.5,1.2,0.8,1.8,1c0.6,0.2,1.3,0.3,2,0.3c0.8,0,1.4-0.1,1.8-0.4s0.6-0.7,0.6-1.2
		c0-0.4-0.1-0.8-0.4-1s-0.8-0.5-1.4-0.6l-1.8-0.4c-0.9-0.2-1.6-0.6-2.1-1.1c-0.5-0.5-0.7-1.1-0.7-1.8c0-0.9,0.4-1.7,1.1-2.3
		c0.8-0.6,1.7-0.9,3-0.9c0.8,0,1.5,0.1,2.1,0.4c0.7,0.2,1.2,0.6,1.7,1l-0.6,1.3c-1-0.8-2.1-1.3-3.2-1.3c-0.8,0-1.4,0.1-1.8,0.4
		c-0.4,0.3-0.6,0.7-0.6,1.2c0,0.4,0.1,0.8,0.4,1c0.3,0.3,0.7,0.5,1.3,0.6l1.8,0.4c1,0.2,1.7,0.6,2.2,1.1s0.7,1.1,0.7,1.9
		c0,0.9-0.4,1.7-1.1,2.2s-1.8,0.8-3.1,0.8C261.5,86.6,260,86.1,259,85.2z"/>
	<path class="st4" d="M279.2,81h-7.9c0,1.4,0.3,2.4,0.9,3.1c0.6,0.7,1.5,1,2.7,1c1.3,0,2.4-0.4,3.5-1.3l0.6,1.3
		c-0.5,0.4-1.1,0.8-1.8,1s-1.5,0.4-2.3,0.4c-1.7,0-3-0.5-3.9-1.5s-1.4-2.3-1.4-4.1c0-1.1,0.2-2.1,0.6-2.9c0.4-0.8,1-1.5,1.8-2
		c0.8-0.5,1.6-0.7,2.6-0.7c1.4,0,2.5,0.5,3.3,1.4s1.2,2.2,1.2,3.9V81z M272.5,77.6c-0.6,0.5-0.9,1.3-1.1,2.3h6.3
		c-0.1-1-0.4-1.8-0.9-2.3c-0.5-0.5-1.2-0.8-2.1-0.8S273,77.1,272.5,77.6z"/>
	<path class="st4" d="M297.3,79.7v6.7h-1.7v-6.7c0-1-0.2-1.7-0.5-2.2c-0.3-0.5-0.9-0.7-1.7-0.7c-0.9,0-1.6,0.3-2.1,0.9
		c-0.5,0.6-0.8,1.4-0.8,2.5v6.1h-1.7v-6.7c0-1-0.2-1.7-0.5-2.2c-0.4-0.5-0.9-0.7-1.7-0.7c-0.9,0-1.6,0.3-2.1,0.9s-0.8,1.4-0.8,2.5
		v6.1h-1.7v-7.7c0-1.1-0.1-2.1-0.2-3h1.6l0.2,1.9c0.3-0.7,0.7-1.2,1.3-1.6c0.6-0.4,1.3-0.6,2.1-0.6c0.9,0,1.5,0.2,2.1,0.5
		c0.5,0.3,0.9,0.9,1.2,1.6c0.3-0.6,0.8-1.1,1.4-1.5c0.6-0.4,1.3-0.6,2.1-0.6C296.1,75.4,297.3,76.9,297.3,79.7z"/>
	<path class="st4" d="M308.4,76.1c0.7,0.5,1.3,1.1,1.7,1.9s0.6,1.8,0.6,2.9s-0.2,2.1-0.6,2.9c-0.4,0.8-1,1.5-1.7,2
		c-0.7,0.5-1.6,0.7-2.5,0.7c-0.8,0-1.6-0.2-2.2-0.6c-0.6-0.4-1.1-0.9-1.4-1.6v2h-1.7V70.7h1.7v6.9c0.3-0.7,0.8-1.2,1.4-1.6
		s1.4-0.6,2.2-0.6C306.9,75.4,307.7,75.7,308.4,76.1z M308,84c0.6-0.7,0.9-1.8,0.9-3.1c0-1.3-0.3-2.3-0.9-3s-1.4-1.1-2.4-1.1
		c-1.1,0-1.9,0.4-2.5,1.1c-0.6,0.7-0.9,1.7-0.9,3c0,1.3,0.3,2.3,0.9,3.1c0.6,0.7,1.4,1.1,2.5,1.1C306.7,85.1,307.5,84.8,308,84z"/>
	<path class="st4" d="M313.4,86.4V70.7h1.7v15.7H313.4z"/>
	<path class="st4" d="M327.4,81h-7.9c0,1.4,0.3,2.4,0.9,3.1c0.6,0.7,1.5,1,2.7,1c1.3,0,2.4-0.4,3.5-1.3l0.6,1.3
		c-0.5,0.4-1.1,0.8-1.8,1s-1.5,0.4-2.3,0.4c-1.7,0-3-0.5-3.9-1.5c-1-1-1.4-2.3-1.4-4.1c0-1.1,0.2-2.1,0.6-2.9c0.4-0.8,1-1.5,1.8-2
		c0.8-0.5,1.6-0.7,2.6-0.7c1.4,0,2.5,0.5,3.3,1.4s1.2,2.2,1.2,3.9V81z M320.7,77.6c-0.6,0.5-0.9,1.3-1.1,2.3h6.3
		c-0.1-1-0.4-1.8-0.9-2.3c-0.5-0.5-1.2-0.8-2.1-0.8C322,76.8,321.3,77.1,320.7,77.6z"/>
	<path class="st4" d="M345.5,79.7v6.7h-1.7v-6.7c0-1-0.2-1.7-0.5-2.2c-0.3-0.5-0.9-0.7-1.7-0.7c-0.9,0-1.6,0.3-2.1,0.9
		c-0.5,0.6-0.8,1.4-0.8,2.5v6.1H337v-6.7c0-1-0.2-1.7-0.5-2.2c-0.4-0.5-0.9-0.7-1.7-0.7c-0.9,0-1.6,0.3-2.1,0.9
		c-0.5,0.6-0.8,1.4-0.8,2.5v6.1h-1.7v-7.7c0-1.1-0.1-2.1-0.2-3h1.6l0.2,1.9c0.3-0.7,0.7-1.2,1.3-1.6s1.3-0.6,2.1-0.6
		c0.9,0,1.5,0.2,2.1,0.5c0.5,0.3,0.9,0.9,1.2,1.6c0.3-0.6,0.8-1.1,1.4-1.5c0.6-0.4,1.3-0.6,2.1-0.6
		C344.3,75.4,345.5,76.9,345.5,79.7z"/>
	<path class="st4" d="M357.8,81h-7.9c0,1.4,0.3,2.4,0.9,3.1c0.6,0.7,1.5,1,2.7,1c1.3,0,2.4-0.4,3.5-1.3l0.6,1.3
		c-0.5,0.4-1.1,0.8-1.8,1s-1.5,0.4-2.3,0.4c-1.7,0-3-0.5-3.9-1.5c-1-1-1.4-2.3-1.4-4.1c0-1.1,0.2-2.1,0.6-2.9c0.4-0.8,1-1.5,1.8-2
		c0.8-0.5,1.6-0.7,2.6-0.7c1.4,0,2.5,0.5,3.3,1.4s1.2,2.2,1.2,3.9V81z M351.1,77.6c-0.6,0.5-0.9,1.3-1.1,2.3h6.3
		c-0.1-1-0.4-1.8-0.9-2.3c-0.5-0.5-1.2-0.8-2.1-0.8C352.4,76.8,351.6,77.1,351.1,77.6z"/>
	<path class="st4" d="M369.6,79.7v6.7h-1.7v-6.7c0-1-0.2-1.7-0.6-2.2c-0.4-0.5-1-0.7-1.9-0.7c-1,0-1.8,0.3-2.4,0.9s-0.9,1.4-0.9,2.5
		v6.1h-1.7v-7.7c0-1.1-0.1-2.1-0.2-3h1.6l0.2,1.9c0.3-0.7,0.8-1.2,1.5-1.6s1.4-0.6,2.2-0.6C368.3,75.4,369.6,76.9,369.6,79.7z"/>
	<path class="st4" d="M375.2,77.1v5.9c0,0.8,0.2,1.4,0.5,1.7c0.3,0.3,0.8,0.5,1.4,0.5c0.4,0,0.8-0.1,1.2-0.2v1.5
		c-0.4,0.1-0.9,0.2-1.5,0.2c-1,0-1.8-0.3-2.4-0.9c-0.6-0.6-0.9-1.4-0.9-2.5v-6.1h-2.1v-1.4h2.1v-2.8l1.7-0.6v3.4h3.1v1.4H375.2z"/>
</g>
<g class="st3">
	<path class="st4" d="M260.5,102.4v10.7h-1.7v-1.9c-0.3,0.7-0.8,1.2-1.4,1.5c-0.6,0.4-1.4,0.5-2.2,0.5c-1,0-1.8-0.2-2.5-0.7
		s-1.3-1.1-1.7-1.9c-0.4-0.8-0.6-1.8-0.6-2.9s0.2-2.1,0.6-2.9c0.4-0.8,1-1.5,1.7-2c0.7-0.5,1.5-0.7,2.5-0.7c0.8,0,1.6,0.2,2.2,0.6
		c0.6,0.4,1.1,0.9,1.4,1.6v-1.9H260.5z M257.9,110.7c0.6-0.7,0.9-1.7,0.9-3.1c0-1.3-0.3-2.3-0.9-3c-0.6-0.7-1.4-1.1-2.4-1.1
		c-1.1,0-1.9,0.4-2.5,1.1c-0.6,0.7-0.9,1.8-0.9,3.1s0.3,2.3,0.9,3c0.6,0.7,1.4,1.1,2.5,1.1C256.5,111.8,257.3,111.5,257.9,110.7z"/>
	<path class="st4" d="M273,106.3v6.7h-1.7v-6.7c0-1-0.2-1.7-0.6-2.2c-0.4-0.5-1-0.7-1.9-0.7c-1,0-1.8,0.3-2.4,0.9
		c-0.6,0.6-0.9,1.4-0.9,2.5v6.1h-1.7v-7.7c0-1.1-0.1-2.1-0.2-3h1.6l0.2,1.9c0.3-0.7,0.8-1.2,1.5-1.6s1.4-0.6,2.2-0.6
		C271.7,102.1,273,103.5,273,106.3z"/>
	<path class="st4" d="M285.5,106.3v6.7h-1.7v-6.7c0-1-0.2-1.7-0.6-2.2c-0.4-0.5-1-0.7-1.9-0.7c-1,0-1.8,0.3-2.4,0.9
		c-0.6,0.6-0.9,1.4-0.9,2.5v6.1h-1.7v-7.7c0-1.1-0.1-2.1-0.2-3h1.6l0.2,1.9c0.3-0.7,0.8-1.2,1.5-1.6s1.4-0.6,2.2-0.6
		C284.2,102.1,285.5,103.5,285.5,106.3z"/>
	<path class="st4" d="M297.7,102.4v10.7h-1.7v-1.9c-0.3,0.7-0.8,1.2-1.4,1.5c-0.6,0.3-1.3,0.5-2.1,0.5c-1.3,0-2.2-0.4-2.9-1.1
		s-1-1.8-1-3.2v-6.7h1.7v6.6c0,1,0.2,1.7,0.6,2.1c0.4,0.5,1,0.7,1.8,0.7c1,0,1.7-0.3,2.3-0.9c0.6-0.6,0.9-1.4,0.9-2.4v-6.1H297.7z"
		/>
	<path class="st4" d="M310.1,107.7h-7.9c0,1.4,0.3,2.4,0.9,3.1c0.6,0.7,1.5,1,2.7,1c1.3,0,2.4-0.4,3.5-1.3l0.6,1.3
		c-0.5,0.4-1.1,0.8-1.8,1s-1.5,0.4-2.3,0.4c-1.7,0-3-0.5-3.9-1.5s-1.4-2.3-1.4-4.1c0-1.1,0.2-2.1,0.6-2.9c0.4-0.8,1-1.5,1.8-2
		c0.8-0.5,1.6-0.7,2.6-0.7c1.4,0,2.5,0.5,3.3,1.4s1.2,2.2,1.2,3.9V107.7z M303.3,104.3c-0.6,0.5-0.9,1.3-1.1,2.3h6.3
		c-0.1-1-0.4-1.8-0.9-2.3c-0.5-0.5-1.2-0.8-2.1-0.8C304.6,103.4,303.9,103.7,303.3,104.3z"/>
	<path class="st4" d="M312.7,113.1V97.4h1.7v15.7H312.7z"/>
	<path class="st4" d="M332.8,97.4v15.7h-1.7v-1.9c-0.3,0.7-0.8,1.2-1.4,1.5c-0.6,0.4-1.4,0.5-2.2,0.5c-0.9,0-1.8-0.2-2.5-0.7
		c-0.7-0.5-1.3-1.1-1.7-2c-0.4-0.8-0.6-1.8-0.6-2.9s0.2-2.1,0.6-2.9c0.4-0.8,0.9-1.5,1.7-1.9c0.7-0.5,1.6-0.7,2.5-0.7
		c0.8,0,1.6,0.2,2.2,0.5c0.6,0.4,1.1,0.9,1.4,1.5v-6.8H332.8z M330.2,110.7c0.6-0.7,0.9-1.7,0.9-3.1c0-1.3-0.3-2.3-0.9-3
		c-0.6-0.7-1.4-1.1-2.4-1.1s-1.9,0.4-2.5,1.1c-0.6,0.7-0.9,1.7-0.9,3c0,1.3,0.3,2.3,0.9,3.1c0.6,0.7,1.4,1.1,2.5,1.1
		S329.6,111.5,330.2,110.7z"/>
	<path class="st4" d="M345.1,107.7h-7.9c0,1.4,0.3,2.4,0.9,3.1c0.6,0.7,1.5,1,2.7,1c1.3,0,2.4-0.4,3.5-1.3l0.6,1.3
		c-0.5,0.4-1.1,0.8-1.8,1s-1.5,0.4-2.3,0.4c-1.7,0-3-0.5-3.9-1.5s-1.4-2.3-1.4-4.1c0-1.1,0.2-2.1,0.6-2.9c0.4-0.8,1-1.5,1.8-2
		c0.8-0.5,1.6-0.7,2.6-0.7c1.4,0,2.5,0.5,3.3,1.4s1.2,2.2,1.2,3.9V107.7z M338.4,104.3c-0.6,0.5-0.9,1.3-1.1,2.3h6.3
		c-0.1-1-0.4-1.8-0.9-2.3c-0.5-0.5-1.2-0.8-2.1-0.8C339.7,103.4,338.9,103.7,338.4,104.3z"/>
	<path class="st4" d="M347.1,111.9l0.6-1.3c0.6,0.5,1.2,0.8,1.8,1s1.3,0.3,2,0.3c0.8,0,1.4-0.1,1.8-0.4s0.6-0.7,0.6-1.2
		c0-0.4-0.1-0.8-0.4-1c-0.3-0.3-0.8-0.5-1.4-0.6l-1.8-0.4c-0.9-0.2-1.6-0.6-2.1-1.1c-0.5-0.5-0.7-1.1-0.7-1.8c0-0.9,0.4-1.7,1.1-2.3
		c0.8-0.6,1.8-0.9,3-0.9c0.8,0,1.5,0.1,2.1,0.4c0.7,0.2,1.2,0.6,1.7,1l-0.6,1.3c-1-0.8-2.1-1.3-3.2-1.3c-0.8,0-1.4,0.1-1.8,0.4
		c-0.4,0.3-0.6,0.7-0.6,1.2c0,0.4,0.1,0.8,0.4,1s0.7,0.5,1.3,0.6l1.8,0.4c1,0.2,1.7,0.6,2.2,1.1c0.5,0.5,0.7,1.1,0.7,1.9
		c0,0.9-0.4,1.7-1.1,2.2s-1.8,0.8-3.1,0.8C349.6,113.2,348.1,112.8,347.1,111.9z"/>
</g>
<g class="st3">
	<path class="st4" d="M232.5,134.3h-7.9c0,1.4,0.3,2.4,0.9,3.1c0.6,0.7,1.5,1,2.7,1c1.3,0,2.4-0.4,3.5-1.3l0.6,1.3
		c-0.5,0.4-1.1,0.8-1.8,1s-1.5,0.4-2.3,0.4c-1.7,0-3-0.5-3.9-1.5s-1.4-2.3-1.4-4.1c0-1.1,0.2-2.1,0.6-2.9c0.4-0.8,1-1.5,1.8-2
		c0.8-0.5,1.6-0.7,2.6-0.7c1.4,0,2.5,0.5,3.3,1.4s1.2,2.2,1.2,3.9V134.3z M225.8,130.9c-0.6,0.5-0.9,1.3-1.1,2.3h6.3
		c-0.1-1-0.4-1.8-0.9-2.3c-0.5-0.5-1.2-0.8-2.1-0.8S226.4,130.4,225.8,130.9z"/>
	<path class="st4" d="M244.4,133v6.7h-1.7v-6.7c0-1-0.2-1.7-0.6-2.2c-0.4-0.5-1-0.7-1.9-0.7c-1,0-1.8,0.3-2.4,0.9
		c-0.6,0.6-0.9,1.4-0.9,2.5v6.1h-1.7V132c0-1.1-0.1-2.1-0.2-3h1.6l0.2,1.9c0.3-0.7,0.8-1.2,1.5-1.6s1.4-0.6,2.2-0.6
		C243.1,128.8,244.4,130.2,244.4,133z"/>
	<path class="st4" d="M256.6,134.3h-7.9c0,1.4,0.3,2.4,0.9,3.1c0.6,0.7,1.5,1,2.7,1c1.3,0,2.4-0.4,3.5-1.3l0.6,1.3
		c-0.5,0.4-1.1,0.8-1.8,1s-1.5,0.4-2.3,0.4c-1.7,0-3-0.5-3.9-1.5s-1.4-2.3-1.4-4.1c0-1.1,0.2-2.1,0.6-2.9c0.4-0.8,1-1.5,1.8-2
		c0.8-0.5,1.6-0.7,2.6-0.7c1.4,0,2.5,0.5,3.3,1.4s1.2,2.2,1.2,3.9V134.3z M249.9,130.9c-0.6,0.5-0.9,1.3-1.1,2.3h6.3
		c-0.1-1-0.4-1.8-0.9-2.3c-0.5-0.5-1.2-0.8-2.1-0.8S250.4,130.4,249.9,130.9z"/>
	<path class="st4" d="M265.2,128.9l0,1.6c-0.3-0.1-0.7-0.2-1.1-0.2c-1,0-1.8,0.3-2.3,1c-0.5,0.6-0.8,1.4-0.8,2.4v6.1h-1.7V132
		c0-1.1-0.1-2.1-0.2-3h1.6l0.2,2c0.3-0.7,0.7-1.3,1.3-1.7s1.3-0.6,2-0.6C264.6,128.8,264.9,128.8,265.2,128.9z"/>
	<path class="st4" d="M276.3,129v10.6c0,1.6-0.4,2.8-1.2,3.6c-0.8,0.8-2,1.2-3.6,1.2c-1.6,0-3-0.4-4.2-1.1l0.3-1.4
		c0.7,0.4,1.3,0.7,1.9,0.8c0.6,0.2,1.3,0.3,2,0.3c1,0,1.8-0.3,2.3-0.8c0.5-0.5,0.8-1.4,0.8-2.4v-2.5c-0.3,0.7-0.8,1.2-1.4,1.6
		c-0.6,0.4-1.4,0.6-2.3,0.6c-0.9,0-1.8-0.2-2.5-0.7c-0.7-0.4-1.3-1.1-1.7-1.9s-0.6-1.7-0.6-2.8c0-1.1,0.2-2,0.6-2.8
		c0.4-0.8,1-1.4,1.7-1.9c0.7-0.4,1.6-0.7,2.5-0.7c0.9,0,1.6,0.2,2.2,0.6c0.6,0.4,1.1,0.9,1.4,1.6V129H276.3z M273.7,137
		c0.6-0.7,0.9-1.6,0.9-2.8s-0.3-2.2-0.9-2.8c-0.6-0.7-1.4-1-2.4-1c-1.1,0-1.9,0.3-2.5,1s-0.9,1.6-0.9,2.8s0.3,2.2,0.9,2.8
		c0.6,0.7,1.4,1,2.5,1C272.3,138,273.1,137.6,273.7,137z"/>
	<path class="st4" d="M289.1,129l-5,11.7c-0.5,1.2-1.2,2.1-2,2.7c-0.8,0.6-1.8,1-2.9,1.2l-0.4-1.3c1-0.2,1.8-0.5,2.3-0.9
		s0.9-1,1.3-1.7l0.4-1l-4.5-10.6h1.8l3.6,8.9l3.7-8.9H289.1z"/>
	<path class="st4" d="M312,133v6.7h-1.7v-6.7c0-1-0.2-1.7-0.5-2.2c-0.3-0.5-0.9-0.7-1.7-0.7c-0.9,0-1.6,0.3-2.1,0.9
		s-0.8,1.4-0.8,2.5v6.1h-1.7v-6.7c0-1-0.2-1.7-0.5-2.2c-0.4-0.5-0.9-0.7-1.7-0.7c-0.9,0-1.6,0.3-2.1,0.9s-0.8,1.4-0.8,2.5v6.1h-1.7
		V132c0-1.1-0.1-2.1-0.2-3h1.6l0.2,1.9c0.3-0.7,0.7-1.2,1.3-1.6c0.6-0.4,1.3-0.6,2.1-0.6c0.9,0,1.5,0.2,2.1,0.5
		c0.5,0.3,0.9,0.9,1.2,1.6c0.3-0.6,0.8-1.1,1.4-1.5s1.3-0.6,2.1-0.6C310.8,128.8,312,130.2,312,133z"/>
	<path class="st4" d="M324.7,129v10.7H323v-1.9c-0.3,0.7-0.8,1.2-1.4,1.5c-0.6,0.4-1.4,0.5-2.2,0.5c-1,0-1.8-0.2-2.5-0.7
		c-0.7-0.5-1.3-1.1-1.7-1.9c-0.4-0.8-0.6-1.8-0.6-2.9s0.2-2.1,0.6-2.9c0.4-0.8,1-1.5,1.7-2c0.7-0.5,1.5-0.7,2.5-0.7
		c0.8,0,1.6,0.2,2.2,0.6c0.6,0.4,1.1,0.9,1.4,1.6V129H324.7z M322.2,137.4c0.6-0.7,0.9-1.7,0.9-3.1c0-1.3-0.3-2.3-0.9-3
		c-0.6-0.7-1.4-1.1-2.4-1.1s-1.9,0.4-2.5,1.1c-0.6,0.7-0.9,1.8-0.9,3.1s0.3,2.3,0.9,3s1.4,1.1,2.5,1.1
		C320.8,138.5,321.6,138.1,322.2,137.4z"/>
	<path class="st4" d="M337.3,133v6.7h-1.7v-6.7c0-1-0.2-1.7-0.6-2.2c-0.4-0.5-1-0.7-1.9-0.7c-1,0-1.8,0.3-2.4,0.9s-0.9,1.4-0.9,2.5
		v6.1h-1.7V132c0-1.1-0.1-2.1-0.2-3h1.6l0.2,1.9c0.3-0.7,0.8-1.2,1.5-1.6s1.4-0.6,2.2-0.6C336,128.8,337.3,130.2,337.3,133z"/>
	<path class="st4" d="M350,129v10.7h-1.7v-1.9c-0.3,0.7-0.8,1.2-1.4,1.5s-1.4,0.5-2.2,0.5c-1,0-1.8-0.2-2.5-0.7
		c-0.7-0.5-1.3-1.1-1.7-1.9c-0.4-0.8-0.6-1.8-0.6-2.9s0.2-2.1,0.6-2.9c0.4-0.8,1-1.5,1.7-2c0.7-0.5,1.5-0.7,2.5-0.7
		c0.8,0,1.6,0.2,2.2,0.6s1.1,0.9,1.4,1.6V129H350z M347.4,137.4c0.6-0.7,0.9-1.7,0.9-3.1c0-1.3-0.3-2.3-0.9-3
		c-0.6-0.7-1.4-1.1-2.4-1.1c-1.1,0-1.9,0.4-2.5,1.1c-0.6,0.7-0.9,1.8-0.9,3.1s0.3,2.3,0.9,3c0.6,0.7,1.4,1.1,2.5,1.1
		C346.1,138.5,346.9,138.1,347.4,137.4z"/>
	<path class="st4" d="M362.9,129v10.6c0,1.6-0.4,2.8-1.2,3.6c-0.8,0.8-2,1.2-3.6,1.2c-1.6,0-3-0.4-4.2-1.1l0.3-1.4
		c0.7,0.4,1.3,0.7,1.9,0.8c0.6,0.2,1.3,0.3,2,0.3c1,0,1.8-0.3,2.3-0.8c0.5-0.5,0.8-1.4,0.8-2.4v-2.5c-0.3,0.7-0.8,1.2-1.4,1.6
		c-0.6,0.4-1.4,0.6-2.3,0.6c-0.9,0-1.8-0.2-2.5-0.7c-0.7-0.4-1.3-1.1-1.7-1.9c-0.4-0.8-0.6-1.7-0.6-2.8c0-1.1,0.2-2,0.6-2.8
		c0.4-0.8,1-1.4,1.7-1.9c0.7-0.4,1.6-0.7,2.5-0.7c0.9,0,1.6,0.2,2.2,0.6s1.1,0.9,1.4,1.6V129H362.9z M360.3,137
		c0.6-0.7,0.9-1.6,0.9-2.8s-0.3-2.2-0.9-2.8s-1.4-1-2.4-1c-1.1,0-1.9,0.3-2.5,1s-0.9,1.6-0.9,2.8s0.3,2.2,0.9,2.8
		c0.6,0.7,1.4,1,2.5,1C358.9,138,359.7,137.6,360.3,137z"/>
	<path class="st4" d="M375.2,134.3h-7.9c0,1.4,0.3,2.4,0.9,3.1c0.6,0.7,1.5,1,2.7,1c1.3,0,2.4-0.4,3.5-1.3l0.6,1.3
		c-0.5,0.4-1.1,0.8-1.8,1s-1.5,0.4-2.3,0.4c-1.7,0-3-0.5-3.9-1.5c-1-1-1.4-2.3-1.4-4.1c0-1.1,0.2-2.1,0.6-2.9c0.4-0.8,1-1.5,1.8-2
		c0.8-0.5,1.6-0.7,2.6-0.7c1.4,0,2.5,0.5,3.3,1.4s1.2,2.2,1.2,3.9V134.3z M368.5,130.9c-0.6,0.5-0.9,1.3-1.1,2.3h6.3
		c-0.1-1-0.4-1.8-0.9-2.3c-0.5-0.5-1.2-0.8-2.1-0.8C369.8,130.1,369,130.4,368.5,130.9z"/>
	<path class="st4" d="M383.8,128.9l0,1.6c-0.3-0.1-0.7-0.2-1.1-0.2c-1,0-1.8,0.3-2.3,1s-0.8,1.4-0.8,2.4v6.1h-1.7V132
		c0-1.1-0.1-2.1-0.2-3h1.6l0.2,2c0.3-0.7,0.7-1.3,1.3-1.7c0.6-0.4,1.3-0.6,2-0.6C383.2,128.8,383.5,128.8,383.8,128.9z"/>
</g>
<g class="st3">
	<path class="st4" d="M434.9,134.1c-1-1-1.5-2.6-1.5-4.6v-9.2h1.7v9.4c0,1.5,0.4,2.6,1.1,3.3s1.8,1.1,3.2,1.1c1.4,0,2.5-0.4,3.2-1.1
		s1.1-1.9,1.1-3.3v-9.4h1.8v9.2c0,2-0.5,3.5-1.5,4.6c-1,1-2.5,1.6-4.5,1.6C437.4,135.7,435.9,135.1,434.9,134.1z"/>
	<path class="st4" d="M458,128.7v6.7h-1.7v-6.7c0-1-0.2-1.7-0.6-2.2c-0.4-0.5-1-0.7-1.9-0.7c-1,0-1.8,0.3-2.4,0.9s-0.9,1.4-0.9,2.5
		v6.1h-1.7v-7.7c0-1.1-0.1-2.1-0.2-3h1.6l0.2,1.9c0.3-0.7,0.8-1.2,1.5-1.6s1.4-0.6,2.2-0.6C456.8,124.5,458,125.9,458,128.7z"/>
	<path class="st4" d="M475.9,130.1H468c0,1.4,0.3,2.4,0.9,3.1c0.6,0.7,1.5,1,2.7,1c1.3,0,2.4-0.4,3.5-1.3l0.6,1.3
		c-0.5,0.4-1.1,0.8-1.8,1s-1.5,0.4-2.3,0.4c-1.7,0-3-0.5-3.9-1.5c-1-1-1.4-2.3-1.4-4.1c0-1.1,0.2-2.1,0.6-2.9c0.4-0.8,1-1.5,1.8-2
		c0.8-0.5,1.6-0.7,2.6-0.7c1.4,0,2.5,0.5,3.3,1.4s1.2,2.2,1.2,3.9V130.1z M469.1,126.6c-0.6,0.5-0.9,1.3-1.1,2.3h6.3
		c-0.1-1-0.4-1.8-0.9-2.3c-0.5-0.5-1.2-0.8-2.1-0.8C470.4,125.8,469.7,126.1,469.1,126.6z M471.9,123.4h-1.2l2.1-4.4h2L471.9,123.4z
		"/>
	<path class="st4" d="M480.3,134.9c-0.8-0.5-1.4-1.1-1.8-1.9s-0.6-1.8-0.6-2.9s0.2-2.1,0.6-2.9c0.4-0.8,1-1.5,1.8-2
		c0.8-0.5,1.7-0.7,2.8-0.7c0.7,0,1.4,0.1,2.1,0.4c0.7,0.2,1.2,0.6,1.7,1l-0.6,1.3c-0.5-0.4-1.1-0.7-1.6-0.9s-1-0.3-1.5-0.3
		c-1.1,0-2,0.4-2.6,1.1c-0.6,0.7-0.9,1.8-0.9,3.1c0,1.3,0.3,2.3,0.9,3c0.6,0.7,1.5,1.1,2.6,1.1c0.5,0,1-0.1,1.5-0.3
		c0.5-0.2,1-0.5,1.6-0.9l0.6,1.3c-0.5,0.4-1,0.8-1.7,1c-0.7,0.2-1.4,0.4-2.1,0.4C481.9,135.6,481,135.4,480.3,134.9z"/>
	<path class="st4" d="M490.8,134.9c-0.8-0.5-1.4-1.1-1.8-1.9s-0.6-1.8-0.6-2.9c0-1.1,0.2-2.1,0.6-2.9s1-1.5,1.8-1.9
		c0.8-0.5,1.7-0.7,2.7-0.7s1.9,0.2,2.7,0.7c0.8,0.5,1.4,1.1,1.8,1.9c0.4,0.8,0.6,1.8,0.6,2.9c0,1.1-0.2,2.1-0.6,2.9
		c-0.4,0.8-1,1.5-1.8,1.9c-0.8,0.5-1.7,0.7-2.7,0.7S491.6,135.4,490.8,134.9z M495.9,133.1c0.6-0.7,0.9-1.7,0.9-3.1
		c0-1.3-0.3-2.3-0.9-3c-0.6-0.7-1.4-1.1-2.4-1.1c-1.1,0-1.9,0.4-2.5,1.1c-0.6,0.7-0.9,1.7-0.9,3c0,1.4,0.3,2.4,0.9,3.1
		s1.4,1.1,2.5,1.1S495.4,133.8,495.9,133.1z"/>
	<path class="st4" d="M500.6,134.2l0.6-1.3c0.6,0.5,1.2,0.8,1.8,1s1.3,0.3,2,0.3c0.8,0,1.4-0.1,1.8-0.4c0.4-0.3,0.6-0.7,0.6-1.2
		c0-0.4-0.1-0.8-0.4-1c-0.3-0.3-0.8-0.5-1.4-0.6l-1.8-0.4c-0.9-0.2-1.6-0.6-2.1-1.1c-0.5-0.5-0.7-1.1-0.7-1.8c0-0.9,0.4-1.7,1.1-2.3
		c0.8-0.6,1.7-0.9,3-0.9c0.8,0,1.5,0.1,2.1,0.4c0.7,0.2,1.2,0.6,1.7,1l-0.6,1.3c-1-0.8-2.1-1.3-3.2-1.3c-0.8,0-1.4,0.1-1.8,0.4
		c-0.4,0.3-0.6,0.7-0.6,1.2c0,0.4,0.1,0.8,0.4,1c0.3,0.3,0.7,0.5,1.3,0.6l1.8,0.4c1,0.2,1.7,0.6,2.2,1.1s0.7,1.1,0.7,1.9
		c0,0.9-0.4,1.7-1.1,2.2s-1.8,0.8-3.1,0.8C503.1,135.6,501.6,135.2,500.6,134.2z"/>
	<path class="st4" d="M521.1,124.8l-5,11.7c-0.5,1.2-1.2,2.1-2,2.7c-0.8,0.6-1.8,1-2.9,1.2l-0.4-1.3c1-0.2,1.8-0.5,2.3-0.9
		c0.5-0.4,0.9-1,1.3-1.7l0.4-1l-4.5-10.6h1.8l3.6,8.9l3.7-8.9H521.1z"/>
	<path class="st4" d="M522.1,134.2l0.6-1.3c0.6,0.5,1.2,0.8,1.8,1c0.6,0.2,1.3,0.3,2,0.3c0.8,0,1.4-0.1,1.8-0.4
		c0.4-0.3,0.6-0.7,0.6-1.2c0-0.4-0.1-0.8-0.4-1c-0.3-0.3-0.8-0.5-1.4-0.6l-1.8-0.4c-0.9-0.2-1.6-0.6-2.1-1.1
		c-0.5-0.5-0.7-1.1-0.7-1.8c0-0.9,0.4-1.7,1.1-2.3c0.8-0.6,1.7-0.9,3-0.9c0.8,0,1.5,0.1,2.1,0.4c0.7,0.2,1.2,0.6,1.7,1l-0.6,1.3
		c-1-0.8-2.1-1.3-3.2-1.3c-0.8,0-1.4,0.1-1.8,0.4c-0.4,0.3-0.6,0.7-0.6,1.2c0,0.4,0.1,0.8,0.4,1c0.3,0.3,0.7,0.5,1.3,0.6l1.8,0.4
		c1,0.2,1.7,0.6,2.2,1.1s0.7,1.1,0.7,1.9c0,0.9-0.4,1.7-1.1,2.2s-1.8,0.8-3.1,0.8C524.6,135.6,523.2,135.2,522.1,134.2z"/>
	<path class="st4" d="M535.6,126.1v5.9c0,0.8,0.2,1.4,0.5,1.7c0.3,0.3,0.8,0.5,1.4,0.5c0.4,0,0.8-0.1,1.2-0.2v1.5
		c-0.4,0.1-0.9,0.2-1.5,0.2c-1,0-1.8-0.3-2.4-0.9c-0.6-0.6-0.9-1.4-0.9-2.5v-6.1h-2.1v-1.4h2.1V122l1.7-0.6v3.4h3.1v1.4H535.6z"/>
	<path class="st4" d="M549.7,130.1h-7.9c0,1.4,0.3,2.4,0.9,3.1c0.6,0.7,1.5,1,2.7,1c1.3,0,2.4-0.4,3.5-1.3l0.6,1.3
		c-0.5,0.4-1.1,0.8-1.8,1s-1.5,0.4-2.3,0.4c-1.7,0-3-0.5-3.9-1.5c-1-1-1.4-2.3-1.4-4.1c0-1.1,0.2-2.1,0.6-2.9c0.4-0.8,1-1.5,1.8-2
		c0.8-0.5,1.6-0.7,2.6-0.7c1.4,0,2.5,0.5,3.3,1.4s1.2,2.2,1.2,3.9V130.1z M544.5,123.4l-2.9-4.4h2l2.1,4.4H544.5z M543,126.6
		c-0.6,0.5-0.9,1.3-1.1,2.3h6.3c-0.1-1-0.4-1.8-0.9-2.3c-0.5-0.5-1.2-0.8-2.1-0.8C544.3,125.8,543.5,126.1,543,126.6z"/>
	<path class="st4" d="M567.8,128.7v6.7h-1.7v-6.7c0-1-0.2-1.7-0.5-2.2c-0.3-0.5-0.9-0.7-1.7-0.7c-0.9,0-1.6,0.3-2.1,0.9
		s-0.8,1.4-0.8,2.5v6.1h-1.7v-6.7c0-1-0.2-1.7-0.5-2.2c-0.4-0.5-0.9-0.7-1.7-0.7c-0.9,0-1.6,0.3-2.1,0.9c-0.5,0.6-0.8,1.4-0.8,2.5
		v6.1h-1.7v-7.7c0-1.1-0.1-2.1-0.2-3h1.6l0.2,1.9c0.3-0.7,0.7-1.2,1.3-1.6c0.6-0.4,1.3-0.6,2.1-0.6c0.9,0,1.5,0.2,2.1,0.5
		c0.5,0.3,0.9,0.9,1.2,1.6c0.3-0.6,0.8-1.1,1.4-1.5s1.3-0.6,2.1-0.6C566.6,124.5,567.8,125.9,567.8,128.7z"/>
	<path class="st4" d="M580.1,130.1h-7.9c0,1.4,0.3,2.4,0.9,3.1c0.6,0.7,1.5,1,2.7,1c1.3,0,2.4-0.4,3.5-1.3l0.6,1.3
		c-0.5,0.4-1.1,0.8-1.8,1s-1.5,0.4-2.3,0.4c-1.7,0-3-0.5-3.9-1.5c-1-1-1.4-2.3-1.4-4.1c0-1.1,0.2-2.1,0.6-2.9c0.4-0.8,1-1.5,1.8-2
		c0.8-0.5,1.6-0.7,2.6-0.7c1.4,0,2.5,0.5,3.3,1.4s1.2,2.2,1.2,3.9V130.1z M573.3,126.6c-0.6,0.5-0.9,1.3-1.1,2.3h6.3
		c-0.1-1-0.4-1.8-0.9-2.3c-0.5-0.5-1.2-0.8-2.1-0.8C574.6,125.8,573.9,126.1,573.3,126.6z"/>
</g>
<g class="st3">
	<path class="st4" d="M430,161.6c-0.8-0.5-1.4-1.1-1.8-1.9s-0.6-1.8-0.6-2.9s0.2-2.1,0.6-2.9c0.4-0.8,1-1.5,1.8-2
		c0.8-0.5,1.7-0.7,2.8-0.7c0.7,0,1.4,0.1,2.1,0.4c0.7,0.2,1.2,0.6,1.7,1l-0.6,1.3c-0.5-0.4-1.1-0.7-1.6-0.9c-0.5-0.2-1-0.3-1.5-0.3
		c-1.1,0-2,0.4-2.6,1.1c-0.6,0.7-0.9,1.8-0.9,3.1c0,1.3,0.3,2.3,0.9,3c0.6,0.7,1.5,1.1,2.6,1.1c0.5,0,1-0.1,1.5-0.3
		c0.5-0.2,1-0.5,1.6-0.9l0.6,1.3c-0.5,0.4-1,0.8-1.7,1c-0.7,0.2-1.4,0.4-2.1,0.4C431.7,162.3,430.8,162.1,430,161.6z"/>
	<path class="st4" d="M440.5,161.6c-0.8-0.5-1.4-1.1-1.8-1.9c-0.4-0.8-0.6-1.8-0.6-2.9c0-1.1,0.2-2.1,0.6-2.9c0.4-0.8,1-1.5,1.8-1.9
		s1.7-0.7,2.7-0.7s1.9,0.2,2.7,0.7s1.4,1.1,1.8,1.9s0.6,1.8,0.6,2.9c0,1.1-0.2,2.1-0.6,2.9s-1,1.5-1.8,1.9s-1.7,0.7-2.7,0.7
		S441.3,162.1,440.5,161.6z M445.7,159.8c0.6-0.7,0.9-1.7,0.9-3.1c0-1.3-0.3-2.3-0.9-3c-0.6-0.7-1.4-1.1-2.4-1.1
		c-1.1,0-1.9,0.4-2.5,1.1c-0.6,0.7-0.9,1.7-0.9,3c0,1.4,0.3,2.4,0.9,3.1s1.4,1.1,2.5,1.1S445.1,160.5,445.7,159.8z"/>
	<path class="st4" d="M460.2,155.4v6.7h-1.7v-6.7c0-1-0.2-1.7-0.6-2.2c-0.4-0.5-1-0.7-1.9-0.7c-1,0-1.8,0.3-2.4,0.9
		s-0.9,1.4-0.9,2.5v6.1H451v-7.7c0-1.1-0.1-2.1-0.2-3h1.6l0.2,1.9c0.3-0.7,0.8-1.2,1.5-1.6s1.4-0.6,2.2-0.6
		C458.9,151.2,460.2,152.6,460.2,155.4z"/>
	<path class="st4" d="M471.2,151.4h1.7l-4.6,10.7h-1.6l-4.6-10.7h1.8l3.6,8.8L471.2,151.4z"/>
	<path class="st4" d="M474.6,146.9h2.1v2h-2.1V146.9z M474.8,162.1v-10.7h1.7v10.7H474.8z"/>
	<path class="st4" d="M487.6,151.4h1.7l-4.6,10.7H483l-4.6-10.7h1.8l3.6,8.8L487.6,151.4z"/>
	<path class="st4" d="M491,146.9h2.1v2H491V146.9z M491.2,162.1v-10.7h1.7v10.7H491.2z"/>
	<path class="st4" d="M505.7,151.4v10.7H504v-1.9c-0.3,0.7-0.8,1.2-1.4,1.5c-0.6,0.4-1.4,0.5-2.2,0.5c-1,0-1.8-0.2-2.5-0.7
		c-0.7-0.5-1.3-1.1-1.7-1.9c-0.4-0.8-0.6-1.8-0.6-2.9s0.2-2.1,0.6-2.9c0.4-0.8,1-1.5,1.7-2c0.7-0.5,1.5-0.7,2.5-0.7
		c0.8,0,1.6,0.2,2.2,0.6c0.6,0.4,1.1,0.9,1.4,1.6v-1.9H505.7z M503.2,159.8c0.6-0.7,0.9-1.7,0.9-3.1c0-1.3-0.3-2.3-0.9-3
		s-1.4-1.1-2.4-1.1s-1.9,0.4-2.5,1.1c-0.6,0.7-0.9,1.8-0.9,3.1s0.3,2.3,0.9,3c0.6,0.7,1.4,1.1,2.5,1.1
		C501.8,160.9,502.6,160.5,503.2,159.8z"/>
	<path class="st4" d="M509.1,162.1v-15.7h1.7v15.7H509.1z"/>
	<path class="st4" d="M519.1,160.9l0.6-1.3c0.6,0.5,1.2,0.8,1.8,1c0.6,0.2,1.3,0.3,2,0.3c0.8,0,1.4-0.1,1.8-0.4
		c0.4-0.3,0.6-0.7,0.6-1.2c0-0.4-0.1-0.8-0.4-1s-0.8-0.5-1.4-0.6l-1.8-0.4c-0.9-0.2-1.6-0.6-2.1-1.1c-0.5-0.5-0.7-1.1-0.7-1.8
		c0-0.9,0.4-1.7,1.1-2.3c0.8-0.6,1.7-0.9,3-0.9c0.8,0,1.5,0.1,2.1,0.4c0.7,0.2,1.2,0.6,1.7,1l-0.6,1.3c-1-0.8-2.1-1.3-3.2-1.3
		c-0.8,0-1.4,0.1-1.8,0.4c-0.4,0.3-0.6,0.7-0.6,1.2c0,0.4,0.1,0.8,0.4,1c0.3,0.3,0.7,0.5,1.3,0.6l1.8,0.4c1,0.2,1.7,0.6,2.2,1.1
		s0.7,1.1,0.7,1.9c0,0.9-0.4,1.7-1.1,2.2s-1.8,0.8-3.1,0.8C521.5,162.3,520.1,161.8,519.1,160.9z"/>
	<path class="st4" d="M539.3,156.7h-7.9c0,1.4,0.3,2.4,0.9,3.1c0.6,0.7,1.5,1,2.7,1c1.3,0,2.4-0.4,3.5-1.3l0.6,1.3
		c-0.5,0.4-1.1,0.8-1.8,1s-1.5,0.4-2.3,0.4c-1.7,0-3-0.5-3.9-1.5s-1.4-2.3-1.4-4.1c0-1.1,0.2-2.1,0.6-2.9c0.4-0.8,1-1.5,1.8-2
		c0.8-0.5,1.6-0.7,2.6-0.7c1.4,0,2.5,0.5,3.3,1.4s1.2,2.2,1.2,3.9V156.7z M532.5,153.3c-0.6,0.5-0.9,1.3-1.1,2.3h6.3
		c-0.1-1-0.4-1.8-0.9-2.3c-0.5-0.5-1.2-0.8-2.1-0.8C533.8,152.5,533.1,152.8,532.5,153.3z"/>
	<path class="st4" d="M547.9,151.3l0,1.6c-0.3-0.1-0.7-0.2-1.1-0.2c-1,0-1.8,0.3-2.3,1s-0.8,1.4-0.8,2.4v6.1h-1.7v-7.7
		c0-1.1-0.1-2.1-0.2-3h1.6l0.2,2c0.3-0.7,0.7-1.3,1.3-1.7s1.3-0.6,2-0.6C547.2,151.2,547.6,151.2,547.9,151.3z"/>
	<path class="st4" d="M558,151.4h1.7l-4.6,10.7h-1.6l-4.6-10.7h1.8l3.6,8.8L558,151.4z"/>
	<path class="st4" d="M561.4,146.9h2.1v2h-2.1V146.9z M561.6,162.1v-10.7h1.7v10.7H561.6z"/>
	<path class="st4" d="M568.4,161.6c-0.8-0.5-1.4-1.1-1.8-1.9c-0.4-0.8-0.6-1.8-0.6-2.9s0.2-2.1,0.6-2.9c0.4-0.8,1-1.5,1.8-2
		c0.8-0.5,1.7-0.7,2.8-0.7c0.7,0,1.4,0.1,2.1,0.4c0.7,0.2,1.2,0.6,1.7,1l-0.6,1.3c-0.5-0.4-1.1-0.7-1.6-0.9s-1-0.3-1.5-0.3
		c-1.1,0-2,0.4-2.6,1.1c-0.6,0.7-0.9,1.8-0.9,3.1c0,1.3,0.3,2.3,0.9,3c0.6,0.7,1.5,1.1,2.6,1.1c0.5,0,1-0.1,1.5-0.3
		c0.5-0.2,1-0.5,1.6-0.9l0.6,1.3c-0.5,0.4-1,0.8-1.7,1c-0.7,0.2-1.4,0.4-2.1,0.4C570.1,162.3,569.2,162.1,568.4,161.6z"/>
	<path class="st4" d="M586.2,156.7h-7.9c0,1.4,0.3,2.4,0.9,3.1c0.6,0.7,1.5,1,2.7,1c1.3,0,2.4-0.4,3.5-1.3l0.6,1.3
		c-0.5,0.4-1.1,0.8-1.8,1s-1.5,0.4-2.3,0.4c-1.7,0-3-0.5-3.9-1.5c-1-1-1.4-2.3-1.4-4.1c0-1.1,0.2-2.1,0.6-2.9c0.4-0.8,1-1.5,1.8-2
		c0.8-0.5,1.6-0.7,2.6-0.7c1.4,0,2.5,0.5,3.3,1.4s1.2,2.2,1.2,3.9V156.7z M579.5,153.3c-0.6,0.5-0.9,1.3-1.1,2.3h6.3
		c-0.1-1-0.4-1.8-0.9-2.3c-0.5-0.5-1.2-0.8-2.1-0.8S580,152.8,579.5,153.3z"/>
</g>
<g class="st3">
	<path class="st4" d="M426.3,173.1v15.7h-1.7v-1.9c-0.3,0.7-0.8,1.2-1.4,1.5s-1.4,0.5-2.2,0.5c-0.9,0-1.8-0.2-2.5-0.7
		c-0.7-0.5-1.3-1.1-1.7-2c-0.4-0.8-0.6-1.8-0.6-2.9s0.2-2.1,0.6-2.9s0.9-1.5,1.7-1.9s1.6-0.7,2.5-0.7c0.8,0,1.6,0.2,2.2,0.5
		s1.1,0.9,1.4,1.5v-6.8H426.3z M423.8,186.5c0.6-0.7,0.9-1.7,0.9-3.1c0-1.3-0.3-2.3-0.9-3c-0.6-0.7-1.4-1.1-2.4-1.1
		s-1.9,0.4-2.5,1.1c-0.6,0.7-0.9,1.7-0.9,3c0,1.3,0.3,2.3,0.9,3.1c0.6,0.7,1.4,1.1,2.5,1.1S423.2,187.2,423.8,186.5z"/>
	<path class="st4" d="M438.7,183.4h-7.9c0,1.4,0.3,2.4,0.9,3.1c0.6,0.7,1.5,1,2.7,1c1.3,0,2.4-0.4,3.5-1.3l0.6,1.3
		c-0.5,0.4-1.1,0.8-1.8,1s-1.5,0.4-2.3,0.4c-1.7,0-3-0.5-3.9-1.5c-1-1-1.4-2.3-1.4-4.1c0-1.1,0.2-2.1,0.6-2.9c0.4-0.8,1-1.5,1.8-2
		c0.8-0.5,1.6-0.7,2.6-0.7c1.4,0,2.5,0.5,3.3,1.4s1.2,2.2,1.2,3.9V183.4z M431.9,180c-0.6,0.5-0.9,1.3-1.1,2.3h6.3
		c-0.1-1-0.4-1.8-0.9-2.3c-0.5-0.5-1.2-0.8-2.1-0.8S432.5,179.4,431.9,180z"/>
	<path class="st4" d="M446.8,188.8v-15.7h1.7v15.7H446.8z"/>
	<path class="st4" d="M461.4,178.1v10.7h-1.7v-1.9c-0.3,0.7-0.8,1.2-1.4,1.5s-1.4,0.5-2.2,0.5c-1,0-1.8-0.2-2.5-0.7
		s-1.3-1.1-1.7-1.9s-0.6-1.8-0.6-2.9s0.2-2.1,0.6-2.9c0.4-0.8,1-1.5,1.7-2c0.7-0.5,1.5-0.7,2.5-0.7c0.8,0,1.6,0.2,2.2,0.6
		s1.1,0.9,1.4,1.6v-1.9H461.4z M458.8,186.5c0.6-0.7,0.9-1.7,0.9-3.1c0-1.3-0.3-2.3-0.9-3c-0.6-0.7-1.4-1.1-2.4-1.1
		s-1.9,0.4-2.5,1.1c-0.6,0.7-0.9,1.8-0.9,3.1s0.3,2.3,0.9,3c0.6,0.7,1.4,1.1,2.5,1.1C457.4,187.5,458.2,187.2,458.8,186.5z"/>
	<path class="st4" d="M472.1,188.3c-0.8-0.5-1.4-1.1-1.8-1.9s-0.6-1.8-0.6-2.9s0.2-2.1,0.6-2.9c0.4-0.8,1-1.5,1.8-2
		c0.8-0.5,1.7-0.7,2.8-0.7c0.7,0,1.4,0.1,2.1,0.4c0.7,0.2,1.2,0.6,1.7,1l-0.6,1.3c-0.5-0.4-1.1-0.7-1.6-0.9c-0.5-0.2-1-0.3-1.5-0.3
		c-1.1,0-2,0.4-2.6,1.1c-0.6,0.7-0.9,1.8-0.9,3.1c0,1.3,0.3,2.3,0.9,3c0.6,0.7,1.5,1.1,2.6,1.1c0.5,0,1-0.1,1.5-0.3
		c0.5-0.2,1-0.5,1.6-0.9l0.6,1.3c-0.5,0.4-1,0.8-1.7,1c-0.7,0.2-1.4,0.4-2.1,0.4C473.8,189,472.8,188.7,472.1,188.3z"/>
	<path class="st4" d="M482.6,188.3c-0.8-0.5-1.4-1.1-1.8-1.9c-0.4-0.8-0.6-1.8-0.6-2.9c0-1.1,0.2-2.1,0.6-2.9c0.4-0.8,1-1.5,1.8-1.9
		s1.7-0.7,2.7-0.7s1.9,0.2,2.7,0.7s1.4,1.1,1.8,1.9s0.6,1.8,0.6,2.9c0,1.1-0.2,2.1-0.6,2.9s-1,1.5-1.8,1.9s-1.7,0.7-2.7,0.7
		S483.4,188.7,482.6,188.3z M487.7,186.5c0.6-0.7,0.9-1.7,0.9-3.1c0-1.3-0.3-2.3-0.9-3c-0.6-0.7-1.4-1.1-2.4-1.1
		c-1.1,0-1.9,0.4-2.5,1.1c-0.6,0.7-0.9,1.7-0.9,3c0,1.4,0.3,2.4,0.9,3.1s1.4,1.1,2.5,1.1S487.2,187.2,487.7,186.5z"/>
	<path class="st4" d="M508.5,182.1v6.7h-1.7v-6.7c0-1-0.2-1.7-0.5-2.2c-0.3-0.5-0.9-0.7-1.7-0.7c-0.9,0-1.6,0.3-2.1,0.9
		c-0.5,0.6-0.8,1.4-0.8,2.5v6.1h-1.7v-6.7c0-1-0.2-1.7-0.5-2.2c-0.4-0.5-0.9-0.7-1.7-0.7c-0.9,0-1.6,0.3-2.1,0.9
		c-0.5,0.6-0.8,1.4-0.8,2.5v6.1h-1.7v-7.7c0-1.1-0.1-2.1-0.2-3h1.6l0.2,1.9c0.3-0.7,0.7-1.2,1.3-1.6s1.3-0.6,2.1-0.6
		c0.9,0,1.6,0.2,2.1,0.5c0.5,0.3,0.9,0.9,1.2,1.6c0.3-0.6,0.8-1.1,1.4-1.5c0.6-0.4,1.3-0.6,2.1-0.6
		C507.3,177.8,508.5,179.2,508.5,182.1z"/>
	<path class="st4" d="M527.3,182.1v6.7h-1.7v-6.7c0-1-0.2-1.7-0.5-2.2c-0.3-0.5-0.9-0.7-1.7-0.7c-0.9,0-1.6,0.3-2.1,0.9
		s-0.8,1.4-0.8,2.5v6.1h-1.7v-6.7c0-1-0.2-1.7-0.5-2.2c-0.4-0.5-0.9-0.7-1.7-0.7c-0.9,0-1.6,0.3-2.1,0.9s-0.8,1.4-0.8,2.5v6.1h-1.7
		v-7.7c0-1.1-0.1-2.1-0.2-3h1.6l0.2,1.9c0.3-0.7,0.7-1.2,1.3-1.6s1.3-0.6,2.1-0.6c0.9,0,1.5,0.2,2.1,0.5c0.5,0.3,0.9,0.9,1.2,1.6
		c0.3-0.6,0.8-1.1,1.4-1.5s1.3-0.6,2.1-0.6C526.1,177.8,527.3,179.2,527.3,182.1z"/>
	<path class="st4" d="M539.5,178.1v10.7h-1.7V187c-0.3,0.7-0.8,1.2-1.4,1.5c-0.6,0.3-1.3,0.5-2.1,0.5c-1.3,0-2.2-0.4-2.9-1.1
		s-1-1.8-1-3.2v-6.7h1.7v6.6c0,1,0.2,1.7,0.6,2.1c0.4,0.5,1,0.7,1.8,0.7c1,0,1.7-0.3,2.3-0.9c0.6-0.6,0.9-1.4,0.9-2.4v-6.1H539.5z"
		/>
	<path class="st4" d="M552.1,182.1v6.7h-1.7v-6.7c0-1-0.2-1.7-0.6-2.2c-0.4-0.5-1-0.7-1.9-0.7c-1,0-1.8,0.3-2.4,0.9
		c-0.6,0.6-0.9,1.4-0.9,2.5v6.1h-1.7v-7.7c0-1.1-0.1-2.1-0.2-3h1.6l0.2,1.9c0.3-0.7,0.8-1.2,1.5-1.6s1.4-0.6,2.2-0.6
		C550.8,177.8,552.1,179.2,552.1,182.1z"/>
	<path class="st4" d="M564.8,178.1v10.7h-1.7v-1.9c-0.3,0.7-0.8,1.2-1.4,1.5s-1.4,0.5-2.2,0.5c-1,0-1.8-0.2-2.5-0.7
		c-0.7-0.5-1.3-1.1-1.7-1.9c-0.4-0.8-0.6-1.8-0.6-2.9s0.2-2.1,0.6-2.9c0.4-0.8,1-1.5,1.7-2c0.7-0.5,1.5-0.7,2.5-0.7
		c0.8,0,1.6,0.2,2.2,0.6c0.6,0.4,1.1,0.9,1.4,1.6v-1.9H564.8z M562.2,186.5c0.6-0.7,0.9-1.7,0.9-3.1c0-1.3-0.3-2.3-0.9-3
		c-0.6-0.7-1.4-1.1-2.4-1.1c-1.1,0-1.9,0.4-2.5,1.1c-0.6,0.7-0.9,1.8-0.9,3.1s0.3,2.3,0.9,3s1.4,1.1,2.5,1.1
		C560.9,187.5,561.7,187.2,562.2,186.5z"/>
	<path class="st4" d="M577.1,178.1v10.7h-1.7V187c-0.3,0.7-0.8,1.2-1.4,1.5c-0.6,0.3-1.3,0.5-2.1,0.5c-1.3,0-2.2-0.4-2.9-1.1
		s-1-1.8-1-3.2v-6.7h1.7v6.6c0,1,0.2,1.7,0.6,2.1c0.4,0.5,1,0.7,1.8,0.7c1,0,1.7-0.3,2.3-0.9c0.6-0.6,0.9-1.4,0.9-2.4v-6.1H577.1z"
		/>
	<path class="st4" d="M582.8,179.4v5.9c0,0.8,0.2,1.4,0.5,1.7c0.3,0.3,0.8,0.5,1.4,0.5c0.4,0,0.8-0.1,1.2-0.2v1.5
		c-0.4,0.1-0.9,0.2-1.5,0.2c-1,0-1.8-0.3-2.4-0.9c-0.6-0.6-0.9-1.4-0.9-2.5v-6.1h-2.1v-1.4h2.1v-2.8l1.7-0.6v3.4h3.1v1.4H582.8z"/>
	<path class="st4" d="M596.9,183.4H589c0,1.4,0.3,2.4,0.9,3.1c0.6,0.7,1.5,1,2.7,1c1.3,0,2.4-0.4,3.5-1.3l0.6,1.3
		c-0.5,0.4-1.1,0.8-1.8,1s-1.5,0.4-2.3,0.4c-1.7,0-3-0.5-3.9-1.5s-1.4-2.3-1.4-4.1c0-1.1,0.2-2.1,0.6-2.9c0.4-0.8,1-1.5,1.8-2
		c0.8-0.5,1.6-0.7,2.6-0.7c1.4,0,2.5,0.5,3.3,1.4s1.2,2.2,1.2,3.9V183.4z M590.2,180c-0.6,0.5-0.9,1.3-1.1,2.3h6.3
		c-0.1-1-0.4-1.8-0.9-2.3c-0.5-0.5-1.2-0.8-2.1-0.8C591.5,179.2,590.7,179.4,590.2,180z M592.9,176.7h-1.2l2.1-4.4h2L592.9,176.7z"
		/>
</g>
<g class="st3">
	<path class="st4" d="M480.7,210.1h-7.9c0,1.4,0.3,2.4,0.9,3.1c0.6,0.7,1.5,1,2.7,1c1.3,0,2.4-0.4,3.5-1.3l0.6,1.3
		c-0.5,0.4-1.1,0.8-1.8,1s-1.5,0.4-2.3,0.4c-1.7,0-3-0.5-3.9-1.5c-1-1-1.4-2.3-1.4-4.1c0-1.1,0.2-2.1,0.6-2.9c0.4-0.8,1-1.5,1.8-2
		c0.8-0.5,1.6-0.7,2.6-0.7c1.4,0,2.5,0.5,3.3,1.4s1.2,2.2,1.2,3.9V210.1z M474,206.6c-0.6,0.5-0.9,1.3-1.1,2.3h6.3
		c-0.1-1-0.4-1.8-0.9-2.3c-0.5-0.5-1.2-0.8-2.1-0.8C475.3,205.8,474.5,206.1,474,206.6z M476.7,203.4h-1.2l2.1-4.4h2L476.7,203.4z"
		/>
	<path class="st4" d="M492.5,208.7v6.7h-1.7v-6.7c0-1-0.2-1.7-0.6-2.2c-0.4-0.5-1-0.7-1.9-0.7c-1,0-1.8,0.3-2.4,0.9
		c-0.6,0.6-0.9,1.4-0.9,2.5v6.1h-1.7v-7.7c0-1.1-0.1-2.1-0.2-3h1.6l0.2,1.9c0.3-0.7,0.8-1.2,1.5-1.6s1.4-0.6,2.2-0.6
		C491.2,204.5,492.5,205.9,492.5,208.7z"/>
	<path class="st4" d="M504.8,210.1h-7.9c0,1.4,0.3,2.4,0.9,3.1c0.6,0.7,1.5,1,2.7,1c1.3,0,2.4-0.4,3.5-1.3l0.6,1.3
		c-0.5,0.4-1.1,0.8-1.8,1s-1.5,0.4-2.3,0.4c-1.7,0-3-0.5-3.9-1.5c-1-1-1.4-2.3-1.4-4.1c0-1.1,0.2-2.1,0.6-2.9c0.4-0.8,1-1.5,1.8-2
		c0.8-0.5,1.6-0.7,2.6-0.7c1.4,0,2.5,0.5,3.3,1.4s1.2,2.2,1.2,3.9V210.1z M498,206.6c-0.6,0.5-0.9,1.3-1.1,2.3h6.3
		c-0.1-1-0.4-1.8-0.9-2.3c-0.5-0.5-1.2-0.8-2.1-0.8C499.3,205.8,498.6,206.1,498,206.6z"/>
	<path class="st4" d="M513.4,204.6l0,1.6c-0.3-0.1-0.7-0.2-1.1-0.2c-1,0-1.8,0.3-2.3,1c-0.5,0.6-0.8,1.4-0.8,2.4v6.1h-1.7v-7.7
		c0-1.1-0.1-2.1-0.2-3h1.6l0.2,2c0.3-0.7,0.7-1.3,1.3-1.7c0.6-0.4,1.3-0.6,2-0.6C512.7,204.5,513.1,204.5,513.4,204.6z"/>
	<path class="st4" d="M524.5,204.7v10.6c0,1.6-0.4,2.8-1.2,3.6c-0.8,0.8-2,1.2-3.6,1.2c-1.6,0-3-0.4-4.2-1.1l0.3-1.4
		c0.7,0.4,1.3,0.7,1.9,0.8c0.6,0.2,1.3,0.3,2,0.3c1,0,1.8-0.3,2.3-0.8c0.5-0.5,0.8-1.4,0.8-2.4V213c-0.3,0.7-0.8,1.2-1.4,1.6
		c-0.6,0.4-1.4,0.6-2.3,0.6c-0.9,0-1.8-0.2-2.5-0.7c-0.7-0.4-1.3-1.1-1.7-1.9c-0.4-0.8-0.6-1.7-0.6-2.8c0-1.1,0.2-2,0.6-2.8
		c0.4-0.8,1-1.4,1.7-1.9c0.7-0.4,1.6-0.7,2.5-0.7c0.9,0,1.6,0.2,2.2,0.6c0.6,0.4,1.1,0.9,1.4,1.6v-1.9H524.5z M521.9,212.7
		c0.6-0.7,0.9-1.6,0.9-2.8s-0.3-2.2-0.9-2.8c-0.6-0.7-1.4-1-2.4-1c-1.1,0-1.9,0.3-2.5,1s-0.9,1.6-0.9,2.8s0.3,2.2,0.9,2.8
		c0.6,0.7,1.4,1,2.5,1C520.4,213.7,521.3,213.4,521.9,212.7z"/>
	<path class="st4" d="M527.6,200.2h2.1v2h-2.1V200.2z M527.8,215.5v-10.7h1.7v10.7H527.8z"/>
	<path class="st4" d="M541.9,210.1H534c0,1.4,0.3,2.4,0.9,3.1c0.6,0.7,1.5,1,2.7,1c1.3,0,2.4-0.4,3.5-1.3l0.6,1.3
		c-0.5,0.4-1.1,0.8-1.8,1s-1.5,0.4-2.3,0.4c-1.7,0-3-0.5-3.9-1.5c-1-1-1.4-2.3-1.4-4.1c0-1.1,0.2-2.1,0.6-2.9c0.4-0.8,1-1.5,1.8-2
		c0.8-0.5,1.6-0.7,2.6-0.7c1.4,0,2.5,0.5,3.3,1.4s1.2,2.2,1.2,3.9V210.1z M535.1,206.6c-0.6,0.5-0.9,1.3-1.1,2.3h6.3
		c-0.1-1-0.4-1.8-0.9-2.3c-0.5-0.5-1.2-0.8-2.1-0.8C536.4,205.8,535.7,206.1,535.1,206.6z"/>
</g>
<g class="st3">
	<path class="st4" d="M14.7,67.3h5.1c2.4,0,4.3,0.7,5.6,2s2,3.2,2,5.6c0,2.4-0.7,4.3-2,5.6c-1.3,1.3-3.2,2-5.6,2h-5.1V67.3z
		 M19.7,81c2,0,3.4-0.5,4.4-1.5c1-1,1.5-2.6,1.5-4.6c0-4.1-2-6.1-5.9-6.1h-3.2V81H19.7z"/>
	<path class="st4" d="M39.4,77h-7.9c0,1.4,0.3,2.4,0.9,3.1c0.6,0.7,1.5,1,2.7,1c1.3,0,2.4-0.4,3.5-1.3l0.6,1.3
		c-0.5,0.4-1.1,0.8-1.8,1s-1.5,0.4-2.3,0.4c-1.7,0-3-0.5-3.9-1.5s-1.4-2.3-1.4-4.1c0-1.1,0.2-2.1,0.6-2.9c0.4-0.8,1-1.5,1.8-2
		c0.8-0.5,1.6-0.7,2.6-0.7c1.4,0,2.5,0.5,3.3,1.4s1.2,2.2,1.2,3.9V77z M32.6,73.6c-0.6,0.5-0.9,1.3-1.1,2.3h6.3
		c-0.1-1-0.4-1.8-0.9-2.3c-0.5-0.5-1.2-0.8-2.1-0.8S33.2,73.1,32.6,73.6z"/>
	<path class="st4" d="M41.3,81.2l0.6-1.3c0.6,0.5,1.2,0.8,1.8,1c0.6,0.2,1.3,0.3,2,0.3c0.8,0,1.4-0.1,1.8-0.4s0.6-0.7,0.6-1.2
		c0-0.4-0.1-0.8-0.4-1S47,78.1,46.3,78l-1.8-0.4c-0.9-0.2-1.6-0.6-2.1-1.1c-0.5-0.5-0.7-1.1-0.7-1.8c0-0.9,0.4-1.7,1.1-2.3
		c0.8-0.6,1.7-0.9,3-0.9c0.8,0,1.5,0.1,2.1,0.4c0.7,0.2,1.2,0.6,1.7,1l-0.6,1.3c-1-0.8-2.1-1.3-3.2-1.3c-0.8,0-1.4,0.1-1.8,0.4
		c-0.4,0.3-0.6,0.7-0.6,1.2c0,0.4,0.1,0.8,0.4,1c0.3,0.3,0.7,0.5,1.3,0.6l1.8,0.4c1,0.2,1.7,0.6,2.2,1.1s0.7,1.1,0.7,1.9
		c0,0.9-0.4,1.7-1.1,2.2s-1.8,0.8-3.1,0.8C43.8,82.6,42.4,82.1,41.3,81.2z"/>
	<path class="st4" d="M59.9,81.9c-0.8-0.5-1.4-1.1-1.8-1.9c-0.4-0.8-0.6-1.8-0.6-2.9c0-1.1,0.2-2.1,0.6-2.9c0.4-0.8,1-1.5,1.8-1.9
		s1.7-0.7,2.7-0.7s1.9,0.2,2.7,0.7c0.8,0.5,1.4,1.1,1.8,1.9s0.6,1.8,0.6,2.9c0,1.1-0.2,2.1-0.6,2.9s-1,1.5-1.8,1.9
		c-0.8,0.5-1.7,0.7-2.7,0.7S60.7,82.4,59.9,81.9z M65,80.1c0.6-0.7,0.9-1.7,0.9-3.1c0-1.3-0.3-2.3-0.9-3c-0.6-0.7-1.4-1.1-2.4-1.1
		c-1.1,0-1.9,0.4-2.5,1.1c-0.6,0.7-0.9,1.7-0.9,3c0,1.4,0.3,2.4,0.9,3.1s1.4,1.1,2.5,1.1C63.6,81.2,64.5,80.8,65,80.1z"/>
	<path class="st4" d="M78.2,72.2c0.7,0.5,1.3,1.1,1.7,2c0.4,0.8,0.6,1.8,0.6,2.9s-0.2,2.1-0.6,2.9c-0.4,0.8-1,1.5-1.7,1.9
		s-1.6,0.7-2.5,0.7c-0.8,0-1.6-0.2-2.2-0.6c-0.6-0.4-1.1-0.9-1.4-1.6v6.6h-1.7V74.7c0-1.1-0.1-2.1-0.2-3h1.6l0.2,2.1
		c0.3-0.7,0.8-1.3,1.4-1.7c0.6-0.4,1.4-0.6,2.3-0.6C76.6,71.5,77.5,71.7,78.2,72.2z M77.8,80.1c0.6-0.7,0.9-1.7,0.9-3
		s-0.3-2.3-0.9-3.1c-0.6-0.7-1.4-1.1-2.4-1.1c-1.1,0-1.9,0.4-2.5,1.1s-0.9,1.7-0.9,3c0,1.3,0.3,2.3,0.9,3.1c0.6,0.7,1.4,1.1,2.5,1.1
		C76.4,81.2,77.2,80.8,77.8,80.1z"/>
	<path class="st4" d="M91,72.2c0.7,0.5,1.3,1.1,1.7,2c0.4,0.8,0.6,1.8,0.6,2.9s-0.2,2.1-0.6,2.9c-0.4,0.8-1,1.5-1.7,1.9
		s-1.6,0.7-2.5,0.7c-0.8,0-1.6-0.2-2.2-0.6c-0.6-0.4-1.1-0.9-1.4-1.6v6.6h-1.7V74.7c0-1.1-0.1-2.1-0.2-3h1.6l0.2,2.1
		c0.3-0.7,0.8-1.3,1.4-1.7c0.6-0.4,1.4-0.6,2.3-0.6C89.4,71.5,90.3,71.7,91,72.2z M90.6,80.1c0.6-0.7,0.9-1.7,0.9-3
		s-0.3-2.3-0.9-3.1c-0.6-0.7-1.4-1.1-2.4-1.1c-1.1,0-1.9,0.4-2.5,1.1s-0.9,1.7-0.9,3c0,1.3,0.3,2.3,0.9,3.1c0.6,0.7,1.4,1.1,2.5,1.1
		C89.2,81.2,90,80.8,90.6,80.1z"/>
	<path class="st4" d="M97.7,81.9c-0.8-0.5-1.4-1.1-1.8-1.9c-0.4-0.8-0.6-1.8-0.6-2.9c0-1.1,0.2-2.1,0.6-2.9c0.4-0.8,1-1.5,1.8-1.9
		s1.7-0.7,2.7-0.7s1.9,0.2,2.7,0.7c0.8,0.5,1.4,1.1,1.8,1.9s0.6,1.8,0.6,2.9c0,1.1-0.2,2.1-0.6,2.9s-1,1.5-1.8,1.9
		c-0.8,0.5-1.7,0.7-2.7,0.7S98.5,82.4,97.7,81.9z M102.8,80.1c0.6-0.7,0.9-1.7,0.9-3.1c0-1.3-0.3-2.3-0.9-3
		c-0.6-0.7-1.4-1.1-2.4-1.1c-1.1,0-1.9,0.4-2.5,1.1c-0.6,0.7-0.9,1.7-0.9,3c0,1.4,0.3,2.4,0.9,3.1s1.4,1.1,2.5,1.1
		C101.4,81.2,102.3,80.8,102.8,80.1z"/>
	<path class="st4" d="M114.1,71.6l0,1.6c-0.3-0.1-0.7-0.2-1.1-0.2c-1,0-1.8,0.3-2.3,1c-0.5,0.6-0.8,1.4-0.8,2.4v6.1h-1.7v-7.7
		c0-1.1-0.1-2.1-0.2-3h1.6l0.2,2c0.3-0.7,0.7-1.3,1.3-1.7s1.3-0.6,2-0.6C113.5,71.5,113.8,71.5,114.1,71.6z"/>
	<path class="st4" d="M119,73.1v5.9c0,0.8,0.2,1.4,0.5,1.7c0.3,0.3,0.8,0.5,1.4,0.5c0.4,0,0.8-0.1,1.2-0.2v1.5
		c-0.4,0.1-0.9,0.2-1.5,0.2c-1,0-1.8-0.3-2.4-0.9c-0.6-0.6-0.9-1.4-0.9-2.5v-6.1h-2.1v-1.4h2.1V69l1.7-0.6v3.4h3.1v1.4H119z"/>
	<path class="st4" d="M133.1,71.7v10.7h-1.7v-1.9c-0.3,0.7-0.8,1.2-1.4,1.5c-0.6,0.3-1.3,0.5-2.1,0.5c-1.3,0-2.2-0.4-2.9-1.1
		s-1-1.8-1-3.2v-6.7h1.7v6.6c0,1,0.2,1.7,0.6,2.1c0.4,0.5,1,0.7,1.8,0.7c1,0,1.7-0.3,2.3-0.9c0.6-0.6,0.9-1.4,0.9-2.4v-6.1H133.1z"
		/>
	<path class="st4" d="M145.7,75.7v6.7H144v-6.7c0-1-0.2-1.7-0.6-2.2c-0.4-0.5-1-0.7-1.9-0.7c-1,0-1.8,0.3-2.4,0.9
		c-0.6,0.6-0.9,1.4-0.9,2.5v6.1h-1.7v-7.7c0-1.1-0.1-2.1-0.2-3h1.6l0.2,1.9c0.3-0.7,0.8-1.2,1.5-1.6s1.4-0.6,2.2-0.6
		C144.4,71.5,145.7,72.9,145.7,75.7z"/>
	<path class="st4" d="M148.8,67.2h2.1v2h-2.1V67.2z M149,82.4V71.7h1.7v10.7H149z"/>
	<path class="st4" d="M156.3,73.1v5.9c0,0.8,0.2,1.4,0.5,1.7c0.3,0.3,0.8,0.5,1.4,0.5c0.4,0,0.8-0.1,1.2-0.2v1.5
		c-0.4,0.1-0.9,0.2-1.5,0.2c-1,0-1.8-0.3-2.4-0.9c-0.6-0.6-0.9-1.4-0.9-2.5v-6.1h-2.1v-1.4h2.1V69l1.7-0.6v3.4h3.1v1.4H156.3z"/>
	<path class="st4" d="M170.5,77h-7.9c0,1.4,0.3,2.4,0.9,3.1c0.6,0.7,1.5,1,2.7,1c1.3,0,2.4-0.4,3.5-1.3l0.6,1.3
		c-0.5,0.4-1.1,0.8-1.8,1s-1.5,0.4-2.3,0.4c-1.7,0-3-0.5-3.9-1.5s-1.4-2.3-1.4-4.1c0-1.1,0.2-2.1,0.6-2.9c0.4-0.8,1-1.5,1.8-2
		c0.8-0.5,1.6-0.7,2.6-0.7c1.4,0,2.5,0.5,3.3,1.4s1.2,2.2,1.2,3.9V77z M163.7,73.6c-0.6,0.5-0.9,1.3-1.1,2.3h6.3
		c-0.1-1-0.4-1.8-0.9-2.3c-0.5-0.5-1.2-0.8-2.1-0.8S164.3,73.1,163.7,73.6z M166.5,70.3h-1.2l2.1-4.4h2L166.5,70.3z"/>
	<path class="st4" d="M172.4,81.2l0.6-1.3c0.6,0.5,1.2,0.8,1.8,1c0.6,0.2,1.3,0.3,2,0.3c0.8,0,1.4-0.1,1.8-0.4s0.6-0.7,0.6-1.2
		c0-0.4-0.1-0.8-0.4-1s-0.8-0.5-1.4-0.6l-1.8-0.4c-0.9-0.2-1.6-0.6-2.1-1.1c-0.5-0.5-0.7-1.1-0.7-1.8c0-0.9,0.4-1.7,1.1-2.3
		c0.8-0.6,1.7-0.9,3-0.9c0.8,0,1.5,0.1,2.1,0.4c0.7,0.2,1.2,0.6,1.7,1l-0.6,1.3c-1-0.8-2.1-1.3-3.2-1.3c-0.8,0-1.4,0.1-1.8,0.4
		c-0.4,0.3-0.6,0.7-0.6,1.2c0,0.4,0.1,0.8,0.4,1c0.3,0.3,0.7,0.5,1.3,0.6l1.8,0.4c1,0.2,1.7,0.6,2.2,1.1s0.7,1.1,0.7,1.9
		c0,0.9-0.4,1.7-1.1,2.2s-1.8,0.8-3.1,0.8C174.9,82.6,173.5,82.1,172.4,81.2z"/>
</g>
<g class="st3">
	<path class="st4" d="M20.4,93.4v15.7h-1.7v-1.9c-0.3,0.7-0.8,1.2-1.4,1.5c-0.6,0.4-1.4,0.5-2.2,0.5c-0.9,0-1.8-0.2-2.5-0.7
		c-0.7-0.5-1.3-1.1-1.7-2c-0.4-0.8-0.6-1.8-0.6-2.9s0.2-2.1,0.6-2.9c0.4-0.8,0.9-1.5,1.7-1.9c0.7-0.5,1.6-0.7,2.5-0.7
		c0.8,0,1.6,0.2,2.2,0.5c0.6,0.4,1.1,0.9,1.4,1.5v-6.8H20.4z M17.8,106.8c0.6-0.7,0.9-1.7,0.9-3.1c0-1.3-0.3-2.3-0.9-3
		c-0.6-0.7-1.4-1.1-2.4-1.1c-1.1,0-1.9,0.4-2.5,1.1c-0.6,0.7-0.9,1.7-0.9,3c0,1.3,0.3,2.3,0.9,3.1c0.6,0.7,1.4,1.1,2.5,1.1
		C16.4,107.8,17.2,107.5,17.8,106.8z"/>
	<path class="st4" d="M32.7,103.7h-7.9c0,1.4,0.3,2.4,0.9,3.1c0.6,0.7,1.5,1,2.7,1c1.3,0,2.4-0.4,3.5-1.3l0.6,1.3
		c-0.5,0.4-1.1,0.8-1.8,1s-1.5,0.4-2.3,0.4c-1.7,0-3-0.5-3.9-1.5s-1.4-2.3-1.4-4.1c0-1.1,0.2-2.1,0.6-2.9c0.4-0.8,1-1.5,1.8-2
		c0.8-0.5,1.6-0.7,2.6-0.7c1.4,0,2.5,0.5,3.3,1.4s1.2,2.2,1.2,3.9V103.7z M26,100.3c-0.6,0.5-0.9,1.3-1.1,2.3h6.3
		c-0.1-1-0.4-1.8-0.9-2.3c-0.5-0.5-1.2-0.8-2.1-0.8S26.5,99.7,26,100.3z"/>
	<path class="st4" d="M48.7,98.8c0.7,0.5,1.3,1.1,1.7,2c0.4,0.8,0.6,1.8,0.6,2.9s-0.2,2.1-0.6,2.9c-0.4,0.8-1,1.5-1.7,1.9
		s-1.6,0.7-2.5,0.7c-0.8,0-1.6-0.2-2.2-0.6c-0.6-0.4-1.1-0.9-1.4-1.6v6.6h-1.7v-12.3c0-1.1-0.1-2.1-0.2-3h1.6l0.2,2.1
		c0.3-0.7,0.8-1.3,1.4-1.7c0.6-0.4,1.4-0.6,2.3-0.6C47.2,98.1,48,98.4,48.7,98.8z M48.4,106.8c0.6-0.7,0.9-1.7,0.9-3
		s-0.3-2.3-0.9-3.1c-0.6-0.7-1.4-1.1-2.4-1.1c-1.1,0-1.9,0.4-2.5,1.1s-0.9,1.7-0.9,3c0,1.3,0.3,2.3,0.9,3.1c0.6,0.7,1.4,1.1,2.5,1.1
		C47,107.8,47.8,107.5,48.4,106.8z"/>
	<path class="st4" d="M59.7,98.3l0,1.6c-0.3-0.1-0.7-0.2-1.1-0.2c-1,0-1.8,0.3-2.3,1c-0.5,0.6-0.8,1.4-0.8,2.4v6.1h-1.7v-7.7
		c0-1.1-0.1-2.1-0.2-3h1.6l0.2,2c0.3-0.7,0.7-1.3,1.3-1.7s1.3-0.6,2-0.6C59,98.1,59.4,98.2,59.7,98.3z"/>
	<path class="st4" d="M61.2,93.8h2.1v2h-2.1V93.8z M61.4,109.1V98.4h1.7v10.7H61.4z"/>
	<path class="st4" d="M65.8,107.9l0.6-1.3c0.6,0.5,1.2,0.8,1.8,1c0.6,0.2,1.3,0.3,2,0.3c0.8,0,1.4-0.1,1.8-0.4s0.6-0.7,0.6-1.2
		c0-0.4-0.1-0.8-0.4-1s-0.8-0.5-1.4-0.6l-1.8-0.4c-0.9-0.2-1.6-0.6-2.1-1.1c-0.5-0.5-0.7-1.1-0.7-1.8c0-0.9,0.4-1.7,1.1-2.3
		c0.8-0.6,1.7-0.9,3-0.9c0.8,0,1.5,0.1,2.1,0.4c0.7,0.2,1.2,0.6,1.7,1l-0.6,1.3c-1-0.8-2.1-1.3-3.2-1.3c-0.8,0-1.4,0.1-1.8,0.4
		c-0.4,0.3-0.6,0.7-0.6,1.2c0,0.4,0.1,0.8,0.4,1c0.3,0.3,0.7,0.5,1.3,0.6l1.8,0.4c1,0.2,1.7,0.6,2.2,1.1s0.7,1.1,0.7,1.9
		c0,0.9-0.4,1.7-1.1,2.2s-1.8,0.8-3.1,0.8C68.3,109.3,66.9,108.8,65.8,107.9z"/>
	<path class="st4" d="M86,103.7h-7.9c0,1.4,0.3,2.4,0.9,3.1c0.6,0.7,1.5,1,2.7,1c1.3,0,2.4-0.4,3.5-1.3l0.6,1.3
		c-0.5,0.4-1.1,0.8-1.8,1s-1.5,0.4-2.3,0.4c-1.7,0-3-0.5-3.9-1.5s-1.4-2.3-1.4-4.1c0-1.1,0.2-2.1,0.6-2.9c0.4-0.8,1-1.5,1.8-2
		c0.8-0.5,1.6-0.7,2.6-0.7c1.4,0,2.5,0.5,3.3,1.4s1.2,2.2,1.2,3.9V103.7z M79.3,100.3c-0.6,0.5-0.9,1.3-1.1,2.3h6.3
		c-0.1-1-0.4-1.8-0.9-2.3c-0.5-0.5-1.2-0.8-2.1-0.8S79.9,99.7,79.3,100.3z"/>
	<path class="st4" d="M103.7,93.4v15.7H102v-1.9c-0.3,0.7-0.8,1.2-1.4,1.5c-0.6,0.4-1.4,0.5-2.2,0.5c-0.9,0-1.8-0.2-2.5-0.7
		c-0.7-0.5-1.3-1.1-1.7-2c-0.4-0.8-0.6-1.8-0.6-2.9s0.2-2.1,0.6-2.9c0.4-0.8,0.9-1.5,1.7-1.9c0.7-0.5,1.6-0.7,2.5-0.7
		c0.8,0,1.6,0.2,2.2,0.5c0.6,0.4,1.1,0.9,1.4,1.5v-6.8H103.7z M101.1,106.8c0.6-0.7,0.9-1.7,0.9-3.1c0-1.3-0.3-2.3-0.9-3
		c-0.6-0.7-1.4-1.1-2.4-1.1c-1.1,0-1.9,0.4-2.5,1.1c-0.6,0.7-0.9,1.7-0.9,3c0,1.3,0.3,2.3,0.9,3.1c0.6,0.7,1.4,1.1,2.5,1.1
		C99.7,107.8,100.6,107.5,101.1,106.8z"/>
	<path class="st4" d="M116,103.7h-7.9c0,1.4,0.3,2.4,0.9,3.1c0.6,0.7,1.5,1,2.7,1c1.3,0,2.4-0.4,3.5-1.3l0.6,1.3
		c-0.5,0.4-1.1,0.8-1.8,1s-1.5,0.4-2.3,0.4c-1.7,0-3-0.5-3.9-1.5s-1.4-2.3-1.4-4.1c0-1.1,0.2-2.1,0.6-2.9c0.4-0.8,1-1.5,1.8-2
		c0.8-0.5,1.6-0.7,2.6-0.7c1.4,0,2.5,0.5,3.3,1.4s1.2,2.2,1.2,3.9V103.7z M109.3,100.3c-0.6,0.5-0.9,1.3-1.1,2.3h6.3
		c-0.1-1-0.4-1.8-0.9-2.3c-0.5-0.5-1.2-0.8-2.1-0.8S109.8,99.7,109.3,100.3z"/>
	<path class="st4" d="M132.1,98.8c0.7,0.5,1.3,1.1,1.7,2c0.4,0.8,0.6,1.8,0.6,2.9s-0.2,2.1-0.6,2.9c-0.4,0.8-1,1.5-1.7,1.9
		s-1.6,0.7-2.5,0.7c-0.8,0-1.6-0.2-2.2-0.6c-0.6-0.4-1.1-0.9-1.4-1.6v6.6h-1.7v-12.3c0-1.1-0.1-2.1-0.2-3h1.6l0.2,2.1
		c0.3-0.7,0.8-1.3,1.4-1.7c0.6-0.4,1.4-0.6,2.3-0.6C130.5,98.1,131.3,98.4,132.1,98.8z M131.7,106.8c0.6-0.7,0.9-1.7,0.9-3
		s-0.3-2.3-0.9-3.1c-0.6-0.7-1.4-1.1-2.4-1.1c-1.1,0-1.9,0.4-2.5,1.1s-0.9,1.7-0.9,3c0,1.3,0.3,2.3,0.9,3.1c0.6,0.7,1.4,1.1,2.5,1.1
		C130.3,107.8,131.1,107.5,131.7,106.8z"/>
	<path class="st4" d="M146.5,98.4v10.7h-1.7v-1.9c-0.3,0.7-0.8,1.2-1.4,1.5c-0.6,0.4-1.4,0.5-2.2,0.5c-1,0-1.8-0.2-2.5-0.7
		s-1.3-1.1-1.7-1.9c-0.4-0.8-0.6-1.8-0.6-2.9s0.2-2.1,0.6-2.9c0.4-0.8,1-1.5,1.7-2c0.7-0.5,1.5-0.7,2.5-0.7c0.8,0,1.6,0.2,2.2,0.6
		c0.6,0.4,1.1,0.9,1.4,1.6v-1.9H146.5z M143.9,106.8c0.6-0.7,0.9-1.7,0.9-3.1c0-1.3-0.3-2.3-0.9-3c-0.6-0.7-1.4-1.1-2.4-1.1
		c-1.1,0-1.9,0.4-2.5,1.1c-0.6,0.7-0.9,1.8-0.9,3.1s0.3,2.3,0.9,3c0.6,0.7,1.4,1.1,2.5,1.1C142.5,107.8,143.3,107.5,143.9,106.8z"/>
	<path class="st4" d="M155.8,98.3l0,1.6c-0.3-0.1-0.7-0.2-1.1-0.2c-1,0-1.8,0.3-2.3,1c-0.5,0.6-0.8,1.4-0.8,2.4v6.1h-1.7v-7.7
		c0-1.1-0.1-2.1-0.2-3h1.6l0.2,2c0.3-0.7,0.7-1.3,1.3-1.7s1.3-0.6,2-0.6C155.1,98.1,155.5,98.2,155.8,98.3z"/>
	<path class="st4" d="M159.1,108.6c-0.8-0.5-1.4-1.1-1.8-1.9c-0.4-0.8-0.6-1.8-0.6-2.9c0-1.1,0.2-2.1,0.6-2.9c0.4-0.8,1-1.5,1.8-1.9
		s1.7-0.7,2.7-0.7s1.9,0.2,2.7,0.7c0.8,0.5,1.4,1.1,1.8,1.9s0.6,1.8,0.6,2.9c0,1.1-0.2,2.1-0.6,2.9s-1,1.5-1.8,1.9
		c-0.8,0.5-1.7,0.7-2.7,0.7S159.8,109,159.1,108.6z M164.2,106.8c0.6-0.7,0.9-1.7,0.9-3.1c0-1.3-0.3-2.3-0.9-3
		c-0.6-0.7-1.4-1.1-2.4-1.1c-1.1,0-1.9,0.4-2.5,1.1c-0.6,0.7-0.9,1.7-0.9,3c0,1.4,0.3,2.4,0.9,3.1s1.4,1.1,2.5,1.1
		C162.8,107.8,163.6,107.5,164.2,106.8z"/>
	<path class="st4" d="M169.5,109.1V93.4h1.7v15.7H169.5z"/>
	<path class="st4" d="M183.6,103.7h-7.9c0,1.4,0.3,2.4,0.9,3.1c0.6,0.7,1.5,1,2.7,1c1.3,0,2.4-0.4,3.5-1.3l0.6,1.3
		c-0.5,0.4-1.1,0.8-1.8,1s-1.5,0.4-2.3,0.4c-1.7,0-3-0.5-3.9-1.5s-1.4-2.3-1.4-4.1c0-1.1,0.2-2.1,0.6-2.9c0.4-0.8,1-1.5,1.8-2
		c0.8-0.5,1.6-0.7,2.6-0.7c1.4,0,2.5,0.5,3.3,1.4s1.2,2.2,1.2,3.9V103.7z M176.8,100.3c-0.6,0.5-0.9,1.3-1.1,2.3h6.3
		c-0.1-1-0.4-1.8-0.9-2.3c-0.5-0.5-1.2-0.8-2.1-0.8S177.4,99.7,176.8,100.3z"/>
</g>
<g class="st3">
	<path class="st4" d="M13.9,125.5c0.7,0.5,1.3,1.1,1.7,2c0.4,0.8,0.6,1.8,0.6,2.9s-0.2,2.1-0.6,2.9c-0.4,0.8-1,1.5-1.7,1.9
		s-1.6,0.7-2.5,0.7c-0.8,0-1.6-0.2-2.2-0.6c-0.6-0.4-1.1-0.9-1.4-1.6v6.6H6.1v-12.3c0-1.1-0.1-2.1-0.2-3h1.6l0.2,2.1
		c0.3-0.7,0.8-1.3,1.4-1.7c0.6-0.4,1.4-0.6,2.3-0.6C12.4,124.8,13.2,125,13.9,125.5z M13.6,133.4c0.6-0.7,0.9-1.7,0.9-3
		s-0.3-2.3-0.9-3.1c-0.6-0.7-1.4-1.1-2.4-1.1c-1.1,0-1.9,0.4-2.5,1.1s-0.9,1.7-0.9,3c0,1.3,0.3,2.3,0.9,3.1c0.6,0.7,1.4,1.1,2.5,1.1
		C12.2,134.5,13,134.1,13.6,133.4z"/>
	<path class="st4" d="M20.6,135.2c-0.8-0.5-1.4-1.1-1.8-1.9c-0.4-0.8-0.6-1.8-0.6-2.9c0-1.1,0.2-2.1,0.6-2.9c0.4-0.8,1-1.5,1.8-1.9
		s1.7-0.7,2.7-0.7s1.9,0.2,2.7,0.7c0.8,0.5,1.4,1.1,1.8,1.9s0.6,1.8,0.6,2.9c0,1.1-0.2,2.1-0.6,2.9s-1,1.5-1.8,1.9
		c-0.8,0.5-1.7,0.7-2.7,0.7S21.4,135.7,20.6,135.2z M25.8,133.4c0.6-0.7,0.9-1.7,0.9-3.1c0-1.3-0.3-2.3-0.9-3
		c-0.6-0.7-1.4-1.1-2.4-1.1c-1.1,0-1.9,0.4-2.5,1.1c-0.6,0.7-0.9,1.7-0.9,3c0,1.4,0.3,2.4,0.9,3.1s1.4,1.1,2.5,1.1
		C24.4,134.5,25.2,134.1,25.8,133.4z"/>
	<path class="st4" d="M40.1,125v10.7h-1.7v-1.9c-0.3,0.7-0.8,1.2-1.4,1.5c-0.6,0.3-1.3,0.5-2.1,0.5c-1.3,0-2.2-0.4-2.9-1.1
		s-1-1.8-1-3.2V125h1.7v6.6c0,1,0.2,1.7,0.6,2.1c0.4,0.5,1,0.7,1.8,0.7c1,0,1.7-0.3,2.3-0.9c0.6-0.6,0.9-1.4,0.9-2.4V125H40.1z"/>
	<path class="st4" d="M49.4,124.9l0,1.6c-0.3-0.1-0.7-0.2-1.1-0.2c-1,0-1.8,0.3-2.3,1c-0.5,0.6-0.8,1.4-0.8,2.4v6.1h-1.7v-7.7
		c0-1.1-0.1-2.1-0.2-3h1.6l0.2,2c0.3-0.7,0.7-1.3,1.3-1.7s1.3-0.6,2-0.6C48.7,124.8,49.1,124.8,49.4,124.9z"/>
	<path class="st4" d="M58.5,135.2c-0.8-0.5-1.4-1.1-1.8-1.9c-0.4-0.8-0.6-1.8-0.6-2.9s0.2-2.1,0.6-2.9c0.4-0.8,1-1.5,1.8-2
		c0.8-0.5,1.7-0.7,2.8-0.7c0.7,0,1.4,0.1,2.1,0.4c0.7,0.2,1.2,0.6,1.7,1l-0.6,1.3c-0.5-0.4-1.1-0.7-1.6-0.9s-1-0.3-1.5-0.3
		c-1.1,0-2,0.4-2.6,1.1c-0.6,0.7-0.9,1.8-0.9,3.1c0,1.3,0.3,2.3,0.9,3c0.6,0.7,1.5,1.1,2.6,1.1c0.5,0,1-0.1,1.5-0.3
		c0.5-0.2,1-0.5,1.6-0.9l0.6,1.3c-0.5,0.4-1,0.8-1.7,1c-0.7,0.2-1.4,0.4-2.1,0.4C60.1,135.9,59.2,135.7,58.5,135.2z"/>
	<path class="st4" d="M69,135.2c-0.8-0.5-1.4-1.1-1.8-1.9c-0.4-0.8-0.6-1.8-0.6-2.9c0-1.1,0.2-2.1,0.6-2.9c0.4-0.8,1-1.5,1.8-1.9
		s1.7-0.7,2.7-0.7s1.9,0.2,2.7,0.7c0.8,0.5,1.4,1.1,1.8,1.9s0.6,1.8,0.6,2.9c0,1.1-0.2,2.1-0.6,2.9s-1,1.5-1.8,1.9
		c-0.8,0.5-1.7,0.7-2.7,0.7S69.8,135.7,69,135.2z M74.1,133.4c0.6-0.7,0.9-1.7,0.9-3.1c0-1.3-0.3-2.3-0.9-3
		c-0.6-0.7-1.4-1.1-2.4-1.1c-1.1,0-1.9,0.4-2.5,1.1c-0.6,0.7-0.9,1.7-0.9,3c0,1.4,0.3,2.4,0.9,3.1s1.4,1.1,2.5,1.1
		C72.7,134.5,73.6,134.1,74.1,133.4z"/>
	<path class="st4" d="M94.9,129v6.7h-1.7v-6.7c0-1-0.2-1.7-0.5-2.2c-0.3-0.5-0.9-0.7-1.7-0.7c-0.9,0-1.6,0.3-2.1,0.9
		c-0.5,0.6-0.8,1.4-0.8,2.5v6.1h-1.7v-6.7c0-1-0.2-1.7-0.5-2.2c-0.4-0.5-0.9-0.7-1.7-0.7c-0.9,0-1.6,0.3-2.1,0.9s-0.8,1.4-0.8,2.5
		v6.1h-1.7v-7.7c0-1.1-0.1-2.1-0.2-3h1.6l0.2,1.9c0.3-0.7,0.7-1.2,1.3-1.6c0.6-0.4,1.3-0.6,2.1-0.6c0.9,0,1.5,0.2,2.1,0.5
		c0.5,0.3,0.9,0.9,1.2,1.6c0.3-0.6,0.8-1.1,1.4-1.5c0.6-0.4,1.3-0.6,2.1-0.6C93.7,124.8,94.9,126.2,94.9,129z"/>
	<path class="st4" d="M113.7,129v6.7h-1.7v-6.7c0-1-0.2-1.7-0.5-2.2c-0.3-0.5-0.9-0.7-1.7-0.7c-0.9,0-1.6,0.3-2.1,0.9
		c-0.5,0.6-0.8,1.4-0.8,2.5v6.1h-1.7v-6.7c0-1-0.2-1.7-0.5-2.2c-0.4-0.5-0.9-0.7-1.7-0.7c-0.9,0-1.6,0.3-2.1,0.9s-0.8,1.4-0.8,2.5
		v6.1h-1.7v-7.7c0-1.1-0.1-2.1-0.2-3h1.6l0.2,1.9c0.3-0.7,0.7-1.2,1.3-1.6c0.6-0.4,1.3-0.6,2.1-0.6c0.9,0,1.5,0.2,2.1,0.5
		c0.5,0.3,0.9,0.9,1.2,1.6c0.3-0.6,0.8-1.1,1.4-1.5c0.6-0.4,1.3-0.6,2.1-0.6C112.5,124.8,113.7,126.2,113.7,129z"/>
	<path class="st4" d="M125.9,125v10.7h-1.7v-1.9c-0.3,0.7-0.8,1.2-1.4,1.5c-0.6,0.3-1.3,0.5-2.1,0.5c-1.3,0-2.2-0.4-2.9-1.1
		s-1-1.8-1-3.2V125h1.7v6.6c0,1,0.2,1.7,0.6,2.1c0.4,0.5,1,0.7,1.8,0.7c1,0,1.7-0.3,2.3-0.9c0.6-0.6,0.9-1.4,0.9-2.4V125H125.9z"/>
	<path class="st4" d="M138.5,129v6.7h-1.7v-6.7c0-1-0.2-1.7-0.6-2.2c-0.4-0.5-1-0.7-1.9-0.7c-1,0-1.8,0.3-2.4,0.9
		c-0.6,0.6-0.9,1.4-0.9,2.5v6.1h-1.7v-7.7c0-1.1-0.1-2.1-0.2-3h1.6l0.2,1.9c0.3-0.7,0.8-1.2,1.5-1.6s1.4-0.6,2.2-0.6
		C137.2,124.8,138.5,126.2,138.5,129z"/>
	<path class="st4" d="M141.6,120.5h2.1v2h-2.1V120.5z M141.7,135.8V125h1.7v10.7H141.7z"/>
	<path class="st4" d="M156.4,125c-0.1,0.9-0.2,1.9-0.2,3v12.3h-1.7v-6.5c-0.3,0.7-0.8,1.2-1.4,1.5c-0.6,0.4-1.4,0.5-2.2,0.5
		c-1,0-1.8-0.2-2.5-0.7s-1.3-1.1-1.7-1.9c-0.4-0.8-0.6-1.8-0.6-2.9s0.2-2.1,0.6-2.9c0.4-0.8,1-1.5,1.7-2c0.7-0.5,1.5-0.7,2.5-0.7
		c0.9,0,1.6,0.2,2.3,0.6c0.6,0.4,1.1,0.9,1.4,1.7l0.2-2H156.4z M153.7,133.4c0.6-0.7,0.9-1.7,0.9-3.1c0-1.3-0.3-2.3-0.9-3
		c-0.6-0.7-1.4-1.1-2.4-1.1c-1.1,0-1.9,0.4-2.5,1.1c-0.6,0.7-0.9,1.8-0.9,3.1s0.3,2.3,0.9,3c0.6,0.7,1.4,1.1,2.5,1.1
		C152.3,134.5,153.1,134.1,153.7,133.4z"/>
	<path class="st4" d="M168.6,125v10.7h-1.7v-1.9c-0.3,0.7-0.8,1.2-1.4,1.5c-0.6,0.3-1.3,0.5-2.1,0.5c-1.3,0-2.2-0.4-2.9-1.1
		s-1-1.8-1-3.2V125h1.7v6.6c0,1,0.2,1.7,0.6,2.1c0.4,0.5,1,0.7,1.8,0.7c1,0,1.7-0.3,2.3-0.9c0.6-0.6,0.9-1.4,0.9-2.4V125H168.6z"/>
	<path class="st4" d="M180.9,130.4H173c0,1.4,0.3,2.4,0.9,3.1c0.6,0.7,1.5,1,2.7,1c1.3,0,2.4-0.4,3.5-1.3l0.6,1.3
		c-0.5,0.4-1.1,0.8-1.8,1s-1.5,0.4-2.3,0.4c-1.7,0-3-0.5-3.9-1.5s-1.4-2.3-1.4-4.1c0-1.1,0.2-2.1,0.6-2.9c0.4-0.8,1-1.5,1.8-2
		c0.8-0.5,1.6-0.7,2.6-0.7c1.4,0,2.5,0.5,3.3,1.4s1.2,2.2,1.2,3.9V130.4z M174.2,126.9c-0.6,0.5-0.9,1.3-1.1,2.3h6.3
		c-0.1-1-0.4-1.8-0.9-2.3c-0.5-0.5-1.2-0.8-2.1-0.8S174.7,126.4,174.2,126.9z"/>
	<path class="st4" d="M189.5,124.9l0,1.6c-0.3-0.1-0.7-0.2-1.1-0.2c-1,0-1.8,0.3-2.3,1c-0.5,0.6-0.8,1.4-0.8,2.4v6.1h-1.7v-7.7
		c0-1.1-0.1-2.1-0.2-3h1.6l0.2,2c0.3-0.7,0.7-1.3,1.3-1.7s1.3-0.6,2-0.6C188.9,124.8,189.2,124.8,189.5,124.9z"/>
</g>
<g class="st3">
	<path class="st4" d="M53.3,157h-7.9c0,1.4,0.3,2.4,0.9,3.1c0.6,0.7,1.5,1,2.7,1c1.3,0,2.4-0.4,3.5-1.3l0.6,1.3
		c-0.5,0.4-1.1,0.8-1.8,1s-1.5,0.4-2.3,0.4c-1.7,0-3-0.5-3.9-1.5s-1.4-2.3-1.4-4.1c0-1.1,0.2-2.1,0.6-2.9c0.4-0.8,1-1.5,1.8-2
		c0.8-0.5,1.6-0.7,2.6-0.7c1.4,0,2.5,0.5,3.3,1.4s1.2,2.2,1.2,3.9V157z M46.5,153.6c-0.6,0.5-0.9,1.3-1.1,2.3h6.3
		c-0.1-1-0.4-1.8-0.9-2.3c-0.5-0.5-1.2-0.8-2.1-0.8S47.1,153.1,46.5,153.6z"/>
	<path class="st4" d="M58.1,153.1v5.9c0,0.8,0.2,1.4,0.5,1.7c0.3,0.3,0.8,0.5,1.4,0.5c0.4,0,0.8-0.1,1.2-0.2v1.5
		c-0.4,0.1-0.9,0.2-1.5,0.2c-1,0-1.8-0.3-2.4-0.9c-0.6-0.6-0.9-1.4-0.9-2.5v-6.1h-2.1v-1.4h2.1V149l1.7-0.6v3.4h3.1v1.4H58.1z"/>
	<path class="st4" d="M76.6,151.7h1.7l-4.6,10.7H72l-4.6-10.7h1.8l3.6,8.8L76.6,151.7z"/>
	<path class="st4" d="M89.5,151.7v10.7h-1.7v-1.9c-0.3,0.7-0.8,1.2-1.4,1.5c-0.6,0.4-1.4,0.5-2.2,0.5c-1,0-1.8-0.2-2.5-0.7
		s-1.3-1.1-1.7-1.9c-0.4-0.8-0.6-1.8-0.6-2.9s0.2-2.1,0.6-2.9c0.4-0.8,1-1.5,1.7-2c0.7-0.5,1.5-0.7,2.5-0.7c0.8,0,1.6,0.2,2.2,0.6
		c0.6,0.4,1.1,0.9,1.4,1.6v-1.9H89.5z M86.9,160.1c0.6-0.7,0.9-1.7,0.9-3.1c0-1.3-0.3-2.3-0.9-3c-0.6-0.7-1.4-1.1-2.4-1.1
		c-1.1,0-1.9,0.4-2.5,1.1c-0.6,0.7-0.9,1.8-0.9,3.1s0.3,2.3,0.9,3c0.6,0.7,1.4,1.1,2.5,1.1C85.6,161.2,86.4,160.8,86.9,160.1z"/>
	<path class="st4" d="M92.9,162.4v-15.7h1.7v15.7H92.9z"/>
	<path class="st4" d="M99.7,161.9c-0.8-0.5-1.4-1.1-1.8-1.9c-0.4-0.8-0.6-1.8-0.6-2.9c0-1.1,0.2-2.1,0.6-2.9c0.4-0.8,1-1.5,1.8-1.9
		s1.7-0.7,2.7-0.7s1.9,0.2,2.7,0.7c0.8,0.5,1.4,1.1,1.8,1.9s0.6,1.8,0.6,2.9c0,1.1-0.2,2.1-0.6,2.9s-1,1.5-1.8,1.9
		c-0.8,0.5-1.7,0.7-2.7,0.7S100.5,162.4,99.7,161.9z M104.8,160.1c0.6-0.7,0.9-1.7,0.9-3.1c0-1.3-0.3-2.3-0.9-3
		c-0.6-0.7-1.4-1.1-2.4-1.1c-1.1,0-1.9,0.4-2.5,1.1c-0.6,0.7-0.9,1.7-0.9,3c0,1.4,0.3,2.4,0.9,3.1s1.4,1.1,2.5,1.1
		C103.4,161.2,104.3,160.8,104.8,160.1z"/>
	<path class="st4" d="M116.1,151.6l0,1.6c-0.3-0.1-0.7-0.2-1.1-0.2c-1,0-1.8,0.3-2.3,1c-0.5,0.6-0.8,1.4-0.8,2.4v6.1h-1.7v-7.7
		c0-1.1-0.1-2.1-0.2-3h1.6l0.2,2c0.3-0.7,0.7-1.3,1.3-1.7s1.3-0.6,2-0.6C115.5,151.5,115.8,151.5,116.1,151.6z"/>
	<path class="st4" d="M117.7,147.2h2.1v2h-2.1V147.2z M117.9,162.4v-10.7h1.7v10.7H117.9z"/>
	<path class="st4" d="M122.3,161.2l0.6-1.3c0.6,0.5,1.2,0.8,1.8,1c0.6,0.2,1.3,0.3,2,0.3c0.8,0,1.4-0.1,1.8-0.4s0.6-0.7,0.6-1.2
		c0-0.4-0.1-0.8-0.4-1s-0.8-0.5-1.4-0.6l-1.8-0.4c-0.9-0.2-1.6-0.6-2.1-1.1c-0.5-0.5-0.7-1.1-0.7-1.8c0-0.9,0.4-1.7,1.1-2.3
		c0.8-0.6,1.7-0.9,3-0.9c0.8,0,1.5,0.1,2.1,0.4c0.7,0.2,1.2,0.6,1.7,1l-0.6,1.3c-1-0.8-2.1-1.3-3.2-1.3c-0.8,0-1.4,0.1-1.8,0.4
		c-0.4,0.3-0.6,0.7-0.6,1.2c0,0.4,0.1,0.8,0.4,1c0.3,0.3,0.7,0.5,1.3,0.6l1.8,0.4c1,0.2,1.7,0.6,2.2,1.1s0.7,1.1,0.7,1.9
		c0,0.9-0.4,1.7-1.1,2.2s-1.8,0.8-3.1,0.8C124.8,162.6,123.3,162.1,122.3,161.2z"/>
	<path class="st4" d="M142.5,157h-7.9c0,1.4,0.3,2.4,0.9,3.1c0.6,0.7,1.5,1,2.7,1c1.3,0,2.4-0.4,3.5-1.3l0.6,1.3
		c-0.5,0.4-1.1,0.8-1.8,1s-1.5,0.4-2.3,0.4c-1.7,0-3-0.5-3.9-1.5s-1.4-2.3-1.4-4.1c0-1.1,0.2-2.1,0.6-2.9c0.4-0.8,1-1.5,1.8-2
		c0.8-0.5,1.6-0.7,2.6-0.7c1.4,0,2.5,0.5,3.3,1.4s1.2,2.2,1.2,3.9V157z M135.8,153.6c-0.6,0.5-0.9,1.3-1.1,2.3h6.3
		c-0.1-1-0.4-1.8-0.9-2.3c-0.5-0.5-1.2-0.8-2.1-0.8S136.3,153.1,135.8,153.6z"/>
	<path class="st4" d="M151.1,151.6l0,1.6c-0.3-0.1-0.7-0.2-1.1-0.2c-1,0-1.8,0.3-2.3,1c-0.5,0.6-0.8,1.4-0.8,2.4v6.1h-1.7v-7.7
		c0-1.1-0.1-2.1-0.2-3h1.6l0.2,2c0.3-0.7,0.7-1.3,1.3-1.7s1.3-0.6,2-0.6C150.5,151.5,150.8,151.5,151.1,151.6z"/>
</g>
<g class="st3">
	<path class="st4" d="M32.6,187.9l0.6-1.3c0.6,0.5,1.2,0.8,1.8,1c0.6,0.2,1.3,0.3,2,0.3c0.8,0,1.4-0.1,1.8-0.4s0.6-0.7,0.6-1.2
		c0-0.4-0.1-0.8-0.4-1s-0.8-0.5-1.4-0.6l-1.8-0.4c-0.9-0.2-1.6-0.6-2.1-1.1c-0.5-0.5-0.7-1.1-0.7-1.8c0-0.9,0.4-1.7,1.1-2.3
		c0.8-0.6,1.7-0.9,3-0.9c0.8,0,1.5,0.1,2.1,0.4c0.7,0.2,1.2,0.6,1.7,1l-0.6,1.3c-1-0.8-2.1-1.3-3.2-1.3c-0.8,0-1.4,0.1-1.8,0.4
		c-0.4,0.3-0.6,0.7-0.6,1.2c0,0.4,0.1,0.8,0.4,1c0.3,0.3,0.7,0.5,1.3,0.6l1.8,0.4c1,0.2,1.7,0.6,2.2,1.1s0.7,1.1,0.7,1.9
		c0,0.9-0.4,1.7-1.1,2.2s-1.8,0.8-3.1,0.8C35.1,189.3,33.7,188.8,32.6,187.9z"/>
	<path class="st4" d="M45.7,188.6c-0.8-0.5-1.4-1.1-1.8-1.9c-0.4-0.8-0.6-1.8-0.6-2.9c0-1.1,0.2-2.1,0.6-2.9c0.4-0.8,1-1.5,1.8-1.9
		s1.7-0.7,2.7-0.7s1.9,0.2,2.7,0.7c0.8,0.5,1.4,1.1,1.8,1.9s0.6,1.8,0.6,2.9c0,1.1-0.2,2.1-0.6,2.9s-1,1.5-1.8,1.9
		c-0.8,0.5-1.7,0.7-2.7,0.7S46.4,189,45.7,188.6z M50.8,186.8c0.6-0.7,0.9-1.7,0.9-3.1c0-1.3-0.3-2.3-0.9-3
		c-0.6-0.7-1.4-1.1-2.4-1.1c-1.1,0-1.9,0.4-2.5,1.1c-0.6,0.7-0.9,1.7-0.9,3c0,1.4,0.3,2.4,0.9,3.1s1.4,1.1,2.5,1.1
		C49.4,187.8,50.2,187.5,50.8,186.8z"/>
	<path class="st4" d="M65.3,182.4v6.7h-1.7v-6.7c0-1-0.2-1.7-0.6-2.2c-0.4-0.5-1-0.7-1.9-0.7c-1,0-1.8,0.3-2.4,0.9
		c-0.6,0.6-0.9,1.4-0.9,2.5v6.1h-1.7v-7.7c0-1.1-0.1-2.1-0.2-3h1.6l0.2,1.9c0.3-0.7,0.8-1.2,1.5-1.6s1.4-0.6,2.2-0.6
		C64,178.1,65.3,179.5,65.3,182.4z"/>
	<path class="st4" d="M83.1,183.7h-7.9c0,1.4,0.3,2.4,0.9,3.1c0.6,0.7,1.5,1,2.7,1c1.3,0,2.4-0.4,3.5-1.3l0.6,1.3
		c-0.5,0.4-1.1,0.8-1.8,1s-1.5,0.4-2.3,0.4c-1.7,0-3-0.5-3.9-1.5s-1.4-2.3-1.4-4.1c0-1.1,0.2-2.1,0.6-2.9c0.4-0.8,1-1.5,1.8-2
		c0.8-0.5,1.6-0.7,2.6-0.7c1.4,0,2.5,0.5,3.3,1.4s1.2,2.2,1.2,3.9V183.7z M76.4,180.3c-0.6,0.5-0.9,1.3-1.1,2.3h6.3
		c-0.1-1-0.4-1.8-0.9-2.3c-0.5-0.5-1.2-0.8-2.1-0.8S76.9,179.7,76.4,180.3z"/>
	<path class="st4" d="M90.7,183.6l4.4,5.5H93l-3.4-4.2l-3.3,4.2h-2.1l4.5-5.5l-4.2-5.2h2.1l3.1,3.9l3.1-3.9h2.1L90.7,183.6z"/>
	<path class="st4" d="M104.9,178.8c0.7,0.5,1.3,1.1,1.7,2c0.4,0.8,0.6,1.8,0.6,2.9s-0.2,2.1-0.6,2.9c-0.4,0.8-1,1.5-1.7,1.9
		s-1.6,0.7-2.5,0.7c-0.8,0-1.6-0.2-2.2-0.6c-0.6-0.4-1.1-0.9-1.4-1.6v6.6H97v-12.3c0-1.1-0.1-2.1-0.2-3h1.6l0.2,2.1
		c0.3-0.7,0.8-1.3,1.4-1.7c0.6-0.4,1.4-0.6,2.3-0.6C103.3,178.1,104.1,178.4,104.9,178.8z M104.5,186.8c0.6-0.7,0.9-1.7,0.9-3
		s-0.3-2.3-0.9-3.1c-0.6-0.7-1.4-1.1-2.4-1.1c-1.1,0-1.9,0.4-2.5,1.1s-0.9,1.7-0.9,3c0,1.3,0.3,2.3,0.9,3.1c0.6,0.7,1.4,1.1,2.5,1.1
		C103.1,187.8,103.9,187.5,104.5,186.8z"/>
	<path class="st4" d="M118.8,183.7h-7.9c0,1.4,0.3,2.4,0.9,3.1c0.6,0.7,1.5,1,2.7,1c1.3,0,2.4-0.4,3.5-1.3l0.6,1.3
		c-0.5,0.4-1.1,0.8-1.8,1s-1.5,0.4-2.3,0.4c-1.7,0-3-0.5-3.9-1.5s-1.4-2.3-1.4-4.1c0-1.1,0.2-2.1,0.6-2.9c0.4-0.8,1-1.5,1.8-2
		c0.8-0.5,1.6-0.7,2.6-0.7c1.4,0,2.5,0.5,3.3,1.4s1.2,2.2,1.2,3.9V183.7z M112.1,180.3c-0.6,0.5-0.9,1.3-1.1,2.3h6.3
		c-0.1-1-0.4-1.8-0.9-2.3c-0.5-0.5-1.2-0.8-2.1-0.8S112.6,179.7,112.1,180.3z"/>
	<path class="st4" d="M127.4,178.3l0,1.6c-0.3-0.1-0.7-0.2-1.1-0.2c-1,0-1.8,0.3-2.3,1c-0.5,0.6-0.8,1.4-0.8,2.4v6.1h-1.7v-7.7
		c0-1.1-0.1-2.1-0.2-3h1.6l0.2,2c0.3-0.7,0.7-1.3,1.3-1.7s1.3-0.6,2-0.6C126.8,178.1,127.1,178.2,127.4,178.3z"/>
	<path class="st4" d="M132.3,179.7v5.9c0,0.8,0.2,1.4,0.5,1.7c0.3,0.3,0.8,0.5,1.4,0.5c0.4,0,0.8-0.1,1.2-0.2v1.5
		c-0.4,0.1-0.9,0.2-1.5,0.2c-1,0-1.8-0.3-2.4-0.9c-0.6-0.6-0.9-1.4-0.9-2.5v-6.1h-2.1v-1.4h2.1v-2.8l1.7-0.6v3.4h3.1v1.4H132.3z"/>
	<path class="st4" d="M137.3,173.8h2.1v2h-2.1V173.8z M137.4,189.1v-10.7h1.7v10.7H137.4z"/>
	<path class="st4" d="M141.8,187.9l0.6-1.3c0.6,0.5,1.2,0.8,1.8,1c0.6,0.2,1.3,0.3,2,0.3c0.8,0,1.4-0.1,1.8-0.4s0.6-0.7,0.6-1.2
		c0-0.4-0.1-0.8-0.4-1s-0.8-0.5-1.4-0.6l-1.8-0.4c-0.9-0.2-1.6-0.6-2.1-1.1c-0.5-0.5-0.7-1.1-0.7-1.8c0-0.9,0.4-1.7,1.1-2.3
		c0.8-0.6,1.7-0.9,3-0.9c0.8,0,1.5,0.1,2.1,0.4c0.7,0.2,1.2,0.6,1.7,1l-0.6,1.3c-1-0.8-2.1-1.3-3.2-1.3c-0.8,0-1.4,0.1-1.8,0.4
		c-0.4,0.3-0.6,0.7-0.6,1.2c0,0.4,0.1,0.8,0.4,1c0.3,0.3,0.7,0.5,1.3,0.6l1.8,0.4c1,0.2,1.7,0.6,2.2,1.1s0.7,1.1,0.7,1.9
		c0,0.9-0.4,1.7-1.1,2.2s-1.8,0.8-3.1,0.8C144.3,189.3,142.9,188.8,141.8,187.9z"/>
	<path class="st4" d="M162.1,183.7h-7.9c0,1.4,0.3,2.4,0.9,3.1c0.6,0.7,1.5,1,2.7,1c1.3,0,2.4-0.4,3.5-1.3l0.6,1.3
		c-0.5,0.4-1.1,0.8-1.8,1s-1.5,0.4-2.3,0.4c-1.7,0-3-0.5-3.9-1.5s-1.4-2.3-1.4-4.1c0-1.1,0.2-2.1,0.6-2.9c0.4-0.8,1-1.5,1.8-2
		c0.8-0.5,1.6-0.7,2.6-0.7c1.4,0,2.5,0.5,3.3,1.4s1.2,2.2,1.2,3.9V183.7z M155.3,180.3c-0.6,0.5-0.9,1.3-1.1,2.3h6.3
		c-0.1-1-0.4-1.8-0.9-2.3c-0.5-0.5-1.2-0.8-2.1-0.8S155.9,179.7,155.3,180.3z"/>
</g>
<g>
	<g>
		<polygon class="st5" points="214.6,6.2 214.6,27.1 226.3,27.1 226.3,22.4 219.8,22.4 219.8,18.8 226.1,18.8 226.1,14.1 
			219.8,14.1 219.8,10.9 226.3,10.9 226.3,6.2 		"/>
		<polygon class="st5" points="242.4,27.1 234.3,14.4 234.5,27.1 229.4,27.1 229.4,6.2 234,6.2 242.1,19.3 241.9,6.2 247,6.2 
			247,27.1 		"/>
		<polygon class="st5" points="250.6,27.1 250.6,6.2 262.2,6.2 262.2,10.9 255.7,10.9 255.7,14.1 262,14.1 262,18.8 255.7,18.8 
			255.7,22.4 262.2,22.4 262.2,27.1 		"/>
		<g>
			<g>
				<g>
					<defs>
						<rect id="SVGID_1_" x="214.6" y="5.7" width="177.3" height="21.8"/>
					</defs>
					<clipPath id="SVGID_2_">
						<use xlink:href="#SVGID_1_"  style="overflow:visible;"/>
					</clipPath>
					<path class="st6" d="M272.4,10.9h-1.9v5.8h1.9c1.9,0,3.5-0.8,3.5-3C275.8,11.6,274.3,10.9,272.4,10.9 M275.3,27.1l-4.9-6.8v6.8
						h-5.1V6.2h6.6c2.2,0,4.6,0,6.4,1.5c1.7,1.4,2.6,3.5,2.6,5.7c0,3.3-1.9,6-5.2,6.6l5.7,7.1H275.3L275.3,27.1z"/>
				</g>
			</g>
			<g>
				<g>
					<defs>
						<rect id="SVGID_3_" x="214.6" y="5.7" width="177.3" height="21.8"/>
					</defs>
					<clipPath id="SVGID_4_">
						<use xlink:href="#SVGID_3_"  style="overflow:visible;"/>
					</clipPath>
					<path class="st7" d="M293.9,27.5c-6.2,0-11.1-4.8-11.1-11c0-6.3,5.1-10.8,11.2-10.8c4.6,0,9.2,3,10.4,7.4h-6
						c-0.9-1.8-2.6-2.7-4.6-2.7c-3.3,0-5.7,2.6-5.7,5.9c0,3.7,2.3,6.5,6.1,6.5c2.2,0,4.1-1.2,4.6-3.4h-6.2v-4.3H305
						c0,0.3,0.1,0.7,0.1,1.1C305.1,22.6,300.3,27.5,293.9,27.5"/>
				</g>
			</g>
		</g>
		<polygon class="st5" points="316.2,19.5 316.2,27.1 310.9,27.1 310.9,19.5 304.7,6.2 310.5,6.2 313.6,14.6 316.7,6.2 322.5,6.2 		
			"/>
		<polygon class="st8" points="339.7,10.9 339.7,27.1 334.4,27.1 334.4,10.9 330.2,10.9 330.2,6.2 343.8,6.2 343.8,10.9 		"/>
		<rect x="345.8" y="6.2" class="st8" width="5.3" height="20.9"/>
		<polygon class="st8" points="371.9,27.1 372,11.4 367.5,27.1 364,27.1 359.5,11.4 359.6,27.1 354.7,27.1 354.7,6.2 361.6,6.2 
			365.7,19.9 369.9,6.2 376.8,6.2 376.8,27.1 		"/>
		<polygon class="st8" points="380.4,27.1 380.4,6.2 392,6.2 392,10.9 385.5,10.9 385.5,14.1 391.8,14.1 391.8,18.8 385.5,18.8 
			385.5,22.4 392,22.4 392,27.1 		"/>
	</g>
</g>
<g class="st3">
	<path class="st5" d="M307.1,282.5h-4.9V251c-1.2,1.1-2.8,2.3-4.7,3.4c-1.9,1.1-3.7,2-5.2,2.6v-4.8c2.8-1.3,5.2-2.9,7.3-4.7
		c2.1-1.8,3.5-3.6,4.4-5.4h3.2V282.5z"/>
</g>
<g class="st3">
	<path class="st5" d="M119.5,306.9v4.8H92.9c0-1.2,0.2-2.3,0.6-3.4c0.7-1.8,1.8-3.6,3.3-5.4c1.5-1.8,3.6-3.8,6.5-6.1
		c4.4-3.6,7.3-6.4,8.9-8.5s2.3-4.1,2.3-5.9c0-2-0.7-3.6-2.1-5s-3.2-2-5.5-2c-2.4,0-4.3,0.7-5.7,2.1c-1.4,1.4-2.2,3.4-2.2,5.9
		l-5.1-0.5c0.3-3.8,1.7-6.7,3.9-8.7c2.3-2,5.3-3,9.1-3c3.9,0,6.9,1.1,9.2,3.2c2.3,2.1,3.4,4.8,3.4,8c0,1.6-0.3,3.2-1,4.8
		c-0.7,1.6-1.8,3.2-3.3,4.9s-4.1,4.1-7.6,7.1c-3,2.5-4.9,4.2-5.7,5.1c-0.8,0.9-1.5,1.8-2.1,2.7H119.5z"/>
</g>
<g class="st3">
	<path class="st5" d="M483.5,315.3l4.9-0.7c0.6,2.8,1.5,4.8,2.9,6.1c1.4,1.2,3,1.9,5,1.9c2.3,0,4.3-0.8,5.9-2.4s2.4-3.6,2.4-6
		c0-2.3-0.7-4.1-2.2-5.6s-3.4-2.2-5.7-2.2c-0.9,0-2.1,0.2-3.5,0.5l0.5-4.3c0.3,0,0.6,0.1,0.8,0.1c2.1,0,4-0.5,5.7-1.6
		c1.7-1.1,2.5-2.8,2.5-5.1c0-1.8-0.6-3.3-1.8-4.5c-1.2-1.2-2.8-1.8-4.8-1.8c-1.9,0-3.5,0.6-4.8,1.8c-1.3,1.2-2.1,3-2.5,5.4L484,296
		c0.6-3.3,2-5.9,4.1-7.7c2.1-1.8,4.8-2.7,8-2.7c2.2,0,4.2,0.5,6.1,1.4c1.8,0.9,3.3,2.2,4.2,3.9s1.5,3.4,1.5,5.2
		c0,1.7-0.5,3.3-1.4,4.8c-0.9,1.4-2.3,2.6-4.1,3.4c2.4,0.5,4.2,1.7,5.5,3.4s2,3.9,2,6.5c0,3.5-1.3,6.5-3.8,8.9s-5.8,3.7-9.7,3.7
		c-3.5,0-6.5-1.1-8.8-3.2C485.2,321.4,483.9,318.7,483.5,315.3z"/>
</g>
</svg>
