<?xml version="1.0" encoding="utf-8"?>
<!-- Generator: Adobe Illustrator 23.0.1, SVG Export Plug-In . SVG Version: 6.00 Build 0)  -->
<svg version="1.1" id="Calque_2" xmlns="http://www.w3.org/2000/svg" xmlns:xlink="http://www.w3.org/1999/xlink" x="0px" y="0px"
	 viewBox="0 0 595.28 841.89" style="enable-background:new 0 0 595.28 841.89;" xml:space="preserve">
<style type="text/css">
	.st0{fill:#0B6484;}
	.st1{fill:#E2212F;}
</style>
<g>
	<g>
		<circle class="st0" cx="69.49" cy="340.41" r="5.97"/>
		<path class="st0" d="M78.06,346.85H60.92c-1.13,0-2.05,0.92-2.05,2.05v18.99c0,1.13,0.92,2.05,2.05,2.05s2.05-0.92,2.05-2.05
			v-13.57h0.73v18.5v18.99c0,1.13,1.07,2.05,2.38,2.05c1.32,0,2.38-0.92,2.38-2.05v-18.99h1.99v18.99c0,1.13,1.07,2.05,2.38,2.05
			c1.32,0,2.38-0.92,2.38-2.05v-18.99v-18.5H76v13.57c0,1.13,0.92,2.05,2.05,2.05s2.05-0.92,2.05-2.05V348.9
			C80.11,347.77,79.19,346.85,78.06,346.85z"/>
	</g>
	<g>
		<circle class="st0" cx="92.75" cy="340.41" r="5.97"/>
		<path class="st0" d="M101.31,346.85H84.18c-1.13,0-2.05,0.92-2.05,2.05v18.99c0,1.13,0.92,2.05,2.05,2.05s2.05-0.92,2.05-2.05
			v-13.57h0.73v18.5v18.99c0,1.13,1.07,2.05,2.38,2.05c1.32,0,2.38-0.92,2.38-2.05v-18.99h1.99v18.99c0,1.13,1.07,2.05,2.38,2.05
			c1.32,0,2.38-0.92,2.38-2.05v-18.99v-18.5h0.78v13.57c0,1.13,0.92,2.05,2.05,2.05s2.05-0.92,2.05-2.05V348.9
			C103.37,347.77,102.45,346.85,101.31,346.85z"/>
	</g>
	<g>
		<circle class="st0" cx="116" cy="340.41" r="5.97"/>
		<path class="st0" d="M124.57,346.85h-17.14c-1.13,0-2.05,0.92-2.05,2.05v18.99c0,1.13,0.92,2.05,2.05,2.05s2.05-0.92,2.05-2.05
			v-13.57h0.73v18.5v18.99c0,1.13,1.07,2.05,2.38,2.05c1.32,0,2.38-0.92,2.38-2.05v-18.99h1.99v18.99c0,1.13,1.07,2.05,2.38,2.05
			c1.32,0,2.38-0.92,2.38-2.05v-18.99v-18.5h0.78v13.57c0,1.13,0.92,2.05,2.05,2.05s2.05-0.92,2.05-2.05V348.9
			C126.62,347.77,125.7,346.85,124.57,346.85z"/>
	</g>
	<g>
		<circle class="st0" cx="139.26" cy="340.41" r="5.97"/>
		<path class="st0" d="M147.83,346.85h-17.14c-1.13,0-2.05,0.92-2.05,2.05v18.99c0,1.13,0.92,2.05,2.05,2.05s2.05-0.92,2.05-2.05
			v-13.57h0.73v18.5v18.99c0,1.13,1.07,2.05,2.38,2.05c1.32,0,2.38-0.92,2.38-2.05v-18.99h1.99v18.99c0,1.13,1.07,2.05,2.38,2.05
			c1.32,0,2.38-0.92,2.38-2.05v-18.99v-18.5h0.78v13.57c0,1.13,0.92,2.05,2.05,2.05s2.05-0.92,2.05-2.05V348.9
			C149.88,347.77,148.96,346.85,147.83,346.85z"/>
	</g>
	<g>
		<circle class="st0" cx="162.52" cy="340.41" r="5.97"/>
		<path class="st0" d="M171.08,346.85h-17.14c-1.13,0-2.05,0.92-2.05,2.05v18.99c0,1.13,0.92,2.05,2.05,2.05s2.05-0.92,2.05-2.05
			v-13.57h0.73v18.5v18.99c0,1.13,1.07,2.05,2.38,2.05c1.32,0,2.38-0.92,2.38-2.05v-18.99h1.99v18.99c0,1.13,1.07,2.05,2.38,2.05
			c1.32,0,2.38-0.92,2.38-2.05v-18.99v-18.5h0.78v13.57c0,1.13,0.92,2.05,2.05,2.05s2.05-0.92,2.05-2.05V348.9
			C173.14,347.77,172.22,346.85,171.08,346.85z"/>
	</g>
	<g>
		<circle class="st0" cx="185.77" cy="340.41" r="5.97"/>
		<path class="st0" d="M194.34,346.85H177.2c-1.13,0-2.05,0.92-2.05,2.05v18.99c0,1.13,0.92,2.05,2.05,2.05s2.05-0.92,2.05-2.05
			v-13.57h0.73v18.5v18.99c0,1.13,1.07,2.05,2.38,2.05c1.32,0,2.38-0.92,2.38-2.05v-18.99h1.99v18.99c0,1.13,1.07,2.05,2.38,2.05
			c1.32,0,2.38-0.92,2.38-2.05v-18.99v-18.5h0.78v13.57c0,1.13,0.92,2.05,2.05,2.05s2.05-0.92,2.05-2.05V348.9
			C196.39,347.77,195.47,346.85,194.34,346.85z"/>
	</g>
	<g>
		<circle class="st0" cx="209.03" cy="340.41" r="5.97"/>
		<path class="st0" d="M217.6,346.85h-17.14c-1.13,0-2.05,0.92-2.05,2.05v18.99c0,1.13,0.92,2.05,2.05,2.05s2.05-0.92,2.05-2.05
			v-13.57h0.73v18.5v18.99c0,1.13,1.07,2.05,2.38,2.05c1.32,0,2.38-0.92,2.38-2.05v-18.99H210v18.99c0,1.13,1.07,2.05,2.38,2.05
			c1.32,0,2.38-0.92,2.38-2.05v-18.99v-18.5h0.78v13.57c0,1.13,0.92,2.05,2.05,2.05s2.05-0.92,2.05-2.05V348.9
			C219.65,347.77,218.73,346.85,217.6,346.85z"/>
	</g>
	<g>
		<circle class="st0" cx="232.29" cy="340.41" r="5.97"/>
		<path class="st0" d="M240.85,346.85h-17.14c-1.13,0-2.05,0.92-2.05,2.05v18.99c0,1.13,0.92,2.05,2.05,2.05s2.05-0.92,2.05-2.05
			v-13.57h0.73v18.5v18.99c0,1.13,1.07,2.05,2.38,2.05c1.32,0,2.38-0.92,2.38-2.05v-18.99h1.99v18.99c0,1.13,1.07,2.05,2.38,2.05
			c1.32,0,2.38-0.92,2.38-2.05v-18.99v-18.5h0.78v13.57c0,1.13,0.92,2.05,2.05,2.05s2.05-0.92,2.05-2.05V348.9
			C242.91,347.77,241.99,346.85,240.85,346.85z"/>
	</g>
	<g>
		<circle class="st0" cx="255.54" cy="340.41" r="5.97"/>
		<path class="st0" d="M264.11,346.85h-17.14c-1.13,0-2.05,0.92-2.05,2.05v18.99c0,1.13,0.92,2.05,2.05,2.05s2.05-0.92,2.05-2.05
			v-13.57h0.73v18.5v18.99c0,1.13,1.07,2.05,2.38,2.05c1.32,0,2.38-0.92,2.38-2.05v-18.99h1.99v18.99c0,1.13,1.07,2.05,2.38,2.05
			c1.32,0,2.38-0.92,2.38-2.05v-18.99v-18.5h0.78v13.57c0,1.13,0.92,2.05,2.05,2.05s2.05-0.92,2.05-2.05V348.9
			C266.16,347.77,265.24,346.85,264.11,346.85z"/>
	</g>
	<g>
		<circle class="st0" cx="278.8" cy="340.41" r="5.97"/>
		<path class="st0" d="M287.37,346.85h-17.14c-1.13,0-2.05,0.92-2.05,2.05v18.99c0,1.13,0.92,2.05,2.05,2.05s2.05-0.92,2.05-2.05
			v-13.57h0.73v18.5v18.99c0,1.13,1.07,2.05,2.38,2.05c1.32,0,2.38-0.92,2.38-2.05v-18.99h1.99v18.99c0,1.13,1.07,2.05,2.38,2.05
			c1.32,0,2.38-0.92,2.38-2.05v-18.99v-18.5h0.78v13.57c0,1.13,0.92,2.05,2.05,2.05s2.05-0.92,2.05-2.05V348.9
			C289.42,347.77,288.5,346.85,287.37,346.85z"/>
	</g>
	<g>
		<circle class="st0" cx="302.06" cy="340.41" r="5.97"/>
		<path class="st0" d="M310.62,346.85h-17.14c-1.13,0-2.05,0.92-2.05,2.05v18.99c0,1.13,0.92,2.05,2.05,2.05s2.05-0.92,2.05-2.05
			v-13.57h0.73v18.5v18.99c0,1.13,1.07,2.05,2.38,2.05c1.32,0,2.38-0.92,2.38-2.05v-18.99h1.99v18.99c0,1.13,1.07,2.05,2.38,2.05
			c1.32,0,2.38-0.92,2.38-2.05v-18.99v-18.5h0.78v13.57c0,1.13,0.92,2.05,2.05,2.05s2.05-0.92,2.05-2.05V348.9
			C312.68,347.77,311.76,346.85,310.62,346.85z"/>
	</g>
	<g>
		<circle class="st0" cx="325.31" cy="340.41" r="5.97"/>
		<path class="st0" d="M333.88,346.85h-17.14c-1.13,0-2.05,0.92-2.05,2.05v18.99c0,1.13,0.92,2.05,2.05,2.05s2.05-0.92,2.05-2.05
			v-13.57h0.73v18.5v18.99c0,1.13,1.07,2.05,2.38,2.05c1.32,0,2.38-0.92,2.38-2.05v-18.99h1.99v18.99c0,1.13,1.07,2.05,2.38,2.05
			c1.32,0,2.38-0.92,2.38-2.05v-18.99v-18.5h0.78v13.57c0,1.13,0.92,2.05,2.05,2.05s2.05-0.92,2.05-2.05V348.9
			C335.93,347.77,335.01,346.85,333.88,346.85z"/>
	</g>
	<g>
		<circle class="st0" cx="348.57" cy="340.41" r="5.97"/>
		<path class="st0" d="M357.14,346.85H340c-1.13,0-2.05,0.92-2.05,2.05v18.99c0,1.13,0.92,2.05,2.05,2.05s2.05-0.92,2.05-2.05
			v-13.57h0.73v18.5v18.99c0,1.13,1.07,2.05,2.38,2.05c1.32,0,2.38-0.92,2.38-2.05v-18.99h1.99v18.99c0,1.13,1.07,2.05,2.38,2.05
			c1.32,0,2.38-0.92,2.38-2.05v-18.99v-18.5h0.78v13.57c0,1.13,0.92,2.05,2.05,2.05s2.05-0.92,2.05-2.05V348.9
			C359.19,347.77,358.27,346.85,357.14,346.85z"/>
	</g>
	<g>
		<circle class="st0" cx="371.83" cy="340.41" r="5.97"/>
		<path class="st0" d="M380.39,346.85h-17.14c-1.13,0-2.05,0.92-2.05,2.05v18.99c0,1.13,0.92,2.05,2.05,2.05s2.05-0.92,2.05-2.05
			v-13.57h0.73v18.5v18.99c0,1.13,1.07,2.05,2.38,2.05c1.32,0,2.38-0.92,2.38-2.05v-18.99h1.99v18.99c0,1.13,1.07,2.05,2.38,2.05
			c1.32,0,2.38-0.92,2.38-2.05v-18.99v-18.5h0.78v13.57c0,1.13,0.92,2.05,2.05,2.05s2.05-0.92,2.05-2.05V348.9
			C382.45,347.77,381.53,346.85,380.39,346.85z"/>
	</g>
	<g>
		<circle class="st0" cx="69.49" cy="402.54" r="5.97"/>
		<path class="st0" d="M78.06,408.98H60.92c-1.13,0-2.05,0.92-2.05,2.05v18.99c0,1.13,0.92,2.05,2.05,2.05s2.05-0.92,2.05-2.05
			v-13.57h0.73v18.5v18.99c0,1.13,1.07,2.05,2.38,2.05c1.32,0,2.38-0.92,2.38-2.05v-18.99h1.99v18.99c0,1.13,1.07,2.05,2.38,2.05
			c1.32,0,2.38-0.92,2.38-2.05v-18.99v-18.5H76v13.57c0,1.13,0.92,2.05,2.05,2.05s2.05-0.92,2.05-2.05v-18.99
			C80.11,409.9,79.19,408.98,78.06,408.98z"/>
	</g>
	<g>
		<circle class="st0" cx="92.75" cy="402.54" r="5.97"/>
		<path class="st0" d="M101.31,408.98H84.18c-1.13,0-2.05,0.92-2.05,2.05v18.99c0,1.13,0.92,2.05,2.05,2.05s2.05-0.92,2.05-2.05
			v-13.57h0.73v18.5v18.99c0,1.13,1.07,2.05,2.38,2.05c1.32,0,2.38-0.92,2.38-2.05v-18.99h1.99v18.99c0,1.13,1.07,2.05,2.38,2.05
			c1.32,0,2.38-0.92,2.38-2.05v-18.99v-18.5h0.78v13.57c0,1.13,0.92,2.05,2.05,2.05s2.05-0.92,2.05-2.05v-18.99
			C103.37,409.9,102.45,408.98,101.31,408.98z"/>
	</g>
	<g>
		<circle class="st0" cx="116" cy="402.54" r="5.97"/>
		<path class="st0" d="M124.57,408.98h-17.14c-1.13,0-2.05,0.92-2.05,2.05v18.99c0,1.13,0.92,2.05,2.05,2.05s2.05-0.92,2.05-2.05
			v-13.57h0.73v18.5v18.99c0,1.13,1.07,2.05,2.38,2.05c1.32,0,2.38-0.92,2.38-2.05v-18.99h1.99v18.99c0,1.13,1.07,2.05,2.38,2.05
			c1.32,0,2.38-0.92,2.38-2.05v-18.99v-18.5h0.78v13.57c0,1.13,0.92,2.05,2.05,2.05s2.05-0.92,2.05-2.05v-18.99
			C126.62,409.9,125.7,408.98,124.57,408.98z"/>
	</g>
	<g>
		<circle class="st0" cx="139.26" cy="402.54" r="5.97"/>
		<path class="st0" d="M147.83,408.98h-17.14c-1.13,0-2.05,0.92-2.05,2.05v18.99c0,1.13,0.92,2.05,2.05,2.05s2.05-0.92,2.05-2.05
			v-13.57h0.73v18.5v18.99c0,1.13,1.07,2.05,2.38,2.05c1.32,0,2.38-0.92,2.38-2.05v-18.99h1.99v18.99c0,1.13,1.07,2.05,2.38,2.05
			c1.32,0,2.38-0.92,2.38-2.05v-18.99v-18.5h0.78v13.57c0,1.13,0.92,2.05,2.05,2.05s2.05-0.92,2.05-2.05v-18.99
			C149.88,409.9,148.96,408.98,147.83,408.98z"/>
	</g>
	<g>
		<circle class="st0" cx="162.52" cy="402.54" r="5.97"/>
		<path class="st0" d="M171.08,408.98h-17.14c-1.13,0-2.05,0.92-2.05,2.05v18.99c0,1.13,0.92,2.05,2.05,2.05s2.05-0.92,2.05-2.05
			v-13.57h0.73v18.5v18.99c0,1.13,1.07,2.05,2.38,2.05c1.32,0,2.38-0.92,2.38-2.05v-18.99h1.99v18.99c0,1.13,1.07,2.05,2.38,2.05
			c1.32,0,2.38-0.92,2.38-2.05v-18.99v-18.5h0.78v13.57c0,1.13,0.92,2.05,2.05,2.05s2.05-0.92,2.05-2.05v-18.99
			C173.14,409.9,172.22,408.98,171.08,408.98z"/>
	</g>
	<g>
		<circle class="st0" cx="185.77" cy="402.54" r="5.97"/>
		<path class="st0" d="M194.34,408.98H177.2c-1.13,0-2.05,0.92-2.05,2.05v18.99c0,1.13,0.92,2.05,2.05,2.05s2.05-0.92,2.05-2.05
			v-13.57h0.73v18.5v18.99c0,1.13,1.07,2.05,2.38,2.05c1.32,0,2.38-0.92,2.38-2.05v-18.99h1.99v18.99c0,1.13,1.07,2.05,2.38,2.05
			c1.32,0,2.38-0.92,2.38-2.05v-18.99v-18.5h0.78v13.57c0,1.13,0.92,2.05,2.05,2.05s2.05-0.92,2.05-2.05v-18.99
			C196.39,409.9,195.47,408.98,194.34,408.98z"/>
	</g>
	<g>
		<circle class="st0" cx="209.03" cy="402.54" r="5.97"/>
		<path class="st0" d="M217.6,408.98h-17.14c-1.13,0-2.05,0.92-2.05,2.05v18.99c0,1.13,0.92,2.05,2.05,2.05s2.05-0.92,2.05-2.05
			v-13.57h0.73v18.5v18.99c0,1.13,1.07,2.05,2.38,2.05c1.32,0,2.38-0.92,2.38-2.05v-18.99H210v18.99c0,1.13,1.07,2.05,2.38,2.05
			c1.32,0,2.38-0.92,2.38-2.05v-18.99v-18.5h0.78v13.57c0,1.13,0.92,2.05,2.05,2.05s2.05-0.92,2.05-2.05v-18.99
			C219.65,409.9,218.73,408.98,217.6,408.98z"/>
	</g>
	<g>
		<circle class="st0" cx="232.29" cy="402.54" r="5.97"/>
		<path class="st0" d="M240.85,408.98h-17.14c-1.13,0-2.05,0.92-2.05,2.05v18.99c0,1.13,0.92,2.05,2.05,2.05s2.05-0.92,2.05-2.05
			v-13.57h0.73v18.5v18.99c0,1.13,1.07,2.05,2.38,2.05c1.32,0,2.38-0.92,2.38-2.05v-18.99h1.99v18.99c0,1.13,1.07,2.05,2.38,2.05
			c1.32,0,2.38-0.92,2.38-2.05v-18.99v-18.5h0.78v13.57c0,1.13,0.92,2.05,2.05,2.05s2.05-0.92,2.05-2.05v-18.99
			C242.91,409.9,241.99,408.98,240.85,408.98z"/>
	</g>
	<g>
		<circle class="st0" cx="255.54" cy="402.54" r="5.97"/>
		<path class="st0" d="M264.11,408.98h-17.14c-1.13,0-2.05,0.92-2.05,2.05v18.99c0,1.13,0.92,2.05,2.05,2.05s2.05-0.92,2.05-2.05
			v-13.57h0.73v18.5v18.99c0,1.13,1.07,2.05,2.38,2.05c1.32,0,2.38-0.92,2.38-2.05v-18.99h1.99v18.99c0,1.13,1.07,2.05,2.38,2.05
			c1.32,0,2.38-0.92,2.38-2.05v-18.99v-18.5h0.78v13.57c0,1.13,0.92,2.05,2.05,2.05s2.05-0.92,2.05-2.05v-18.99
			C266.16,409.9,265.24,408.98,264.11,408.98z"/>
	</g>
	<g>
		<circle class="st0" cx="278.8" cy="402.54" r="5.97"/>
		<path class="st0" d="M287.37,408.98h-17.14c-1.13,0-2.05,0.92-2.05,2.05v18.99c0,1.13,0.92,2.05,2.05,2.05s2.05-0.92,2.05-2.05
			v-13.57h0.73v18.5v18.99c0,1.13,1.07,2.05,2.38,2.05c1.32,0,2.38-0.92,2.38-2.05v-18.99h1.99v18.99c0,1.13,1.07,2.05,2.38,2.05
			c1.32,0,2.38-0.92,2.38-2.05v-18.99v-18.5h0.78v13.57c0,1.13,0.92,2.05,2.05,2.05s2.05-0.92,2.05-2.05v-18.99
			C289.42,409.9,288.5,408.98,287.37,408.98z"/>
	</g>
	<g>
		<circle class="st0" cx="302.06" cy="402.54" r="5.97"/>
		<path class="st0" d="M310.62,408.98h-17.14c-1.13,0-2.05,0.92-2.05,2.05v18.99c0,1.13,0.92,2.05,2.05,2.05s2.05-0.92,2.05-2.05
			v-13.57h0.73v18.5v18.99c0,1.13,1.07,2.05,2.38,2.05c1.32,0,2.38-0.92,2.38-2.05v-18.99h1.99v18.99c0,1.13,1.07,2.05,2.38,2.05
			c1.32,0,2.38-0.92,2.38-2.05v-18.99v-18.5h0.78v13.57c0,1.13,0.92,2.05,2.05,2.05s2.05-0.92,2.05-2.05v-18.99
			C312.68,409.9,311.76,408.98,310.62,408.98z"/>
	</g>
	<g>
		<circle class="st0" cx="325.31" cy="402.54" r="5.97"/>
		<path class="st0" d="M333.88,408.98h-17.14c-1.13,0-2.05,0.92-2.05,2.05v18.99c0,1.13,0.92,2.05,2.05,2.05s2.05-0.92,2.05-2.05
			v-13.57h0.73v18.5v18.99c0,1.13,1.07,2.05,2.38,2.05c1.32,0,2.38-0.92,2.38-2.05v-18.99h1.99v18.99c0,1.13,1.07,2.05,2.38,2.05
			c1.32,0,2.38-0.92,2.38-2.05v-18.99v-18.5h0.78v13.57c0,1.13,0.92,2.05,2.05,2.05s2.05-0.92,2.05-2.05v-18.99
			C335.93,409.9,335.01,408.98,333.88,408.98z"/>
	</g>
	<g>
		<circle class="st0" cx="348.57" cy="402.54" r="5.97"/>
		<path class="st0" d="M357.14,408.98H340c-1.13,0-2.05,0.92-2.05,2.05v18.99c0,1.13,0.92,2.05,2.05,2.05s2.05-0.92,2.05-2.05
			v-13.57h0.73v18.5v18.99c0,1.13,1.07,2.05,2.38,2.05c1.32,0,2.38-0.92,2.38-2.05v-18.99h1.99v18.99c0,1.13,1.07,2.05,2.38,2.05
			c1.32,0,2.38-0.92,2.38-2.05v-18.99v-18.5h0.78v13.57c0,1.13,0.92,2.05,2.05,2.05s2.05-0.92,2.05-2.05v-18.99
			C359.19,409.9,358.27,408.98,357.14,408.98z"/>
	</g>
	<g>
		<circle class="st0" cx="371.83" cy="402.54" r="5.97"/>
		<path class="st0" d="M380.39,408.98h-17.14c-1.13,0-2.05,0.92-2.05,2.05v18.99c0,1.13,0.92,2.05,2.05,2.05s2.05-0.92,2.05-2.05
			v-13.57h0.73v18.5v18.99c0,1.13,1.07,2.05,2.38,2.05c1.32,0,2.38-0.92,2.38-2.05v-18.99h1.99v18.99c0,1.13,1.07,2.05,2.38,2.05
			c1.32,0,2.38-0.92,2.38-2.05v-18.99v-18.5h0.78v13.57c0,1.13,0.92,2.05,2.05,2.05s2.05-0.92,2.05-2.05v-18.99
			C382.45,409.9,381.53,408.98,380.39,408.98z"/>
	</g>
	<g>
		<circle class="st0" cx="69.49" cy="464.67" r="5.97"/>
		<path class="st0" d="M78.06,471.11H60.92c-1.13,0-2.05,0.92-2.05,2.05v18.99c0,1.13,0.92,2.05,2.05,2.05s2.05-0.92,2.05-2.05
			v-13.57h0.73v18.5v18.99c0,1.13,1.07,2.05,2.38,2.05c1.32,0,2.38-0.92,2.38-2.05v-18.99h1.99v18.99c0,1.13,1.07,2.05,2.38,2.05
			c1.32,0,2.38-0.92,2.38-2.05v-18.99v-18.5H76v13.57c0,1.13,0.92,2.05,2.05,2.05s2.05-0.92,2.05-2.05v-18.99
			C80.11,472.03,79.19,471.11,78.06,471.11z"/>
	</g>
	<g>
		<circle class="st0" cx="92.75" cy="464.67" r="5.97"/>
		<path class="st0" d="M101.31,471.11H84.18c-1.13,0-2.05,0.92-2.05,2.05v18.99c0,1.13,0.92,2.05,2.05,2.05s2.05-0.92,2.05-2.05
			v-13.57h0.73v18.5v18.99c0,1.13,1.07,2.05,2.38,2.05c1.32,0,2.38-0.92,2.38-2.05v-18.99h1.99v18.99c0,1.13,1.07,2.05,2.38,2.05
			c1.32,0,2.38-0.92,2.38-2.05v-18.99v-18.5h0.78v13.57c0,1.13,0.92,2.05,2.05,2.05s2.05-0.92,2.05-2.05v-18.99
			C103.37,472.03,102.45,471.11,101.31,471.11z"/>
	</g>
	<g>
		<circle class="st0" cx="116" cy="464.67" r="5.97"/>
		<path class="st0" d="M124.57,471.11h-17.14c-1.13,0-2.05,0.92-2.05,2.05v18.99c0,1.13,0.92,2.05,2.05,2.05s2.05-0.92,2.05-2.05
			v-13.57h0.73v18.5v18.99c0,1.13,1.07,2.05,2.38,2.05c1.32,0,2.38-0.92,2.38-2.05v-18.99h1.99v18.99c0,1.13,1.07,2.05,2.38,2.05
			c1.32,0,2.38-0.92,2.38-2.05v-18.99v-18.5h0.78v13.57c0,1.13,0.92,2.05,2.05,2.05s2.05-0.92,2.05-2.05v-18.99
			C126.62,472.03,125.7,471.11,124.57,471.11z"/>
	</g>
	<g>
		<circle class="st0" cx="139.26" cy="464.67" r="5.97"/>
		<path class="st0" d="M147.83,471.11h-17.14c-1.13,0-2.05,0.92-2.05,2.05v18.99c0,1.13,0.92,2.05,2.05,2.05s2.05-0.92,2.05-2.05
			v-13.57h0.73v18.5v18.99c0,1.13,1.07,2.05,2.38,2.05c1.32,0,2.38-0.92,2.38-2.05v-18.99h1.99v18.99c0,1.13,1.07,2.05,2.38,2.05
			c1.32,0,2.38-0.92,2.38-2.05v-18.99v-18.5h0.78v13.57c0,1.13,0.92,2.05,2.05,2.05s2.05-0.92,2.05-2.05v-18.99
			C149.88,472.03,148.96,471.11,147.83,471.11z"/>
	</g>
	<g>
		<circle class="st0" cx="162.52" cy="464.67" r="5.97"/>
		<path class="st0" d="M171.08,471.11h-17.14c-1.13,0-2.05,0.92-2.05,2.05v18.99c0,1.13,0.92,2.05,2.05,2.05s2.05-0.92,2.05-2.05
			v-13.57h0.73v18.5v18.99c0,1.13,1.07,2.05,2.38,2.05c1.32,0,2.38-0.92,2.38-2.05v-18.99h1.99v18.99c0,1.13,1.07,2.05,2.38,2.05
			c1.32,0,2.38-0.92,2.38-2.05v-18.99v-18.5h0.78v13.57c0,1.13,0.92,2.05,2.05,2.05s2.05-0.92,2.05-2.05v-18.99
			C173.14,472.03,172.22,471.11,171.08,471.11z"/>
	</g>
	<g>
		<circle class="st0" cx="185.77" cy="464.67" r="5.97"/>
		<path class="st0" d="M194.34,471.11H177.2c-1.13,0-2.05,0.92-2.05,2.05v18.99c0,1.13,0.92,2.05,2.05,2.05s2.05-0.92,2.05-2.05
			v-13.57h0.73v18.5v18.99c0,1.13,1.07,2.05,2.38,2.05c1.32,0,2.38-0.92,2.38-2.05v-18.99h1.99v18.99c0,1.13,1.07,2.05,2.38,2.05
			c1.32,0,2.38-0.92,2.38-2.05v-18.99v-18.5h0.78v13.57c0,1.13,0.92,2.05,2.05,2.05s2.05-0.92,2.05-2.05v-18.99
			C196.39,472.03,195.47,471.11,194.34,471.11z"/>
	</g>
	<g>
		<circle class="st0" cx="209.03" cy="464.67" r="5.97"/>
		<path class="st0" d="M217.6,471.11h-17.14c-1.13,0-2.05,0.92-2.05,2.05v18.99c0,1.13,0.92,2.05,2.05,2.05s2.05-0.92,2.05-2.05
			v-13.57h0.73v18.5v18.99c0,1.13,1.07,2.05,2.38,2.05c1.32,0,2.38-0.92,2.38-2.05v-18.99H210v18.99c0,1.13,1.07,2.05,2.38,2.05
			c1.32,0,2.38-0.92,2.38-2.05v-18.99v-18.5h0.78v13.57c0,1.13,0.92,2.05,2.05,2.05s2.05-0.92,2.05-2.05v-18.99
			C219.65,472.03,218.73,471.11,217.6,471.11z"/>
	</g>
	<g>
		<circle class="st0" cx="232.29" cy="464.67" r="5.97"/>
		<path class="st0" d="M240.85,471.11h-17.14c-1.13,0-2.05,0.92-2.05,2.05v18.99c0,1.13,0.92,2.05,2.05,2.05s2.05-0.92,2.05-2.05
			v-13.57h0.73v18.5v18.99c0,1.13,1.07,2.05,2.38,2.05c1.32,0,2.38-0.92,2.38-2.05v-18.99h1.99v18.99c0,1.13,1.07,2.05,2.38,2.05
			c1.32,0,2.38-0.92,2.38-2.05v-18.99v-18.5h0.78v13.57c0,1.13,0.92,2.05,2.05,2.05s2.05-0.92,2.05-2.05v-18.99
			C242.91,472.03,241.99,471.11,240.85,471.11z"/>
	</g>
	<g>
		<circle class="st0" cx="255.54" cy="464.67" r="5.97"/>
		<path class="st0" d="M264.11,471.11h-17.14c-1.13,0-2.05,0.92-2.05,2.05v18.99c0,1.13,0.92,2.05,2.05,2.05s2.05-0.92,2.05-2.05
			v-13.57h0.73v18.5v18.99c0,1.13,1.07,2.05,2.38,2.05c1.32,0,2.38-0.92,2.38-2.05v-18.99h1.99v18.99c0,1.13,1.07,2.05,2.38,2.05
			c1.32,0,2.38-0.92,2.38-2.05v-18.99v-18.5h0.78v13.57c0,1.13,0.92,2.05,2.05,2.05s2.05-0.92,2.05-2.05v-18.99
			C266.16,472.03,265.24,471.11,264.11,471.11z"/>
	</g>
	<g>
		<circle class="st0" cx="278.8" cy="464.67" r="5.97"/>
		<path class="st0" d="M287.37,471.11h-17.14c-1.13,0-2.05,0.92-2.05,2.05v18.99c0,1.13,0.92,2.05,2.05,2.05s2.05-0.92,2.05-2.05
			v-13.57h0.73v18.5v18.99c0,1.13,1.07,2.05,2.38,2.05c1.32,0,2.38-0.92,2.38-2.05v-18.99h1.99v18.99c0,1.13,1.07,2.05,2.38,2.05
			c1.32,0,2.38-0.92,2.38-2.05v-18.99v-18.5h0.78v13.57c0,1.13,0.92,2.05,2.05,2.05s2.05-0.92,2.05-2.05v-18.99
			C289.42,472.03,288.5,471.11,287.37,471.11z"/>
	</g>
	<g>
		<circle class="st0" cx="302.06" cy="464.67" r="5.97"/>
		<path class="st0" d="M310.62,471.11h-17.14c-1.13,0-2.05,0.92-2.05,2.05v18.99c0,1.13,0.92,2.05,2.05,2.05s2.05-0.92,2.05-2.05
			v-13.57h0.73v18.5v18.99c0,1.13,1.07,2.05,2.38,2.05c1.32,0,2.38-0.92,2.38-2.05v-18.99h1.99v18.99c0,1.13,1.07,2.05,2.38,2.05
			c1.32,0,2.38-0.92,2.38-2.05v-18.99v-18.5h0.78v13.57c0,1.13,0.92,2.05,2.05,2.05s2.05-0.92,2.05-2.05v-18.99
			C312.68,472.03,311.76,471.11,310.62,471.11z"/>
	</g>
	<g>
		<circle class="st0" cx="325.31" cy="464.67" r="5.97"/>
		<path class="st0" d="M333.88,471.11h-17.14c-1.13,0-2.05,0.92-2.05,2.05v18.99c0,1.13,0.92,2.05,2.05,2.05s2.05-0.92,2.05-2.05
			v-13.57h0.73v18.5v18.99c0,1.13,1.07,2.05,2.38,2.05c1.32,0,2.38-0.92,2.38-2.05v-18.99h1.99v18.99c0,1.13,1.07,2.05,2.38,2.05
			c1.32,0,2.38-0.92,2.38-2.05v-18.99v-18.5h0.78v13.57c0,1.13,0.92,2.05,2.05,2.05s2.05-0.92,2.05-2.05v-18.99
			C335.93,472.03,335.01,471.11,333.88,471.11z"/>
	</g>
	<g>
		<circle class="st0" cx="348.57" cy="464.67" r="5.97"/>
		<path class="st0" d="M357.14,471.11H340c-1.13,0-2.05,0.92-2.05,2.05v18.99c0,1.13,0.92,2.05,2.05,2.05s2.05-0.92,2.05-2.05
			v-13.57h0.73v18.5v18.99c0,1.13,1.07,2.05,2.38,2.05c1.32,0,2.38-0.92,2.38-2.05v-18.99h1.99v18.99c0,1.13,1.07,2.05,2.38,2.05
			c1.32,0,2.38-0.92,2.38-2.05v-18.99v-18.5h0.78v13.57c0,1.13,0.92,2.05,2.05,2.05s2.05-0.92,2.05-2.05v-18.99
			C359.19,472.03,358.27,471.11,357.14,471.11z"/>
	</g>
	<g>
		<circle class="st0" cx="371.83" cy="464.67" r="5.97"/>
		<path class="st0" d="M380.39,471.11h-17.14c-1.13,0-2.05,0.92-2.05,2.05v18.99c0,1.13,0.92,2.05,2.05,2.05s2.05-0.92,2.05-2.05
			v-13.57h0.73v18.5v18.99c0,1.13,1.07,2.05,2.38,2.05c1.32,0,2.38-0.92,2.38-2.05v-18.99h1.99v18.99c0,1.13,1.07,2.05,2.38,2.05
			c1.32,0,2.38-0.92,2.38-2.05v-18.99v-18.5h0.78v13.57c0,1.13,0.92,2.05,2.05,2.05s2.05-0.92,2.05-2.05v-18.99
			C382.45,472.03,381.53,471.11,380.39,471.11z"/>
	</g>
	<g>
		<circle class="st0" cx="69.49" cy="526.8" r="5.97"/>
		<path class="st0" d="M78.06,533.24H60.92c-1.13,0-2.05,0.92-2.05,2.05v18.99c0,1.13,0.92,2.05,2.05,2.05s2.05-0.92,2.05-2.05
			v-13.57h0.73v18.5v18.99c0,1.13,1.07,2.05,2.38,2.05c1.32,0,2.38-0.92,2.38-2.05v-18.99h1.99v18.99c0,1.13,1.07,2.05,2.38,2.05
			c1.32,0,2.38-0.92,2.38-2.05v-18.99v-18.5H76v13.57c0,1.13,0.92,2.05,2.05,2.05s2.05-0.92,2.05-2.05V535.3
			C80.11,534.16,79.19,533.24,78.06,533.24z"/>
	</g>
	<g>
		<circle class="st0" cx="92.75" cy="526.8" r="5.97"/>
		<path class="st0" d="M101.31,533.24H84.18c-1.13,0-2.05,0.92-2.05,2.05v18.99c0,1.13,0.92,2.05,2.05,2.05s2.05-0.92,2.05-2.05
			v-13.57h0.73v18.5v18.99c0,1.13,1.07,2.05,2.38,2.05c1.32,0,2.38-0.92,2.38-2.05v-18.99h1.99v18.99c0,1.13,1.07,2.05,2.38,2.05
			c1.32,0,2.38-0.92,2.38-2.05v-18.99v-18.5h0.78v13.57c0,1.13,0.92,2.05,2.05,2.05s2.05-0.92,2.05-2.05V535.3
			C103.37,534.16,102.45,533.24,101.31,533.24z"/>
	</g>
	<g>
		<circle class="st0" cx="116" cy="526.8" r="5.97"/>
		<path class="st0" d="M124.57,533.24h-17.14c-1.13,0-2.05,0.92-2.05,2.05v18.99c0,1.13,0.92,2.05,2.05,2.05s2.05-0.92,2.05-2.05
			v-13.57h0.73v18.5v18.99c0,1.13,1.07,2.05,2.38,2.05c1.32,0,2.38-0.92,2.38-2.05v-18.99h1.99v18.99c0,1.13,1.07,2.05,2.38,2.05
			c1.32,0,2.38-0.92,2.38-2.05v-18.99v-18.5h0.78v13.57c0,1.13,0.92,2.05,2.05,2.05s2.05-0.92,2.05-2.05V535.3
			C126.62,534.16,125.7,533.24,124.57,533.24z"/>
	</g>
	<g>
		<circle class="st0" cx="139.26" cy="526.8" r="5.97"/>
		<path class="st0" d="M147.83,533.24h-17.14c-1.13,0-2.05,0.92-2.05,2.05v18.99c0,1.13,0.92,2.05,2.05,2.05s2.05-0.92,2.05-2.05
			v-13.57h0.73v18.5v18.99c0,1.13,1.07,2.05,2.38,2.05c1.32,0,2.38-0.92,2.38-2.05v-18.99h1.99v18.99c0,1.13,1.07,2.05,2.38,2.05
			c1.32,0,2.38-0.92,2.38-2.05v-18.99v-18.5h0.78v13.57c0,1.13,0.92,2.05,2.05,2.05s2.05-0.92,2.05-2.05V535.3
			C149.88,534.16,148.96,533.24,147.83,533.24z"/>
	</g>
	<g>
		<circle class="st0" cx="162.52" cy="526.8" r="5.97"/>
		<path class="st0" d="M171.08,533.24h-17.14c-1.13,0-2.05,0.92-2.05,2.05v18.99c0,1.13,0.92,2.05,2.05,2.05s2.05-0.92,2.05-2.05
			v-13.57h0.73v18.5v18.99c0,1.13,1.07,2.05,2.38,2.05c1.32,0,2.38-0.92,2.38-2.05v-18.99h1.99v18.99c0,1.13,1.07,2.05,2.38,2.05
			c1.32,0,2.38-0.92,2.38-2.05v-18.99v-18.5h0.78v13.57c0,1.13,0.92,2.05,2.05,2.05s2.05-0.92,2.05-2.05V535.3
			C173.14,534.16,172.22,533.24,171.08,533.24z"/>
	</g>
	<g>
		<circle class="st0" cx="185.77" cy="526.8" r="5.97"/>
		<path class="st0" d="M194.34,533.24H177.2c-1.13,0-2.05,0.92-2.05,2.05v18.99c0,1.13,0.92,2.05,2.05,2.05s2.05-0.92,2.05-2.05
			v-13.57h0.73v18.5v18.99c0,1.13,1.07,2.05,2.38,2.05c1.32,0,2.38-0.92,2.38-2.05v-18.99h1.99v18.99c0,1.13,1.07,2.05,2.38,2.05
			c1.32,0,2.38-0.92,2.38-2.05v-18.99v-18.5h0.78v13.57c0,1.13,0.92,2.05,2.05,2.05s2.05-0.92,2.05-2.05V535.3
			C196.39,534.16,195.47,533.24,194.34,533.24z"/>
	</g>
	<g>
		<circle class="st0" cx="209.03" cy="526.8" r="5.97"/>
		<path class="st0" d="M217.6,533.24h-17.14c-1.13,0-2.05,0.92-2.05,2.05v18.99c0,1.13,0.92,2.05,2.05,2.05s2.05-0.92,2.05-2.05
			v-13.57h0.73v18.5v18.99c0,1.13,1.07,2.05,2.38,2.05c1.32,0,2.38-0.92,2.38-2.05v-18.99H210v18.99c0,1.13,1.07,2.05,2.38,2.05
			c1.32,0,2.38-0.92,2.38-2.05v-18.99v-18.5h0.78v13.57c0,1.13,0.92,2.05,2.05,2.05s2.05-0.92,2.05-2.05V535.3
			C219.65,534.16,218.73,533.24,217.6,533.24z"/>
	</g>
	<g>
		<circle class="st0" cx="232.29" cy="526.8" r="5.97"/>
		<path class="st0" d="M240.85,533.24h-17.14c-1.13,0-2.05,0.92-2.05,2.05v18.99c0,1.13,0.92,2.05,2.05,2.05s2.05-0.92,2.05-2.05
			v-13.57h0.73v18.5v18.99c0,1.13,1.07,2.05,2.38,2.05c1.32,0,2.38-0.92,2.38-2.05v-18.99h1.99v18.99c0,1.13,1.07,2.05,2.38,2.05
			c1.32,0,2.38-0.92,2.38-2.05v-18.99v-18.5h0.78v13.57c0,1.13,0.92,2.05,2.05,2.05s2.05-0.92,2.05-2.05V535.3
			C242.91,534.16,241.99,533.24,240.85,533.24z"/>
	</g>
	<g>
		<circle class="st0" cx="255.54" cy="526.8" r="5.97"/>
		<path class="st0" d="M264.11,533.24h-17.14c-1.13,0-2.05,0.92-2.05,2.05v18.99c0,1.13,0.92,2.05,2.05,2.05s2.05-0.92,2.05-2.05
			v-13.57h0.73v18.5v18.99c0,1.13,1.07,2.05,2.38,2.05c1.32,0,2.38-0.92,2.38-2.05v-18.99h1.99v18.99c0,1.13,1.07,2.05,2.38,2.05
			c1.32,0,2.38-0.92,2.38-2.05v-18.99v-18.5h0.78v13.57c0,1.13,0.92,2.05,2.05,2.05s2.05-0.92,2.05-2.05V535.3
			C266.16,534.16,265.24,533.24,264.11,533.24z"/>
	</g>
	<g>
		<circle class="st0" cx="278.8" cy="526.8" r="5.97"/>
		<path class="st0" d="M287.37,533.24h-17.14c-1.13,0-2.05,0.92-2.05,2.05v18.99c0,1.13,0.92,2.05,2.05,2.05s2.05-0.92,2.05-2.05
			v-13.57h0.73v18.5v18.99c0,1.13,1.07,2.05,2.38,2.05c1.32,0,2.38-0.92,2.38-2.05v-18.99h1.99v18.99c0,1.13,1.07,2.05,2.38,2.05
			c1.32,0,2.38-0.92,2.38-2.05v-18.99v-18.5h0.78v13.57c0,1.13,0.92,2.05,2.05,2.05s2.05-0.92,2.05-2.05V535.3
			C289.42,534.16,288.5,533.24,287.37,533.24z"/>
	</g>
	<g>
		<circle class="st0" cx="302.06" cy="526.8" r="5.97"/>
		<path class="st0" d="M310.62,533.24h-17.14c-1.13,0-2.05,0.92-2.05,2.05v18.99c0,1.13,0.92,2.05,2.05,2.05s2.05-0.92,2.05-2.05
			v-13.57h0.73v18.5v18.99c0,1.13,1.07,2.05,2.38,2.05c1.32,0,2.38-0.92,2.38-2.05v-18.99h1.99v18.99c0,1.13,1.07,2.05,2.38,2.05
			c1.32,0,2.38-0.92,2.38-2.05v-18.99v-18.5h0.78v13.57c0,1.13,0.92,2.05,2.05,2.05s2.05-0.92,2.05-2.05V535.3
			C312.68,534.16,311.76,533.24,310.62,533.24z"/>
	</g>
	<g>
		<circle class="st0" cx="325.31" cy="526.8" r="5.97"/>
		<path class="st0" d="M333.88,533.24h-17.14c-1.13,0-2.05,0.92-2.05,2.05v18.99c0,1.13,0.92,2.05,2.05,2.05s2.05-0.92,2.05-2.05
			v-13.57h0.73v18.5v18.99c0,1.13,1.07,2.05,2.38,2.05c1.32,0,2.38-0.92,2.38-2.05v-18.99h1.99v18.99c0,1.13,1.07,2.05,2.38,2.05
			c1.32,0,2.38-0.92,2.38-2.05v-18.99v-18.5h0.78v13.57c0,1.13,0.92,2.05,2.05,2.05s2.05-0.92,2.05-2.05V535.3
			C335.93,534.16,335.01,533.24,333.88,533.24z"/>
	</g>
	<g>
		<circle class="st0" cx="348.57" cy="526.8" r="5.97"/>
		<path class="st0" d="M357.14,533.24H340c-1.13,0-2.05,0.92-2.05,2.05v18.99c0,1.13,0.92,2.05,2.05,2.05s2.05-0.92,2.05-2.05
			v-13.57h0.73v18.5v18.99c0,1.13,1.07,2.05,2.38,2.05c1.32,0,2.38-0.92,2.38-2.05v-18.99h1.99v18.99c0,1.13,1.07,2.05,2.38,2.05
			c1.32,0,2.38-0.92,2.38-2.05v-18.99v-18.5h0.78v13.57c0,1.13,0.92,2.05,2.05,2.05s2.05-0.92,2.05-2.05V535.3
			C359.19,534.16,358.27,533.24,357.14,533.24z"/>
	</g>
	<g>
		<circle class="st0" cx="371.83" cy="526.8" r="5.97"/>
		<path class="st0" d="M380.39,533.24h-17.14c-1.13,0-2.05,0.92-2.05,2.05v18.99c0,1.13,0.92,2.05,2.05,2.05s2.05-0.92,2.05-2.05
			v-13.57h0.73v18.5v18.99c0,1.13,1.07,2.05,2.38,2.05c1.32,0,2.38-0.92,2.38-2.05v-18.99h1.99v18.99c0,1.13,1.07,2.05,2.38,2.05
			c1.32,0,2.38-0.92,2.38-2.05v-18.99v-18.5h0.78v13.57c0,1.13,0.92,2.05,2.05,2.05s2.05-0.92,2.05-2.05V535.3
			C382.45,534.16,381.53,533.24,380.39,533.24z"/>
	</g>
	<g>
		<g>
			<g>
				<circle class="st1" cx="462.23" cy="526.8" r="5.97"/>
			</g>
			<path class="st1" d="M470.79,533.24h-17.14c-1.13,0-2.05,0.92-2.05,2.05v18.99c0,1.13,0.92,2.05,2.05,2.05s2.05-0.92,2.05-2.05
				v-13.57h0.73v18.5v18.99c0,1.13,1.07,2.05,2.38,2.05c1.32,0,2.38-0.92,2.38-2.05v-18.99h1.99v18.99c0,1.13,1.07,2.05,2.38,2.05
				c1.32,0,2.38-0.92,2.38-2.05v-18.99v-18.5h0.78v13.57c0,1.13,0.92,2.05,2.05,2.05s2.05-0.92,2.05-2.05V535.3
				C472.85,534.16,471.93,533.24,470.79,533.24z"/>
		</g>
	</g>
	<g>
		<g>
			<g>
				<circle class="st1" cx="485.48" cy="526.8" r="5.97"/>
			</g>
			<path class="st1" d="M494.05,533.24h-17.14c-1.13,0-2.05,0.92-2.05,2.05v18.99c0,1.13,0.92,2.05,2.05,2.05s2.05-0.92,2.05-2.05
				v-13.57h0.73v18.5v18.99c0,1.13,1.07,2.05,2.38,2.05c1.32,0,2.38-0.92,2.38-2.05v-18.99h1.99v18.99c0,1.13,1.07,2.05,2.38,2.05
				c1.32,0,2.38-0.92,2.38-2.05v-18.99v-18.5H492v13.57c0,1.13,0.92,2.05,2.05,2.05s2.05-0.92,2.05-2.05V535.3
				C496.11,534.16,495.19,533.24,494.05,533.24z"/>
		</g>
	</g>
	<g>
		<g>
			<g>
				<circle class="st1" cx="508.74" cy="526.8" r="5.97"/>
			</g>
			<path class="st1" d="M517.31,533.24h-17.14c-1.13,0-2.05,0.92-2.05,2.05v18.99c0,1.13,0.92,2.05,2.05,2.05s2.05-0.92,2.05-2.05
				v-13.57h0.73v18.5v18.99c0,1.13,1.07,2.05,2.38,2.05c1.32,0,2.38-0.92,2.38-2.05v-18.99h1.99v18.99c0,1.13,1.07,2.05,2.38,2.05
				c1.32,0,2.38-0.92,2.38-2.05v-18.99v-18.5h0.78v13.57c0,1.13,0.92,2.05,2.05,2.05s2.05-0.92,2.05-2.05V535.3
				C519.36,534.16,518.44,533.24,517.31,533.24z"/>
		</g>
	</g>
</g>
<g>
	<path d="M463.9,433.7c0.82,0.5,2.02,0.92,3.28,0.92c1.87,0,2.96-0.99,2.96-2.41c0-1.32-0.76-2.08-2.67-2.81
		c-2.31-0.82-3.74-2.02-3.74-4.01c0-2.2,1.83-3.84,4.58-3.84c1.45,0,2.5,0.34,3.13,0.69l-0.5,1.49c-0.46-0.25-1.41-0.67-2.69-0.67
		c-1.93,0-2.67,1.15-2.67,2.12c0,1.32,0.86,1.97,2.81,2.73c2.39,0.92,3.61,2.08,3.61,4.16c0,2.18-1.62,4.07-4.96,4.07
		c-1.36,0-2.86-0.4-3.61-0.9L463.9,433.7z"/>
	<path d="M480.13,435.93l-0.15-1.28h-0.06c-0.57,0.8-1.66,1.51-3.11,1.51c-2.06,0-3.11-1.45-3.11-2.92c0-2.46,2.18-3.8,6.11-3.78
		v-0.21c0-0.84-0.23-2.35-2.31-2.35c-0.95,0-1.93,0.29-2.65,0.76l-0.42-1.22c0.84-0.55,2.06-0.9,3.34-0.9
		c3.11,0,3.86,2.12,3.86,4.16v3.8c0,0.88,0.04,1.74,0.17,2.44H480.13z M479.86,430.74c-2.02-0.04-4.3,0.31-4.3,2.29
		c0,1.2,0.8,1.76,1.74,1.76c1.32,0,2.16-0.84,2.46-1.7c0.06-0.19,0.11-0.4,0.11-0.59V430.74z"/>
	<path d="M484.63,421.02h1.85v14.91h-1.85V421.02z"/>
	<path d="M498.78,430.76c0,3.76-2.6,5.4-5.06,5.4c-2.75,0-4.87-2.02-4.87-5.23c0-3.4,2.23-5.4,5.04-5.4
		C496.8,425.54,498.78,427.66,498.78,430.76z M490.72,430.87c0,2.23,1.28,3.91,3.09,3.91c1.76,0,3.09-1.66,3.09-3.95
		c0-1.72-0.86-3.91-3.04-3.91S490.72,428.94,490.72,430.87z"/>
	<path d="M501.11,428.52c0-1.05-0.02-1.91-0.08-2.75h1.64l0.1,1.68h0.04c0.5-0.97,1.68-1.91,3.36-1.91c1.41,0,3.59,0.84,3.59,4.33
		v6.07h-1.85v-5.86c0-1.64-0.61-3-2.35-3c-1.22,0-2.16,0.86-2.48,1.89c-0.08,0.23-0.13,0.55-0.13,0.86v6.11h-1.85V428.52z"/>
	<path d="M429.86,447.15c0.88-0.15,2.04-0.27,3.51-0.27c1.81,0,3.13,0.42,3.97,1.18c0.78,0.67,1.24,1.7,1.24,2.96
		c0,1.28-0.38,2.29-1.09,3.02c-0.96,1.03-2.54,1.55-4.32,1.55c-0.55,0-1.05-0.02-1.47-0.13v5.67h-1.83V447.15z M431.69,453.97
		c0.4,0.1,0.9,0.15,1.51,0.15c2.21,0,3.55-1.07,3.55-3.02c0-1.87-1.32-2.77-3.34-2.77c-0.8,0-1.41,0.06-1.72,0.15V453.97z"/>
	<path d="M440.63,454.14c0-1.2-0.02-2.23-0.08-3.17h1.62l0.06,2h0.08c0.46-1.37,1.57-2.23,2.81-2.23c0.21,0,0.36,0.02,0.53,0.06
		v1.74c-0.19-0.04-0.38-0.06-0.63-0.06c-1.3,0-2.23,0.99-2.48,2.37c-0.04,0.25-0.08,0.55-0.08,0.86v5.42h-1.83V454.14z"/>
	<path d="M456.49,455.96c0,3.76-2.6,5.4-5.06,5.4c-2.75,0-4.87-2.02-4.87-5.23c0-3.4,2.23-5.4,5.04-5.4
		C454.51,450.74,456.49,452.86,456.49,455.96z M448.42,456.07c0,2.22,1.28,3.9,3.09,3.9c1.76,0,3.09-1.66,3.09-3.95
		c0-1.72-0.86-3.9-3.04-3.9S448.42,454.14,448.42,456.07z"/>
	<path d="M459.01,461.13v-8.75h-1.43v-1.41h1.43v-0.48c0-1.43,0.31-2.73,1.18-3.55c0.69-0.67,1.62-0.94,2.48-0.94
		c0.65,0,1.22,0.15,1.58,0.29l-0.25,1.43c-0.27-0.12-0.65-0.23-1.18-0.23c-1.58,0-1.97,1.39-1.97,2.94v0.55h2.46v1.41h-2.46v8.75
		H459.01z"/>
	<path d="M465.71,456.38c0.04,2.5,1.64,3.53,3.49,3.53c1.32,0,2.12-0.23,2.81-0.53l0.32,1.32c-0.65,0.29-1.76,0.63-3.38,0.63
		c-3.13,0-5-2.06-5-5.12s1.81-5.48,4.77-5.48c3.32,0,4.2,2.92,4.2,4.79c0,0.38-0.04,0.67-0.06,0.86H465.71z M471.12,455.06
		c0.02-1.18-0.48-3-2.56-3c-1.87,0-2.69,1.72-2.83,3H471.12z"/>
	<path d="M474.95,459.24c0.54,0.36,1.51,0.73,2.44,0.73c1.34,0,1.97-0.67,1.97-1.51c0-0.88-0.52-1.36-1.89-1.87
		c-1.83-0.65-2.69-1.66-2.69-2.88c0-1.64,1.32-2.98,3.51-2.98c1.03,0,1.93,0.29,2.5,0.63l-0.46,1.34c-0.4-0.25-1.13-0.59-2.08-0.59
		c-1.09,0-1.7,0.63-1.7,1.38c0,0.84,0.61,1.22,1.93,1.72c1.76,0.67,2.67,1.55,2.67,3.06c0,1.79-1.39,3.04-3.8,3.04
		c-1.11,0-2.14-0.27-2.86-0.69L474.95,459.24z"/>
	<path d="M483.26,459.24c0.55,0.36,1.51,0.73,2.44,0.73c1.34,0,1.97-0.67,1.97-1.51c0-0.88-0.53-1.36-1.89-1.87
		c-1.83-0.65-2.69-1.66-2.69-2.88c0-1.64,1.32-2.98,3.51-2.98c1.03,0,1.93,0.29,2.5,0.63l-0.46,1.34c-0.4-0.25-1.13-0.59-2.08-0.59
		c-1.09,0-1.7,0.63-1.7,1.38c0,0.84,0.61,1.22,1.93,1.72c1.76,0.67,2.67,1.55,2.67,3.06c0,1.79-1.39,3.04-3.8,3.04
		c-1.11,0-2.14-0.27-2.86-0.69L483.26,459.24z"/>
	<path d="M493.89,448.11c0.02,0.63-0.44,1.13-1.18,1.13c-0.65,0-1.11-0.5-1.11-1.13c0-0.65,0.48-1.16,1.15-1.16
		C493.45,446.96,493.89,447.46,493.89,448.11z M491.83,461.13v-10.16h1.85v10.16H491.83z"/>
	<path d="M505.94,455.96c0,3.76-2.6,5.4-5.06,5.4c-2.75,0-4.87-2.02-4.87-5.23c0-3.4,2.23-5.4,5.04-5.4
		C503.97,450.74,505.94,452.86,505.94,455.96z M497.88,456.07c0,2.22,1.28,3.9,3.09,3.9c1.76,0,3.09-1.66,3.09-3.95
		c0-1.72-0.86-3.9-3.04-3.9S497.88,454.14,497.88,456.07z"/>
	<path d="M508.27,453.72c0-1.05-0.02-1.91-0.08-2.75h1.64l0.11,1.68h0.04c0.5-0.97,1.68-1.91,3.36-1.91c1.41,0,3.59,0.84,3.59,4.33
		v6.07h-1.85v-5.86c0-1.64-0.61-3-2.35-3c-1.22,0-2.16,0.86-2.48,1.89c-0.08,0.23-0.12,0.55-0.12,0.86v6.11h-1.85V453.72z"/>
	<path d="M519.93,453.72c0-1.05-0.02-1.91-0.08-2.75h1.64l0.1,1.68h0.04c0.5-0.97,1.68-1.91,3.36-1.91c1.41,0,3.59,0.84,3.59,4.33
		v6.07h-1.85v-5.86c0-1.64-0.61-3-2.35-3c-1.22,0-2.16,0.86-2.48,1.89c-0.08,0.23-0.13,0.55-0.13,0.86v6.11h-1.85V453.72z"/>
	<path d="M532.61,456.38c0.04,2.5,1.64,3.53,3.49,3.53c1.32,0,2.12-0.23,2.81-0.53l0.31,1.32c-0.65,0.29-1.76,0.63-3.38,0.63
		c-3.13,0-5-2.06-5-5.12s1.81-5.48,4.77-5.48c3.32,0,4.2,2.92,4.2,4.79c0,0.38-0.04,0.67-0.06,0.86H532.61z M538.03,455.06
		c0.02-1.18-0.48-3-2.56-3c-1.87,0-2.69,1.72-2.83,3H538.03z"/>
	<path d="M542.1,446.22h1.85v14.91h-1.85V446.22z"/>
	<path d="M455.7,485.95c-0.48,0.25-1.55,0.59-2.92,0.59c-3.07,0-5.06-2.08-5.06-5.19c0-3.13,2.14-5.4,5.46-5.4
		c1.09,0,2.06,0.27,2.56,0.52l-0.42,1.43c-0.44-0.25-1.13-0.48-2.14-0.48c-2.33,0-3.59,1.72-3.59,3.84c0,2.35,1.51,3.8,3.53,3.8
		c1.05,0,1.74-0.27,2.27-0.5L455.7,485.95z"/>
	<path d="M457.86,471.42h1.85v14.91h-1.85V471.42z"/>
	<path d="M468.45,486.33l-0.15-1.28h-0.06c-0.57,0.8-1.66,1.51-3.11,1.51c-2.06,0-3.11-1.45-3.11-2.92c0-2.46,2.18-3.8,6.11-3.78
		v-0.21c0-0.84-0.23-2.35-2.31-2.35c-0.95,0-1.93,0.29-2.65,0.76l-0.42-1.22c0.84-0.55,2.06-0.9,3.34-0.9
		c3.11,0,3.86,2.12,3.86,4.16v3.8c0,0.88,0.04,1.74,0.17,2.44H468.45z M468.17,481.14c-2.02-0.04-4.3,0.31-4.3,2.29
		c0,1.2,0.8,1.76,1.74,1.76c1.32,0,2.16-0.84,2.46-1.7c0.06-0.19,0.11-0.4,0.11-0.59V481.14z"/>
	<path d="M472.69,484.44c0.54,0.36,1.51,0.74,2.44,0.74c1.34,0,1.97-0.67,1.97-1.51c0-0.88-0.52-1.37-1.89-1.87
		c-1.83-0.65-2.69-1.66-2.69-2.88c0-1.64,1.32-2.98,3.51-2.98c1.03,0,1.93,0.29,2.5,0.63l-0.46,1.34c-0.4-0.25-1.13-0.59-2.08-0.59
		c-1.09,0-1.7,0.63-1.7,1.39c0,0.84,0.61,1.22,1.93,1.72c1.76,0.67,2.67,1.55,2.67,3.07c0,1.78-1.39,3.04-3.8,3.04
		c-1.11,0-2.14-0.27-2.86-0.69L472.69,484.44z"/>
	<path d="M481.01,484.44c0.54,0.36,1.51,0.74,2.44,0.74c1.34,0,1.97-0.67,1.97-1.51c0-0.88-0.52-1.37-1.89-1.87
		c-1.83-0.65-2.69-1.66-2.69-2.88c0-1.64,1.32-2.98,3.51-2.98c1.03,0,1.93,0.29,2.5,0.63l-0.46,1.34c-0.4-0.25-1.13-0.59-2.08-0.59
		c-1.09,0-1.7,0.63-1.7,1.39c0,0.84,0.61,1.22,1.93,1.72c1.76,0.67,2.67,1.55,2.67,3.07c0,1.78-1.39,3.04-3.8,3.04
		c-1.11,0-2.14-0.27-2.86-0.69L481.01,484.44z"/>
	<path d="M491.63,473.31c0.02,0.63-0.44,1.13-1.18,1.13c-0.65,0-1.11-0.5-1.11-1.13c0-0.65,0.48-1.15,1.15-1.15
		C491.19,472.16,491.63,472.66,491.63,473.31z M489.57,486.33v-10.16h1.85v10.16H489.57z"/>
	<path d="M501.42,484.76h-0.04c-0.54,1.01-1.68,1.8-3.32,1.8c-2.37,0-4.3-2.06-4.3-5.14c0-3.8,2.46-5.48,4.6-5.48
		c1.58,0,2.62,0.78,3.13,1.76h0.04l0.06-1.53h1.74c-0.04,0.86-0.06,1.74-0.06,2.79v11.53h-1.85V484.76z M501.42,480.28
		c0-0.25-0.02-0.55-0.08-0.78c-0.27-1.13-1.26-2.1-2.65-2.1c-1.91,0-3.06,1.62-3.06,3.91c0,2.02,0.96,3.78,3,3.78
		c1.2,0,2.23-0.74,2.65-2.02c0.08-0.25,0.15-0.61,0.15-0.88V480.28z"/>
	<path d="M514.81,483.56c0,1.05,0.02,1.97,0.08,2.77h-1.64l-0.11-1.66h-0.04c-0.48,0.82-1.55,1.89-3.36,1.89
		c-1.6,0-3.51-0.88-3.51-4.45v-5.94h1.85v5.63c0,1.93,0.59,3.23,2.27,3.23c1.24,0,2.1-0.86,2.44-1.68c0.1-0.27,0.17-0.61,0.17-0.94
		v-6.24h1.85V483.56z"/>
	<path d="M518.91,481.59c0.04,2.5,1.64,3.53,3.49,3.53c1.32,0,2.12-0.23,2.81-0.52l0.32,1.32c-0.65,0.29-1.76,0.63-3.38,0.63
		c-3.13,0-5-2.06-5-5.12s1.81-5.48,4.77-5.48c3.32,0,4.2,2.92,4.2,4.79c0,0.38-0.04,0.67-0.06,0.86H518.91z M524.33,480.26
		c0.02-1.18-0.48-3-2.56-3c-1.87,0-2.69,1.72-2.83,3H524.33z"/>
</g>
<g>
	<path d="M66.09,316.46v-38.1c-1.14,0.87-4.1,2.11-5.36,2.36v-2.15c2.1-0.69,5.12-2.57,6.08-3.6h1.71v41.48H66.09z"/>
	<path d="M90.39,284.75v22.43c0,7.82-3.51,9.79-7.71,9.79c-3.82,0-7.58-1.85-7.58-9.67v-22.48c0-8.4,4.22-10.04,7.77-10.04
		C86.3,274.79,90.39,276.42,90.39,284.75z M77.59,284.81v22.33c0,5.15,1.63,7.42,5.21,7.42c3.02,0,5.09-1.4,5.09-7.54v-22.14
		c0-6.01-2.31-7.66-5.15-7.66C79.85,277.21,77.59,278.6,77.59,284.81z"/>
	<path d="M110.6,284.75v22.43c0,7.82-3.51,9.79-7.71,9.79c-3.82,0-7.58-1.85-7.58-9.67v-22.48c0-8.4,4.22-10.04,7.77-10.04
		C106.51,274.79,110.6,276.42,110.6,284.75z M97.8,284.81v22.33c0,5.15,1.63,7.42,5.21,7.42c3.02,0,5.09-1.4,5.09-7.54v-22.14
		c0-6.01-2.31-7.66-5.15-7.66C100.05,277.21,97.8,278.6,97.8,284.81z"/>
	<path d="M125.71,281.02v9.07c0,2.71-0.8,6.62-5.35,6.62c-4.61,0-5.41-3.76-5.41-6.67v-8.77c0-4.33,2.05-6.48,5.48-6.48
		C123.49,274.79,125.71,276.64,125.71,281.02z M117.08,316.46l18.89-41.17h2.06l-18.89,41.17H117.08z M117.15,281.26v8.59
		c0,3.39,0.94,4.78,3.21,4.78c2.39,0,3.15-1.46,3.15-4.78v-8.65c0-2.58-0.88-4.41-3.15-4.41
		C118.09,276.79,117.15,278.25,117.15,281.26z M140.34,301.28v9.07c0,2.71-0.8,6.62-5.35,6.62c-4.8,0-5.41-3.76-5.41-6.67v-8.77
		c0-4.33,2.05-6.48,5.48-6.48C138.12,295.04,140.34,296.89,140.34,301.28z M131.78,301.52v8.59c0,3.02,0.94,4.78,3.21,4.78
		c2.39,0,3.15-1.46,3.15-4.78v-8.66c0-2.58-0.88-4.4-3.15-4.4C132.72,297.05,131.78,298.5,131.78,301.52z"/>
</g>
<g>
	<path d="M168.19,275.85v15.46h-1.68v-1.91c-0.31,0.66-0.77,1.17-1.4,1.52s-1.35,0.54-2.17,0.54c-0.92,0-1.74-0.23-2.45-0.69
		c-0.71-0.46-1.26-1.11-1.65-1.94c-0.39-0.83-0.59-1.8-0.59-2.89s0.19-2.05,0.58-2.87c0.38-0.82,0.93-1.45,1.65-1.9
		c0.71-0.45,1.53-0.67,2.46-0.67c0.83,0,1.55,0.18,2.16,0.54c0.62,0.36,1.08,0.86,1.39,1.5v-6.68H168.19z M165.67,288.99
		c0.56-0.71,0.84-1.71,0.84-3.01c0-1.29-0.28-2.29-0.84-2.99c-0.56-0.71-1.36-1.06-2.39-1.06s-1.84,0.35-2.43,1.05
		c-0.58,0.7-0.87,1.69-0.87,2.96c0,1.3,0.29,2.31,0.87,3.03c0.58,0.72,1.39,1.08,2.43,1.08S165.11,289.69,165.67,288.99z"/>
	<path d="M180.54,285.97h-7.75c0.01,1.34,0.33,2.36,0.93,3.04c0.61,0.69,1.49,1.03,2.66,1.03c1.23,0,2.37-0.41,3.4-1.24l0.57,1.24
		c-0.46,0.43-1.05,0.78-1.77,1.03c-0.72,0.25-1.46,0.38-2.22,0.38c-1.65,0-2.95-0.49-3.88-1.46c-0.94-0.97-1.41-2.31-1.41-4
		c0-1.08,0.21-2.03,0.63-2.87c0.42-0.83,1.01-1.48,1.76-1.94c0.76-0.46,1.62-0.69,2.58-0.69c1.4,0,2.5,0.46,3.3,1.38
		c0.8,0.92,1.2,2.18,1.2,3.79V285.97z M173.92,282.61c-0.55,0.53-0.91,1.28-1.06,2.25h6.15c-0.08-0.99-0.37-1.75-0.87-2.27
		c-0.5-0.52-1.19-0.78-2.07-0.78C175.19,281.82,174.47,282.08,173.92,282.61z"/>
	<path d="M196.61,280.77h1.7l-4.56,10.54h-1.62l-4.49-10.54h1.79l3.57,8.69L196.61,280.77z"/>
	<path d="M200.22,276.27h2.08v1.93h-2.08V276.27z M200.39,291.31v-10.56h1.7v10.56H200.39z"/>
	<path d="M204.94,290.09l0.57-1.26c0.57,0.45,1.15,0.77,1.74,0.97c0.59,0.2,1.25,0.29,1.97,0.29c0.8,0,1.4-0.14,1.82-0.41
		s0.62-0.67,0.62-1.19c0-0.42-0.14-0.76-0.42-1.01c-0.28-0.25-0.74-0.45-1.39-0.59l-1.78-0.42c-0.88-0.2-1.56-0.55-2.05-1.05
		s-0.72-1.11-0.72-1.81c0-0.92,0.37-1.68,1.11-2.26c0.74-0.58,1.72-0.87,2.94-0.87c0.74,0,1.44,0.12,2.1,0.36
		c0.66,0.24,1.21,0.58,1.66,1.03l-0.57,1.24c-0.99-0.83-2.06-1.24-3.19-1.24c-0.76,0-1.34,0.14-1.75,0.43
		c-0.41,0.29-0.62,0.69-0.62,1.21c0,0.43,0.13,0.78,0.39,1.03c0.26,0.25,0.68,0.45,1.25,0.59l1.78,0.44
		c0.98,0.22,1.71,0.57,2.18,1.04s0.71,1.08,0.71,1.84c0,0.91-0.37,1.64-1.11,2.18s-1.75,0.82-3.02,0.82
		C207.38,291.45,205.98,291,204.94,290.09z"/>
	<path d="M216.05,276.27h2.08v1.93h-2.08V276.27z M216.22,291.31v-10.56h1.7v10.56H216.22z"/>
	<path d="M223.69,282.09v5.78c0,0.78,0.16,1.33,0.48,1.65c0.32,0.31,0.78,0.47,1.36,0.47c0.39,0,0.77-0.06,1.13-0.19v1.45
		c-0.43,0.14-0.92,0.21-1.47,0.21c-1.01,0-1.8-0.28-2.36-0.85c-0.57-0.57-0.85-1.4-0.85-2.51v-6.01h-2.06v-1.34h2.06v-2.71l1.7-0.61
		v3.32h3.02v1.34H223.69z"/>
	<path d="M237.83,285.97h-7.75c0.01,1.34,0.33,2.36,0.93,3.04c0.61,0.69,1.49,1.03,2.66,1.03c1.23,0,2.37-0.41,3.4-1.24l0.57,1.24
		c-0.46,0.43-1.05,0.78-1.77,1.03c-0.72,0.25-1.46,0.38-2.22,0.38c-1.65,0-2.95-0.49-3.88-1.46c-0.94-0.97-1.41-2.31-1.41-4
		c0-1.08,0.21-2.03,0.63-2.87c0.42-0.83,1.01-1.48,1.76-1.94c0.76-0.46,1.62-0.69,2.58-0.69c1.4,0,2.5,0.46,3.3,1.38
		c0.8,0.92,1.2,2.18,1.2,3.79V285.97z M231.2,282.61c-0.55,0.53-0.91,1.28-1.06,2.25h6.15c-0.08-0.99-0.37-1.75-0.87-2.27
		c-0.5-0.52-1.19-0.78-2.07-0.78C232.47,281.82,231.75,282.08,231.2,282.61z"/>
	<path d="M249.46,280.74v10.56h-1.66v-1.83c-0.34,0.64-0.81,1.13-1.41,1.47c-0.6,0.34-1.28,0.5-2.04,0.5
		c-1.25,0-2.19-0.35-2.83-1.05c-0.64-0.7-0.97-1.74-0.97-3.11v-6.55h1.7v6.51c0,0.95,0.2,1.65,0.59,2.1
		c0.39,0.45,0.99,0.67,1.79,0.67c0.94,0,1.69-0.3,2.27-0.91c0.57-0.61,0.86-1.41,0.86-2.4v-5.96H249.46z"/>
	<path d="M258.83,280.62l-0.04,1.55c-0.32-0.11-0.69-0.17-1.11-0.17c-1.02,0-1.78,0.32-2.28,0.96c-0.5,0.64-0.75,1.41-0.75,2.32
		v6.03h-1.7v-7.6c0-1.09-0.06-2.08-0.17-2.96h1.62l0.17,1.95c0.27-0.71,0.69-1.26,1.28-1.64s1.26-0.57,2.02-0.57
		C258.21,280.49,258.53,280.53,258.83,280.62z"/>
	<path d="M260,290.09l0.57-1.26c0.57,0.45,1.15,0.77,1.74,0.97c0.59,0.2,1.25,0.29,1.97,0.29c0.8,0,1.4-0.14,1.82-0.41
		s0.62-0.67,0.62-1.19c0-0.42-0.14-0.76-0.42-1.01c-0.28-0.25-0.74-0.45-1.39-0.59l-1.78-0.42c-0.88-0.2-1.56-0.55-2.05-1.05
		s-0.72-1.11-0.72-1.81c0-0.92,0.37-1.68,1.11-2.26c0.74-0.58,1.72-0.87,2.94-0.87c0.74,0,1.44,0.12,2.1,0.36
		c0.66,0.24,1.21,0.58,1.66,1.03l-0.57,1.24c-0.99-0.83-2.06-1.24-3.19-1.24c-0.76,0-1.34,0.14-1.75,0.43
		c-0.41,0.29-0.62,0.69-0.62,1.21c0,0.43,0.13,0.78,0.39,1.03c0.26,0.25,0.68,0.45,1.25,0.59l1.78,0.44
		c0.98,0.22,1.71,0.57,2.18,1.04s0.71,1.08,0.71,1.84c0,0.91-0.37,1.64-1.11,2.18s-1.75,0.82-3.02,0.82
		C262.45,291.45,261.04,291,260,290.09z"/>
	<path d="M285.81,285.97h-7.75c0.01,1.34,0.33,2.36,0.93,3.04c0.61,0.69,1.49,1.03,2.66,1.03c1.23,0,2.37-0.41,3.4-1.24l0.57,1.24
		c-0.46,0.43-1.05,0.78-1.77,1.03c-0.72,0.25-1.46,0.38-2.22,0.38c-1.65,0-2.95-0.49-3.88-1.46c-0.94-0.97-1.41-2.31-1.41-4
		c0-1.08,0.21-2.03,0.63-2.87c0.42-0.83,1.01-1.48,1.76-1.94c0.76-0.46,1.62-0.69,2.58-0.69c1.4,0,2.5,0.46,3.3,1.38
		c0.8,0.92,1.2,2.18,1.2,3.79V285.97z M279.19,282.61c-0.55,0.53-0.91,1.28-1.06,2.25h6.15c-0.08-0.99-0.37-1.75-0.87-2.27
		c-0.5-0.52-1.19-0.78-2.07-0.78C280.46,281.82,279.74,282.08,279.19,282.61z"/>
	<path d="M297.68,284.67v6.64h-1.7v-6.55c0-0.98-0.2-1.7-0.59-2.15c-0.39-0.45-1.01-0.68-1.85-0.68c-0.98,0-1.76,0.3-2.35,0.9
		c-0.59,0.6-0.88,1.41-0.88,2.44v6.05h-1.7v-7.6c0-1.09-0.06-2.08-0.17-2.96h1.62l0.17,1.89c0.32-0.69,0.81-1.21,1.45-1.59
		c0.64-0.37,1.38-0.56,2.21-0.56C296.41,280.49,297.68,281.89,297.68,284.67z"/>
	<path d="M310.4,275.85v15.46h-1.68v-1.91c-0.31,0.66-0.77,1.17-1.4,1.52s-1.35,0.54-2.17,0.54c-0.92,0-1.74-0.23-2.45-0.69
		s-1.26-1.11-1.65-1.94s-0.59-1.8-0.59-2.89s0.19-2.05,0.58-2.87c0.38-0.82,0.93-1.45,1.65-1.9c0.71-0.45,1.53-0.67,2.46-0.67
		c0.83,0,1.55,0.18,2.16,0.54c0.62,0.36,1.08,0.86,1.39,1.5v-6.68H310.4z M307.88,288.99c0.56-0.71,0.84-1.71,0.84-3.01
		c0-1.29-0.28-2.29-0.84-2.99c-0.56-0.71-1.36-1.06-2.39-1.06c-1.04,0-1.84,0.35-2.43,1.05s-0.87,1.69-0.87,2.96
		c0,1.3,0.29,2.31,0.87,3.03s1.39,1.08,2.43,1.08C306.52,290.05,307.32,289.69,307.88,288.99z"/>
	<path d="M328.44,280.74v10.56h-1.66v-1.83c-0.34,0.64-0.81,1.13-1.41,1.47c-0.6,0.34-1.28,0.5-2.04,0.5
		c-1.25,0-2.19-0.35-2.83-1.05c-0.64-0.7-0.97-1.74-0.97-3.11v-6.55h1.7v6.51c0,0.95,0.2,1.65,0.59,2.1
		c0.39,0.45,0.99,0.67,1.79,0.67c0.94,0,1.69-0.3,2.27-0.91c0.57-0.61,0.86-1.41,0.86-2.4v-5.96H328.44z"/>
	<path d="M331.28,290.09l0.57-1.26c0.57,0.45,1.16,0.77,1.74,0.97c0.59,0.2,1.25,0.29,1.97,0.29c0.8,0,1.4-0.14,1.82-0.41
		c0.41-0.27,0.62-0.67,0.62-1.19c0-0.42-0.14-0.76-0.42-1.01c-0.28-0.25-0.74-0.45-1.39-0.59l-1.79-0.42
		c-0.88-0.2-1.56-0.55-2.05-1.05c-0.48-0.5-0.72-1.11-0.72-1.81c0-0.92,0.37-1.68,1.11-2.26s1.72-0.87,2.94-0.87
		c0.74,0,1.44,0.12,2.1,0.36c0.66,0.24,1.21,0.58,1.66,1.03l-0.57,1.24c-0.99-0.83-2.06-1.24-3.19-1.24c-0.76,0-1.34,0.14-1.75,0.43
		c-0.41,0.29-0.62,0.69-0.62,1.21c0,0.43,0.13,0.78,0.39,1.03c0.26,0.25,0.68,0.45,1.25,0.59l1.79,0.44
		c0.98,0.22,1.71,0.57,2.18,1.04s0.71,1.08,0.71,1.84c0,0.91-0.37,1.64-1.11,2.18c-0.74,0.55-1.75,0.82-3.02,0.82
		C333.72,291.45,332.31,291,331.28,290.09z"/>
	<path d="M351.39,285.97h-7.75c0.01,1.34,0.33,2.36,0.93,3.04c0.61,0.69,1.5,1.03,2.66,1.03c1.23,0,2.37-0.41,3.4-1.24l0.57,1.24
		c-0.46,0.43-1.05,0.78-1.77,1.03c-0.72,0.25-1.46,0.38-2.22,0.38c-1.65,0-2.95-0.49-3.88-1.46c-0.94-0.97-1.41-2.31-1.41-4
		c0-1.08,0.21-2.03,0.63-2.87c0.42-0.83,1.01-1.48,1.76-1.94s1.62-0.69,2.58-0.69c1.4,0,2.5,0.46,3.3,1.38s1.2,2.18,1.2,3.79V285.97
		z M344.77,282.61c-0.55,0.53-0.91,1.28-1.06,2.25h6.15c-0.08-0.99-0.38-1.75-0.87-2.27s-1.19-0.78-2.07-0.78
		S345.32,282.08,344.77,282.61z"/>
	<path d="M360.07,280.62l-0.04,1.55c-0.32-0.11-0.69-0.17-1.11-0.17c-1.02,0-1.78,0.32-2.28,0.96c-0.5,0.64-0.75,1.41-0.75,2.32
		v6.03h-1.7v-7.6c0-1.09-0.06-2.08-0.17-2.96h1.62l0.17,1.95c0.27-0.71,0.69-1.26,1.28-1.64s1.26-0.57,2.02-0.57
		C359.45,280.49,359.77,280.53,360.07,280.62z"/>
	<path d="M167.73,311.17h-7.75c0.01,1.34,0.33,2.36,0.93,3.04c0.61,0.69,1.49,1.03,2.66,1.03c1.23,0,2.37-0.41,3.4-1.24l0.57,1.24
		c-0.46,0.43-1.05,0.78-1.77,1.03c-0.72,0.25-1.46,0.38-2.22,0.38c-1.65,0-2.95-0.49-3.88-1.46c-0.94-0.97-1.41-2.31-1.41-4
		c0-1.08,0.21-2.03,0.63-2.87c0.42-0.83,1.01-1.48,1.76-1.94c0.76-0.46,1.62-0.69,2.58-0.69c1.4,0,2.5,0.46,3.3,1.38
		c0.8,0.92,1.2,2.18,1.2,3.79V311.17z M161.11,307.81c-0.55,0.53-0.91,1.28-1.06,2.25h6.15c-0.08-0.99-0.37-1.75-0.87-2.27
		c-0.5-0.52-1.19-0.78-2.07-0.78C162.38,307.02,161.66,307.28,161.11,307.81z"/>
	<path d="M172.73,307.29v5.78c0,0.78,0.16,1.33,0.48,1.65c0.32,0.31,0.78,0.47,1.36,0.47c0.39,0,0.77-0.06,1.13-0.19v1.45
		c-0.43,0.14-0.92,0.21-1.47,0.21c-1.01,0-1.8-0.28-2.36-0.85c-0.57-0.57-0.85-1.4-0.85-2.51v-6.01h-2.06v-1.34h2.06v-2.71l1.7-0.61
		v3.32h3.02v1.34H172.73z"/>
	<path d="M193.12,305.94v10.48c0,1.57-0.4,2.75-1.21,3.56c-0.81,0.8-1.99,1.21-3.56,1.21c-1.61,0-3-0.36-4.16-1.09l0.29-1.39
		c0.67,0.38,1.31,0.65,1.9,0.82c0.59,0.17,1.25,0.25,1.96,0.25c1.02,0,1.79-0.27,2.31-0.81s0.78-1.34,0.78-2.4v-2.5
		c-0.32,0.67-0.79,1.19-1.42,1.56c-0.62,0.37-1.36,0.56-2.22,0.56c-0.92,0-1.75-0.22-2.47-0.65c-0.72-0.43-1.28-1.05-1.67-1.85
		c-0.39-0.8-0.59-1.71-0.59-2.75s0.2-1.95,0.59-2.75c0.39-0.8,0.95-1.41,1.67-1.85c0.72-0.43,1.54-0.65,2.47-0.65
		c0.84,0,1.57,0.18,2.19,0.55c0.62,0.36,1.1,0.88,1.42,1.53v-1.83H193.12z M190.55,313.75c0.58-0.68,0.87-1.61,0.87-2.8
		s-0.29-2.12-0.87-2.8c-0.58-0.68-1.38-1.02-2.4-1.02c-1.04,0-1.85,0.34-2.45,1.02c-0.6,0.68-0.89,1.61-0.89,2.8s0.3,2.12,0.89,2.8
		c0.59,0.68,1.41,1.02,2.45,1.02C189.16,314.76,189.97,314.42,190.55,313.75z"/>
	<path d="M202.49,305.82l-0.04,1.55c-0.32-0.11-0.69-0.17-1.11-0.17c-1.02,0-1.78,0.32-2.28,0.96c-0.5,0.64-0.75,1.41-0.75,2.32
		v6.03h-1.7v-7.6c0-1.09-0.06-2.08-0.17-2.96h1.62l0.17,1.95c0.27-0.71,0.69-1.26,1.28-1.64s1.26-0.57,2.02-0.57
		C201.87,305.69,202.19,305.73,202.49,305.82z"/>
	<path d="M213.51,305.94v10.56h-1.68v-1.91c-0.31,0.66-0.77,1.17-1.4,1.52s-1.35,0.54-2.17,0.54c-0.94,0-1.76-0.22-2.47-0.67
		c-0.71-0.45-1.25-1.08-1.64-1.9c-0.39-0.82-0.58-1.77-0.58-2.87s0.2-2.05,0.59-2.89c0.39-0.83,0.94-1.48,1.65-1.94
		c0.71-0.46,1.52-0.69,2.45-0.69c0.83,0,1.55,0.18,2.16,0.55c0.62,0.36,1.08,0.88,1.41,1.53v-1.83H213.51z M210.99,314.19
		c0.56-0.71,0.84-1.71,0.84-3.01c0-1.3-0.28-2.3-0.84-3s-1.36-1.05-2.39-1.05s-1.84,0.36-2.43,1.08c-0.58,0.72-0.87,1.73-0.87,3.01
		s0.29,2.28,0.86,2.98c0.57,0.7,1.39,1.05,2.44,1.05C209.63,315.25,210.43,314.89,210.99,314.19z"/>
	<path d="M226.09,309.87v6.64h-1.7v-6.55c0-0.98-0.2-1.7-0.59-2.15c-0.39-0.45-1.01-0.68-1.85-0.68c-0.98,0-1.76,0.3-2.35,0.9
		c-0.59,0.6-0.88,1.41-0.88,2.44v6.05h-1.7v-7.6c0-1.09-0.06-2.08-0.17-2.96h1.62l0.17,1.89c0.32-0.69,0.81-1.21,1.45-1.59
		c0.64-0.37,1.38-0.56,2.21-0.56C224.82,305.69,226.09,307.09,226.09,309.87z"/>
	<path d="M238.81,301.05v15.46h-1.68v-1.91c-0.31,0.66-0.77,1.17-1.4,1.52s-1.35,0.54-2.17,0.54c-0.92,0-1.74-0.23-2.45-0.69
		c-0.71-0.46-1.26-1.11-1.65-1.94c-0.39-0.83-0.59-1.8-0.59-2.89s0.19-2.05,0.58-2.87c0.38-0.82,0.93-1.45,1.65-1.9
		c0.71-0.45,1.53-0.67,2.46-0.67c0.83,0,1.55,0.18,2.16,0.54c0.62,0.36,1.08,0.86,1.39,1.5v-6.68H238.81z M236.29,314.19
		c0.56-0.71,0.84-1.71,0.84-3.01c0-1.29-0.28-2.29-0.84-2.99c-0.56-0.71-1.36-1.06-2.39-1.06s-1.84,0.35-2.43,1.05
		c-0.58,0.7-0.87,1.69-0.87,2.96c0,1.3,0.29,2.31,0.87,3.03c0.58,0.72,1.39,1.08,2.43,1.08S235.73,314.89,236.29,314.19z"/>
	<path d="M241.67,315.29l0.57-1.26c0.57,0.45,1.15,0.77,1.74,0.97c0.59,0.2,1.25,0.29,1.97,0.29c0.8,0,1.4-0.14,1.82-0.41
		s0.62-0.67,0.62-1.19c0-0.42-0.14-0.76-0.42-1.01c-0.28-0.25-0.74-0.45-1.39-0.59l-1.78-0.42c-0.88-0.2-1.56-0.55-2.05-1.05
		s-0.72-1.11-0.72-1.81c0-0.92,0.37-1.68,1.11-2.26c0.74-0.58,1.72-0.87,2.94-0.87c0.74,0,1.44,0.12,2.1,0.36
		c0.66,0.24,1.21,0.58,1.66,1.03l-0.57,1.24c-0.99-0.83-2.06-1.24-3.19-1.24c-0.76,0-1.34,0.14-1.75,0.43
		c-0.41,0.29-0.62,0.69-0.62,1.21c0,0.43,0.13,0.78,0.39,1.03c0.26,0.25,0.68,0.45,1.25,0.59l1.78,0.44
		c0.98,0.22,1.71,0.57,2.18,1.04s0.71,1.08,0.71,1.84c0,0.91-0.37,1.64-1.11,2.18s-1.75,0.82-3.02,0.82
		C244.11,316.65,242.71,316.2,241.67,315.29z"/>
	<path d="M266.37,306.39c0.71,0.46,1.27,1.11,1.66,1.94c0.39,0.83,0.59,1.8,0.59,2.89s-0.2,2.05-0.59,2.87
		c-0.39,0.82-0.94,1.45-1.65,1.9c-0.71,0.45-1.53,0.67-2.47,0.67c-0.83,0-1.55-0.18-2.16-0.55c-0.62-0.36-1.08-0.88-1.41-1.55v6.49
		h-1.7v-12.14c0-1.09-0.06-2.08-0.17-2.96h1.62l0.17,2.04c0.29-0.73,0.76-1.29,1.4-1.69c0.64-0.4,1.39-0.6,2.26-0.6
		C264.83,305.69,265.65,305.92,266.37,306.39z M266,314.2c0.57-0.7,0.85-1.69,0.85-2.98s-0.29-2.29-0.86-3.01
		c-0.57-0.72-1.37-1.08-2.39-1.08c-1.05,0-1.86,0.35-2.42,1.05c-0.56,0.7-0.84,1.7-0.84,3c0,1.3,0.28,2.31,0.84,3.01
		c0.56,0.71,1.36,1.06,2.42,1.06C264.63,315.25,265.43,314.9,266,314.2z"/>
	<path d="M277.33,305.82l-0.04,1.55c-0.32-0.11-0.69-0.17-1.11-0.17c-1.02,0-1.78,0.32-2.28,0.96c-0.5,0.64-0.75,1.41-0.75,2.32
		v6.03h-1.7v-7.6c0-1.09-0.06-2.08-0.17-2.96h1.62l0.17,1.95c0.27-0.71,0.69-1.26,1.28-1.64s1.26-0.57,2.02-0.57
		C276.71,305.69,277.03,305.73,277.33,305.82z"/>
	<path d="M287.89,311.17h-7.75c0.01,1.34,0.33,2.36,0.93,3.04c0.61,0.69,1.49,1.03,2.66,1.03c1.23,0,2.37-0.41,3.4-1.24l0.57,1.24
		c-0.46,0.43-1.05,0.78-1.77,1.03c-0.72,0.25-1.46,0.38-2.22,0.38c-1.65,0-2.95-0.49-3.88-1.46c-0.94-0.97-1.41-2.31-1.41-4
		c0-1.08,0.21-2.03,0.63-2.87c0.42-0.83,1.01-1.48,1.76-1.94c0.76-0.46,1.62-0.69,2.58-0.69c1.4,0,2.5,0.46,3.3,1.38
		c0.8,0.92,1.2,2.18,1.2,3.79V311.17z M281.27,307.81c-0.55,0.53-0.91,1.28-1.06,2.25h6.15c-0.08-0.99-0.37-1.75-0.87-2.27
		c-0.5-0.52-1.19-0.78-2.07-0.78C282.54,307.02,281.82,307.28,281.27,307.81z"/>
	<path d="M290.03,315.29l0.57-1.26c0.57,0.45,1.15,0.77,1.74,0.97c0.59,0.2,1.25,0.29,1.97,0.29c0.8,0,1.4-0.14,1.82-0.41
		s0.62-0.67,0.62-1.19c0-0.42-0.14-0.76-0.42-1.01c-0.28-0.25-0.74-0.45-1.39-0.59l-1.78-0.42c-0.88-0.2-1.56-0.55-2.05-1.05
		s-0.72-1.11-0.72-1.81c0-0.92,0.37-1.68,1.11-2.26c0.74-0.58,1.72-0.87,2.94-0.87c0.74,0,1.44,0.12,2.1,0.36
		c0.66,0.24,1.21,0.58,1.66,1.03l-0.57,1.24c-0.99-0.83-2.06-1.24-3.19-1.24c-0.76,0-1.34,0.14-1.75,0.43
		c-0.41,0.29-0.62,0.69-0.62,1.21c0,0.43,0.13,0.78,0.39,1.03c0.26,0.25,0.68,0.45,1.25,0.59l1.78,0.44
		c0.98,0.22,1.71,0.57,2.18,1.04c0.48,0.47,0.71,1.08,0.71,1.84c0,0.91-0.37,1.64-1.11,2.18c-0.74,0.55-1.75,0.82-3.02,0.82
		C292.48,316.65,291.07,316.2,290.03,315.29z"/>
	<path d="M303.06,315.98c-0.76-0.45-1.35-1.08-1.76-1.9c-0.41-0.82-0.62-1.77-0.62-2.87s0.21-2.05,0.63-2.89
		c0.42-0.83,1.02-1.48,1.8-1.94s1.68-0.69,2.72-0.69c0.71,0,1.4,0.12,2.07,0.37s1.21,0.58,1.65,1.02l-0.57,1.26
		c-0.53-0.42-1.05-0.73-1.54-0.92c-0.5-0.2-1-0.29-1.52-0.29c-1.08,0-1.93,0.36-2.54,1.08c-0.62,0.72-0.92,1.73-0.92,3.01
		c0,1.27,0.3,2.26,0.91,2.97s1.46,1.06,2.55,1.06c0.52,0,1.03-0.1,1.52-0.29c0.5-0.2,1.01-0.5,1.54-0.92l0.57,1.26
		c-0.45,0.42-1.01,0.75-1.69,1c-0.68,0.25-1.38,0.37-2.11,0.37C304.72,316.65,303.83,316.43,303.06,315.98z"/>
	<path d="M317.79,305.82l-0.04,1.55c-0.32-0.11-0.69-0.17-1.11-0.17c-1.02,0-1.78,0.32-2.28,0.96c-0.5,0.64-0.75,1.41-0.75,2.32
		v6.03h-1.7v-7.6c0-1.09-0.06-2.08-0.17-2.96h1.62l0.17,1.95c0.27-0.71,0.69-1.26,1.28-1.64s1.26-0.57,2.02-0.57
		C317.18,305.69,317.5,305.73,317.79,305.82z"/>
	<path d="M319.56,301.47h2.08v1.93h-2.08V301.47z M319.73,316.51v-10.56h1.7v10.56H319.73z"/>
	<path d="M332.66,306.39c0.71,0.46,1.27,1.11,1.66,1.94c0.39,0.83,0.59,1.8,0.59,2.89s-0.2,2.05-0.59,2.87
		c-0.39,0.82-0.94,1.45-1.65,1.9c-0.71,0.45-1.53,0.67-2.47,0.67c-0.83,0-1.55-0.18-2.16-0.55c-0.62-0.36-1.08-0.88-1.41-1.55v6.49
		h-1.7v-12.14c0-1.09-0.06-2.08-0.17-2.96h1.62l0.17,2.04c0.29-0.73,0.76-1.29,1.4-1.69c0.64-0.4,1.39-0.6,2.26-0.6
		C331.13,305.69,331.95,305.92,332.66,306.39z M332.29,314.2c0.57-0.7,0.85-1.69,0.85-2.98s-0.29-2.29-0.86-3.01
		c-0.57-0.72-1.37-1.08-2.39-1.08c-1.05,0-1.85,0.35-2.42,1.05c-0.56,0.7-0.84,1.7-0.84,3c0,1.3,0.28,2.31,0.84,3.01
		c0.56,0.71,1.37,1.06,2.42,1.06C330.93,315.25,331.73,314.9,332.29,314.2z"/>
	<path d="M339.99,307.29v5.78c0,0.78,0.16,1.33,0.48,1.65s0.78,0.47,1.37,0.47c0.39,0,0.77-0.06,1.13-0.19v1.45
		c-0.43,0.14-0.92,0.21-1.47,0.21c-1.01,0-1.8-0.28-2.36-0.85c-0.57-0.57-0.85-1.4-0.85-2.51v-6.01h-2.06v-1.34h2.06v-2.71l1.7-0.61
		v3.32h3.02v1.34H339.99z"/>
	<path d="M354.12,311.17h-7.75c0.01,1.34,0.33,2.36,0.93,3.04c0.61,0.69,1.5,1.03,2.66,1.03c1.23,0,2.37-0.41,3.4-1.24l0.57,1.24
		c-0.46,0.43-1.05,0.78-1.77,1.03c-0.72,0.25-1.46,0.38-2.22,0.38c-1.65,0-2.95-0.49-3.88-1.46c-0.94-0.97-1.41-2.31-1.41-4
		c0-1.08,0.21-2.03,0.63-2.87c0.42-0.83,1.01-1.48,1.76-1.94s1.62-0.69,2.58-0.69c1.4,0,2.5,0.46,3.3,1.38s1.2,2.18,1.2,3.79V311.17
		z M347.5,307.81c-0.55,0.53-0.91,1.28-1.06,2.25h6.15c-0.08-0.99-0.38-1.75-0.87-2.27s-1.19-0.78-2.07-0.78
		S348.05,307.28,347.5,307.81z"/>
	<path d="M365.76,305.94v10.56h-1.66v-1.83c-0.34,0.64-0.81,1.13-1.41,1.47c-0.6,0.34-1.28,0.5-2.04,0.5
		c-1.25,0-2.19-0.35-2.83-1.05c-0.64-0.7-0.97-1.74-0.97-3.11v-6.55h1.7v6.51c0,0.95,0.2,1.65,0.59,2.1
		c0.39,0.45,0.99,0.67,1.79,0.67c0.94,0,1.69-0.3,2.27-0.91c0.57-0.61,0.86-1.41,0.86-2.4v-5.96H365.76z"/>
	<path d="M375.12,305.82l-0.04,1.55c-0.32-0.11-0.69-0.17-1.11-0.17c-1.02,0-1.78,0.32-2.28,0.96c-0.5,0.64-0.75,1.41-0.75,2.32
		v6.03h-1.7v-7.6c0-1.09-0.06-2.08-0.17-2.96h1.62l0.17,1.95c0.27-0.71,0.69-1.26,1.28-1.64s1.26-0.57,2.02-0.57
		C374.51,305.69,374.83,305.73,375.12,305.82z"/>
	<path d="M376.3,315.29l0.57-1.26c0.57,0.45,1.16,0.77,1.74,0.97c0.59,0.2,1.25,0.29,1.97,0.29c0.8,0,1.4-0.14,1.82-0.41
		c0.41-0.27,0.62-0.67,0.62-1.19c0-0.42-0.14-0.76-0.42-1.01c-0.28-0.25-0.74-0.45-1.39-0.59l-1.79-0.42
		c-0.88-0.2-1.56-0.55-2.05-1.05c-0.48-0.5-0.72-1.11-0.72-1.81c0-0.92,0.37-1.68,1.11-2.26s1.72-0.87,2.94-0.87
		c0.74,0,1.44,0.12,2.1,0.36c0.66,0.24,1.21,0.58,1.66,1.03l-0.57,1.24c-0.99-0.83-2.06-1.24-3.19-1.24c-0.76,0-1.34,0.14-1.75,0.43
		c-0.41,0.29-0.62,0.69-0.62,1.21c0,0.43,0.13,0.78,0.39,1.03c0.26,0.25,0.68,0.45,1.25,0.59l1.79,0.44
		c0.98,0.22,1.71,0.57,2.18,1.04s0.71,1.08,0.71,1.84c0,0.91-0.37,1.64-1.11,2.18c-0.74,0.55-1.75,0.82-3.02,0.82
		C378.74,316.65,377.34,316.2,376.3,315.29z"/>
</g>
</svg>
