<?xml version="1.0" encoding="utf-8"?>
<!-- Generator: Adobe Illustrator 23.0.1, SVG Export Plug-In . SVG Version: 6.00 Build 0)  -->
<svg version="1.1" id="Calque_1" xmlns="http://www.w3.org/2000/svg" xmlns:xlink="http://www.w3.org/1999/xlink" x="0px" y="0px"
	 viewBox="0 0 93 93.3" style="enable-background:new 0 0 93 93.3;" xml:space="preserve">
<style type="text/css">
	.st0{fill:none;}
	.st1{fill:#FFFFFF;stroke:#FFFFFF;stroke-width:0.5;stroke-miterlimit:10;}
	.st2{fill:#E22230;stroke:#E22431;stroke-miterlimit:10;}
</style>
<g id="Group_8" transform="translate(-1.807 -1.641)">
	<g id="Combined_shape_59">
		<path class="st0" d="M56,91.5c0,0,0-0.1,0-0.1c0,0.1,0,0.3,0,0.5c0,0,0,0,0,0v-0.1C56,91.7,56,91.6,56,91.5z M56,91.3
			c0,0,0,0.1,0,0.1L56,91.3C56,91.3,56,91.3,56,91.3z M56,91.1c0,0.1,0,0.1,0,0.2v0C56,91.2,56,91.2,56,91.1z M56,91.1
			c0-0.1,0-0.1,0-0.2C56,91,56,91.1,56,91.1z M55.9,90.4c0,0.2,0,0.4,0,0.5C55.9,90.8,55.9,90.6,55.9,90.4z M94.3,24.6
			c-0.2-0.7-0.8-1.1-1.5-1.1h-1.2c-0.2,0-0.5,0-1.2-0.2c-0.1,0-0.2-0.1-0.3-0.2c-0.3-0.2-0.7-0.6-1.2-0.6c-0.3,0-0.5,0.1-0.7,0.2
			c-0.1,0.1-0.2,0.1-0.4,0.1c-0.4,0-0.8-0.2-1.1-0.4C86.2,22,85.3,22,84.5,22h-0.8c-0.2-0.2-0.3-0.7-0.4-1.1c-0.2-0.7-0.4-1.4-1-1.6
			c-0.6-0.2-1.2-0.2-1.8-0.2h-0.3c-0.6,0-1.2,0-1.6-0.2c-0.6-0.3-1.2-0.4-1.8-0.4h-1.2c-0.6-1.1-1.1-1.6-2.3-2.2
			c-0.1,0-0.2-0.1-0.3-0.1c-0.8-0.3-1.3-0.6-1.5-0.7v-0.7c0-0.7,0-1.3-0.3-2.1c-0.2-0.7-0.4-1.2-0.9-1.2c-0.3,0-0.5,0.2-0.6,0.6
			c0,0.2-0.1,0.4-0.1,0.6c-0.1,0.3-0.2,0.7-0.3,0.9c-0.1,0.2-0.2,0.3-0.2,0.3c-0.1,0-0.1,0-0.2,0C68.7,14,68.4,14,68,14
			c-0.8,0-1-0.2-1.1-0.3c-0.2-0.2-0.3-0.6-0.3-1.4c-0.1-1.4-0.9-1.6-2.1-1.8s-1.6-0.5-2.4-1.4c-0.2-0.2-1.2-1.9-1.4-2.3
			c0-0.5-0.1-0.9-0.3-1.2C60.2,5.2,59.9,5,59.5,5s-0.8,0.2-1.2,0.4c-0.2,0.1-0.4,0.2-0.5,0.2c-0.1-0.3-0.2-1-1.1-1
			c-0.1-0.1-0.3-0.6-0.3-0.9C56.2,3,56,2.1,55.1,2.1c-0.7,0-1.3,0.1-1.8,0.2c-0.6,0.1-1.1,0.1-1.7,0.2h-0.5c-1,0-2.1,0-2.3,1.8
			c0,0.3-0.1,0.6-0.1,1c-0.1,0.8-0.3,1.6-0.2,2.4c0,0.4,0,0.7-0.1,1c-0.2,0.6-0.4,1.3,0.2,2c0.1,0.1,0.1,0.1,0.1,0.2
			c-0.1,0-0.1,0-0.2,0c-0.4,0.1-0.9,0.3-1.2,0.8c-0.1,0.3-0.2,0.5-0.3,0.5c0,0-0.1,0.1-0.2,0.1c-0.1,0.1-0.3,0.1-0.5,0.3
			c-0.7,0.4-1.8,0.9-2.8,1c-0.7,0.1-2.8,0.4-3.5,0.7s-1.2,0.5-1.4,1c-0.2,0.4-0.2,0.9-0.1,1.5v0.7c0,0.4,0,0.6-0.1,0.7
			c-0.1,0.1-0.4,0.2-0.7,0.3c-0.2,0.1-0.4,0.1-0.7,0.3c-0.3,0.1-0.6,0.2-0.9,0.2c-0.3,0-0.6-0.1-0.9-0.3c-0.5-0.4-1.3-0.5-2.2-0.6
			c-0.3,0-0.5-0.1-0.8-0.1c-0.1,0-0.3-0.1-0.4-0.1c-1.2-0.2-2-0.4-2.2-1c0-0.1-0.1-0.4-0.1-0.6c-0.2-1-0.4-1.9-1.1-1.9h-0.5
			c-0.8,0-1.3-0.1-1.6-0.4c-0.5-0.4-0.9-0.6-1.3-0.6c-0.8,0-1.2,0.9-1.3,1.6c-0.2,0.9,0.2,1.3,0.5,1.6c0.2,0.2,0.4,0.4,0.4,0.9
			c0,0.9,0.2,1.5,0.4,2.2c0.2,0.6,0.3,1.3,0.4,2.2V23c0,0.8,0,1.1,0.5,2c0.2,0.3,0.2,0.5,0.2,0.5s-0.1,0-0.2,0c-0.3,0-0.6-0.1-1-0.4
			c-0.7-0.4-1.1-0.6-1.5-0.6c-0.3,0-0.5,0.1-0.7,0.2c-0.2,0.1-0.4,0.2-0.8,0.2c-0.1,0-0.4-0.2-0.6-0.3c-0.4-0.2-0.7-0.5-1.1-0.5
			c-0.2,0-0.6,0.1-0.9,0.6C19,24.8,18.5,25,18,25c-0.3,0-0.8-0.1-1.1-0.6c-0.2-0.3-0.3-0.8-0.4-1.2c-0.1-0.6-0.2-1.3-0.9-1.6
			c-0.4-0.2-0.8-0.2-1.2-0.2h-1.7c-0.8,0-1.2,0.4-1.4,0.8c0,0.1-0.1,0.1-0.1,0.2c0,0-0.1,0.1-0.1,0.2H8.9c-0.3,0-0.6-0.1-0.8-0.3
			C7.7,22.1,7.3,22,7,22s-0.6,0.1-0.8,0.3c-0.1,0.1-0.7,0.1-1,0.1c-0.5,0-1,0-1.5,0.2c-0.8,0.3-1,0.8-1.1,1.3c0,0.1,0,0.2-0.1,0.3
			c-0.1,0.4-0.3,1,0,1.4C2.6,25.8,2.8,26,3.2,26c0.4,0.1,0.4,0.1,0.4,0.6c0,0.3,0,0.8,0.3,1.1c0,0.2,0.1,0.3,0.2,0.4
			c-0.2,0-0.6,0-0.9,0.2c-0.3,0.1-0.6,0.3-0.7,0.8c-0.1,0.8,0.8,1.4,1.6,1.7c0.1,0,0.2,0.5,0.3,0.7c0.2,0.6,0.4,1.3,1.2,1.3
			c0.2,0,0.5-0.1,0.8-0.2c0.3-0.1,0.7-0.2,1.1-0.2c0.5,0,1,0.2,1.4,0.6c0.9,0.8,2.1,1.3,3.3,1.3c0.3,0,0.3,0,0.4,0.7
			c0,0.2,0,0.4,0.1,0.5c0.1,0.3,0.4,0.5,0.7,0.5h0.3c0.9-0.3,1.4-0.4,1.8-0.5c-0.2,0.4-0.4,0.9-0.1,1.3c0.1,0.2,0.3,0.4,0.8,0.4
			c0.2,0,0.5,0,0.9-0.2c0.1,0,0.2-0.1,0.3-0.1v0.1c-0.1,0.3-0.2,0.6-0.2,1V38c0,0.5,0,1,0.3,1.4c0.3,0.3,0.8,0.5,1.6,0.5h0.4
			c-0.1,0.2-0.2,0.4-0.2,0.6s0.1,0.4,0.3,0.7c0.2,0.2,0.4,0.6,0.5,0.9c-0.2-0.1-0.5-0.2-0.8-0.2s-0.6,0.2-0.7,0.5
			c-0.2,0.4-0.1,1.1,1.7,2.9c0.6,0.6,0.8,1,1,1.5c0.1,0.4,0.3,0.8,0.6,1.3c0.8,1.3,1.6,2,2.5,2h1c0.1,0,0.1,0,0.1,0s0.2,0.2,0.1,1.4
			c0,0.4-0.1,0.7-0.1,1c-0.1,0.4-0.1,0.8-0.1,1.6c0,0.6,0,0.9-0.1,0.9c-0.2,0.1-0.4,0.3-0.5,0.8c-0.2,0.5-0.1,1,0.2,1.4
			c0.2,0.3,0.6,0.5,1,0.5c0.3,0,0.5,0.3,0.7,0.6c-0.2-0.1-0.5-0.2-0.7-0.2c-1.1,0-1.3,1.4-1.5,2.2c-0.1,0.6-0.2,1.4-0.3,2.1
			c-0.1,0.8-0.2,1.6-0.3,2.2c0,0.1-0.1,0.3-0.2,0.5c-0.3,0.6-0.5,1.3-0.2,1.8c0.1,0.1,0.3,0.4,0.8,0.4h0.1c0.3,0,0.6,0,0.7,0.1
			c-0.1,0-0.3,0.1-0.6,0.1s-0.8,0.1-1.1,0.5c-0.2,0.3-0.2,0.6-0.2,1c0,0.5,0,1.1-0.3,1.8c-0.2,0.7-0.5,1.2-0.8,1.9
			c-0.1,0.2-0.2,0.4-0.3,0.6c-0.3,0.6-0.4,1-0.6,1.5c-0.2,0.4-0.3,0.9-0.6,1.5c-0.2,0.4-0.2,0.8-0.2,1.3c0,0.4,0,0.7-0.2,1.1
			c-0.4,0.8-0.7,1.1-2.1,1.2c-0.3,0.1-0.4,0.3-0.4,0.5c0,0.2,0.2,0.4,0.5,0.5c0.1,0,0.5,0.1,0.9,0.6c0.4,0.4,0.9,0.5,1.5,0.5h0.3
			c0.1,0,0.2,0,0.2,0h0.1v0.1c-0.2,0.6-0.4,1.3-0.2,2c0.3,0.6,0.9,0.7,1.3,0.7c0.3,0,0.7,0,1,0.2c0,0,0.1,0.1,0.2,0.2
			c0.3,0.3,0.7,0.8,1.8,0.8c0.1,0,0.2,0,0.2,0h0.1c0.5,0,1.2,0.2,1.2,0.7s0.3,1.1,1.2,1.1h2c0.2,0,0.3,0,0.4,0.3
			c0.3,0.9,0.6,1.3,1.5,1.3h1.4c0.6,0,1.1,0,1.6-0.1h0.3c0.2,0,0.2,0,0.3,0.1c0.2,0.1,0.4,0.3,0.9,0.3h0.5c0.3,0,0.8-0.1,1-0.6
			C38,88.6,38,88.4,38,88c0.4,0.1,1.1,0.4,1.2,0.5c0.2,0.1,0.3,0.2,0.4,0.3c0.7,0.4,1.1,0.8,1.6,0.8h0.1c0.1,0,0.4,0.2,0.5,0.4
			c0.3,0.2,0.5,0.4,0.8,0.5c0.1,0.2,0.1,0.7,0.1,0.9v0.3c0,0.4,0.1,1.4,1.1,1.4h2.1c0.2,0,0.3,0,0.5,0.4c0,0,0,0.1,0.1,0.1
			c0.2,0.5,0.4,0.7,1.2,0.7c0.1,0,0.1,0,0.2,0c0.7,0,0.9-0.3,1.1-0.5c0.1-0.1,0.1-0.1,0.5-0.2c0.5,0,0.7,0.2,0.9,0.4
			c0.3,0.3,0.6,0.6,1.3,0.6h0.4c0.7-0.1,1-0.4,1.2-0.7c0.1-0.2,0.2-0.3,1-0.4c0.6,0,0.8-0.2,1-0.4c0,0,0,0,0.1,0h0.5l0.1-0.5
			c0-0.1,0-0.1,0-0.2c0-0.2,0-0.3,0-0.4c0,0,0,0.1,0,0.1c0,0,0,0.1,0,0.2c0,0.1,0,0.1,0,0.2c0,0,0,0.1,0,0.1h-0.1
			c-0.4,0-0.2,0.3-1.1,0.4c-0.7,0-1,0.2-1.2,0.3c0,0,0,0,0,0c-0.1,0.1-0.2,0.3-0.3,0.4c-0.1,0.1-0.3,0.3-0.7,0.3h-0.3
			c-0.5,0-0.8-0.3-1-0.5C51,93.2,50.7,93,50,93c-0.5,0-0.7,0.1-0.8,0.2l0,0c0,0-0.1,0.1-0.1,0.1c0,0,0,0,0,0
			c-0.1,0.2-0.3,0.3-0.8,0.3c-0.1,0-0.1,0-0.2,0c-0.7,0-0.7-0.3-0.8-0.6c-0.3-0.5-0.5-0.6-1-0.6c-0.3,0-0.6,0-1.1,0.1
			c-0.4,0-0.8,0.1-1,0.1c-0.4,0-0.6-0.2-0.6-0.8c0-0.1,0-0.2,0-0.2c0-0.4,0-1-0.2-1.4C43.3,90.1,43.2,90,43,90
			c-0.4,0-0.8-0.8-1.4-0.8h-0.2c-0.4,0-1-0.5-1.8-1c-0.2-0.1-1.2-0.6-1.7-0.6c-0.1,0-0.1,0-0.2,0c-0.1,0-0.1,0.1-0.1,0.1
			c0,0,0,0,0,0c0,0.5,0,0.7-0.1,0.9c0,0,0,0,0,0c0,0,0,0,0,0c-0.1,0.1-0.3,0.2-0.6,0.3h-0.4c-0.4,0-0.5-0.1-0.7-0.2
			c-0.1-0.1-0.3-0.2-0.6-0.2h-0.3c-0.8,0.1-1.6,0-2.5,0.1h-0.5c-0.6,0-0.8-0.1-1-0.9c-0.2-0.6-0.5-0.7-0.9-0.7
			c-0.3,0-0.6,0.1-1.1,0.1c-0.3,0-0.6,0.1-0.9,0.1c-0.4,0-0.7-0.1-0.7-0.6c0-0.8-1-1.2-1.7-1.2h-0.1c-0.1,0-0.1,0-0.2,0
			c-1.2,0-1.3-0.7-1.7-0.9c-0.9-0.5-1.9-0.1-2.1-0.7c0-0.1-0.1-0.3-0.1-0.4v0c0-0.7,0.5-1.6,0.4-1.8c0,0,0-0.1,0-0.1
			c-0.2-0.1-0.4-0.1-0.6-0.1h-0.6c-0.4,0-0.8,0-1.1-0.3c-0.5-0.6-1-0.8-1.2-0.8c0,0-0.1,0-0.1,0c-0.1,0,0,0,0.1,0c0.1,0,0.2,0,0.2,0
			c0,0,0.1,0,0.1,0c0.8-0.1,1.2-0.3,1.6-0.7c0,0,0.1-0.1,0.1-0.1c0.1-0.2,0.3-0.4,0.4-0.6c0.4-0.8,0.1-1.6,0.4-2.3
			c0.5-1.2,0.7-1.8,1.2-3c0.5-1.1,0.8-1.7,1.1-2.6c0.2-0.5,0.2-0.9,0.3-1.3c0,0,0,0,0,0c0-0.7,0-1.2,0.1-1.5c0-0.1,0.1-0.1,0.1-0.1
			C24,68,24.2,68,24.5,68c0.6,0,1-0.2,1.1-0.4c0,0,0,0,0,0c0.1-0.1,0.1-0.2,0.1-0.3c0-0.3-0.4-0.5-1.3-0.5h-0.1
			c-0.2,0-0.3-0.1-0.4-0.3c0,0,0,0,0,0c0,0,0-0.1,0-0.1c0-0.5,0.4-1.3,0.5-1.7c0.1-0.4,0.1-0.8,0.2-1.2c0-0.1,0-0.3,0.1-0.4
			c0.1-0.8,0.2-1.6,0.3-2.3c0,0,0-0.1,0-0.1c0-0.1,0-0.3,0.1-0.4c0.1-0.8,0.3-1.3,0.6-1.6c0,0,0,0,0.1-0.1c0.1-0.1,0.2-0.1,0.3-0.1
			c0.1,0,0.3,0,0.4,0.1c0.3,0.2,0.7,0.7,1.2,2.2c0,0.1,0.1,0.3,0.1,0.4c0,0,0,0,0,0c0.1,0.2,0.2,0.4,0.3,0.5
			c0.1,0.2,0.2,0.3,0.2,0.3c0,0,0.1,0,0.1-0.1h0c0,0,0,0,0-0.1c0-0.1,0.1-0.4,0.1-0.8c-0.1-0.9-0.4-1.6-0.7-2.1
			c-0.3-0.5-0.6-1-0.9-1.3c0,0-0.1-0.1-0.1-0.1c0,0-0.1-0.1-0.1-0.1c0,0-0.1-0.1-0.1-0.1C26.5,57.1,26.2,57,26,57c0,0-0.1,0-0.1,0
			c-0.5-0.1-0.8-0.5-0.6-1.3c0.3-0.9,0.6,0.1,0.6-1.8c0-1.2,0.1-1.3,0.2-2.5c0.1-1,0-1.5-0.2-1.7c-0.1-0.2-0.3-0.2-0.5-0.2
			c-0.3,0-0.6,0.1-1,0.1c0,0,0,0-0.1,0c-0.4,0-0.8-0.2-1.1-0.5l-0.1-0.1c-0.4-0.3-0.7-0.8-0.9-1.3c-0.8-1.4-0.6-1.9-1.6-2.9
			c-0.1-0.1-0.3-0.3-0.4-0.4c-1.4-1.5-1.5-2.2-1-2.2c0.2,0,0.5,0.1,0.8,0.3c0.1,0.1,0.2,0.1,0.2,0.1c0.5,0,0.3-1.2-0.3-1.8
			c-0.1-0.1-0.1-0.1-0.2-0.2c0,0,0,0,0,0c-0.6-0.4,0.6-1,0.6-1.3c0-0.1-0.2-0.2-0.6-0.2h-0.9c-0.5,0-0.8-0.1-1-0.2
			c-0.4-0.2-0.4-0.6-0.4-1.2c0-0.7,0.4-1.3,0.3-1.6c0-0.1-0.1-0.1-0.3-0.1c-0.2,0-0.4,0-0.7,0.1c-0.3,0.1-0.5,0.1-0.7,0.1
			c-0.2,0-0.3,0-0.4-0.1c-0.2-0.2,0-0.6,0.2-1c0.1-0.2,0.2-0.4,0.2-0.5c0-0.1-0.1-0.1-0.3-0.1c-0.4,0-1,0.1-2.3,0.6
			c-0.1,0-0.1,0-0.2,0c0,0-0.1,0-0.1,0c-0.3-0.1,0-1-0.4-1.5c-0.1-0.1-0.3-0.3-0.6-0.3c-1.1,0-2.1-0.5-3-1.2c0,0-0.1,0-0.1,0
			c-0.5-0.3-1-0.5-1.5-0.5c-0.8,0-1.5,0.4-1.9,0.4c-0.2,0-0.4-0.2-0.5-0.5C5,31.6,5,31.5,4.9,31.3c0,0,0-0.1,0-0.1
			c0-0.1,0-0.2-0.1-0.3c-0.1-0.3-0.3-0.7-0.5-0.8c-0.8-0.4-1.4-0.8-1.3-1.1c0-0.2,0.3-0.4,1.1-0.5c1.2-0.1,1.6-0.3,1.5-0.6
			c-0.1-0.2-0.4-0.3-0.8-0.3H4.7C4.1,27.7,4,27.4,4,27c0-0.2,0-0.4,0-0.6c0-0.3-0.2-0.6-0.8-0.7c-0.2,0-0.2-0.1-0.3-0.2c0,0,0,0,0,0
			c-0.2-0.4,0.1-1,0.1-1.4c0.2-1.6,2.7-0.8,3.4-1.3c0.2-0.1,0.3-0.2,0.5-0.2c0.3,0,0.6,0.2,1,0.3c0.3,0.1,0.7,0.3,1,0.3H9
			c0.8,0,1.2-0.1,1.6-0.1h0.5c0.3,0,0.4-0.3,0.6-0.5c0.2-0.3,0.4-0.5,1-0.5h1.8c0.3,0,0.6,0,1,0.2c0.8,0.3,0.4,1.6,1.1,2.6
			c0.4,0.6,1,0.8,1.5,0.8c0.7,0,1.3-0.3,1.5-0.8c0.1-0.2,0.3-0.3,0.4-0.3c0.3,0,0.6,0.2,0.9,0.4c0.3,0.2,0.6,0.4,0.9,0.4
			c0.8,0,1-0.3,1.4-0.3c0.3,0,0.6,0.1,1.3,0.5c0.4,0.3,0.9,0.4,1.2,0.4c0.4,0,0.8-0.2,0.7-0.7c0-0.2-0.1-0.4-0.2-0.6
			c-0.7-1.2-0.4-1.1-0.5-2.8C25.6,20,25,19.2,25,17.6c0-1.5-1.1-1.1-0.8-2.4c0-0.1,0-0.2,0.1-0.3c0,0,0,0,0,0
			c0.2-0.6,0.5-0.9,0.7-0.9c0.3,0,0.6,0.2,1,0.5c0.5,0.4,1.2,0.5,1.9,0.5h0.6c0.2,0,0.3,0.4,0.4,0.8c0.1,0.5,0.2,1,0.3,1.4
			c0.3,1,1.5,1.1,3,1.4c1,0.2,2.2,0.3,2.8,0.7c0.4,0.3,0.8,0.4,1.2,0.4c0.4,0,0.7-0.1,1-0.2c1.2-0.4,1.8-0.4,1.9-1.3c0,0,0,0,0,0
			c0-0.1,0-0.3,0-0.5c0-0.9-0.1-1.4,0-1.8c0.1-0.4,0.4-0.6,1.1-0.9c0.6-0.2,2.6-0.6,3.4-0.7c1.1-0.1,2.3-0.7,3-1
			c0.9-0.5,0.8-0.3,1.2-1.2c0.3-0.7,1.7-0.4,1.4-1.1c0-0.1-0.1-0.3-0.3-0.4c-0.4-0.4-0.3-0.8-0.2-1.2c0.1-0.3,0.2-0.6,0.2-0.9
			c0-0.2,0-0.4,0-0.6c0-0.4,0-0.9,0-1.4c0-0.1,0-0.2,0-0.4C49,6,49,5.7,49.1,5.5c0,0,0,0,0,0c0-0.3,0.1-0.6,0.1-0.9
			c0-0.2,0.1-0.4,0.1-0.5c0.3-0.9,1.2-0.8,2.2-0.8C52.8,3.2,53.7,3,55,3c0.5,0,0.6,0.6,0.8,1.2c0.2,0.6,0.3,1.3,0.7,1.3
			c1,0,0.4,1.1,1,1.1c0.2,0,0.5-0.1,0.9-0.4c0.4-0.2,0.7-0.4,1-0.4c0.4,0,0.7,0.3,0.7,1.3c0,0.2,1.3,2.3,1.5,2.5
			c0.9,1,1.4,1.4,2.8,1.6c1.3,0.2,1.6,0.3,1.7,1.3c0.1,1.7,0.4,2.1,1.8,2.2c0.6,0,0.9,0.1,1.1,0.1s0.4-0.1,0.6-0.6
			c0.1-0.2,0.2-0.6,0.3-0.9c0-0.1,0-0.1,0-0.2c0-0.1,0.1-0.3,0.1-0.4c0.1-0.2,0.1-0.3,0.2-0.3c0.1,0,0.2,0.2,0.4,0.9
			c0.3,1,0.2,1.7,0.3,2.7c0,0.4,1.7,1,2.1,1.1c1.2,0.5,1.5,0.9,2.2,2.1c0.1,0.1,0.2,0.2,0.4,0.2h1.2c0.5,0,1,0.1,1.6,0.3
			c0.5,0.3,1.2,0.3,1.8,0.3h0.3c0.6,0,1.1,0,1.6,0.2c0.6,0.2,0.7,2.1,1.3,2.6c0.3,0.3,2.3,0,2.9,0.5c0.3,0.3,0.9,0.5,1.4,0.5
			c0.3,0,0.5-0.1,0.7-0.2c0.1-0.1,0.3-0.1,0.4-0.1c0.5,0,1.1,0.7,1.4,0.8c0.8,0.2,1,0.2,1.3,0.2c0.2,0,0.5,0,1-0.1h0.1
			c0.9-0.2,1.3,0.3,1.3,0.9c0,0.1,0,0.3,0,0.4c0,0.2-0.1,0.4-0.2,0.6c-0.2,0.3-0.4,0.5-0.6,0.7c-1.1,0.7-1.2,0.4-1.5,1.5
			c0,0.1-0.1,0.3-0.1,0.5c-0.2,0.8-0.3,1.8-0.5,2.6c-0.1,0.2-0.1,0.4-0.2,0.6c-0.3,0.8-0.6,1.3-0.7,2c0,0.2,0,0.4,0,0.6
			c0,0.2,0,0.3,0,0.5c0,0.1,0,0.2,0,0.3c0,0.2,0,0.4,0,0.5c0,0.8-0.4,1.2-0.4,1.8c0,0.2,0,0.4,0.1,0.6c0,0.2,0.1,0.4,0.1,0.6
			c0,0.4-0.1,0.7-0.3,1c-0.1,0-0.1,0.1-0.2,0.1c-0.4,0.3-0.9,0.5-1.7,0.6H87c-0.2,0-0.4-0.1-0.6-0.1c-0.2,0-0.4,0-0.5,0.1
			c-0.1,0.1-0.1,0.1-0.2,0.3c0,0.1-0.1,0.2-0.1,0.3c0,0,0,0,0,0c-0.2,0.5-0.2,1.1-0.3,1.6c0,0,0,0.1,0,0.1c-0.1,0.4-0.1,0.7-0.3,0.9
			c-0.3,0.3-0.5,0.5-0.6,0.8c-0.1,0.2-0.3,0.3-0.4,0.4c-0.4,0.3-0.7,0.5-1.3,0.7c-0.1,0-0.1,0.1-0.2,0.1c-0.5,0.4-0.5,1.8-0.5,2.1
			c0,0,0,0,0,0c-0.7,0.5-1,0.4-1.3,0.6c0,0-0.1,0.1-0.1,0.1c-0.2,0.2-0.4,0.7-0.7,2.1c-0.3,1.3-0.8,1.3-1.3,2.5
			c-0.1,0.3-0.2,0.5-0.2,0.7c0,0.5,0.3,0.8,1,0.8c0.2,0,0.5,0,0.8-0.1c0.1,0,0.2-0.1,0.3-0.2c0.2-0.3,0.3-0.8,0.3-1.3
			c0-0.2,0-0.4,0-0.5c0-0.2,0.1-0.4,0.3-0.6c0.7-0.6,2.4-0.7,2.9-0.7H84c0.3,0,0.4,0.3,0.5,0.7c0.1,0.5,0,1-0.1,1.5
			c-0.1,0.4-0.2,0.8-0.2,0.9c0,0,0,0.1,0,0.1c-0.1,0.7,1.8,0.4,1.9,1.3c0,0.2,0,0.4-0.1,0.5c0,0.1-0.1,0.2-0.2,0.3
			c-0.2,0.3-0.5,0.4-0.8,0.6c-0.2,0.2-0.4,0.5-0.4,0.9v0.2c0.1,1.6,0.9,1.4,1.2,1.8c0.9,1.4,1.2,1.9,1.2,2.6c0,0.1,0,0.2,0,0.4
			c-0.1,0.3-0.2,0.7-0.4,0.9c-0.1,0.2-0.3,0.3-0.6,0.3c-0.9,0.1-1.9,0.1-2.4,0.5c0,0,0,0,0,0.1c-0.2,0.1-0.3,0.3-0.3,0.6
			c0,0.1,0,0.1,0,0.1c0,1.1,0.6,1.3,1.2,1.8c0.7,0.6,1.1,0.5,1.7,1c0.3,0.3,0.4,0.5,0.4,0.7c0.1,0.6-0.8,1.1-1.1,1.9
			c-0.3,0.7-0.4,1.2-0.4,1.5c0,0.1,0,0.1,0,0.2c0,0.3,0.1,0.5,0.1,0.8c0.1,0.8,2.6,1.7,3,2c0.3,0.2,0.6,0.3,0.9,0.3s0.7-0.2,0.9-0.3
			c0.3-0.1,0.5-0.3,0.8-0.3c0.3,0,0.5,0.2,0.8,0.7c0,0.1,0.1,0.2,0.1,0.3v0c0,0.3-0.1,0.5-0.4,0.8c-0.1,0.1-0.2,0.2-0.3,0.3
			c-0.1,0.1-0.2,0.2-0.3,0.2c0,0,0,0-0.1,0c-0.1,0.1-0.2,0.2-0.3,0.3c0,0,0,0-0.1,0.1c-0.1,0.1-0.2,0.2-0.3,0.3
			c-0.1,0.1-0.2,0.2-0.3,0.2c0,0,0,0,0,0c0,0,0,0-0.1,0.1c-0.4,0.4-0.9,1.1-1.4,1.7c-0.1,0.1-0.2,0.2-0.2,0.2
			c-0.3,0.3-0.5,0.5-0.9,0.6c-0.7,0.4-1.3,0.8-2,1.4c-0.2,0.2-0.4,0.4-0.5,0.6c0,0-0.1,0.1-0.1,0.1c-0.9,1-1,1.5-1.2,2.1
			c0,0,0,0.1,0,0.1c0,0,0,0,0,0c-0.4,0.5-1.9,1-2.9,1.1h-0.7c-1.5,0-3.5-0.4-3.5-0.5c-0.8-0.7-1.8-0.6-2.8-1.6c-0.5-0.5-2-0.7-2.7-1
			c-0.2-0.1-0.4-0.1-0.5-0.1c-0.3,0-0.4,0.1-0.6,0.2c-0.2,0.1-0.4,0.2-0.8,0.2h-0.4c-1.2-0.2-0.8-1.1-2.4-1.1h-0.7
			c-0.3,0-0.5-0.3-0.8-0.7c-0.3-0.3-0.7-0.7-1.3-0.7h-0.1c-0.9,0-1.4,0.3-1.8,0.7c-0.1,0.1-0.1,0.1-0.2,0.2
			c-0.2,0.2-0.4,0.5-0.6,0.7c-0.1,0.1-0.1,0.2-0.2,0.2c-0.1,0.1-0.1,0.1-0.2,0.2c-1.1,1-3.2,1.8-3.7,2.2c0,0,0,0-0.1,0.1
			c-0.3,0.4-0.4,1-0.4,1.5c0,0.2,0,0.4,0,0.5c0,0.1,0,0.2,0,0.3c0,0.2-0.1,0.3-0.1,0.5c-0.1,0.7,0,1.2,0.1,2v-0.6c0-0.5,0-0.8,0-1.2
			c0-0.1,0-0.1,0-0.2c0-0.1,0-0.3,0.1-0.5c0-0.1,0-0.2,0-0.3c0,0,0,0,0,0c0-0.1,0-0.2,0.1-0.3c0-0.5,0.1-1.1,0.4-1.4
			c0.1-0.1,0.6-0.4,1-0.6c0.9-0.5,2.1-1.1,2.8-1.8c0.2-0.2,0.4-0.4,0.6-0.6c0.6-0.6,0.9-1.1,2-1.1H63c0.4,0,0.6,0.2,0.9,0.5
			c0,0,0.1,0.1,0.1,0.2c0.3,0.3,0.6,0.7,1.1,0.7h0.7c0.6,0,0.8,0.2,1,0.4s0.6,0.6,1.3,0.7c0.2,0,0.4,0.1,0.5,0.1
			c0.5,0,0.8-0.1,1-0.3c0.2-0.1,0.2-0.1,0.3-0.1c0.1,0,0.2,0,0.3,0.1c0.3,0.1,0.6,0.2,1,0.3c0.6,0.2,1.3,0.4,1.6,0.6
			c0.6,0.6,1.3,0.8,1.8,1.1c0.4,0.2,0.8,0.3,1,0.5c0.1,0.1,0.2,0.2,1.5,0.4c0.6,0.1,1.5,0.2,2.4,0.2h0.7c0.7-0.1,3.1-0.5,3.5-1.5
			c0-0.1,0-0.1,0.1-0.2c0.2-0.5,0.3-0.9,1.1-1.7c0.9-1,1.7-1.6,2.4-2c0.9-0.5,1.5-1.2,2-1.9c0.2-0.3,0.4-0.5,0.6-0.8
			c0.3-0.3,0.5-0.5,0.8-0.7c0.8-0.7,1.7-1.5,1.2-2.4c-0.1-0.2-0.5-1-1.2-1c-0.3,0-0.7,0.2-1,0.3h-0.1c-0.3,0.1-0.5,0.2-0.7,0.2
			c-0.1,0-0.3,0-0.5-0.2c-0.1-0.1-0.4-0.2-0.8-0.4c-0.4-0.2-0.9-0.4-1.4-0.7c-0.6-0.4-0.7-0.6-0.7-0.6c0-0.1,0-0.2,0-0.2
			c-0.1-0.5-0.2-0.9,0.3-2c0.1-0.3,0.3-0.5,0.5-0.8c0.3-0.3,0.5-0.6,0.6-1c0.1-0.5-0.1-1-0.5-1.4c-0.3-0.3-0.6-0.4-0.9-0.5
			c-0.3-0.1-0.5-0.2-0.8-0.5c-0.2-0.1-0.3-0.3-0.4-0.3c-0.5-0.3-0.7-0.5-0.6-1.2c0.1-0.6,0.9-0.7,2.2-0.8H86c0.7,0,1.3-0.7,1.5-1.6
			c0.2-1.1-0.2-1.7-1.2-3.3V60c-0.2-0.2-0.4-0.3-0.6-0.4c-0.3-0.1-0.5-0.3-0.6-1.1c0-0.5,0.1-0.6,0.5-0.9c0.4-0.2,1-0.6,0.9-1.6
			c-0.1-0.8-0.9-1-1.5-1.2c-0.1,0-0.3-0.1-0.4-0.1c0.1-0.3,0.2-0.7,0.2-1.1c0.1-0.9,0-1.5-0.2-1.9c-0.2-0.3-0.4-0.5-0.7-0.5
			c0,0-0.1,0-0.2,0c0,0-2.5,0-3.4,1c-0.2,0.3-0.4,0.6-0.3,0.9c0,1-0.1,1.4-0.2,1.5c-0.2,0-0.5,0.1-0.6,0.1c-0.3,0-0.4-0.1-0.4-0.1
			c-0.1-0.1-0.1-0.3,0.1-0.7c0.2-0.4,0.4-0.7,0.5-0.9c0.3-0.4,0.6-0.8,0.7-1.7c0.2-1,0.3-1.5,0.5-1.8c0.1-0.1,0.1-0.1,0.3-0.2
			c0.3-0.1,0.6-0.2,1.1-0.5c0.2-0.2,0.2-0.4,0.2-0.5c-0.1-1.2,0.2-1.8,0.3-1.8c1.3-0.4,1.7-0.9,2.6-2.1c0.2-0.3,0.3-0.7,0.5-1.5
			c0.1-0.5,0.2-1.1,0.4-1.5c0-0.1,0-0.1,0.3-0.1h0.5c0.2,0,0.4,0.1,0.6,0.1h0.2c1.1-0.1,1.8-0.4,2.2-0.9c0.4-0.5,0.5-1.1,0.3-1.9
			c-0.1-0.5,0-0.8,0.1-1.2c0.1-0.5,0.3-1,0.2-2c-0.1-1.2,0.1-1.7,0.4-2.6c0-0.1,0.1-0.2,0.1-0.3c0.3-0.6,0.4-1.5,0.5-2.3
			c0.1-0.3,0.1-0.6,0.2-0.9c0.1-0.5,0.2-0.9,0.3-1.1c0-0.1,0.1-0.1,0.3-0.2s0.4-0.2,0.8-0.4C94.1,26.9,94.5,25.6,94.3,24.6z"/>
		<path class="st0" d="M94.7,24.5c-0.3-0.9-1-1.5-2-1.5h-1.2c-0.2,0-0.3,0-1-0.2c0,0-0.1-0.1-0.2-0.2c-0.4-0.3-0.9-0.7-1.5-0.7
			c-0.3,0-0.7,0.1-1,0.3c0,0,0,0-0.1,0c-0.3,0-0.6-0.1-0.8-0.3c-0.6-0.5-1.6-0.5-2.5-0.5h-0.5c-0.1-0.2-0.2-0.5-0.2-0.8
			c-0.2-0.8-0.5-1.7-1.3-1.9c-0.6-0.2-1.3-0.2-1.9-0.2h-0.3c-0.5,0-1.1,0-1.4-0.2c-0.6-0.3-1.3-0.4-2-0.4h-1c-0.6-1-1.1-1.6-2.4-2.2
			c-0.1,0-0.2-0.1-0.3-0.1c-0.6-0.2-1-0.4-1.2-0.5V15c0-0.7,0-1.4-0.3-2.2c-0.2-0.6-0.5-1.6-1.4-1.6c-0.3,0-0.8,0.1-1.1,0.9
			c-0.1,0.2-0.1,0.4-0.2,0.6c0,0.2-0.1,0.7-0.2,0.8c-0.2,0-0.5-0.1-0.8-0.1c-0.5,0-0.7-0.1-0.7-0.1c0-0.1-0.1-0.3-0.2-1.1
			c-0.1-1.9-1.4-2.1-2.5-2.3c-1.1-0.1-1.4-0.4-2.1-1.3c-0.2-0.3-1-1.7-1.3-2.1c0-0.6-0.2-1-0.4-1.3c-0.3-0.5-0.8-0.8-1.3-0.8
			s-1,0.2-1.4,0.5c0-0.1-0.1-0.1-0.1-0.2c-0.2-0.2-0.5-0.5-1-0.6c-0.1-0.2-0.1-0.4-0.2-0.6c-0.1-0.4-0.2-0.7-0.3-1.1
			c-0.4-0.8-1-1-1.4-1c-0.7,0-1.3,0.1-1.8,0.2C52.6,1.9,52.1,2,51.5,2H51c-0.6,0-1.1,0-1.7,0.3c-0.7,0.3-1,1-1.2,1.9
			c0,0.3-0.1,0.6-0.1,0.9c-0.1,0.8-0.3,1.7-0.2,2.5c0,0.3,0,0.5-0.1,0.8c-0.1,0.5-0.4,1.3,0.1,2c-0.4,0.1-0.8,0.4-1,0.9
			c-0.1,0.1-0.1,0.3-0.2,0.3c0,0,0,0-0.1,0c-0.1,0.1-0.3,0.2-0.6,0.3c-0.7,0.4-1.7,0.8-2.6,0.9c-0.7,0.1-2.9,0.4-3.6,0.7
			s-1.3,0.6-1.6,1.2c-0.3,0.5-0.2,1.1-0.2,1.8v1.1c-0.1,0-0.3,0.1-0.5,0.2c-0.2,0.1-0.5,0.2-0.8,0.3c-0.3,0.1-0.5,0.2-0.7,0.2
			c-0.2,0-0.4-0.1-0.6-0.2c-0.6-0.4-1.5-0.6-2.4-0.7c-0.3,0-0.5-0.1-0.8-0.1c-0.1,0-0.3,0-0.4-0.1c-0.7-0.1-1.7-0.3-1.8-0.6
			c0-0.1-0.1-0.3-0.1-0.6c-0.1-0.4-0.1-0.8-0.3-1.1c-0.3-1-0.9-1.2-1.3-1.2h-0.6c-0.6,0-1-0.1-1.2-0.3c-0.6-0.5-1.1-0.7-1.6-0.7
			s-1.5,0.3-1.8,2c-0.2,1.1,0.2,1.6,0.6,2.1C24,17,24,17.1,24,17.4c0,0.9,0.2,1.6,0.4,2.3c0.2,0.6,0.3,1.2,0.4,2.1v1.1
			c0,0.7,0,1.1,0.4,1.8c0,0,0,0-0.1,0c-0.8-0.5-1.3-0.7-1.8-0.7c-0.4,0-0.7,0.1-0.9,0.2c-0.2,0.1-0.3,0.1-0.5,0.1
			c-0.1,0-0.3-0.2-0.4-0.2c-0.4-0.3-0.9-0.5-1.4-0.5c-0.6,0-1,0.3-1.3,0.8c0,0.1-0.3,0.3-0.7,0.3c-0.3,0-0.5-0.1-0.7-0.4
			c-0.2-0.2-0.2-0.6-0.3-1c-0.1-0.6-0.3-1.5-1.2-1.9c-0.5-0.2-0.9-0.3-1.3-0.3h-1.8c-1.2,0-1.7,0.8-1.8,1H9.1
			c-0.2,0-0.5-0.1-0.7-0.2c-0.4-0.2-0.8-0.4-1.3-0.4c-0.4,0-0.8,0.1-1.1,0.4C5.7,22,5.3,22,5.1,22c-0.5,0-1.1,0-1.6,0.2
			c-0.8,0.3-1.3,0.9-1.4,1.7c0,0,0,0.2-0.1,0.3c-0.2,0.5-0.4,1.2,0,1.8c0.2,0.3,0.6,0.5,1,0.6v0.1c0,0.3,0,0.6,0.1,1
			c-0.1,0-0.2,0-0.3,0.1c-0.7,0.3-0.9,0.8-0.9,1C1.8,29.4,2,30.2,3.7,31c0,0.1,0.1,0.3,0.1,0.5c0.1,0.3,0.2,0.6,0.3,0.9
			c0.4,0.7,1,0.8,1.3,0.8c0,0,0,0,0.1,0c0.3,0,0.6-0.1,0.9-0.2c0.3-0.1,0.7-0.2,1-0.2c0.2,0,0.6,0,1.1,0.4c1,0.8,2.2,1.4,3.5,1.5
			c0,0.1,0,0.1,0,0.2c0,0.2,0,0.5,0.1,0.7c0.2,0.5,0.6,0.9,1.2,0.9c0.2,0,0.3,0,0.5-0.1c0.3-0.1,0.6-0.2,0.9-0.3
			c0,0.3,0,0.6,0.2,0.8c0.1,0.3,0.5,0.7,1.2,0.7h0.5v0.5c0,0.5,0,1.2,0.5,1.8c0.4,0.5,1.1,0.6,1.7,0.6v0.1c0,0.3,0.1,0.6,0.4,0.9
			c-0.5,0.1-0.8,0.3-1,0.8c-0.3,0.8,0.2,1.9,1.8,3.4c0.5,0.5,0.7,0.8,0.9,1.4c0.1,0.4,0.3,0.8,0.7,1.4c0.9,1.5,1.8,2.3,2.9,2.3h0.1
			c0.2,0,0.4,0,0.6-0.1h0.1v0.8c0,0.4-0.1,0.7-0.1,0.9c-0.1,0.4-0.1,0.8-0.1,1.6v0.7c-0.2,0.2-0.4,0.4-0.6,0.9
			c-0.2,0.7-0.1,1.3,0.2,1.8c0.1,0.2,0.3,0.4,0.5,0.5c-0.2,0.2-0.4,0.4-0.6,0.7c-0.2,0.4-0.3,0.9-0.5,1.6c-0.1,0.6-0.2,1.4-0.3,2.1
			c-0.1,0.8-0.2,1.5-0.3,2.2c0,0.1-0.1,0.3-0.2,0.4c-0.3,0.7-0.6,1.6-0.2,2.3c0,0.1,0.1,0.1,0.2,0.2c-0.1,0.1-0.2,0.2-0.3,0.4
			c-0.2,0.4-0.2,0.8-0.2,1.3s0,1-0.2,1.6c-0.2,0.7-0.5,1.2-0.8,1.9c-0.1,0.2-0.2,0.4-0.3,0.6c-0.3,0.6-0.4,1.1-0.6,1.5
			c-0.2,0.4-0.3,0.9-0.6,1.4c-0.2,0.5-0.3,1-0.3,1.4s0,0.6-0.2,0.9c-0.3,0.6-0.3,0.8-1.7,0.9h-0.2c-0.6,0.1-0.8,0.6-0.8,1.1
			c0,0.4,0.4,0.9,0.9,0.9c0,0,0.2,0,0.6,0.5c0.5,0.6,1.4,0.7,1.8,0.7c-0.1,0.5-0.2,1.2,0,1.8c0.4,0.9,1.3,1,1.7,1
			c0.3,0,0.5,0,0.8,0.2c0,0,0,0.1,0.1,0.1c0.3,0.3,0.8,1,2.2,1h0.3c0.4,0,0.7,0.2,0.7,0.2c0.1,1,0.7,1.6,1.7,1.6h2
			c0.3,0.9,0.6,1.6,2,1.6h1.3c0.5,0,1.1,0,1.7-0.1c0.1,0,0.1,0,0.2,0c0.3,0.2,0.6,0.4,1.2,0.4h0.6c0.3,0,1.1-0.1,1.4-0.8
			c0.1-0.1,0.1-0.3,0.1-0.4c0.2,0.1,0.4,0.2,0.5,0.2c0.1,0.1,0.3,0.2,0.4,0.3c0.7,0.5,1.2,0.9,1.9,0.9h0.1c0.1,0.1,0.2,0.2,0.3,0.2
			c0.2,0.2,0.4,0.4,0.7,0.5V92c0,0.4,0.1,0.9,0.4,1.3c0.3,0.4,0.7,0.6,1.2,0.6h2c0,0,0,0,0,0.1v0.1c0.3,0.7,0.8,1,1.7,1
			c0.1,0,0.1,0,0.2,0c0.8,0,1.2-0.3,1.5-0.6c0,0,0.1,0,0.2,0c0.3,0,0.4,0.1,0.6,0.2c0.3,0.3,0.8,0.8,1.7,0.8h0.4
			c0.9-0.1,1.3-0.5,1.5-0.9c0,0,0,0,0-0.1c0.1,0,0.2-0.1,0.6-0.1c0.6,0,0.9-0.2,1.2-0.4l0.8,0.1l0.1-1c0.1-0.7,0-1,0-1.4
			c0-0.2-0.1-0.5-0.1-0.8v-0.6c0-0.6-0.1-1.1,0.1-1.7c0-0.2,0.1-0.4,0.1-0.7c0-0.3,0.1-0.9,0.2-1.1c0.1-0.1,0.6-0.3,0.9-0.5
			c1-0.5,2.2-1.1,3-1.9c0.2-0.2,0.4-0.5,0.6-0.7c0.5-0.6,0.8-0.9,1.6-0.9c0.2,0,0.3,0,0.5,0.3c0,0,0.1,0.1,0.1,0.2
			c0.3,0.3,0.7,0.8,1.5,0.8c0,0,0.1,0,0.2,0h0.5c0.5,0,0.5,0,0.7,0.3c0.3,0.3,0.7,0.7,1.5,0.8c0.2,0,0.4,0.1,0.6,0.1
			c0.6,0,1-0.2,1.3-0.4c0,0,0,0,0.1,0h0.1c0.3,0.1,0.7,0.2,1,0.3c0.4,0.1,1.2,0.3,1.4,0.5c0.7,0.7,1.4,1,2,1.2
			c0.4,0.1,0.7,0.3,0.9,0.5c0.2,0.2,0.3,0.3,1.7,0.5c0.6,0.1,1.6,0.2,2.5,0.2h0.8c0.7-0.1,1.5-0.3,2.1-0.5c1-0.4,1.6-0.8,1.8-1.4
			c0-0.1,0-0.1,0.1-0.2c0.2-0.5,0.3-0.8,1-1.5c0.9-1,1.6-1.5,2.3-1.9c1-0.5,1.7-1.3,2.2-2c0.2-0.3,0.4-0.5,0.6-0.7
			c0.3-0.2,0.5-0.5,0.8-0.7c0.4-0.4,0.8-0.7,1.1-1.1c0.6-0.8,0.4-1.5,0.3-1.9c-0.4-0.8-1-1.3-1.7-1.3c-0.5,0-0.9,0.2-1.2,0.4h-0.1
			c-0.1,0.1-0.4,0.2-0.5,0.2s-0.1,0-0.2-0.1c-0.2-0.1-0.4-0.3-0.9-0.5c-0.4-0.2-1.5-0.7-1.8-1c0-0.1,0-0.1,0-0.2
			C86,73.2,86,73,86.4,72.1c0.1-0.2,0.3-0.4,0.4-0.6c0.3-0.3,0.6-0.7,0.7-1.2s0.1-1.2-0.7-1.9c-0.4-0.3-0.7-0.5-1-0.6
			c-0.2-0.1-0.4-0.2-0.6-0.4c-0.2-0.1-0.3-0.3-0.5-0.4s-0.3-0.2-0.4-0.3v-0.4c0,0,0.1-0.1,0.5-0.2C85.1,66,85.6,66,86,66h0.1
			c0.9-0.1,1.8-0.9,1.9-2.1c0.2-1.3-0.3-2-1.3-3.6v-0.1c-0.2-0.4-0.5-0.5-0.8-0.6c-0.1-0.1-0.2-0.1-0.2-0.1s-0.1-0.1-0.1-0.6v-0.1
			c0-0.1,0-0.2,0-0.2s0.2-0.1,0.3-0.2c0.4-0.3,1.3-0.8,1.2-2.1c-0.1-1.1-1.2-1.4-1.8-1.6c0-0.2,0.1-0.5,0.1-0.7
			c0.1-1,0.1-1.7-0.2-2.2c-0.2-0.4-0.6-0.7-1.1-0.8h-0.3c-0.1,0-1.8,0-3.1,0.6c0.2-1,0.3-1.4,0.4-1.6c0,0,0,0,0.1,0
			c0.3-0.1,0.7-0.2,1.3-0.6c0.2-0.1,0.4-0.4,0.4-0.9c0-0.8,0.1-1.2,0.1-1.3c1.3-0.5,1.8-1.1,2.7-2.2c0.3-0.4,0.4-1,0.6-1.8
			c0.1-0.4,0.2-0.8,0.3-1.2h0.3c0.2,0,0.5,0.1,0.7,0.1c0.1,0,0.1,0,0.2,0c1.2-0.1,2.1-0.5,2.6-1.1s0.6-1.4,0.4-2.3
			c-0.1-0.4,0-0.5,0.1-0.9c0.2-0.5,0.4-1.1,0.3-2.2c-0.1-1,0-1.4,0.4-2.3c0-0.1,0.1-0.2,0.1-0.3c0.3-0.7,0.4-1.6,0.6-2.5
			c0.1-0.3,0.1-0.6,0.2-0.9c0-0.3,0.1-0.7,0.2-0.9h0.1c0.2-0.1,0.5-0.2,0.8-0.4C94.5,27.2,95.1,25.7,94.7,24.5z M18.3,80.3
			C18.3,80.3,18.3,80.3,18.3,80.3C18.3,80.3,18.3,80.3,18.3,80.3C18.3,80.3,18.3,80.3,18.3,80.3C18.3,80.3,18.3,80.3,18.3,80.3
			C18.4,80.3,18.3,80.3,18.3,80.3z M56.1,92.4L56.1,92.4c-0.5,0-0.3,0.3-1.2,0.4c-0.8,0-1.1,0.2-1.3,0.4c0,0,0,0,0,0
			c-0.1,0.2-0.1,0.3-0.3,0.4c-0.1,0.1-0.3,0.2-0.6,0.2h-0.3c-0.5,0-0.8-0.3-1-0.5c-0.3-0.3-0.6-0.5-1.2-0.5l-0.2,0c0,0-0.1,0-0.1,0
			c-0.4,0-0.6,0.2-0.7,0.3l0,0c0,0-0.1,0.1-0.1,0.1c0,0,0,0,0,0c-0.1,0.1-0.3,0.2-0.7,0.2h-0.1c-0.1,0-0.2,0-0.2,0c0,0-0.1,0-0.1,0
			c-0.5-0.1-0.5-0.3-0.6-0.6c-0.3-0.5-0.5-0.6-1-0.6h-0.1c0,0,0,0,0,0h0c-0.3,0-0.5,0-0.9,0.1c0,0,0,0,0,0c-0.4,0-0.8,0.1-1,0.1
			h-0.1c-0.4,0-0.5-0.2-0.5-0.9c0-0.5,0.1-1.7-0.6-1.7c-0.4,0-0.8-0.8-1.4-0.8h-0.2c-0.4,0-1-0.5-1.8-1c-0.1,0-0.2-0.1-0.4-0.2
			c-0.1-0.1-0.3-0.1-0.5-0.2c-0.3-0.1-0.6-0.2-0.8-0.2c0,0,0,0,0,0c-0.1,0-0.2,0.1-0.2,0.1c0,0,0,0,0,0.1c0,0.6,0,0.9-0.2,1
			c-0.1,0.1-0.3,0.1-0.5,0.2h-0.4c-0.4,0-0.5-0.1-0.7-0.2c-0.1-0.1-0.3-0.2-0.6-0.2H35c-0.1,0-0.2,0-0.3,0c-0.7,0-1.4,0-2.1,0.1
			h-0.6c0,0-0.1,0-0.1,0c-0.4,0-0.6-0.2-0.8-0.9c-0.2-0.6-0.5-0.7-0.9-0.7h0c-0.3,0-0.6,0.1-1.1,0.1c0,0-0.1,0-0.2,0
			c-0.2,0-0.5,0.1-0.7,0.1h0c-0.4,0-0.7-0.1-0.7-0.6c0-0.5-0.5-0.9-1-1.1c-0.1,0-0.2-0.1-0.3-0.1c-0.2,0-0.3-0.1-0.5-0.1h-0.2
			c-0.1,0-0.1,0-0.2,0c0,0-0.1,0-0.1,0c-1-0.1-1.1-0.7-1.5-0.9c-0.4-0.2-0.9-0.3-1.2-0.3c0,0,0,0-0.1,0c-0.4,0-0.7-0.1-0.8-0.4
			c-0.3-0.8,0.6-2.2,0.3-2.3c-0.1-0.1-0.2-0.1-0.4-0.1c-0.1,0-0.2,0-0.3,0h-0.6c-0.1,0-0.1,0-0.2,0c-0.3,0-0.6-0.1-0.8-0.3
			c-0.4-0.5-0.7-0.7-1-0.8c-0.1,0-0.1-0.1-0.2-0.1c0,0,0,0,0.1,0c0.7-0.1,1.1-0.2,1.4-0.4c0.1,0,0.1-0.1,0.2-0.1c0,0,0.1,0,0.1-0.1
			c0,0,0.1-0.1,0.1-0.1c0.2-0.2,0.3-0.4,0.5-0.7c0.4-0.8,0.1-1.6,0.4-2.3c0.5-1.2,0.7-1.8,1.2-3c0.5-1.1,0.8-1.7,1.1-2.6
			c0.5-1.5,0.1-2.4,0.4-2.8c0.1-0.1,0.2-0.2,0.4-0.2c0,0,0.1,0,0.2,0c0.1,0,0.2,0,0.3,0c0.4,0,0.7-0.1,0.9-0.3c0,0,0,0,0,0
			c0.4-0.3,0.2-0.8-0.9-0.9c-0.1,0-0.2,0-0.3,0c-0.3,0-0.4-0.2-0.4-0.4c0-0.5,0.4-1.3,0.5-1.7c0.3-1.3,0.4-3.1,0.7-4.4
			c0.1-0.7,0.3-1.2,0.5-1.5c0,0,0,0,0.1-0.1c0.1-0.1,0.2-0.2,0.4-0.2h0c0.1,0,0.3,0,0.4,0.1c0.3,0.2,0.7,0.7,1.2,2.2
			c0.3,0.7,0.5,1.1,0.7,1.2c0,0,0,0,0,0c0,0,0,0,0,0h0c0.1,0,0.2-0.3,0.2-0.9c-0.1-0.9-0.4-1.6-0.7-2.1c-0.4-0.5-0.7-1-1.1-1.4
			c0,0-0.1-0.1-0.1-0.1c0,0-0.1-0.1-0.1-0.1C26.5,57.1,26.2,57,26,57c0,0-0.1,0-0.1,0c-0.5-0.1-0.8-0.5-0.6-1.3
			c0.3-0.9,0.6,0.1,0.6-1.8c0-1.2,0.1-1.3,0.2-2.5c0.1-1,0-1.5-0.2-1.7c-0.1-0.2-0.3-0.2-0.5-0.2c-0.3,0-0.6,0.1-1,0.1
			c0,0,0,0-0.1,0c-0.4,0-0.8-0.2-1.1-0.5l-0.1-0.1c-0.4-0.3-0.7-0.8-0.9-1.3c-0.8-1.4-0.6-1.9-1.6-2.9c-0.1-0.1-0.3-0.3-0.4-0.4
			c-1.4-1.5-1.5-2.2-1-2.2c0.2,0,0.5,0.1,0.8,0.3c0.1,0.1,0.2,0.1,0.2,0.1c0.5,0,0.3-1.2-0.3-1.8c-0.1-0.1-0.1-0.1-0.2-0.2
			c0,0,0,0,0,0c-0.6-0.4,0.6-1,0.6-1.3c0-0.1-0.2-0.2-0.6-0.2h-0.9c-0.5,0-0.8-0.1-1-0.2c-0.4-0.2-0.4-0.6-0.4-1.2
			c0-0.7,0.4-1.3,0.3-1.6c0-0.1-0.1-0.1-0.3-0.1c-0.2,0-0.4,0-0.7,0.1c-0.3,0.1-0.5,0.1-0.7,0.1c-0.2,0-0.3,0-0.4-0.1
			c-0.2-0.2,0-0.6,0.2-1c0.1-0.2,0.2-0.4,0.2-0.5c0-0.1-0.1-0.1-0.3-0.1c-0.4,0-1,0.1-2.3,0.6c-0.1,0-0.1,0-0.2,0c0,0-0.1,0-0.1,0
			c-0.3-0.1,0-1-0.4-1.5c-0.1-0.1-0.3-0.3-0.6-0.3c-1.1,0-2.1-0.5-3-1.2c0,0-0.1,0-0.1,0c-0.5-0.3-1-0.5-1.5-0.5
			c-0.8,0-1.5,0.4-1.9,0.4c-0.2,0-0.4-0.2-0.5-0.5C5,31.6,5,31.5,4.9,31.3c0,0,0-0.1,0-0.1c0-0.1,0-0.2-0.1-0.3
			c-0.1-0.3-0.3-0.7-0.5-0.8c-0.8-0.4-1.4-0.8-1.3-1.1c0-0.2,0.3-0.4,1.1-0.5c1.2-0.1,1.6-0.3,1.5-0.6c-0.1-0.2-0.4-0.3-0.8-0.3H4.7
			C4.1,27.7,4,27.4,4,27c0-0.2,0-0.4,0-0.6c0-0.3-0.2-0.6-0.8-0.7c-0.2,0-0.2-0.1-0.3-0.2c0,0,0,0,0,0c-0.2-0.4,0.1-1,0.1-1.4
			c0.2-1.6,2.7-0.8,3.4-1.3c0.2-0.1,0.3-0.2,0.5-0.2c0.3,0,0.6,0.2,1,0.3c0.3,0.1,0.7,0.3,1,0.3H9c0.8,0,1.2-0.1,1.6-0.1h0.5
			c0.3,0,0.4-0.3,0.6-0.5c0.2-0.3,0.4-0.5,1-0.5h1.8c0.3,0,0.6,0,1,0.2c0.8,0.3,0.4,1.6,1.1,2.6c0.4,0.6,1,0.8,1.5,0.8
			c0.7,0,1.3-0.3,1.5-0.8c0.1-0.2,0.3-0.3,0.4-0.3c0.3,0,0.6,0.2,0.9,0.4c0.3,0.2,0.6,0.4,0.9,0.4c0.8,0,1-0.3,1.4-0.3
			c0.3,0,0.6,0.1,1.3,0.5c0.4,0.3,0.9,0.4,1.2,0.4c0.4,0,0.8-0.2,0.7-0.7c0-0.2-0.1-0.4-0.2-0.6c-0.7-1.2-0.4-1.1-0.5-2.8
			C25.6,20,25,19.2,25,17.6c0-1.5-1.1-1.1-0.8-2.4c0-0.1,0-0.2,0.1-0.3c0,0,0,0,0,0c0.2-0.6,0.5-0.9,0.7-0.9c0.3,0,0.6,0.2,1,0.5
			c0.5,0.4,1.2,0.5,1.9,0.5h0.6c0.2,0,0.3,0.4,0.4,0.8c0.1,0.5,0.2,1,0.3,1.4c0.3,1,1.5,1.1,3,1.4c1,0.2,2.2,0.3,2.8,0.7
			c0.4,0.3,0.8,0.4,1.2,0.4c0.4,0,0.7-0.1,1-0.2c1.2-0.4,1.8-0.4,1.9-1.3c0,0,0,0,0,0c0-0.1,0-0.3,0-0.5c0-0.9-0.1-1.4,0-1.8
			c0.1-0.4,0.4-0.6,1.1-0.9c0.6-0.2,2.6-0.6,3.4-0.7c1.1-0.1,2.3-0.7,3-1c0.9-0.5,0.8-0.3,1.2-1.2c0.3-0.7,1.7-0.4,1.4-1.1
			c0-0.1-0.1-0.3-0.3-0.4c-0.4-0.4-0.3-0.8-0.2-1.2c0.1-0.3,0.2-0.6,0.2-0.9c0-0.2,0-0.4,0-0.6c0-0.4,0-0.9,0-1.4c0-0.1,0-0.2,0-0.4
			C49,6,49,5.7,49.1,5.5c0,0,0,0,0,0c0-0.3,0.1-0.6,0.1-0.9c0-0.2,0.1-0.4,0.1-0.5c0.3-0.9,1.2-0.8,2.2-0.8C52.8,3.2,53.7,3,55,3
			c0.5,0,0.6,0.6,0.8,1.2c0.2,0.6,0.3,1.3,0.7,1.3c1,0,0.4,1.1,1,1.1c0.2,0,0.5-0.1,0.9-0.4c0.4-0.2,0.7-0.4,1-0.4
			c0.4,0,0.7,0.3,0.7,1.3c0,0.2,1.3,2.3,1.5,2.5c0.9,1,1.4,1.4,2.8,1.6c1.3,0.2,1.6,0.3,1.7,1.3c0.1,1.7,0.4,2.1,1.8,2.2
			c0.6,0,0.9,0.1,1.1,0.1s0.4-0.1,0.6-0.6c0.1-0.2,0.2-0.6,0.3-0.9c0-0.1,0-0.1,0-0.2c0-0.1,0.1-0.3,0.1-0.4
			c0.1-0.2,0.1-0.3,0.2-0.3c0.1,0,0.2,0.2,0.4,0.9c0.3,1,0.2,1.7,0.3,2.7c0,0.4,1.7,1,2.1,1.1c1.2,0.5,1.5,0.9,2.2,2.1
			c0.1,0.1,0.2,0.2,0.4,0.2h1.2c0.5,0,1,0.1,1.6,0.3c0.5,0.3,1.2,0.3,1.8,0.3h0.3c0.6,0,1.1,0,1.6,0.2c0.6,0.2,0.7,2.1,1.3,2.6
			c0.3,0.3,2.3,0,2.9,0.5c0.3,0.3,0.9,0.5,1.4,0.5c0.3,0,0.5-0.1,0.7-0.2c0.1-0.1,0.3-0.1,0.4-0.1c0.5,0,1.1,0.7,1.4,0.8
			c0.8,0.2,1,0.2,1.3,0.2c0.2,0,0.5,0,1-0.1h0.1c1,0,1.2,0.9,1,1.7c0,0,0,0,0,0c0,0,0,0.1,0,0.1c-0.1,0.5-0.4,0.9-0.7,1.1
			c-1,0.6-1.2,0.5-1.4,1.1c0,0.1-0.1,0.3-0.1,0.5c0,0.1,0,0.1-0.1,0.2c0,0,0,0,0,0.1c0,0,0,0.1,0,0.1c-0.1,0.5-0.2,1-0.3,1.6
			c0,0.1-0.1,0.3-0.1,0.4c0,0.1,0,0.2,0,0.2c-0.1,0.4-0.2,0.7-0.3,1c-0.3,0.7-0.6,1.3-0.4,2.7c0.2,1.6-0.6,1.9-0.3,3.2
			c0.1,0.8,0,1.3-0.3,1.6c-0.1,0-0.1,0.1-0.2,0.1c-0.1,0.1-0.2,0.1-0.3,0.2c-0.3,0.1-0.7,0.2-1.1,0.3c-0.1,0-0.1,0-0.2,0h-0.7
			c0,0-0.1,0-0.1,0c-0.1,0-0.3-0.1-0.4-0.1h-0.1c-0.2,0-0.5,0.1-0.6,0.3c0,0-0.1,0.1-0.1,0.2c-0.4,0.9-0.4,2.5-0.7,2.9
			c-0.3,0.3-0.5,0.6-0.7,0.9c-0.1,0.2-0.3,0.3-0.4,0.4c-0.3,0.3-0.7,0.5-1.2,0.6c-0.1,0-0.2,0.1-0.3,0.2c-0.5,0.6-0.3,2.1-0.4,2.1
			c0,0-0.1,0-0.1,0.1c-0.7,0.5-1,0.4-1.3,0.7c0,0-0.1,0.1-0.1,0.1c-0.2,0.3-0.4,0.8-0.6,2c-0.3,1.3-0.8,1.3-1.3,2.5
			c-0.4,0.9-0.1,1.4,0.6,1.5c0,0,0.1,0,0.1,0c0.2,0,0.3,0,0.4,0c0.1,0,0.3,0,0.5-0.1c0.1,0,0.1,0,0.2-0.1c0.4-0.3,0.4-1.3,0.4-1.9
			c0-0.2,0-0.4,0.2-0.5c0.4-0.5,1.7-0.7,2.5-0.8c0.2,0,0.3,0,0.5,0h0.2c0.9,0.1,0.3,2.8,0.2,3c-0.3,0.8,1.8,0.5,1.9,1.4
			c0,0.5-0.1,0.7-0.3,0.9c-0.3,0.2-0.6,0.3-0.8,0.6c-0.2,0.2-0.3,0.5-0.3,1c0.1,1.6,0.9,1.4,1.2,1.8c1,1.6,1.3,2.1,1.2,3
			c-0.1,0.4-0.3,0.8-0.5,1c-0.1,0.1-0.3,0.2-0.5,0.2c-1,0.1-2,0.1-2.5,0.6c0,0,0,0,0,0.1c-0.1,0.1-0.2,0.3-0.2,0.5
			c-0.1,1.2,0.6,1.4,1.2,1.9c0.7,0.6,1.1,0.5,1.7,1c1.1,1-0.2,1.5-0.7,2.6c-0.6,1.4-0.4,1.8-0.3,2.5c0.1,0.8,2.6,1.7,3,2
			c0.3,0.2,0.6,0.3,0.8,0.3c0,0,0,0,0.1,0c0.3,0,0.7-0.2,0.9-0.3c0.3-0.1,0.5-0.3,0.8-0.3c0,0,0,0,0,0c0.3,0,0.5,0.2,0.8,0.7
			c0.2,0.4,0,0.8-0.4,1.2c-0.1,0.1-0.2,0.2-0.3,0.3c-0.1,0.1-0.2,0.2-0.3,0.2c0,0,0,0-0.1,0c-0.1,0.1-0.2,0.2-0.3,0.3
			c0,0,0,0-0.1,0.1c-0.1,0.1-0.2,0.2-0.3,0.3c-0.1,0.1-0.2,0.2-0.3,0.2c0,0,0,0,0,0c-0.5,0.5-0.9,1.2-1.5,1.7
			c-0.1,0.1-0.2,0.2-0.2,0.2c-0.2,0.2-0.5,0.4-0.8,0.5c-0.7,0.4-1.4,0.9-2.1,1.5c-0.2,0.2-0.4,0.4-0.5,0.6c-0.9,1-1,1.5-1.2,2.1
			c0,0.1-0.1,0.1-0.1,0.2c0,0,0,0,0,0c-0.5,0.4-1.9,0.9-2.8,1h-0.8c-0.2,0-0.3,0-0.5,0c-1.4-0.1-2.9-0.4-2.9-0.5
			c-0.8-0.7-1.8-0.6-2.8-1.6c-0.5-0.5-2-0.7-2.7-1c-0.1-0.1-0.3-0.1-0.4-0.1c0,0-0.1,0-0.1,0c-0.3,0-0.4,0.1-0.6,0.2
			c-0.2,0.1-0.4,0.2-0.8,0.2h-0.4c-1.2-0.2-0.8-1-2.2-1.1c-0.1,0-0.2,0-0.3,0h-0.6c-0.3,0-0.5-0.3-0.8-0.7c-0.2-0.2-0.6-0.6-1-0.7
			c-0.1,0-0.1,0-0.2,0c-0.1,0-0.1,0-0.2,0c-0.9,0-1.4,0.3-1.8,0.8c-0.1,0.1-0.1,0.1-0.2,0.2c-0.2,0.2-0.4,0.5-0.6,0.7
			c-0.1,0.1-0.1,0.2-0.2,0.2c-0.1,0.1-0.1,0.1-0.2,0.2c-1.2,1-3.3,1.8-3.7,2.2c0,0,0,0,0,0c-0.4,0.6-0.4,1.5-0.4,2.1c0,0,0,0,0,0
			c0,0,0,0.1,0,0.1c0,0.2-0.1,0.5-0.1,0.7c0,0.1,0,0.1,0,0.2c0,0.5,0,1,0.1,1.7C56.1,91.4,56.2,91.4,56.1,92.4z M79.7,53.5v0.4
			c-0.1,0-0.1,0-0.2,0v-0.1C79.6,53.7,79.6,53.6,79.7,53.5z"/>
		<path class="st1" d="M92.7,24c-0.6,0-0.9,0.1-1.1,0.1c-0.3,0-0.5,0-1.3-0.2c-0.4-0.1-0.9-0.8-1.4-0.8c-0.1,0-0.3,0-0.4,0.1
			c-0.2,0.1-0.4,0.2-0.7,0.2c-0.5,0-1.1-0.2-1.4-0.5c-0.6-0.5-2.6-0.2-2.9-0.5c-0.6-0.5-0.7-2.4-1.3-2.6c-0.5-0.2-1.1-0.2-1.6-0.2
			h-0.3c-0.7,0-1.3,0-1.8-0.3C77.9,19,77.4,19,76.9,19h-1.2c-0.2,0-0.4,0-0.4-0.2c-0.6-1.1-1-1.6-2.2-2.1c-0.4-0.2-2-0.7-2.1-1.1
			c-0.1-1,0-1.7-0.3-2.7c-0.2-0.6-0.3-0.9-0.4-0.9c-0.1,0-0.2,0.3-0.3,0.7c0,0.1-0.1,0.3-0.1,0.4c0,0.1,0,0.1,0,0.2
			c0,0.2-0.1,0.4-0.2,0.5c-0.3,0.5-0.4,0.6-0.6,0.6c-0.2,0-0.5-0.1-1.1-0.1c-1.5-0.1-1.8-0.5-1.8-2.2c-0.1-1-0.4-1.2-1.7-1.3
			c-1.4-0.2-1.9-0.6-2.8-1.6c-0.2-0.2-1.4-2.3-1.5-2.5c0-1-0.3-1.3-0.7-1.3c-0.3,0-0.6,0.2-1,0.4c-0.4,0.3-0.7,0.4-0.9,0.4
			c-0.6,0,0-1.1-1-1.1c-0.9,0-0.7-2.5-1.5-2.5c-1.3,0.1-2.2,0.3-3.5,0.3c-1.2,0.1-2.1-0.1-2.3,1.2c0,0,0,0.1,0,0.1
			c0,0.4-0.1,0.8-0.2,1.3c0,0,0,0,0,0C49,5.7,49,6,49,6.2c0,0.1,0,0.2,0,0.4c0,0.3,0,0.7,0,1c0,0.3,0,0.7-0.1,1
			c-0.1,0.3-0.2,0.6-0.2,0.9c0,0.3,0.1,0.5,0.3,0.8c0.4,0.5,0.4,0.7,0.2,0.8c-0.3,0.2-1.1,0.2-1.3,0.7c-0.4,0.9-0.3,0.6-1.2,1.2
			c-0.7,0.4-1.9,0.9-3,1c-0.7,0.1-2.8,0.4-3.4,0.7c-1,0.4-1.2,0.6-1.2,1.3c0,0.3,0.1,0.8,0.1,1.4c0,0.4,0,0.7-0.1,0.9c0,0,0,0,0,0
			c-0.2,0.5-0.8,0.5-1.8,0.9c-0.3,0.1-0.7,0.2-1,0.2c-0.4,0-0.8-0.1-1.2-0.4c-0.6-0.4-1.8-0.5-2.8-0.7c-1.4-0.3-2.7-0.4-3-1.4
			c-0.2-0.6-0.3-2.2-0.7-2.2H28c-0.7,0-1.4-0.1-1.9-0.5c-0.4-0.3-0.7-0.5-1-0.5c-0.4,0-0.7,0.4-0.8,1.2c0,0,0,0.1,0,0.1c0,0,0,0,0,0
			c-0.2,1.1,0.8,0.8,0.8,2.3c0,1.6,0.6,2.4,0.7,4.3c0.1,1.7-0.2,1.7,0.5,2.8c0.3,0.5,0.3,0.8,0.1,1c-0.1,0.2-0.4,0.3-0.6,0.3
			c-0.3,0-0.8-0.1-1.2-0.4c-0.6-0.4-1-0.5-1.3-0.5c-0.4,0-0.7,0.3-1.4,0.3c-0.3,0-0.6-0.2-0.9-0.4c-0.3-0.2-0.6-0.4-0.9-0.4
			c-0.2,0-0.3,0.1-0.4,0.3c-0.2,0.4-0.9,0.8-1.5,0.8c-0.5,0-1.1-0.2-1.5-0.8c-0.7-0.9-0.3-2.3-1.1-2.6C15,22,14.8,22,14.5,22h-1.8
			c-0.6,0-0.8,0.3-1,0.5c-0.2,0.3-0.3,0.5-0.6,0.5h-0.5c-0.5,0-0.9,0-1.6,0.1H8.9c-0.3,0-0.7-0.2-1-0.3c-0.4-0.1-0.7-0.3-1-0.3
			c-0.2,0-0.3,0-0.5,0.2C5.7,23.3,3.3,22.4,3,24c-0.1,0.4-0.4,1.2-0.1,1.5c0,0,0,0,0,0c0.1,0.1,0.2,0.1,0.3,0.1
			C3.9,25.7,4,26.1,4,26.4c0,0.2,0,0.4,0,0.6c0,0.3,0.1,0.6,0.7,0.6h0.1c0.5,0,0.9,0.2,0.8,0.4c-0.1,0.2-0.5,0.4-1.5,0.5
			c-0.8,0-1.2,0.3-1.1,0.6c0,0.3,0.5,0.7,1.3,1c0.3,0.1,0.4,0.5,0.5,0.9c0,0.1,0.1,0.2,0.1,0.3C5,31.4,5,31.6,5.1,31.8
			c0.1,0.2,0.3,0.3,0.5,0.3c0.4,0,1.1-0.4,1.9-0.4c0.5,0,1,0.2,1.5,0.6c0.1,0,0.1,0.1,0.2,0.1c0.9,0.8,1.9,1.2,3,1.2
			c0.2,0,0.4,0.1,0.5,0.2c0.5,0.4,0.3,1.2,0.4,1.5c0,0.1,0.1,0.1,0.2,0.1c0,0,0.1,0,0.2,0c1.3-0.4,1.9-0.6,2.3-0.6
			c0.1,0,0.1,0,0.2,0c0.3,0.1,0.1,0.3-0.1,0.6c-0.2,0.4-0.3,0.7-0.3,0.9c0,0.1,0.2,0.2,0.5,0.2c0.2,0,0.4,0,0.7-0.1
			c0.3-0.1,0.6-0.1,0.7-0.1c0.1,0,0.1,0,0.2,0c0.4,0.1-0.1,0.9-0.2,1.7c0,0.5,0,0.9,0.3,1.1c0.2,0.2,0.5,0.3,1.1,0.3h0.9
			c0.3,0,0.4,0,0.5,0c0.5,0.1-1,0.7-0.6,1.3c0,0,0,0,0,0c0,0,0.1,0.1,0.1,0.1c0,0,0.1,0,0.1,0.1c0.6,0.6,0.8,1.9,0.4,1.9
			c-0.1,0-0.1,0-0.2-0.1c-0.3-0.2-0.6-0.3-0.8-0.3c-0.5,0-0.4,0.7,0.9,2.1c0.1,0.1,0.3,0.3,0.4,0.4c1.1,1,0.9,1.6,1.7,3
			c0.2,0.3,0.5,0.8,0.8,1.2l0.1,0.1c0.3,0.3,0.7,0.6,1.2,0.6c0,0,0,0,0.1,0c0.4,0,0.7-0.1,1-0.1c0.1,0,0.3,0,0.4,0.1
			c0.3,0.2,0.5,0.7,0.3,1.8C26.1,52.6,26,52.8,26,54c0,1.9-0.3,0.9-0.6,1.8c-0.3,0.6,0,1.1,0.5,1.2c0,0,0.1,0,0.1,0
			c0.3,0,0.5,0.1,0.7,0.3c0,0,0.1,0.1,0.1,0.1c0,0,0.1,0.1,0.1,0.1c0,0,0.1,0.1,0.1,0.1c0.3,0.4,0.6,0.8,0.9,1.2
			c0.4,0.5,0.6,1.1,0.7,2.1c0.1,0.5,0,0.7-0.1,0.8c0,0,0,0-0.1,0c0,0,0,0,0,0c0,0,0,0,0,0c-0.1,0-0.2-0.1-0.2-0.2
			c-0.1-0.1-0.2-0.3-0.3-0.5c0,0,0,0,0,0c-0.1-0.1-0.1-0.3-0.1-0.5c-0.5-1.5-0.9-2-1.2-2.2c-0.2-0.1-0.3-0.1-0.3-0.1h-0.1
			c-0.5,0-0.8,0.7-1,1.8c0,0.1,0,0.3-0.1,0.5c0,0,0,0.1,0,0.1c-0.1,0.7-0.2,1.5-0.3,2.3c0,0.1,0,0.3-0.1,0.4
			c-0.1,0.4-0.1,0.8-0.2,1.1c-0.1,0.4-0.7,1.5-0.5,1.9c0,0,0,0,0,0c0.1,0.1,0.2,0.2,0.4,0.2h0.1c0.1,0,0.2,0,0.3,0
			c0.7,0.1,1,0.3,1,0.6c0,0.3-0.4,0.5-0.9,0.6c-0.1,0-0.2,0-0.3,0c-0.1,0-0.1,0-0.2,0c-0.3,0-0.5,0.2-0.6,0.4
			c-0.1,0.3,0,0.8-0.1,1.5c0,0,0,0,0,0c0,0.3-0.1,0.7-0.3,1.2c-0.3,0.9-0.6,1.5-1.1,2.6c-0.5,1.2-0.7,1.8-1.2,3
			c-0.3,0.7-0.1,1.5-0.4,2.3c-0.2,0.4-0.4,0.7-0.6,0.9c-0.1,0.1-0.1,0.1-0.2,0.1c-0.3,0.2-0.8,0.4-1.4,0.4c0,0,0,0-0.1,0
			c0,0,0,0,0,0h-0.1c0,0,0,0,0,0c0,0,0.1,0,0.2,0c0.2,0.1,0.6,0.3,1,0.8c0.2,0.3,0.5,0.3,0.9,0.3c0.1,0,0.1,0,0.2,0h0.6
			c0.1,0,0.2,0,0.3,0c0.1,0,0.2,0,0.3,0.1c0,0,0.1,0.1,0,0.2c0,0.4-0.4,1.2-0.4,1.8v0c0,0.1,0,0.2,0.1,0.3c0.2,0.3,0.5,0.4,0.9,0.4
			c0,0,0,0,0.1,0c0.3,0,0.7,0.1,1.1,0.3c0.4,0.2,0.5,0.8,1.6,0.9c0,0,0.1,0,0.1,0c0.1,0,0.1,0,0.2,0h0.1c0.2,0,0.4,0,0.6,0.1
			c0.1,0,0.2,0,0.3,0.1c0.5,0.2,0.9,0.5,0.9,1.1c0,0.5,0.3,0.6,0.7,0.6h0.1c0.2,0,0.5,0,0.7-0.1c0,0,0,0,0.1,0
			c0.4,0,0.8-0.1,1.1-0.1h0.1c0.4,0,0.7,0.1,0.8,0.7c0.3,0.8,0.4,0.9,0.9,0.9c0,0,0.1,0,0.1,0h0.6c0.8,0,1.4,0,2.1-0.1
			c0.1,0,0.2,0,0.3,0h0.3c0.3,0,0.5,0.1,0.6,0.2c0.1,0.1,0.3,0.2,0.7,0.2h0.4c0.3,0,0.5-0.1,0.6-0.2c0,0,0,0,0,0
			c0.2-0.2,0.1-0.4,0.1-0.9c0,0,0-0.1,0-0.1c0-0.2,0.1-0.2,0.3-0.2c0,0,0,0,0.1,0c0.2,0,0.6,0.1,0.9,0.2c0.2,0.1,0.3,0.1,0.5,0.2
			s0.2,0.1,0.3,0.2c0.8,0.5,1.3,1,1.8,1c0,0,0,0,0.1,0h0.1c0.6,0,1,0.8,1.4,0.8c0.2,0,0.3,0.1,0.4,0.3c0.2,0.4,0.1,1,0.2,1.4
			c0,0.1,0,0.2,0,0.2c0,0.5,0.2,0.7,0.6,0.7h0c0.2,0,0.6-0.1,1-0.1c0,0,0.1,0,0.1,0c0.4,0,0.7-0.1,0.9-0.1h0c0,0,0,0,0,0
			c0.4,0,0.7,0.1,1,0.6c0.2,0.3,0.1,0.6,0.7,0.6c0,0,0.1,0,0.1,0c0,0,0.1,0,0.2,0h0.1c0.9,0,0.5-0.6,1.5-0.6c0,0,0.1,0,0.1,0l0.2,0
			c0.5,0.1,0.8,0.3,1.1,0.5c0.3,0.3,0.5,0.5,1,0.5h0.3c1.3-0.2,0.4-1,2.2-1.1c0.9-0.1,0.6-0.4,1.1-0.4H56c0-0.1,0-0.1,0-0.2
			c0-0.1,0-0.1,0-0.2c0,0,0-0.1,0-0.1c0,0,0-0.1,0-0.1c0-0.1,0-0.2,0-0.3c0-0.1,0-0.1,0-0.2c0,0,0,0,0-0.1c0-0.2-0.1-0.5-0.1-1
			c0-0.8-0.1-1.3-0.1-1.9c0-0.2,0-0.4,0.1-0.6c0-0.1,0-0.1,0-0.2c0-0.2,0-0.3,0-0.5c0-0.5,0.1-1.2,0.4-1.6c0.4-0.4,2.8-1.3,3.9-2.4
			c0.9-0.9,1.2-1.8,2.9-1.9h0.1c0.1,0,0.2,0,0.2,0c0.1,0,0.1,0,0.2,0c0.4,0.1,0.7,0.3,0.9,0.7c0.3,0.3,0.5,0.7,0.8,0.7h0.7
			c0.1,0,0.2,0,0.3,0c1.2,0.1,1,0.8,2.1,1.1h0.4c0.4,0,0.6-0.1,0.8-0.2s0.4-0.2,0.6-0.2h0.1c0,0,0.1,0,0.1,0c0.1,0,0.2,0,0.3,0.1
			c0.8,0.3,2.2,0.5,2.7,1c1,1,2,0.9,2.8,1.6c0.1,0.1,1.6,0.4,3,0.5c0.2,0,0.3,0,0.5,0h0.7c1.1-0.1,2.9-0.7,3-1.2
			c0.2-0.6,0.3-1.1,1.2-2.1c0.8-0.9,1.6-1.6,2.6-2.1c1.2-0.6,1.8-1.8,2.5-2.5c0.9-0.9,1.9-1.5,2-2.2v0c0-0.1,0-0.3-0.1-0.4
			c-0.3-0.5-0.5-0.7-0.7-0.7c0,0,0,0-0.1,0c-0.3,0-0.5,0.2-0.8,0.3c-0.3,0.1-0.6,0.3-0.9,0.3c0,0,0,0,0,0c-0.3,0-0.5-0.1-0.9-0.3
			c-0.3-0.3-2.9-1.1-3-2c0-0.2-0.1-0.4-0.1-0.7c0-0.1,0-0.1,0-0.2c0-0.4,0.1-0.9,0.4-1.7c0.4-0.7,1.1-1.2,1.1-1.8
			c0-0.3-0.1-0.5-0.4-0.8c-0.6-0.5-1-0.4-1.7-1c-0.5-0.5-1.2-0.7-1.2-1.7c0,0,0-0.1,0-0.1c0,0,0-0.1,0-0.1c0.1-1.1,1.5-1.2,2.7-1.2
			c0.5,0,0.9-0.6,1-1.2c0-0.1,0-0.2,0-0.3c0-0.8-0.3-1.3-1.2-2.7c-0.3-0.4-1.1-0.2-1.2-1.8v-0.1c0-1.3,1-1.1,1.3-1.8
			c0.1-0.1,0.1-0.4,0.1-0.6c-0.1-0.8-1.8-0.6-1.9-1.2c0-0.1,0-0.1,0-0.2c0,0,0.1-0.3,0.2-0.8c0.1-0.5,0.1-1,0.1-1.5
			c0-0.4-0.2-0.7-0.5-0.8h-0.1c-0.1,0-0.3,0-0.5,0c-1,0.1-2.8,0.3-2.8,1.3v0c0,0.2,0,0.4,0,0.5c0,0.6-0.1,1.3-0.6,1.4
			c-0.1,0-0.3,0.1-0.4,0.1s-0.3,0-0.4,0c0,0-0.1,0-0.1,0c-0.5,0-0.8-0.3-0.8-0.7c0-0.2,0-0.5,0.2-0.8c0.5-1.2,1-1.2,1.3-2.5
			c0.6-3.1,0.9-1.8,2.1-2.8c0,0-0.2-2.1,0.7-2.3c1.1-0.4,1.4-0.8,2.4-1.9c0.1-0.1,0.2-0.4,0.3-0.8c0,0,0-0.1,0-0.1
			c0.1-0.5,0.2-1.1,0.3-1.6c0,0,0,0,0,0c0-0.1,0.1-0.3,0.1-0.4c0.1-0.3,0.4-0.4,0.7-0.4h0.1c0.1,0,0.3,0,0.4,0.1c0,0,0,0,0,0h0.7
			c0.1,0,0.2,0,0.3,0c0.5,0,0.8-0.1,1.1-0.3c0.5-0.3,0.8-0.7,0.8-1.3c0-0.2,0-0.4-0.1-0.7c0-0.2-0.1-0.4-0.1-0.5
			c0-0.7,0.3-1,0.4-1.8c0-0.2,0-0.3,0-0.5c0-0.1,0-0.2,0-0.4c0-0.2,0-0.3,0-0.5c0-0.2,0-0.4,0-0.6c0-0.8,0.3-1.3,0.7-2.1
			c0.1-0.2,0.2-0.4,0.3-0.7c0-0.1,0.1-0.3,0.1-0.4c0.1-0.6,0.2-1.2,0.3-1.7c0,0,0,0,0-0.1c0-0.1,0-0.2,0.1-0.3
			c0.3-1.8,0.3-1.2,1.6-2c0.3-0.1,0.5-0.4,0.6-0.6c0,0,0,0,0,0c0.1-0.2,0.1-0.3,0.2-0.5c0-0.1,0-0.3,0-0.4
			C93.9,24.6,93.6,24,92.7,24z M18.2,80.3C18.2,80.3,18.2,80.3,18.2,80.3C18.2,80.3,18.1,80.3,18.2,80.3z"/>
	</g>
	<polygon class="st2" points="64.8,27 69.3,31.4 68.3,32.4 62.8,27 68.3,21.6 69.3,22.6 	"/>
	<polygon class="st2" points="47,27 41.6,32.4 40.6,31.4 45,27 40.6,22.6 41.6,21.6 	"/>
	<polygon class="st2" points="60.4,40.2 59.4,41.2 55,36.8 50.6,41.2 49.6,40.2 55,34.8 	"/>
	<polygon class="st2" points="60.4,13.8 55,19.2 49.6,13.8 50.6,12.8 55,17.2 59.4,12.8 	"/>
	<path class="st2" d="M58.1,27c0,1.7-1.4,3-3,3c-1.7,0-3-1.4-3-3s1.4-3,3-3C56.7,24,58.1,25.3,58.1,27z"/>
</g>
</svg>
