<?xml version="1.0" encoding="utf-8"?>
<!-- Generator: Adobe Illustrator 23.0.1, SVG Export Plug-In . SVG Version: 6.00 Build 0)  -->
<svg version="1.1" id="Calque_1" xmlns="http://www.w3.org/2000/svg" xmlns:xlink="http://www.w3.org/1999/xlink" x="0px" y="0px"
	 viewBox="0 0 93 93.3" style="enable-background:new 0 0 93 93.3;" xml:space="preserve">
<style type="text/css">
	.st0{stroke:#073C53;stroke-width:0.5;stroke-miterlimit:10;}
	.st1{fill:none;}
	.st2{fill:#FFFFFF;stroke:#FFFFFF;stroke-width:0.5;stroke-miterlimit:10;}
	.st3{fill:#E22230;stroke:#E22431;stroke-miterlimit:10;}
</style>
<g id="Group_8" transform="translate(-1.807 -1.641)">
	<g id="Combined_shape_59">
		<polygon class="st0" points="47,27 41.6,32.4 40.6,31.4 45,27 40.6,22.6 41.6,21.6 		"/>
		<polygon class="st0" points="60.2,40.2 59.2,41.2 54.8,36.8 50.3,41.2 49.3,40.2 54.8,34.8 		"/>
		<polygon class="st0" points="60.2,13.8 54.8,19.2 49.3,13.8 50.3,12.8 54.8,17.2 59.2,12.8 		"/>
		
			<rect x="51.2" y="23.2" transform="matrix(0.7078 -0.7065 0.7065 0.7078 -3.0018 46.7456)" class="st1" width="7.7" height="7.7"/>
		<polygon class="st0" points="64.6,27 69,31.4 68,32.4 62.6,27 68,21.6 69,22.6 		"/>
		<path class="st1" d="M94.3,24.6c-0.2-0.7-0.8-1.1-1.5-1.1h-0.1c-0.2,0-0.4,0-0.6,0c-0.2,0-0.3,0-0.5,0c-0.2,0-0.5,0-1.2-0.2
			c-0.1,0-0.2-0.1-0.3-0.2c-0.3-0.2-0.7-0.6-1.2-0.6c-0.3,0-0.5,0.1-0.7,0.2c-0.1,0.1-0.2,0.1-0.4,0.1c-0.4,0-0.8-0.2-1.1-0.4
			c-0.5-0.4-1.4-0.4-2.2-0.4c-0.3,0-0.6,0-0.8,0c-0.2-0.2-0.3-0.7-0.4-1.1c-0.2-0.7-0.4-1.4-1-1.6c-0.6-0.2-1.2-0.2-1.8-0.2h-0.3
			c-0.6,0-1.2,0-1.6-0.2c-0.6-0.3-1.2-0.4-1.8-0.4c-0.3,0-0.5,0-0.7,0h-0.1c-0.2,0-0.3,0-0.4,0h0c-0.6-1.1-1.1-1.6-2.3-2.2
			c-0.1,0-0.2-0.1-0.3-0.1c-0.8-0.3-1.3-0.6-1.5-0.7c0-0.2,0-0.5,0-0.7c0-0.7,0-1.3-0.3-2.1c-0.2-0.7-0.4-1.2-0.9-1.2
			c-0.3,0-0.5,0.2-0.6,0.6c0,0.2-0.1,0.4-0.1,0.6c-0.1,0.3-0.2,0.7-0.3,0.9c-0.1,0.2-0.2,0.3-0.2,0.3c-0.1,0-0.1,0-0.2,0
			C68.7,14,68.4,14,68,14c-0.8,0-1-0.2-1.1-0.3c-0.2-0.2-0.3-0.6-0.3-1.4c-0.1-1.4-0.9-1.6-2.1-1.8c-1.2-0.2-1.6-0.5-2.4-1.4
			c-0.2-0.2-1.2-1.9-1.4-2.3c0-0.5-0.1-0.9-0.3-1.2C60.2,5.2,59.9,5,59.5,5c-0.4,0-0.8,0.2-1.2,0.4c-0.2,0.1-0.4,0.2-0.5,0.2
			c-0.1-0.3-0.2-1-1.1-1c-0.1-0.1-0.3-0.6-0.3-0.9c-0.2-0.7-0.4-1.6-1.3-1.6h0c-0.7,0-1.3,0.1-1.8,0.2c-0.6,0.1-1.1,0.1-1.7,0.2
			c-0.1,0-0.3,0-0.5,0c-1,0-2.1,0-2.3,1.8c0,0.3-0.1,0.6-0.1,1c-0.1,0.8-0.3,1.6-0.2,2.4c0,0.4,0,0.7-0.1,1c-0.2,0.6-0.4,1.3,0.2,2
			c0.1,0.1,0.1,0.1,0.1,0.2c-0.1,0-0.1,0-0.2,0c-0.4,0.1-0.9,0.3-1.2,0.8c-0.1,0.3-0.2,0.5-0.3,0.5c0,0-0.1,0.1-0.2,0.1
			c-0.1,0.1-0.3,0.1-0.5,0.3c-0.7,0.4-1.8,0.9-2.8,1c-0.7,0.1-2.8,0.4-3.5,0.7c-0.7,0.3-1.2,0.5-1.4,1c-0.2,0.4-0.2,0.9-0.1,1.5
			c0,0.2,0,0.4,0,0.7c0,0.4,0,0.6-0.1,0.7c-0.1,0.1-0.4,0.2-0.7,0.3c-0.2,0.1-0.4,0.1-0.7,0.3c-0.3,0.1-0.6,0.2-0.9,0.2
			c-0.3,0-0.6-0.1-0.9-0.3c-0.5-0.4-1.3-0.5-2.2-0.6c-0.3,0-0.5-0.1-0.8-0.1c-0.1,0-0.3-0.1-0.4-0.1c-1.2-0.2-2-0.4-2.2-1
			c0-0.1-0.1-0.4-0.1-0.6c-0.2-1-0.4-1.9-1.1-1.9h0c-0.2,0-0.4,0-0.5,0c-0.8,0-1.3-0.1-1.6-0.4c-0.5-0.4-0.9-0.6-1.3-0.6
			c-0.8,0-1.2,0.9-1.3,1.6c-0.2,0.9,0.2,1.3,0.5,1.6c0.2,0.2,0.4,0.4,0.4,0.9c0,0.9,0.2,1.5,0.4,2.2c0.2,0.6,0.3,1.3,0.4,2.2
			c0,0.5,0,0.8,0,1.1c0,0.8,0,1.1,0.5,2c0.2,0.3,0.2,0.5,0.2,0.5c0,0-0.1,0-0.2,0c-0.3,0-0.6-0.1-1-0.4c-0.7-0.4-1.1-0.6-1.5-0.6
			c-0.3,0-0.5,0.1-0.7,0.2c-0.2,0.1-0.4,0.2-0.8,0.2c-0.1,0-0.4-0.2-0.6-0.3c-0.4-0.2-0.7-0.5-1.1-0.5c-0.2,0-0.6,0.1-0.9,0.6
			C19,24.8,18.5,25,18,25c-0.3,0-0.8-0.1-1.1-0.6c-0.2-0.3-0.3-0.8-0.4-1.2c-0.1-0.6-0.2-1.3-0.9-1.6c-0.4-0.2-0.8-0.2-1.2-0.2
			c-0.2,0-0.4,0-0.5,0l-0.1,0c-0.2,0-0.4,0-0.7,0c-0.1,0-0.2,0-0.3,0h-0.1c-0.8,0-1.2,0.4-1.4,0.8c0,0.1-0.1,0.1-0.1,0.2
			c0,0-0.1,0.1-0.1,0.2c-0.2,0-0.4,0-0.5,0c-0.4,0-0.7,0-1.2,0c-0.1,0-0.3,0-0.5,0h0c-0.3,0-0.6-0.1-0.8-0.3l0,0
			c-0.4-0.2-0.8-0.3-1.1-0.3c-0.3,0-0.6,0.1-0.8,0.3c-0.1,0.1-0.7,0.1-1,0.1c-0.5,0-1,0-1.5,0.2c-0.8,0.3-1,0.8-1.1,1.3
			c0,0.1,0,0.2-0.1,0.3c-0.1,0.4-0.3,1,0,1.4c0.1,0.2,0.3,0.4,0.7,0.4c0.4,0.1,0.4,0.1,0.4,0.6c0,0.3,0,0.8,0.3,1.1
			C3.9,27.9,4,28,4.1,28.1H4.1c-0.4,0-1.5,0.1-1.6,0.9c-0.1,0.8,0.8,1.4,1.6,1.7c0.1,0,0.2,0.5,0.3,0.7c0.2,0.6,0.4,1.3,1.2,1.3h0
			c0.2,0,0.5-0.1,0.8-0.2c0.3-0.1,0.7-0.2,1.1-0.2c0.5,0,1,0.2,1.4,0.6c0.9,0.8,2.1,1.3,3.3,1.3c0.3,0,0.3,0,0.4,0.7
			c0,0.2,0,0.4,0.1,0.5c0.1,0.3,0.4,0.5,0.7,0.5c0.1,0,0.2,0,0.3,0c0.9-0.3,1.4-0.4,1.8-0.5c-0.2,0.4-0.4,0.9-0.1,1.3
			c0.1,0.2,0.3,0.4,0.8,0.4c0.2,0,0.5,0,0.9-0.2c0.1,0,0.2-0.1,0.3-0.1c0,0,0,0.1,0,0.1c-0.1,0.3-0.2,0.6-0.2,1v0.1
			c0,0.5,0,1,0.3,1.4c0.3,0.3,0.8,0.5,1.6,0.5c0.1,0,0.3,0,0.4,0h0c-0.1,0.2-0.2,0.4-0.2,0.6c0,0.2,0.1,0.4,0.3,0.7
			c0.2,0.2,0.4,0.6,0.5,0.9c-0.2-0.1-0.5-0.2-0.8-0.2c-0.3,0-0.6,0.2-0.7,0.5c-0.2,0.4-0.1,1.1,1.7,2.9c0.6,0.6,0.8,1,1,1.5
			c0.1,0.4,0.3,0.8,0.6,1.3c0.8,1.3,1.6,2,2.5,2c0,0,0.1,0,0.1,0c0.2,0,0.4,0,0.5,0c0.2,0,0.3,0,0.4,0c0.1,0,0.1,0,0.1,0
			c0,0,0.2,0.2,0.1,1.4c0,0.4-0.1,0.7-0.1,1c-0.1,0.4-0.1,0.8-0.1,1.6c0,0.6,0,0.9-0.1,0.9c-0.2,0.1-0.4,0.3-0.5,0.8
			c-0.2,0.5-0.1,1,0.2,1.4c0.2,0.3,0.6,0.5,1,0.5c0.3,0,0.5,0.3,0.7,0.6c-0.2-0.1-0.5-0.2-0.7-0.2c-1.1,0-1.3,1.4-1.5,2.2
			c-0.1,0.6-0.2,1.4-0.3,2.1c-0.1,0.8-0.2,1.6-0.3,2.2c0,0.1-0.1,0.3-0.2,0.5c-0.3,0.6-0.5,1.3-0.2,1.8c0.1,0.1,0.3,0.4,0.8,0.4h0.1
			c0.3,0,0.6,0,0.7,0.1c-0.1,0-0.3,0.1-0.6,0.1c-0.3,0-0.8,0.1-1.1,0.5c-0.2,0.3-0.2,0.6-0.2,1c0,0.5,0,1.1-0.3,1.8
			c-0.2,0.7-0.5,1.2-0.8,1.9c-0.1,0.2-0.2,0.4-0.3,0.6c-0.3,0.6-0.4,1-0.6,1.5c-0.2,0.4-0.3,0.9-0.6,1.5c-0.2,0.4-0.2,0.8-0.2,1.3
			c0,0.4,0,0.7-0.2,1.1c-0.4,0.8-0.7,1.1-2.1,1.2l0,0h0l0,0c-0.3,0.1-0.4,0.3-0.4,0.5c0,0.2,0.2,0.4,0.5,0.5c0.1,0,0.5,0.1,0.9,0.6
			c0.4,0.4,0.9,0.5,1.5,0.5h0.3c0.1,0,0.2,0,0.2,0c0,0,0.1,0,0.1,0c0,0,0,0.1,0,0.1c-0.2,0.6-0.4,1.3-0.2,2c0.3,0.6,0.9,0.7,1.3,0.7
			c0.3,0,0.7,0,1,0.2c0,0,0.1,0.1,0.2,0.2c0.3,0.3,0.7,0.8,1.8,0.8c0.1,0,0.2,0,0.2,0h0.1c0.5,0,1.2,0.2,1.2,0.7
			c0,0.5,0.3,1.1,1.2,1.1c0.2,0,0.3,0,0.5,0c0.1,0,0.3,0,0.4,0c0.2,0,0.4,0,0.6,0c0.2,0,0.3,0,0.5,0c0.2,0,0.3,0,0.4,0.3
			c0.3,0.9,0.6,1.3,1.5,1.3c0.1,0,0.3,0,0.5,0h0c0.3,0,0.6,0,0.9,0c0.6,0,1.1,0,1.6-0.1c0.1,0,0.2,0,0.3,0c0.2,0,0.2,0,0.3,0.1h0
			c0.2,0.1,0.4,0.3,0.9,0.3c0.1,0,0.3,0,0.5,0c0.3,0,0.8-0.1,1-0.6C38,88.6,38,88.4,38,88c0.4,0.1,1.1,0.4,1.2,0.5
			c0.2,0.1,0.3,0.2,0.4,0.3c0.7,0.4,1.1,0.8,1.6,0.8c0,0,0.1,0,0.1,0c0,0,0,0,0,0c0.1,0,0.4,0.2,0.5,0.4c0.3,0.2,0.5,0.4,0.8,0.5
			c0.1,0.2,0.1,0.7,0.1,0.9c0,0.1,0,0.2,0,0.3c0,0.4,0.1,1.4,1.1,1.4c0.2,0,0.3,0,0.5,0c0.2,0,0.3,0,0.5,0c0.2,0,0.4,0,0.6,0
			c0.2,0,0.3,0,0.5,0c0.2,0,0.3,0,0.5,0.4c0,0,0,0.1,0.1,0.1c0.2,0.5,0.4,0.7,1.2,0.7c0.1,0,0.1,0,0.2,0c0.7,0,0.9-0.3,1.1-0.5
			c0.1-0.1,0.1-0.1,0.5-0.2h0c0.5,0,0.7,0.2,0.9,0.4l0,0c0.3,0.3,0.6,0.6,1.3,0.6c0.1,0,0.2,0,0.4,0c0.7-0.1,1-0.4,1.2-0.7
			c0.1-0.2,0.2-0.3,1-0.4c0.6,0,0.8-0.2,1-0.4c0,0,0,0,0.1,0l0.5,0l0.1-0.5c0.1-0.6,0-1,0-1.3c0-0.2-0.1-0.5-0.1-0.9
			c0-0.2,0-0.4,0-0.6c0-0.7-0.1-1.1,0.1-1.8c0-0.2,0-0.4,0.1-0.6c0-0.5,0.1-1.1,0.4-1.4c0.1-0.1,0.6-0.4,1-0.6
			c0.9-0.5,2.1-1.1,2.8-1.8c0.2-0.2,0.4-0.4,0.6-0.6c0.6-0.6,0.9-1.1,2-1.1h0.1c0.4,0,0.6,0.2,0.9,0.5c0,0,0.1,0.1,0.1,0.2
			c0.3,0.3,0.6,0.7,1.1,0.7c0,0,0.1,0,0.1,0c0.2,0,0.4,0,0.6,0c0.6,0,0.8,0.2,1,0.4s0.6,0.6,1.3,0.7c0.2,0,0.4,0.1,0.5,0.1
			c0.5,0,0.8-0.1,1-0.3l0,0c0.2-0.1,0.2-0.1,0.3-0.1c0.1,0,0.2,0,0.3,0.1c0.3,0.1,0.6,0.2,1,0.3c0.6,0.2,1.3,0.4,1.6,0.6
			c0.6,0.6,1.3,0.8,1.8,1.1c0.4,0.2,0.8,0.3,1,0.5c0.1,0.1,0.2,0.2,1.5,0.4c0.6,0.1,1.5,0.2,2.4,0.2c0.3,0,0.5,0,0.7,0
			c0.7-0.1,3.1-0.5,3.5-1.5c0-0.1,0-0.1,0.1-0.2c0.2-0.5,0.3-0.9,1.1-1.7c0.9-1,1.7-1.6,2.4-2c0.9-0.5,1.5-1.2,2-1.9
			c0.2-0.3,0.4-0.5,0.6-0.8c0.3-0.3,0.5-0.5,0.8-0.7c0.8-0.7,1.7-1.5,1.2-2.4c-0.1-0.2-0.5-1-1.2-1c-0.3,0-0.7,0.2-1,0.3l-0.1,0
			c-0.3,0.1-0.5,0.2-0.7,0.2c-0.1,0-0.3,0-0.5-0.2c-0.1-0.1-0.4-0.2-0.8-0.4c-0.4-0.2-0.9-0.4-1.4-0.7c-0.6-0.4-0.7-0.6-0.7-0.6
			c0-0.1,0-0.2,0-0.2c-0.1-0.5-0.2-0.9,0.3-2c0.1-0.3,0.3-0.5,0.5-0.8c0.3-0.3,0.5-0.6,0.6-1c0.1-0.5-0.1-1-0.5-1.4
			c-0.3-0.3-0.6-0.4-0.9-0.5s-0.5-0.2-0.8-0.5c-0.2-0.1-0.3-0.3-0.4-0.3c-0.5-0.3-0.7-0.5-0.6-1.2c0.1-0.6,0.9-0.7,2.2-0.8h0.1
			c0.7,0,1.3-0.7,1.5-1.6c0.2-1.1-0.2-1.7-1.2-3.3l0-0.1c-0.2-0.2-0.4-0.3-0.6-0.4c-0.3-0.1-0.5-0.3-0.6-1.1c0-0.5,0.1-0.6,0.5-0.9
			c0.4-0.2,1-0.6,0.9-1.6c-0.1-0.8-0.9-1-1.5-1.2c-0.1,0-0.3-0.1-0.4-0.1c0.1-0.3,0.2-0.7,0.2-1.1c0.1-0.9,0-1.5-0.2-1.9
			c-0.2-0.3-0.4-0.5-0.7-0.5c0,0-0.1,0-0.2,0c0,0-2.5,0-3.4,1c-0.2,0.3-0.4,0.6-0.3,0.9c0,1-0.1,1.4-0.2,1.5c-0.2,0-0.5,0.1-0.6,0.1
			c-0.3,0-0.4-0.1-0.4-0.1c-0.1-0.1-0.1-0.3,0.1-0.7c0.2-0.4,0.4-0.7,0.5-0.9c0.3-0.4,0.6-0.8,0.7-1.7c0.2-1,0.3-1.5,0.5-1.8
			c0.1-0.1,0.1-0.1,0.3-0.2c0.3-0.1,0.6-0.2,1.1-0.5c0.2-0.2,0.2-0.4,0.2-0.5c-0.1-1.2,0.2-1.8,0.3-1.8c1.3-0.4,1.7-0.9,2.6-2.1
			c0.2-0.3,0.3-0.7,0.5-1.5c0.1-0.5,0.2-1.1,0.4-1.5c0-0.1,0-0.1,0.3-0.1c0.1,0,0.3,0,0.5,0h0c0.2,0,0.4,0.1,0.6,0.1h0.2
			c1.1-0.1,1.8-0.4,2.2-0.9c0.4-0.5,0.5-1.1,0.3-1.9c-0.1-0.5,0-0.8,0.1-1.2c0.1-0.5,0.3-1,0.2-2c-0.1-1.2,0.1-1.7,0.4-2.6
			c0-0.1,0.1-0.2,0.1-0.3c0.3-0.6,0.4-1.5,0.5-2.3c0.1-0.3,0.1-0.6,0.2-0.9c0.1-0.5,0.2-0.9,0.3-1.1c0-0.1,0.1-0.1,0.3-0.2
			c0.2-0.1,0.4-0.2,0.8-0.4C94.1,26.9,94.5,25.6,94.3,24.6z M93,26.9c-1.3,0.8-1.2,0.3-1.6,2c-0.2,1-0.3,2.3-0.7,3.2
			c-0.5,1.2-0.8,1.7-0.6,3.2c0.2,1.6-0.6,1.9-0.3,3.2c0.3,1.5-0.4,2.1-2.1,2.3h-0.1c-0.2,0-0.4,0-0.6,0c-0.2,0-0.4-0.1-0.6-0.1
			c-0.3,0-0.6,0.1-0.7,0.4c-0.4,0.9-0.4,2.5-0.7,2.9c-1,1.2-1.3,1.6-2.4,1.9c-0.8,0.3-0.6,2.3-0.7,2.3c-1.3,1-1.5-0.3-2.1,2.8
			c-0.3,1.3-0.8,1.3-1.3,2.5c-0.4,1-0.1,1.5,0.8,1.5c0.2,0,0.5,0,0.8-0.1c0.6-0.1,0.6-1.3,0.6-2c-0.1-1.1,2.5-1.3,3.2-1.3h0.1
			c0.9,0.1,0.3,2.8,0.2,3c-0.3,0.8,1.8,0.5,1.9,1.4c0.1,1.5-1.5,0.8-1.4,2.5c0.1,1.6,0.9,1.4,1.2,1.8c1,1.6,1.3,2.1,1.2,3
			c-0.1,0.6-0.5,1.2-1,1.2c-1.2,0.1-2.6,0.1-2.7,1.2c-0.1,1.2,0.6,1.4,1.2,1.9c0.7,0.6,1.1,0.5,1.7,1c1.1,1-0.2,1.5-0.7,2.6
			c-0.6,1.4-0.4,1.8-0.3,2.5c0.1,0.8,2.6,1.7,3,2c0.3,0.2,0.6,0.3,0.9,0.3c0.3,0,0.7-0.2,0.9-0.3c0.3-0.1,0.5-0.3,0.8-0.3
			c0.3,0,0.5,0.2,0.8,0.7c0.4,0.8-0.8,1.5-1.9,2.6c-0.7,0.7-1.4,2-2.5,2.5c-0.9,0.5-1.8,1.2-2.6,2.1c-0.9,1-1,1.5-1.2,2.1
			c-0.2,0.5-1.9,1.1-3,1.2c-0.2,0-0.4,0-0.7,0c-1.5,0-3.5-0.4-3.5-0.5c-0.8-0.7-1.8-0.6-2.8-1.6c-0.5-0.5-2-0.7-2.7-1
			c-0.2-0.1-0.4-0.1-0.5-0.1c-0.3,0-0.4,0.1-0.6,0.2c-0.2,0.1-0.4,0.2-0.8,0.2c-0.1,0-0.3,0-0.4,0c-1.2-0.2-0.8-1.1-2.4-1.1
			c-0.2,0-0.4,0-0.7,0h0c-0.3,0-0.5-0.3-0.8-0.7c-0.3-0.3-0.7-0.7-1.3-0.7h-0.1c-1.7,0.1-2,1-2.9,1.9c-1.1,1.1-3.5,2-3.9,2.4
			c-0.5,0.6-0.4,1.7-0.5,2.3c-0.2,1-0.1,1.5,0,2.5c0.1,1.1,0.2,1.1,0.1,2.1c0,0-0.1,0-0.1,0c-0.4,0-0.2,0.3-1.1,0.4
			c-1.9,0.1-0.9,0.9-2.2,1.1c-0.1,0-0.2,0-0.3,0c-0.5,0-0.8-0.3-1-0.5c-0.3-0.3-0.6-0.5-1.3-0.5h0c-1.2,0-0.6,0.6-1.7,0.6
			c-0.1,0-0.1,0-0.2,0c-0.7,0-0.7-0.3-0.8-0.6c-0.3-0.5-0.5-0.6-1-0.6c-0.3,0-0.6,0-1.1,0.1c-0.4,0-0.8,0.1-1,0.1
			c-0.4,0-0.6-0.2-0.6-0.9c0-0.5,0.1-1.7-0.6-1.7c-0.4,0-0.8-0.8-1.4-0.8c0,0-0.1,0-0.1,0c0,0-0.1,0-0.1,0c-0.4,0-1-0.5-1.8-1
			c-0.2-0.1-1.2-0.6-1.7-0.6c-0.2,0-0.3,0.1-0.3,0.2c0,0.9,0,1.1-0.7,1.2c-0.2,0-0.3,0-0.4,0c-0.4,0-0.5-0.1-0.7-0.2
			c-0.1-0.1-0.3-0.2-0.6-0.2c-0.1,0-0.2,0-0.3,0c-0.8,0.1-1.6,0-2.5,0.1c-0.2,0-0.3,0-0.5,0c-0.6,0-0.8-0.1-1-0.9
			c-0.2-0.6-0.5-0.7-0.9-0.7c-0.3,0-0.6,0.1-1.1,0.1c-0.3,0-0.6,0.1-0.9,0.1c-0.4,0-0.7-0.1-0.7-0.6c0-0.8-1-1.2-1.7-1.2h-0.1
			c-0.1,0-0.1,0-0.2,0c-1.2,0-1.3-0.7-1.7-0.9c-0.9-0.5-1.9-0.1-2.1-0.7c-0.3-0.8,0.6-2.2,0.3-2.3c-0.2-0.1-0.4-0.1-0.6-0.1
			c-0.1,0-0.2,0-0.3,0h-0.3c-0.4,0-0.8,0-1.1-0.3c-0.8-1-1.5-0.8-1.3-0.8c1.5-0.2,2-0.5,2.5-1.5c0.4-0.8,0.1-1.6,0.4-2.3
			c0.5-1.2,0.7-1.8,1.2-3c0.5-1.1,0.8-1.7,1.1-2.6c0.7-2-0.3-3,1.1-3c1.5,0,1.8-1.2-0.1-1.2h-0.1c0,0,0,0,0,0c-0.9,0,0-1.5,0.1-2.1
			c0.3-1.3,0.4-3.1,0.7-4.4c0.2-1.1,0.5-1.8,1-1.8c0.1,0,0.3,0,0.4,0.1c0.3,0.2,0.7,0.7,1.2,2.2c0.3,0.8,0.6,1.2,0.7,1.2
			c0.1,0,0.2-0.3,0.2-0.9c-0.1-0.9-0.4-1.6-0.7-2.1C27.3,58.1,26.8,57,26,57c-0.6,0-1-0.5-0.7-1.3c0.3-0.9,0.6,0.1,0.6-1.8
			c0-1.2,0.1-1.3,0.2-2.5c0.1-1.6-0.2-1.9-0.7-1.9c-0.3,0-0.6,0.1-1,0.1c0,0,0,0-0.1,0c-0.9,0-1.7-1-2.1-1.8c-0.8-1.4-0.6-1.9-1.7-3
			c-1.7-1.7-1.8-2.5-1.3-2.5c0.2,0,0.5,0.1,0.8,0.3c0.1,0.1,0.2,0.1,0.2,0.1c0.5,0,0.2-1.5-0.5-2c-0.8-0.6,1.7-1.4,0-1.4
			c-0.1,0-0.3,0-0.5,0c-0.1,0-0.3,0-0.4,0c-1.5,0-1.4-0.5-1.4-1.4c0-0.9,0.6-1.7,0-1.7c-0.2,0-0.4,0-0.7,0.1
			c-0.3,0.1-0.5,0.1-0.7,0.1c-0.6,0-0.5-0.5-0.2-1.1c0.2-0.3,0.3-0.6-0.1-0.6c-0.4,0-1,0.1-2.3,0.6c-0.1,0-0.1,0-0.2,0
			c-0.6,0,0.2-1.7-1.1-1.8c-1.1,0-2.1-0.5-3-1.2C8.6,32,8,31.8,7.5,31.8c-0.8,0-1.5,0.4-1.9,0.4c0,0,0,0,0,0c-0.7,0-0.6-1.7-1.3-2
			c-1.5-0.7-2-1.5-0.2-1.6c2.2-0.1,1.7-0.9,0.7-0.9H4.7c-1.5,0,0.2-1.8-1.5-2C2.5,25.5,3,24.6,3,24.1c0.2-1.6,2.7-0.8,3.4-1.3
			c0.2-0.1,0.3-0.2,0.5-0.2c0.3,0,0.6,0.2,1,0.3c0.3,0.1,0.7,0.3,1,0.3H9c0.8,0,1.2-0.1,1.6-0.1c0.2,0,0.3,0,0.5,0h0
			c0.3,0,0.4-0.3,0.6-0.5c0.2-0.3,0.4-0.5,1-0.5h0.1c0.1,0,0.2,0,0.3,0c0.3,0,0.5,0,0.8,0c0.2,0,0.4,0,0.6,0c0.3,0,0.6,0,1,0.2
			c0.8,0.3,0.4,1.6,1.1,2.6c0.4,0.6,1,0.8,1.5,0.8c0.7,0,1.3-0.3,1.5-0.8c0.1-0.2,0.3-0.3,0.4-0.3c0.3,0,0.6,0.2,0.9,0.4
			c0.3,0.2,0.6,0.4,0.9,0.4h0c0.8,0,1-0.3,1.4-0.3c0.3,0,0.6,0.1,1.3,0.5c0.4,0.3,0.9,0.4,1.2,0.4c0.6,0,1-0.4,0.5-1.3
			c-0.7-1.2-0.4-1.1-0.5-2.8c-0.1-1.9-0.7-2.7-0.7-4.3c0-1.5-1.1-1.1-0.8-2.4c0.2-0.8,0.5-1.2,0.8-1.2c0.3,0,0.6,0.2,1,0.5
			c0.5,0.4,1.2,0.5,1.9,0.5c0.2,0,0.4,0,0.6,0c0,0,0,0,0,0c0.4,0,0.5,1.5,0.7,2.2c0.3,1,1.5,1.1,3,1.4c1,0.2,2.2,0.3,2.8,0.7
			c0.4,0.3,0.8,0.4,1.2,0.4c0.4,0,0.7-0.1,1-0.2c1.4-0.5,2-0.4,1.9-1.8c-0.1-1.8-0.4-2.1,1.1-2.7c0.6-0.2,2.6-0.6,3.4-0.7
			c1.1-0.1,2.3-0.7,3-1c0.9-0.5,0.8-0.3,1.2-1.2c0.4-0.8,2.2-0.3,1.1-1.5c-0.7-0.8,0.1-1.6,0-2.7c-0.1-1,0.2-2.2,0.3-3.3
			c0.2-1.5,1.1-1.3,2.3-1.3c1.3-0.1,2.2-0.3,3.5-0.3c0,0,0,0,0,0c0.9,0,0.7,2.5,1.5,2.5c1,0,0.4,1.1,1,1.1c0.2,0,0.5-0.1,0.9-0.4
			c0.4-0.2,0.7-0.4,1-0.4c0.4,0,0.7,0.3,0.7,1.3c0,0.2,1.3,2.3,1.5,2.5c0.9,1,1.4,1.4,2.8,1.6c1.3,0.2,1.6,0.3,1.7,1.3
			c0.1,1.7,0.4,2.1,1.8,2.2c0.6,0,0.9,0.1,1.1,0.1c0.2,0,0.4-0.1,0.6-0.6c0.3-0.5,0.4-1.8,0.6-1.8c0.1,0,0.2,0.2,0.4,0.9
			c0.3,1,0.2,1.7,0.3,2.7c0,0.4,1.7,1,2.1,1.1c1.2,0.5,1.5,0.9,2.2,2.1c0.1,0.1,0.2,0.2,0.4,0.2c0.1,0,0.3,0,0.5,0
			c0.2,0,0.4,0,0.7,0c0.5,0,1,0.1,1.6,0.3c0.5,0.3,1.2,0.3,1.8,0.3h0.3c0.6,0,1.1,0,1.6,0.2c0.6,0.2,0.7,2.1,1.3,2.6
			c0.3,0.3,2.3,0,2.9,0.5c0.3,0.3,0.9,0.5,1.4,0.5c0.3,0,0.5-0.1,0.7-0.2c0.1-0.1,0.3-0.1,0.4-0.1c0.5,0,1.1,0.7,1.4,0.8
			c0.8,0.2,1,0.2,1.3,0.2c0.2,0,0.5,0,1-0.1h0.1C94.4,24,94,26.3,93,26.9z"/>
		<path class="st1" d="M94.7,24.5c-0.3-0.9-1-1.5-2-1.5h-0.2c-0.2,0-0.4,0-0.6,0c-0.2,0-0.3,0-0.4,0c-0.2,0-0.3,0-1-0.2
			c0,0-0.1-0.1-0.2-0.2c-0.4-0.3-0.9-0.7-1.5-0.7c-0.3,0-0.7,0.1-1,0.3c0,0,0,0-0.1,0c-0.3,0-0.6-0.1-0.8-0.3
			c-0.6-0.5-1.6-0.5-2.5-0.5c-0.1,0-0.3,0-0.5,0c-0.1-0.2-0.2-0.5-0.2-0.8c-0.2-0.8-0.5-1.7-1.3-1.9c-0.6-0.2-1.3-0.2-1.9-0.2h-0.3
			c-0.5,0-1.1,0-1.4-0.2c-0.6-0.3-1.3-0.4-2-0.4c-0.3,0-0.5,0-0.8,0l-0.1,0c0,0-0.1,0-0.1,0c-0.6-1-1.1-1.6-2.4-2.2
			c-0.1,0-0.2-0.1-0.3-0.1c-0.6-0.2-1-0.4-1.2-0.5V15c0-0.7,0-1.4-0.3-2.2c-0.2-0.6-0.5-1.6-1.4-1.6c-0.3,0-0.8,0.1-1.1,0.9
			c-0.1,0.2-0.1,0.4-0.2,0.6c0,0.2-0.1,0.7-0.2,0.8c0,0,0,0,0,0c-0.2,0-0.5-0.1-0.8-0.1c-0.5,0-0.7-0.1-0.7-0.1
			c0-0.1-0.1-0.3-0.2-1.1c-0.1-1.9-1.4-2.1-2.5-2.3c-1.1-0.1-1.4-0.4-2.1-1.3c-0.2-0.3-1-1.7-1.3-2.1c0-0.6-0.2-1-0.4-1.3
			c-0.3-0.5-0.8-0.8-1.3-0.8c-0.5,0-1,0.2-1.4,0.5c0-0.1-0.1-0.1-0.1-0.2c-0.2-0.2-0.5-0.5-1-0.6c-0.1-0.2-0.1-0.4-0.2-0.6
			c-0.1-0.4-0.2-0.7-0.3-1.1c-0.4-0.8-1-1-1.4-1H55c-0.7,0-1.3,0.1-1.8,0.2C52.6,1.9,52.1,2,51.5,2c-0.2,0-0.3,0-0.5,0
			c-0.6,0-1.1,0-1.7,0.3c-0.7,0.3-1,1-1.2,1.9c0,0.3-0.1,0.6-0.1,0.9c-0.1,0.8-0.3,1.7-0.2,2.5c0,0.3,0,0.5-0.1,0.8
			c-0.1,0.5-0.4,1.3,0.1,2c-0.4,0.1-0.8,0.4-1,0.9v0c-0.1,0.1-0.1,0.3-0.2,0.3c0,0,0,0-0.1,0c-0.1,0.1-0.3,0.2-0.6,0.3
			c-0.7,0.4-1.7,0.8-2.6,0.9c-0.7,0.1-2.9,0.4-3.6,0.7c-0.7,0.3-1.3,0.6-1.6,1.2c-0.3,0.5-0.2,1.1-0.2,1.8c0,0.2,0,0.4,0,0.7
			c0,0.2,0,0.3,0,0.4c-0.1,0-0.3,0.1-0.5,0.2c-0.2,0.1-0.5,0.2-0.8,0.3c-0.3,0.1-0.5,0.2-0.7,0.2c-0.2,0-0.4-0.1-0.6-0.2
			c-0.6-0.4-1.5-0.6-2.4-0.7c-0.3,0-0.5-0.1-0.8-0.1c-0.1,0-0.3,0-0.4-0.1c-0.7-0.1-1.7-0.3-1.8-0.6c0-0.1-0.1-0.3-0.1-0.6
			c-0.1-0.4-0.1-0.8-0.3-1.1c-0.3-1-0.9-1.2-1.3-1.2h-0.1c-0.2,0-0.4,0-0.5,0c-0.6,0-1-0.1-1.2-0.3c-0.6-0.5-1.1-0.7-1.6-0.7
			c-0.5,0-1.5,0.3-1.8,2c-0.2,1.1,0.2,1.6,0.6,2.1C24,17,24,17.1,24,17.4c0,0.9,0.2,1.6,0.4,2.3c0.2,0.6,0.3,1.2,0.4,2.1
			c0,0.5,0,0.8,0,1.1c0,0.7,0,1.1,0.4,1.8c0,0,0,0-0.1,0c-0.8-0.5-1.3-0.7-1.8-0.7c-0.4,0-0.7,0.1-0.9,0.2c-0.2,0.1-0.3,0.1-0.5,0.1
			c-0.1,0-0.3-0.2-0.4-0.2c-0.4-0.3-0.9-0.5-1.4-0.5c-0.6,0-1,0.3-1.3,0.8c0,0.1-0.3,0.3-0.7,0.3c-0.3,0-0.5-0.1-0.7-0.4
			c-0.2-0.2-0.2-0.6-0.3-1c-0.1-0.6-0.3-1.5-1.2-1.9c-0.5-0.2-0.9-0.3-1.3-0.3c-0.2,0-0.4,0-0.6,0l-0.1,0c-0.2,0-0.4,0-0.7,0
			c-0.1,0-0.2,0-0.3,0h-0.1c-1.2,0-1.7,0.8-1.8,1c0,0,0,0,0,0h-0.2c-0.4,0-0.7,0-1.2,0c-0.1,0-0.3,0-0.5,0h0c-0.2,0-0.5-0.1-0.7-0.2
			l0,0c-0.4-0.2-0.8-0.4-1.3-0.4c-0.4,0-0.8,0.1-1.1,0.4C5.7,22,5.3,22,5.1,22c-0.5,0-1.1,0-1.6,0.2c-0.8,0.3-1.3,0.9-1.4,1.7
			c0,0,0,0.2-0.1,0.3C1.8,24.7,1.6,25.4,2,26c0.2,0.3,0.6,0.5,1,0.6c0,0,0,0.1,0,0.1c0,0.3,0,0.6,0.1,1c-0.1,0-0.2,0-0.3,0.1
			c-0.7,0.3-0.9,0.8-0.9,1c-0.1,0.6,0.1,1.4,1.8,2.2c0,0.1,0.1,0.3,0.1,0.5c0.1,0.3,0.2,0.6,0.3,0.9c0.4,0.7,1,0.8,1.3,0.8
			c0,0,0,0,0.1,0c0.3,0,0.6-0.1,0.9-0.2c0.3-0.1,0.7-0.2,1-0.2c0.2,0,0.6,0,1.1,0.4c1,0.8,2.2,1.4,3.5,1.5c0,0.1,0,0.1,0,0.2
			c0,0.2,0,0.5,0.1,0.7c0.2,0.5,0.6,0.9,1.2,0.9c0.2,0,0.3,0,0.5-0.1c0.3-0.1,0.6-0.2,0.9-0.3c0,0.3,0,0.6,0.2,0.8
			c0.1,0.3,0.5,0.7,1.2,0.7c0.2,0,0.3,0,0.5,0c0,0.1,0,0.3,0,0.4v0.1c0,0.5,0,1.2,0.5,1.8c0.4,0.5,1.1,0.6,1.7,0.6v0.1
			c0,0.3,0.1,0.6,0.4,0.9c-0.5,0.1-0.8,0.3-1,0.8c-0.3,0.8,0.2,1.9,1.8,3.4c0.5,0.5,0.7,0.8,0.9,1.4c0.1,0.4,0.3,0.8,0.7,1.4
			c0.9,1.5,1.8,2.3,2.9,2.3c0,0,0.1,0,0.1,0c0.2,0,0.4,0,0.6-0.1c0,0,0.1,0,0.1,0c0,0.2,0,0.4,0,0.8c0,0.4-0.1,0.7-0.1,0.9
			c-0.1,0.4-0.1,0.8-0.1,1.6c0,0.3,0,0.5,0,0.7c-0.2,0.2-0.4,0.4-0.6,0.9c-0.2,0.7-0.1,1.3,0.2,1.8c0.1,0.2,0.3,0.4,0.5,0.5
			c-0.2,0.2-0.4,0.4-0.6,0.7c-0.2,0.4-0.3,0.9-0.5,1.6c-0.1,0.6-0.2,1.4-0.3,2.1c-0.1,0.8-0.2,1.5-0.3,2.2c0,0.1-0.1,0.3-0.2,0.4
			c-0.3,0.7-0.6,1.6-0.2,2.3c0,0.1,0.1,0.1,0.2,0.2c-0.1,0.1-0.2,0.2-0.3,0.4c-0.2,0.4-0.2,0.8-0.2,1.3c0,0.5,0,1-0.2,1.6
			c-0.2,0.7-0.5,1.2-0.8,1.9c-0.1,0.2-0.2,0.4-0.3,0.6c-0.3,0.6-0.4,1.1-0.6,1.5s-0.3,0.9-0.6,1.4c-0.2,0.5-0.3,1-0.3,1.4
			c0,0.4,0,0.6-0.2,0.9c-0.3,0.6-0.3,0.8-1.7,0.9l-0.1,0l-0.1,0h0c-0.6,0.1-0.8,0.6-0.8,1.1c0,0.4,0.4,0.9,0.9,0.9
			c0,0,0.2,0,0.6,0.5c0.5,0.6,1.4,0.7,1.8,0.7c-0.1,0.5-0.2,1.2,0,1.8c0.4,0.9,1.3,1,1.7,1c0.3,0,0.5,0,0.8,0.2c0,0,0,0.1,0.1,0.1
			c0.3,0.3,0.8,1,2.2,1c0.1,0,0.2,0,0.3,0h0c0.4,0,0.7,0.2,0.7,0.2c0.1,1,0.7,1.6,1.7,1.6c0.2,0,0.4,0,0.6,0c0.1,0,0.3,0,0.4,0
			c0.2,0,0.4,0,0.6,0c0.1,0,0.3,0,0.4,0c0.3,0.9,0.6,1.6,2,1.6c0.1,0,0.3,0,0.5,0h0c0.3,0,0.6,0,0.8,0c0.5,0,1.1,0,1.7-0.1
			c0.1,0,0.1,0,0.2,0h0c0,0,0,0,0,0h0c0.3,0.2,0.6,0.4,1.2,0.4c0.2,0,0.4,0,0.6,0c0.3,0,1.1-0.1,1.4-0.8c0.1-0.1,0.1-0.3,0.1-0.4
			c0.2,0.1,0.4,0.2,0.5,0.2c0.1,0.1,0.3,0.2,0.4,0.3c0.7,0.5,1.2,0.9,1.9,0.9c0,0,0.1,0,0.1,0c0.1,0.1,0.2,0.2,0.3,0.2
			c0.2,0.2,0.4,0.4,0.7,0.5c0,0.1,0,0.3,0,0.5c0,0.1,0,0.2,0,0.3c0,0.4,0.1,0.9,0.4,1.3c0.3,0.4,0.7,0.6,1.2,0.6c0.2,0,0.4,0,0.5,0
			c0.2,0,0.3,0,0.5,0c0.2,0,0.4,0,0.6,0c0.2,0,0.3,0,0.4,0c0,0,0,0,0,0c0,0,0,0,0,0.1c0,0,0,0.1,0,0.1c0.3,0.7,0.8,1,1.7,1
			c0.1,0,0.1,0,0.2,0c0.8,0,1.2-0.3,1.5-0.6c0,0,0.1,0,0.2,0h0c0.3,0,0.4,0.1,0.6,0.2l0,0c0.3,0.3,0.8,0.8,1.7,0.8
			c0.1,0,0.3,0,0.4,0c0.9-0.1,1.3-0.5,1.5-0.9c0,0,0,0,0-0.1c0.1,0,0.2-0.1,0.6-0.1c0.6,0,0.9-0.2,1.2-0.4l0.8,0.1l0.1-1
			c0.1-0.7,0-1,0-1.4c0-0.2-0.1-0.5-0.1-0.8c0-0.2,0-0.4,0-0.6c0-0.6-0.1-1.1,0.1-1.7c0-0.2,0.1-0.4,0.1-0.7c0-0.3,0.1-0.9,0.2-1.1
			c0.1-0.1,0.6-0.3,0.9-0.5c1-0.5,2.2-1.1,3-1.9c0.2-0.2,0.4-0.5,0.6-0.7c0.5-0.6,0.8-0.9,1.6-0.9h0c0.2,0,0.3,0,0.5,0.3
			c0,0,0.1,0.1,0.1,0.2c0.3,0.3,0.7,0.8,1.5,0.8c0,0,0.1,0,0.2,0c0.2,0,0.4,0,0.5,0c0.5,0,0.5,0,0.7,0.3c0.3,0.3,0.7,0.7,1.5,0.8
			c0.2,0,0.4,0.1,0.6,0.1c0.6,0,1-0.2,1.3-0.4l0,0c0,0,0,0,0.1,0c0,0,0.1,0,0.1,0c0.3,0.1,0.7,0.2,1,0.3c0.4,0.1,1.2,0.3,1.4,0.5
			c0.7,0.7,1.4,1,2,1.2c0.4,0.1,0.7,0.3,0.9,0.5c0.2,0.2,0.3,0.3,1.7,0.5c0.6,0.1,1.6,0.2,2.5,0.2c0.3,0,0.5,0,0.8,0
			c0.7-0.1,1.5-0.3,2.1-0.5c1-0.4,1.6-0.8,1.8-1.4c0-0.1,0-0.1,0.1-0.2c0.2-0.5,0.3-0.8,1-1.5c0.9-1,1.6-1.5,2.3-1.9
			c1-0.5,1.7-1.3,2.2-2c0.2-0.3,0.4-0.5,0.6-0.7c0.3-0.2,0.5-0.5,0.8-0.7c0.4-0.4,0.8-0.7,1.1-1.1c0.6-0.8,0.4-1.5,0.3-1.9
			c-0.4-0.8-1-1.3-1.7-1.3c-0.5,0-0.9,0.2-1.2,0.4l-0.1,0c-0.1,0.1-0.4,0.2-0.5,0.2c-0.1,0-0.1,0-0.2-0.1c-0.2-0.1-0.4-0.3-0.9-0.5
			c-0.4-0.2-1.5-0.7-1.8-1c0-0.1,0-0.1,0-0.2c-0.1-0.5-0.1-0.7,0.3-1.6c0.1-0.2,0.3-0.4,0.4-0.6c0.3-0.3,0.6-0.7,0.7-1.2
			c0.1-0.5,0.1-1.2-0.7-1.9c-0.4-0.3-0.7-0.5-1-0.6c-0.2-0.1-0.4-0.2-0.6-0.4c-0.2-0.1-0.3-0.3-0.5-0.4c-0.2-0.1-0.3-0.2-0.4-0.3
			c0-0.1,0-0.3,0-0.4c0,0,0,0,0,0c0,0,0.1-0.1,0.5-0.2c0.3-0.1,0.8-0.1,1.2-0.1h0.1c0.9-0.1,1.8-0.9,1.9-2.1c0.2-1.3-0.3-2-1.3-3.6
			l0-0.1c-0.2-0.4-0.5-0.5-0.8-0.6c-0.1-0.1-0.2-0.1-0.2-0.1c0,0-0.1-0.1-0.1-0.6v-0.1c0-0.1,0-0.2,0-0.2c0,0,0.2-0.1,0.3-0.2
			c0.4-0.3,1.3-0.8,1.2-2.1c-0.1-1.1-1.2-1.4-1.8-1.6c0-0.2,0.1-0.5,0.1-0.7c0.1-1,0.1-1.7-0.2-2.2c-0.2-0.4-0.6-0.7-1.1-0.8
			c-0.1,0-0.2,0-0.3,0c-0.1,0-1.8,0-3.1,0.6c0.2-1,0.3-1.4,0.4-1.6c0,0,0,0,0.1,0c0.3-0.1,0.7-0.2,1.3-0.6c0.2-0.1,0.4-0.4,0.4-0.9
			c0-0.8,0.1-1.2,0.1-1.3c1.3-0.5,1.8-1.1,2.7-2.2c0.3-0.4,0.4-1,0.6-1.8c0.1-0.4,0.2-0.8,0.3-1.2c0.1,0,0.2,0,0.3,0h0
			c0.2,0,0.5,0.1,0.7,0.1c0.1,0,0.1,0,0.2,0c1.2-0.1,2.1-0.5,2.6-1.1c0.5-0.6,0.6-1.4,0.4-2.3c-0.1-0.4,0-0.5,0.1-0.9
			c0.2-0.5,0.4-1.1,0.3-2.2c-0.1-1,0-1.4,0.4-2.3c0-0.1,0.1-0.2,0.1-0.3c0.3-0.7,0.4-1.6,0.6-2.5c0.1-0.3,0.1-0.6,0.2-0.9
			c0-0.3,0.1-0.7,0.2-0.9c0,0,0.1,0,0.1,0c0.2-0.1,0.5-0.2,0.8-0.4C94.5,27.2,95.1,25.7,94.7,24.5z M90.2,35.2
			c0.2,1.6-0.6,1.9-0.3,3.2c0.3,1.5-0.4,2.1-2.1,2.3h-0.1c-0.2,0-0.4,0-0.6,0c-0.2,0-0.4-0.1-0.6-0.1c-0.3,0-0.6,0.1-0.7,0.4
			c-0.4,0.9-0.4,2.5-0.7,2.9c-1,1.2-1.3,1.6-2.4,1.9c-0.8,0.3-0.6,2.3-0.7,2.3c-1.3,1-1.5-0.3-2.1,2.8c-0.3,1.3-0.8,1.3-1.3,2.5
			c-0.4,1-0.1,1.5,0.8,1.5c0.2,0,0.5,0,0.8-0.1c0.6-0.1,0.6-1.3,0.6-2c-0.1-1.1,2.5-1.3,3.2-1.3h0.1c0.9,0.1,0.3,2.8,0.2,3
			c-0.3,0.8,1.8,0.5,1.9,1.4c0.1,1.5-1.5,0.8-1.4,2.5c0.1,1.6,0.9,1.4,1.2,1.8c1,1.6,1.3,2.1,1.2,3c-0.1,0.6-0.5,1.2-1,1.2
			c-1.2,0.1-2.6,0.1-2.7,1.2c-0.1,1.2,0.6,1.4,1.2,1.9c0.7,0.6,1.1,0.5,1.7,1c1.1,1-0.2,1.5-0.7,2.6c-0.6,1.4-0.4,1.8-0.3,2.5
			c0.1,0.8,2.6,1.7,3,2c0.3,0.2,0.6,0.3,0.9,0.3c0.3,0,0.7-0.2,0.9-0.3c0.3-0.1,0.5-0.3,0.8-0.3c0.3,0,0.5,0.2,0.8,0.7
			c0.4,0.8-0.8,1.5-1.9,2.6c-0.7,0.7-1.4,2-2.5,2.5c-0.9,0.5-1.8,1.2-2.6,2.1c-0.9,1-1,1.5-1.2,2.1c-0.2,0.5-1.9,1.1-3,1.2
			c-0.2,0-0.4,0-0.7,0c-1.5,0-3.5-0.4-3.5-0.5c-0.8-0.7-1.8-0.6-2.8-1.6c-0.5-0.5-2-0.7-2.7-1c-0.2-0.1-0.4-0.1-0.5-0.1
			c-0.3,0-0.4,0.1-0.6,0.2c-0.2,0.1-0.4,0.2-0.8,0.2c-0.1,0-0.3,0-0.4,0c-1.2-0.2-0.8-1.1-2.4-1.1c-0.2,0-0.4,0-0.7,0h0
			c-0.3,0-0.5-0.3-0.8-0.7c-0.3-0.3-0.7-0.7-1.3-0.7h-0.1c-1.7,0.1-2,1-2.9,1.9c-1.1,1.1-3.5,2-3.9,2.4c-0.5,0.6-0.4,1.7-0.5,2.3
			c-0.2,1-0.1,1.5,0,2.5c0.1,1.1,0.2,1.1,0.1,2.1c0,0-0.1,0-0.1,0c-0.4,0-0.2,0.3-1.1,0.4c-1.9,0.1-0.9,0.9-2.2,1.1
			c-0.1,0-0.2,0-0.3,0c-0.5,0-0.8-0.3-1-0.5c-0.3-0.3-0.6-0.5-1.3-0.5h0c-1.2,0-0.6,0.6-1.7,0.6c-0.1,0-0.1,0-0.2,0
			c-0.7,0-0.7-0.3-0.8-0.6c-0.3-0.5-0.5-0.6-1-0.6c-0.3,0-0.6,0-1.1,0.1c-0.4,0-0.8,0.1-1,0.1c-0.4,0-0.6-0.2-0.6-0.9
			c0-0.5,0.1-1.7-0.6-1.7c-0.4,0-0.8-0.8-1.4-0.8c0,0-0.1,0-0.1,0c0,0-0.1,0-0.1,0c-0.4,0-1-0.5-1.8-1c-0.2-0.1-1.2-0.6-1.7-0.6
			c-0.2,0-0.3,0.1-0.3,0.2c0,0.9,0,1.1-0.7,1.2c-0.2,0-0.3,0-0.4,0c-0.4,0-0.5-0.1-0.7-0.2c-0.1-0.1-0.3-0.2-0.6-0.2
			c-0.1,0-0.2,0-0.3,0c-0.8,0.1-1.6,0-2.5,0.1c-0.2,0-0.3,0-0.5,0c-0.6,0-0.8-0.1-1-0.9c-0.2-0.6-0.5-0.7-0.9-0.7
			c-0.3,0-0.6,0.1-1.1,0.1c-0.3,0-0.6,0.1-0.9,0.1c-0.4,0-0.7-0.1-0.7-0.6c0-0.8-1-1.2-1.7-1.2h-0.1c-0.1,0-0.1,0-0.2,0
			c-1.2,0-1.3-0.7-1.7-0.9c-0.9-0.5-1.9-0.1-2.1-0.7c-0.3-0.8,0.6-2.2,0.3-2.3c-0.2-0.1-0.4-0.1-0.6-0.1c-0.1,0-0.2,0-0.3,0h-0.3
			c-0.4,0-0.8,0-1.1-0.3c-0.8-1-1.5-0.8-1.3-0.8c1.5-0.2,2-0.5,2.5-1.5c0.4-0.8,0.1-1.6,0.4-2.3c0.5-1.2,0.7-1.8,1.2-3
			c0.5-1.1,0.8-1.7,1.1-2.6c0.7-2-0.3-3,1.1-3c1.5,0,1.8-1.2-0.1-1.2h-0.1c0,0,0,0,0,0c-0.9,0,0-1.5,0.1-2.1
			c0.3-1.3,0.4-3.1,0.7-4.4c0.2-1.1,0.5-1.8,1-1.8c0.1,0,0.3,0,0.4,0.1c0.3,0.2,0.7,0.7,1.2,2.2c0.3,0.8,0.6,1.2,0.7,1.2
			c0.1,0,0.2-0.3,0.2-0.9c-0.1-0.9-0.4-1.6-0.7-2.1C27.3,58.1,26.8,57,26,57c-0.6,0-1-0.5-0.7-1.3c0.3-0.9,0.6,0.1,0.6-1.8
			c0-1.2,0.1-1.3,0.2-2.5c0.1-1.6-0.2-1.9-0.7-1.9c-0.3,0-0.6,0.1-1,0.1c0,0,0,0-0.1,0c-0.9,0-1.7-1-2.1-1.8c-0.8-1.4-0.6-1.9-1.7-3
			c-1.7-1.7-1.8-2.5-1.3-2.5c0.2,0,0.5,0.1,0.8,0.3c0.1,0.1,0.2,0.1,0.2,0.1c0.5,0,0.2-1.5-0.5-2c-0.8-0.6,1.7-1.4,0-1.4
			c-0.1,0-0.3,0-0.5,0c-0.1,0-0.3,0-0.4,0c-1.5,0-1.4-0.5-1.4-1.4c0-0.9,0.6-1.7,0-1.7c-0.2,0-0.4,0-0.7,0.1
			c-0.3,0.1-0.5,0.1-0.7,0.1c-0.6,0-0.5-0.5-0.2-1.1c0.2-0.3,0.3-0.6-0.1-0.6c-0.4,0-1,0.1-2.3,0.6c-0.1,0-0.1,0-0.2,0
			c-0.6,0,0.2-1.7-1.1-1.8c-1.1,0-2.1-0.5-3-1.2C8.6,32,8,31.8,7.5,31.8c-0.8,0-1.5,0.4-1.9,0.4c0,0,0,0,0,0c-0.7,0-0.6-1.7-1.3-2
			c-1.5-0.7-2-1.5-0.2-1.6c2.2-0.1,1.7-0.9,0.7-0.9H4.7c-1.5,0,0.2-1.8-1.5-2C2.5,25.5,3,24.6,3,24.1c0.2-1.6,2.7-0.8,3.4-1.3
			c0.2-0.1,0.3-0.2,0.5-0.2c0.3,0,0.6,0.2,1,0.3c0.3,0.1,0.7,0.3,1,0.3H9c0.8,0,1.2-0.1,1.6-0.1c0.2,0,0.3,0,0.5,0h0
			c0.3,0,0.4-0.3,0.6-0.5c0.2-0.3,0.4-0.5,1-0.5h0.1c0.1,0,0.2,0,0.3,0c0.3,0,0.5,0,0.8,0c0.2,0,0.4,0,0.6,0c0.3,0,0.6,0,1,0.2
			c0.8,0.3,0.4,1.6,1.1,2.6c0.4,0.6,1,0.8,1.5,0.8c0.7,0,1.3-0.3,1.5-0.8c0.1-0.2,0.3-0.3,0.4-0.3c0.3,0,0.6,0.2,0.9,0.4
			c0.3,0.2,0.6,0.4,0.9,0.4h0c0.8,0,1-0.3,1.4-0.3c0.3,0,0.6,0.1,1.3,0.5c0.4,0.3,0.9,0.4,1.2,0.4c0.6,0,1-0.4,0.5-1.3
			c-0.7-1.2-0.4-1.1-0.5-2.8c-0.1-1.9-0.7-2.7-0.7-4.3c0-1.5-1.1-1.1-0.8-2.4c0.2-0.8,0.5-1.2,0.8-1.2c0.3,0,0.6,0.2,1,0.5
			c0.5,0.4,1.2,0.5,1.9,0.5c0.2,0,0.4,0,0.6,0c0,0,0,0,0,0c0.4,0,0.5,1.5,0.7,2.2c0.3,1,1.5,1.1,3,1.4c1,0.2,2.2,0.3,2.8,0.7
			c0.4,0.3,0.8,0.4,1.2,0.4c0.4,0,0.7-0.1,1-0.2c1.4-0.5,2-0.4,1.9-1.8c-0.1-1.8-0.4-2.1,1.1-2.7c0.6-0.2,2.6-0.6,3.4-0.7
			c1.1-0.1,2.3-0.7,3-1c0.9-0.5,0.8-0.3,1.2-1.2c0.4-0.8,2.2-0.3,1.1-1.5c-0.7-0.8,0.1-1.6,0-2.7c-0.1-1,0.2-2.2,0.3-3.3
			c0.2-1.5,1.1-1.3,2.3-1.3c1.3-0.1,2.2-0.3,3.5-0.3c0,0,0,0,0,0c0.9,0,0.7,2.5,1.5,2.5c1,0,0.4,1.1,1,1.1c0.2,0,0.5-0.1,0.9-0.4
			c0.4-0.2,0.7-0.4,1-0.4c0.4,0,0.7,0.3,0.7,1.3c0,0.2,1.3,2.3,1.5,2.5c0.9,1,1.4,1.4,2.8,1.6c1.3,0.2,1.6,0.3,1.7,1.3
			c0.1,1.7,0.4,2.1,1.8,2.2c0.6,0,0.9,0.1,1.1,0.1c0.2,0,0.4-0.1,0.6-0.6c0.3-0.5,0.4-1.8,0.6-1.8c0.1,0,0.2,0.2,0.4,0.9
			c0.3,1,0.2,1.7,0.3,2.7c0,0.4,1.7,1,2.1,1.1c1.2,0.5,1.5,0.9,2.2,2.1c0.1,0.1,0.2,0.2,0.4,0.2c0.1,0,0.3,0,0.5,0
			c0.2,0,0.4,0,0.7,0c0.5,0,1,0.1,1.6,0.3c0.5,0.3,1.2,0.3,1.8,0.3h0.3c0.6,0,1.1,0,1.6,0.2c0.6,0.2,0.7,2.1,1.3,2.6
			c0.3,0.3,2.3,0,2.9,0.5c0.3,0.3,0.9,0.5,1.4,0.5c0.3,0,0.5-0.1,0.7-0.2c0.1-0.1,0.3-0.1,0.4-0.1c0.5,0,1.1,0.7,1.4,0.8
			c0.8,0.2,1,0.2,1.3,0.2c0.2,0,0.5,0,1-0.1h0.1c1.6,0,1.2,2.3,0.3,2.9c-1.3,0.8-1.2,0.3-1.6,2c-0.2,1-0.3,2.3-0.7,3.2
			C90.3,33.2,90,33.8,90.2,35.2z M79.7,53.5c0,0.2,0,0.3,0,0.4c-0.1,0-0.1,0-0.2,0c0,0,0-0.1,0-0.1C79.6,53.7,79.6,53.6,79.7,53.5z"
			/>
		<path class="st2" d="M92.7,24L92.7,24c-0.6,0-0.9,0.1-1.1,0.1c-0.3,0-0.5,0-1.3-0.2c-0.4-0.1-0.9-0.8-1.4-0.8
			c-0.1,0-0.3,0-0.4,0.1c-0.2,0.1-0.4,0.2-0.7,0.2c-0.5,0-1.1-0.2-1.4-0.5c-0.6-0.5-2.6-0.2-2.9-0.5c-0.6-0.5-0.7-2.4-1.3-2.6
			c-0.5-0.2-1.1-0.2-1.6-0.2h-0.3c-0.7,0-1.3,0-1.8-0.3c-0.6-0.3-1.1-0.3-1.6-0.3c-0.2,0-0.5,0-0.7,0c-0.2,0-0.4,0-0.5,0
			c-0.2,0-0.4,0-0.4-0.2c-0.6-1.1-1-1.6-2.2-2.1c-0.4-0.2-2-0.7-2.1-1.1c-0.1-1,0-1.7-0.3-2.7c-0.2-0.6-0.3-0.9-0.4-0.9
			c-0.2,0-0.3,1.3-0.6,1.8c-0.3,0.5-0.4,0.6-0.6,0.6c-0.2,0-0.5-0.1-1.1-0.1c-1.5-0.1-1.8-0.5-1.8-2.2c-0.1-1-0.4-1.2-1.7-1.3
			c-1.4-0.2-1.9-0.6-2.8-1.6c-0.2-0.2-1.4-2.3-1.5-2.5c0-1-0.3-1.3-0.7-1.3c-0.3,0-0.6,0.2-1,0.4c-0.4,0.3-0.7,0.4-0.9,0.4
			c-0.6,0,0-1.1-1-1.1c-0.9,0-0.7-2.5-1.5-2.5c0,0,0,0,0,0c-1.3,0.1-2.2,0.3-3.5,0.3c-1.2,0.1-2.2-0.1-2.3,1.3
			c-0.1,1-0.5,2.2-0.3,3.3c0.1,1.1-0.8,1.9,0,2.7c1.1,1.3-0.8,0.7-1.1,1.5c-0.4,0.9-0.3,0.6-1.2,1.2c-0.7,0.4-1.9,0.9-3,1
			c-0.7,0.1-2.8,0.4-3.4,0.7c-1.5,0.6-1.3,0.8-1.1,2.7c0.1,1.4-0.5,1.3-1.9,1.8c-0.3,0.1-0.7,0.2-1,0.2c-0.4,0-0.8-0.1-1.2-0.4
			c-0.6-0.4-1.8-0.5-2.8-0.7c-1.4-0.3-2.7-0.4-3-1.4c-0.2-0.6-0.3-2.2-0.7-2.2c0,0,0,0,0,0c-0.2,0-0.4,0-0.6,0
			c-0.7,0-1.4-0.1-1.9-0.5c-0.4-0.3-0.7-0.5-1-0.5c-0.4,0-0.7,0.4-0.8,1.2c-0.3,1.3,0.8,0.9,0.8,2.4c0,1.6,0.6,2.4,0.7,4.3
			c0.1,1.7-0.2,1.7,0.5,2.8c0.5,0.9,0.1,1.3-0.5,1.3c-0.3,0-0.8-0.1-1.2-0.4c-0.6-0.4-1-0.5-1.3-0.5c-0.4,0-0.7,0.3-1.4,0.3h0
			c-0.3,0-0.6-0.2-0.9-0.4c-0.3-0.2-0.6-0.4-0.9-0.4c-0.2,0-0.3,0.1-0.4,0.3c-0.2,0.4-0.9,0.8-1.5,0.8c-0.5,0-1.1-0.2-1.5-0.8
			c-0.7-0.9-0.3-2.3-1.1-2.6C15,22,14.8,22,14.5,22c-0.2,0-0.4,0-0.6,0c-0.2,0-0.5,0-0.8,0c-0.1,0-0.2,0-0.3,0h-0.1
			c-0.6,0-0.8,0.3-1,0.5c-0.2,0.3-0.3,0.5-0.6,0.5h0c-0.2,0-0.4,0-0.5,0c-0.5,0-0.9,0-1.6,0.1H8.9c-0.3,0-0.7-0.2-1-0.3
			c-0.4-0.1-0.7-0.3-1-0.3c-0.2,0-0.3,0-0.5,0.2c-0.7,0.6-3.1-0.3-3.4,1.3c-0.1,0.5-0.6,1.5,0.2,1.6c1.7,0.3,0,2,1.5,2h0.1
			c1,0,1.5,0.8-0.7,0.9c-1.8,0.1-1.3,1,0.2,1.6c0.7,0.3,0.5,2,1.3,2c0,0,0,0,0,0c0.4,0,1.1-0.4,1.9-0.4c0.5,0,1.1,0.2,1.7,0.7
			c0.9,0.8,1.9,1.2,3,1.2c1.3,0.1,0.5,1.8,1.1,1.8c0,0,0.1,0,0.2,0c1.3-0.4,1.9-0.6,2.3-0.6c0.5,0,0.3,0.3,0.1,0.6
			c-0.3,0.6-0.5,1.1,0.2,1.1c0.2,0,0.4,0,0.7-0.1c0.3-0.1,0.6-0.1,0.7-0.1c0.7,0,0.1,0.8,0,1.7c0,0.8-0.1,1.4,1.4,1.4
			c0.1,0,0.3,0,0.4,0c0.2,0,0.4,0,0.5,0c1.7,0-0.8,0.7,0,1.4c0.7,0.5,0.9,2,0.5,2c-0.1,0-0.1,0-0.2-0.1c-0.3-0.2-0.6-0.3-0.8-0.3
			c-0.5,0-0.4,0.8,1.3,2.5c1.1,1,0.9,1.6,1.7,3c0.4,0.7,1.1,1.8,2.1,1.8c0,0,0,0,0.1,0c0.4,0,0.7-0.1,1-0.1c0.5,0,0.9,0.3,0.7,1.9
			c-0.1,1.1-0.2,1.3-0.2,2.5c0,1.9-0.3,0.9-0.6,1.8C25.1,56.5,25.5,57,26,57c0.8,0,1.3,1.1,1.9,1.9c0.4,0.5,0.6,1.1,0.7,2.1
			c0.1,0.6,0,0.9-0.2,0.9c-0.2,0-0.5-0.4-0.7-1.2c-0.5-1.5-0.9-2-1.2-2.2c-0.2-0.1-0.3-0.1-0.4-0.1c-0.5,0-0.8,0.7-1,1.8
			c-0.2,1.2-0.4,3-0.7,4.4c-0.1,0.5-1.1,2.1-0.1,2.1c0,0,0,0,0,0h0.1c1.9,0,1.6,1.2,0.1,1.2c-1.3,0-0.4,1-1.1,3
			c-0.3,0.9-0.6,1.5-1.1,2.6c-0.5,1.2-0.7,1.8-1.2,3c-0.3,0.7-0.1,1.5-0.4,2.3c-0.5,1.1-1,1.4-2.5,1.5c-0.2,0,0.4-0.2,1.3,0.8
			c0.2,0.3,0.6,0.3,1.1,0.3h0.3c0.1,0,0.2,0,0.3,0c0.2,0,0.5,0,0.6,0.1c0.3,0.1-0.6,1.5-0.3,2.3c0.3,0.6,1.2,0.2,2.1,0.7
			c0.4,0.2,0.5,0.9,1.7,0.9c0.1,0,0.1,0,0.2,0h0.1c0.7,0,1.7,0.3,1.7,1.2c0,0.5,0.3,0.6,0.7,0.6c0.3,0,0.6,0,0.9-0.1
			c0.4,0,0.8-0.1,1.1-0.1c0.4,0,0.7,0.1,0.9,0.7c0.3,0.8,0.4,0.9,1,0.9c0.1,0,0.3,0,0.5,0c0.9,0,1.6,0,2.5-0.1c0.1,0,0.2,0,0.3,0
			c0.3,0,0.5,0.1,0.6,0.2c0.1,0.1,0.3,0.2,0.7,0.2c0.1,0,0.3,0,0.4,0c0.8-0.1,0.8-0.3,0.7-1.2c0-0.2,0.1-0.2,0.3-0.2
			c0.5,0,1.5,0.4,1.7,0.6c0.8,0.5,1.3,1,1.8,1c0,0,0,0,0.1,0c0,0,0.1,0,0.1,0c0.6,0,1,0.8,1.4,0.8c0.6,0,0.5,1.2,0.6,1.7
			c0,0.7,0.2,0.9,0.6,0.9c0.2,0,0.6-0.1,1-0.1c0.5,0,0.8-0.1,1.1-0.1c0.4,0,0.7,0.1,1,0.6c0.2,0.3,0.1,0.6,0.8,0.6c0,0,0.1,0,0.2,0
			c1.1,0,0.5-0.6,1.7-0.6h0c0.7,0,1,0.3,1.3,0.5c0.3,0.3,0.5,0.5,1,0.5c0.1,0,0.2,0,0.3,0c1.3-0.2,0.4-1,2.2-1.1
			c0.9-0.1,0.6-0.4,1.1-0.4c0,0,0.1,0,0.1,0c0.1-0.9,0-1-0.1-2.1c0-1-0.2-1.6,0-2.5c0.1-0.5,0-1.7,0.5-2.3c0.4-0.4,2.8-1.3,3.9-2.4
			c0.9-0.9,1.2-1.8,2.9-1.9h0.1c0.6,0,1,0.3,1.3,0.7c0.3,0.3,0.5,0.7,0.8,0.7h0c0.3,0,0.5,0,0.7,0c1.5,0,1.2,0.8,2.4,1.1
			c0.2,0,0.3,0,0.4,0c0.4,0,0.6-0.1,0.8-0.2c0.2-0.1,0.4-0.2,0.6-0.2c0.1,0,0.3,0,0.5,0.1c0.8,0.3,2.2,0.5,2.7,1c1,1,2,0.9,2.8,1.6
			c0.1,0.1,2,0.5,3.5,0.5c0.2,0,0.5,0,0.7,0c1.1-0.1,2.9-0.7,3-1.2c0.2-0.6,0.3-1.1,1.2-2.1c0.8-0.9,1.6-1.6,2.6-2.1
			c1.2-0.6,1.8-1.8,2.5-2.5c1.1-1.1,2.3-1.7,1.9-2.6c-0.3-0.5-0.5-0.7-0.8-0.7c-0.3,0-0.5,0.2-0.8,0.3c-0.3,0.1-0.6,0.3-0.9,0.3
			c-0.3,0-0.5-0.1-0.9-0.3c-0.3-0.3-2.9-1.1-3-2c-0.1-0.7-0.3-1.1,0.3-2.5c0.5-1,1.8-1.6,0.7-2.6c-0.6-0.5-1-0.4-1.7-1
			c-0.6-0.5-1.3-0.7-1.2-1.9c0.1-1.1,1.5-1.2,2.7-1.2c0.5,0,0.9-0.6,1-1.2c0.1-0.9-0.2-1.4-1.2-3c-0.3-0.4-1.1-0.2-1.2-1.8
			c-0.1-1.7,1.6-1,1.4-2.5c-0.1-0.9-2.2-0.6-1.9-1.4c0.1-0.1,0.7-2.8-0.2-3h-0.1c-0.7,0-3.3,0.2-3.2,1.3c0,0.7,0,1.9-0.6,2
			c-0.3,0.1-0.5,0.1-0.8,0.1c-0.9,0-1.2-0.5-0.8-1.5c0.5-1.2,1-1.2,1.3-2.5c0.6-3.1,0.9-1.8,2.1-2.8c0,0-0.2-2.1,0.7-2.3
			c1.1-0.4,1.4-0.8,2.4-1.9c0.3-0.4,0.4-2,0.7-2.9c0.1-0.3,0.4-0.4,0.7-0.4c0.2,0,0.4,0,0.6,0.1c0.2,0,0.4,0,0.6,0h0.1
			c1.7-0.1,2.4-0.8,2.1-2.3c-0.3-1.3,0.5-1.5,0.3-3.2c-0.2-1.5,0.1-2,0.6-3.2c0.4-0.8,0.5-2.2,0.7-3.2c0.3-1.8,0.3-1.2,1.6-2
			C94,26.3,94.4,24,92.7,24z M41.6,32.4l-1-1L45,27l-4.4-4.4l1-1L47,27L41.6,32.4z M50.3,12.8l4.4,4.4l4.4-4.4l1,1l-5.4,5.4
			l-5.4-5.4L50.3,12.8z M59.2,41.2l-4.4-4.4l-4.4,4.4l-1-1l5.4-5.4l5.4,5.4L59.2,41.2z M55,32.4L49.6,27l5.4-5.4l5.5,5.4L55,32.4z
			 M69,31.4l-1,1L62.6,27l5.4-5.4l1,1L64.6,27L69,31.4z"/>
	</g>
	<rect x="51.2" y="23.2" transform="matrix(0.7078 -0.7065 0.7065 0.7078 -3.0018 46.7456)" class="st3" width="7.7" height="7.7"/>
	<polygon class="st3" points="64.8,27 69.3,31.4 68.3,32.4 62.8,27 68.3,21.6 69.3,22.6 	"/>
	<polygon class="st3" points="47,27 41.6,32.4 40.6,31.4 45,27 40.6,22.6 41.6,21.6 	"/>
	<polygon class="st3" points="60.4,40.2 59.4,41.2 55,36.8 50.6,41.2 49.6,40.2 55,34.8 	"/>
	<polygon class="st3" points="60.4,13.8 55,19.2 49.6,13.8 50.6,12.8 55,17.2 59.4,12.8 	"/>
</g>
</svg>
