<?xml version="1.0" encoding="utf-8"?>
<!-- Generator: Adobe Illustrator 19.1.0, SVG Export Plug-In . SVG Version: 6.00 Build 0)  -->
<svg version="1.1" id="Calque_1" xmlns="http://www.w3.org/2000/svg" xmlns:xlink="http://www.w3.org/1999/xlink" x="0px" y="0px"
	 viewBox="0 0 516.1 103.4" style="enable-background:new 0 0 516.1 103.4;" xml:space="preserve">
<style type="text/css">
	.st0{fill:#1D1D1B;}
	.st1{fill-rule:evenodd;clip-rule:evenodd;fill:#A11E3B;}
	.st2{fill-rule:evenodd;clip-rule:evenodd;fill:#010000;}
	.st3{fill:#A11E3B;}
</style>
<g>
	<g>
		<path class="st0" d="M122.5,16.1H144c14.4,0,20.5,7.4,20.5,28.9c0,22.4-2.9,32.9-22,32.9h-20.1V16.1z M137,67.2h3.9
			c6.7,0,9.1-2.7,9.1-21.2c0-15.1-1.2-19.1-8.9-19.1H137V67.2z"/>
		<path class="st0" d="M172.2,16.1h35.7v11.8h-21.2v12.4h19.9V52h-19.9v14.1h22.2v11.8h-36.7V16.1z M188.3,0h13.5l-8.7,12.3H184
			L188.3,0z"/>
		<path class="st0" d="M241.3,37.6c0-9-1-13-5.9-13c-5.8,0-6.3,5.5-6.3,21.7c0,18.3,0.6,23.1,6.7,23.1c5.4,0,6-6.1,6.1-15.8h14v2.2
			c0,13.3-3.7,23.3-21.7,23.3c-18.6,0-20.1-13.9-20.1-32.5c0-15.8,0.9-31.7,21.5-31.7c12.8,0,19.8,5.5,19.8,20.1v2.6H241.3z"/>
		<path class="st0" d="M262.2,16.1h14.5v61.8h-14.5V16.1z"/>
		<path class="st0" d="M285.9,16.1h21.5c14.4,0,20.5,7.4,20.5,28.9c0,22.4-2.9,32.9-22,32.9h-20.1V16.1z M300.5,67.2h3.9
			c6.8,0,9.1-2.7,9.1-21.2c0-15.1-1.2-19.1-8.9-19.1h-4.1V67.2z"/>
		<path class="st0" d="M335.6,16.1h35.7v11.8h-21.2v12.4h19.9V52h-19.9v14.1h22.2v11.8h-36.7V16.1z"/>
		<path class="st0" d="M418.8,57.5c0,12.1-3.5,21.6-20.3,21.6c-16.9,0-20.3-9.5-20.3-21.6V16.1h14.5v45.6c0,4.8,1.9,7.7,5.8,7.7
			s5.8-2.9,5.8-7.7V16.1h14.5V57.5z"/>
		<path class="st0" d="M427,16.1h24.4c12.4,0,16.6,7.6,16.6,16.1c0,9-3.6,13.4-10.4,15.1v0.2c9.3,1.3,9.8,7.1,10,15.4
			c0.3,12.2,0.7,13.4,2.8,14.3v0.8h-15.7c-1.1-2.1-1.6-5.5-1.6-12.5c0-10.7-1.5-13-6.1-13h-5.5v25.5H427V16.1z M441.5,42.1h4.5
			c5.9,0,7.4-4.4,7.4-8c0-4.7-1.7-7.8-7.5-7.8h-4.4V42.1z"/>
		<path class="st0" d="M488.7,59v2.2c0,4.7,1.3,8.2,6.3,8.2c5.1,0,6.6-3.8,6.6-7.4c0-13.3-26.6-5.9-26.6-29
			c0-9.9,5.3-18.2,20.3-18.2c14.5,0,19.7,7.4,19.7,16.9v1.5h-14c0-2.9-0.3-5.1-1.2-6.5c-0.9-1.5-2.2-2.2-4.4-2.2
			c-3.6,0-5.8,2.2-5.8,6.7c0,12.9,26.6,6.4,26.6,28.2c0,14-7.8,19.6-21.1,19.6c-10.6,0-20.3-3.2-20.3-16.1v-4H488.7z"/>
	</g>
</g>
<g>
	<path class="st1" d="M91.3,14.7C69.9,0.3,40.8,6,26.4,27.5C12,48.9,17.7,78,39.2,92.4c21.5,14.4,50.5,8.7,64.9-12.8
		C118.5,58.2,112.8,29.1,91.3,14.7 M98.2,79.8c-13,19.3-39.2,24.5-58.6,11.5c-19.4-13-24.5-39.2-11.5-58.5
		c13-19.3,39.2-24.5,58.6-11.5C106.1,34.3,111.2,60.5,98.2,79.8"/>
	<path class="st2" d="M81.9,36.9c0,0,0-0.1,0-0.1c0-0.1,0-0.2,0-0.3c0-0.1-0.1-0.2-0.1-0.3l2.9-7.6l-7.1,5.5l-8.5-5.8l3.6,9.3
		l-8.5,5.9l6.7,0.5c-4.8,5.4-10.7,11.5-17.7,17.8C44.1,70,32.7,79.3,22.9,85.9c0.5,0.8,0.7,0.9,0.9,1.2c8.2-5.7,20-14.1,30.4-22.4
		C62.6,58.1,70,51.5,76,45.2l2.3,5.4l1.5-6.4l13.4,0.5L81.9,36.9z"/>
	<path class="st2" d="M63.4,41.3l-13.1-1l-0.9-6.5L46,39.9l-11.1-0.5l7.8,6.8l-0.9,1.9C33.7,57.1,16.7,71.6,0,83.6
		c0.4,0.7,0.6,1.1,0.6,1.1s26-16.9,43-32.5l3.6-2l4.9,4L51.3,48L63.4,41.3z"/>
	<path class="st2" d="M90.6,69.9l-10.9-2.8l-1.6-7l-2.6,6l-13.1-2.9l9.5,9.6c-7.9,7.8-22.5,18.2-41.3,28.9c0.4,0.8,0.7,1,0.7,1
		c9.5-5.1,23.4-12.9,38.7-23.8l5.8-2.4L83,84l-1.8-9.8L90.6,69.9z"/>
</g>
<g>
	<path class="st3" d="M389.9,85.9h5.3l4,11.8h0l3.8-11.8h5.3V103h-3.5V90.9h0l-4.2,12.1h-2.9l-4.2-12h0v12h-3.5V85.9z"/>
	<path class="st3" d="M416.3,85.9h3.9l6.4,17.1h-3.9l-1.3-3.8H415l-1.3,3.8h-3.8L416.3,85.9z M415.9,96.4h4.4l-2.2-6.3h0L415.9,96.4
		z"/>
	<path class="st3" d="M440.4,101.1c-1.3,1.7-3,2.4-4.7,2.4c-5.3,0-8.4-4-8.4-8.9c0-5.1,3.1-9,8.4-9c3.5,0,6.8,2.2,7.2,6h-3.6
		c-0.4-1.9-1.8-2.9-3.6-2.9c-3.4,0-4.7,2.9-4.7,5.9c0,2.9,1.3,5.7,4.7,5.7c2.4,0,3.9-1.3,4.1-3.7H436v-2.8h7.2v9.3h-2.4L440.4,101.1
		z"/>
	<path class="st3" d="M451,85.9h3.9l6.4,17.1h-3.9l-1.3-3.8h-6.4l-1.3,3.8h-3.8L451,85.9z M450.6,96.4h4.4l-2.2-6.3h0L450.6,96.4z"
		/>
	<path class="st3" d="M461.6,100l9.2-11h-8.5v-3.2h13.5v3l-9.2,11h9.4v3.2h-14.4V100z"/>
	<path class="st3" d="M478.3,85.9h3.8V103h-3.8V85.9z"/>
	<path class="st3" d="M485.3,85.9h3.7l7.2,11.5h0V85.9h3.5V103h-3.8l-7.1-11.5h0V103h-3.5V85.9z"/>
	<path class="st3" d="M503.1,85.9h12.8V89h-9v3.7h8.3v2.9h-8.3v4.2h9.2v3.2h-13V85.9z"/>
</g>
<rect x="122.5" y="94.4" class="st0" width="256.8" height="0.5"/>
<rect x="379.3" y="84.9" transform="matrix(0.8936 0.4488 -0.4488 0.8936 82.7582 -160.2885)" class="st0" width="0.5" height="19.2"/>
</svg>
